<svg width="13" height="20" viewBox="0 0 13 20" fill="none" xmlns="http://www.w3.org/2000/svg">
<path d="M3 0.703125C2.33696 0.703125 1.70107 0.966517 1.23223 1.43536C0.763392 1.9042 0.5 2.54008 0.5 3.20312C0.5 3.86617 0.763392 4.50205 1.23223 4.97089C1.70107 5.43973 2.33696 5.70312 3 5.70312C3.66304 5.70312 4.29893 5.43973 4.76777 4.97089C5.23661 4.50205 5.5 3.86617 5.5 3.20312C5.5 2.54008 5.23661 1.9042 4.76777 1.43536C4.29893 0.966517 3.66304 0.703125 3 0.703125Z" fill="#2490D3"/>
<path d="M10 0.703125C9.33696 0.703125 8.70107 0.966517 8.23223 1.43536C7.76339 1.9042 7.5 2.54008 7.5 3.20312C7.5 3.86617 7.76339 4.50205 8.23223 4.97089C8.70107 5.43973 9.33696 5.70312 10 5.70312C10.663 5.70312 11.2989 5.43973 11.7678 4.97089C12.2366 4.50205 12.5 3.86617 12.5 3.20312C12.5 2.54008 12.2366 1.9042 11.7678 1.43536C11.2989 0.966517 10.663 0.703125 10 0.703125Z" fill="#2490D3"/>
<path d="M3 7.70312C2.33696 7.70312 1.70107 7.96652 1.23223 8.43536C0.763392 8.9042 0.5 9.54008 0.5 10.2031C0.5 10.8662 0.763392 11.5021 1.23223 11.9709C1.70107 12.4397 2.33696 12.7031 3 12.7031C3.66304 12.7031 4.29893 12.4397 4.76777 11.9709C5.23661 11.5021 5.5 10.8662 5.5 10.2031C5.5 9.54008 5.23661 8.9042 4.76777 8.43536C4.29893 7.96652 3.66304 7.70312 3 7.70312Z" fill="#2490D3"/>
<path d="M10 7.70312C9.33696 7.70312 8.70107 7.96652 8.23223 8.43536C7.76339 8.9042 7.5 9.54008 7.5 10.2031C7.5 10.8662 7.76339 11.5021 8.23223 11.9709C8.70107 12.4397 9.33696 12.7031 10 12.7031C10.663 12.7031 11.2989 12.4397 11.7678 11.9709C12.2366 11.5021 12.5 10.8662 12.5 10.2031C12.5 9.54008 12.2366 8.9042 11.7678 8.43536C11.2989 7.96652 10.663 7.70312 10 7.70312Z" fill="#2490D3"/>
<path d="M3 14.7031C2.33696 14.7031 1.70107 14.9665 1.23223 15.4354C0.763392 15.9042 0.5 16.5401 0.5 17.2031C0.5 17.8662 0.763392 18.5021 1.23223 18.9709C1.70107 19.4397 2.33696 19.7031 3 19.7031C3.66304 19.7031 4.29893 19.4397 4.76777 18.9709C5.23661 18.5021 5.5 17.8662 5.5 17.2031C5.5 16.5401 5.23661 15.9042 4.76777 15.4354C4.29893 14.9665 3.66304 14.7031 3 14.7031Z" fill="#2490D3"/>
<path d="M9.99095 14.7035C9.65886 14.6975 9.32889 14.7576 9.02032 14.8805C8.71174 15.0034 8.43075 15.1866 8.19376 15.4193C7.95676 15.652 7.76851 15.9296 7.64 16.2359C7.5115 16.5422 7.44531 16.871 7.44531 17.2031C7.44531 17.5353 7.5115 17.8641 7.64 18.1704C7.76851 18.4766 7.95676 18.7542 8.19376 18.987C8.43075 19.2197 8.71174 19.4028 9.02032 19.5257C9.32889 19.6486 9.65886 19.7088 9.99095 19.7027C10.646 19.6907 11.2701 19.4221 11.7291 18.9547C12.1881 18.4872 12.4453 17.8583 12.4453 17.2031C12.4453 16.548 12.1881 15.919 11.7291 15.4516C11.2701 14.9841 10.646 14.7155 9.99095 14.7035Z" fill="#2490D3"/>
</svg>
