<svg width="33" height="33" viewBox="0 0 33 33" fill="none" xmlns="http://www.w3.org/2000/svg">
<path d="M20.2011 21.5488H12.1207C11.7635 21.5488 11.4209 21.6907 11.1684 21.9433C10.9158 22.1958 10.7739 22.5384 10.7739 22.8956C10.7739 23.2527 10.9158 23.5953 11.1684 23.8478C11.4209 24.1004 11.7635 24.2423 12.1207 24.2423H20.2011C20.5582 24.2423 20.9008 24.1004 21.1533 23.8478C21.4059 23.5953 21.5478 23.2527 21.5478 22.8956C21.5478 22.5384 21.4059 22.1958 21.1533 21.9433C20.9008 21.6907 20.5582 21.5488 20.2011 21.5488Z" fill="#2490D3"/>
<path d="M12.1207 18.8536H16.1609C16.518 18.8536 16.8606 18.7117 17.1131 18.4592C17.3657 18.2066 17.5076 17.8641 17.5076 17.5069C17.5076 17.1497 17.3657 16.8072 17.1131 16.5546C16.8606 16.302 16.518 16.1602 16.1609 16.1602H12.1207C11.7635 16.1602 11.4209 16.302 11.1684 16.5546C10.9158 16.8072 10.7739 17.1497 10.7739 17.5069C10.7739 17.8641 10.9158 18.2066 11.1684 18.4592C11.4209 18.7117 11.7635 18.8536 12.1207 18.8536Z" fill="#2490D3"/>
<path d="M26.5848 11.2184L19.2586 3.13802C19.1327 2.99851 18.9789 2.8869 18.8073 2.81036C18.6357 2.73382 18.4499 2.69405 18.262 2.6936H8.83485C8.38739 2.68826 7.94327 2.77112 7.52784 2.93744C7.11241 3.10375 6.73381 3.35027 6.41366 3.66292C6.09351 3.97556 5.83809 4.34821 5.66197 4.75958C5.48584 5.17095 5.39248 5.61298 5.38721 6.06044V26.2614C5.39248 26.7089 5.48584 27.1509 5.66197 27.5623C5.83809 27.9737 6.09351 28.3463 6.41366 28.659C6.73381 28.9716 7.11241 29.2181 7.52784 29.3844C7.94327 29.5508 8.38739 29.6336 8.83485 29.6283H23.4873C24.3909 29.6387 25.2616 29.2899 25.9081 28.6586C26.5546 28.0272 26.9239 27.165 26.9349 26.2614V12.1207C26.9341 11.787 26.8093 11.4654 26.5848 11.2184ZM18.8545 6.7338L22.5446 10.774H19.8511C19.7101 10.7655 19.5722 10.729 19.4454 10.6666C19.3186 10.6042 19.2056 10.5172 19.1128 10.4106C19.02 10.304 18.9494 10.1801 18.9051 10.0459C18.8607 9.91178 18.8436 9.77014 18.8545 9.62928V6.7338ZM23.4873 26.9348H8.83485C8.74108 26.9403 8.64716 26.9272 8.55846 26.8963C8.46977 26.8653 8.38805 26.8172 8.31798 26.7547C8.24792 26.6921 8.19089 26.6163 8.15017 26.5317C8.10945 26.4471 8.08583 26.3552 8.08067 26.2614V6.06044C8.08583 5.96665 8.10945 5.87481 8.15017 5.79017C8.19089 5.70553 8.24792 5.62976 8.31798 5.5672C8.38805 5.50465 8.46977 5.45654 8.55846 5.42562C8.64716 5.39471 8.74108 5.38161 8.83485 5.38707H16.1611V9.62928C16.1393 10.6213 16.5109 11.5817 17.1947 12.3008C17.8784 13.0198 18.8189 13.4393 19.8107 13.4675H24.2415V26.2614C24.2363 26.3552 24.2127 26.4471 24.172 26.5317C24.1313 26.6163 24.0742 26.6921 24.0042 26.7547C23.9341 26.8172 23.8524 26.8653 23.7637 26.8963C23.675 26.9272 23.5811 26.9403 23.4873 26.9348Z" fill="#2490D3"/>
</svg>
