<svg width="33" height="33" viewBox="0 0 33 33" fill="none" xmlns="http://www.w3.org/2000/svg">
<path d="M29.6283 16.162C29.6283 12.5899 28.2093 9.16411 25.6834 6.63824C23.1575 4.11238 19.7317 2.69336 16.1596 2.69336C12.5875 2.69336 9.16167 4.11238 6.6358 6.63824C4.10994 9.16411 2.69092 12.5899 2.69092 16.162C2.69092 19.7342 4.10994 23.16 6.6358 25.6858C9.16167 28.2117 12.5875 29.6307 16.1596 29.6307C19.7317 29.6307 23.1575 28.2117 25.6834 25.6858C28.2093 23.16 29.6283 19.7342 29.6283 16.162ZM26.8405 14.8153H22.8946C22.6725 11.648 21.5873 8.60195 19.7567 6.00767C21.6374 6.67561 23.2956 7.85279 24.5464 9.40796C25.7972 10.9631 26.5914 12.8352 26.8405 14.8153ZM12.2285 17.5088H20.2011C19.8565 20.836 18.4383 23.9607 16.1609 26.4107C13.8851 23.9709 12.4994 20.8343 12.2285 17.5088ZM12.2285 14.8153C12.5421 11.5048 13.9221 8.38562 16.1609 5.92687C18.4567 8.35923 19.8781 11.4862 20.2011 14.8153H12.2285ZM12.7133 5.96727C10.8731 8.57592 9.77043 11.6326 9.52155 14.8153H5.48135C5.73575 12.8107 6.54878 10.918 7.82758 9.35346C9.10639 7.78889 10.7994 6.61549 12.7133 5.96727ZM5.48135 17.5088H9.52155C9.74335 20.6888 10.8385 23.7459 12.6864 26.3433C10.7794 25.692 9.09327 24.5188 7.81964 22.9571C6.54601 21.3954 5.7359 19.5078 5.48135 17.5088ZM19.6894 26.3299C21.5323 23.7316 22.6396 20.684 22.8946 17.5088H26.8675C26.6128 19.5023 25.8056 21.3848 24.5371 22.9436C23.2687 24.5024 21.5895 25.6753 19.6894 26.3299Z" fill="#2490D3"/>
</svg>
