<svg width="18" height="19" viewBox="0 0 18 19" fill="none" xmlns="http://www.w3.org/2000/svg">
<g clip-path="url(#clip0_6229_3532)">
<path d="M9 0.5C11.3869 0.5 13.6761 1.44821 15.364 3.13604C17.0518 4.82387 18 7.11305 18 9.5C18 11.8869 17.0518 14.1761 15.364 15.864C13.6761 17.5518 11.3869 18.5 9 18.5C6.61305 18.5 4.32387 17.5518 2.63604 15.864C0.948212 14.1761 0 11.8869 0 9.5C0 7.11305 0.948212 4.82387 2.63604 3.13604C4.32387 1.44821 6.61305 0.5 9 0.5ZM9 1.625C7.96584 1.625 6.94181 1.82869 5.98637 2.22445C5.03093 2.6202 4.1628 3.20027 3.43153 3.93153C2.70027 4.6628 2.1202 5.53093 1.72445 6.48637C1.32869 7.44181 1.125 8.46584 1.125 9.5C1.125 10.5342 1.32869 11.5582 1.72445 12.5136C2.1202 13.4691 2.70027 14.3372 3.43153 15.0685C4.1628 15.7997 5.03093 16.3798 5.98637 16.7756C6.94181 17.1713 7.96584 17.375 9 17.375C11.0886 17.375 13.0916 16.5453 14.5685 15.0685C16.0453 13.5916 16.875 11.5886 16.875 9.5C16.875 7.41142 16.0453 5.40838 14.5685 3.93153C13.0916 2.45468 11.0886 1.625 9 1.625ZM9 12.3125C9.22378 12.3125 9.43839 12.4014 9.59662 12.5596C9.75486 12.7179 9.84375 12.9325 9.84375 13.1562C9.84375 13.38 9.75486 13.5946 9.59662 13.7529C9.43839 13.9111 9.22378 14 9 14C8.77622 14 8.56161 13.9111 8.40338 13.7529C8.24514 13.5946 8.15625 13.38 8.15625 13.1562C8.15625 12.9325 8.24514 12.7179 8.40338 12.5596C8.56161 12.4014 8.77622 12.3125 9 12.3125ZM9 5C9.13165 4.99996 9.25915 5.04609 9.36029 5.13038C9.46143 5.21466 9.5298 5.33175 9.5535 5.46125L9.5625 5.5625V10.625C9.56276 10.7656 9.51038 10.9011 9.41568 11.005C9.32098 11.1089 9.19081 11.1735 9.05083 11.1862C8.91084 11.1989 8.77116 11.1588 8.65931 11.0736C8.54746 10.9885 8.47154 10.8646 8.4465 10.7262L8.4375 10.625V5.5625C8.4375 5.41332 8.49676 5.27024 8.60225 5.16475C8.70774 5.05926 8.85082 5 9 5Z" fill="#EC6363"/>
</g>
<defs>
<clipPath id="clip0_6229_3532">
<rect width="18" height="18" fill="white" transform="translate(0 0.5)"/>
</clipPath>
</defs>
</svg>
