<svg width="7" height="16" viewBox="0 0 7 16" fill="none" xmlns="http://www.w3.org/2000/svg">
<path d="M3.75079 14.8755C3.75079 15.0412 3.68494 15.2002 3.56773 15.3174C3.45052 15.4346 3.29155 15.5005 3.12579 15.5005C2.96003 15.5005 2.80106 15.4346 2.68385 15.3174C2.56664 15.2002 2.50079 15.0412 2.50079 14.8755L2.50079 2.63421L1.06829 4.06796C1.01018 4.12607 0.941194 4.17217 0.865269 4.20362C0.789345 4.23507 0.70797 4.25125 0.62579 4.25125C0.54361 4.25125 0.462235 4.23507 0.386311 4.20362C0.310387 4.17217 0.2414 4.12607 0.18329 4.06796C0.12518 4.00985 0.0790848 3.94087 0.0476359 3.86494C0.016187 3.78902 5.59558e-07 3.70764 5.46559e-07 3.62546C5.33559e-07 3.54328 0.0161869 3.46191 0.0476358 3.38598C0.0790846 3.31006 0.12518 3.24107 0.18329 3.18296L2.68329 0.684212L2.69204 0.675462C2.80954 0.561341 2.96729 0.49813 3.13108 0.499534C3.29487 0.500938 3.45151 0.566843 3.56704 0.682961L6.06704 3.18296C6.12515 3.24099 6.17126 3.30989 6.20274 3.38574C6.23422 3.46159 6.25045 3.5429 6.25051 3.62502C6.25057 3.70714 6.23445 3.78847 6.20308 3.86436C6.17171 3.94026 6.12569 4.00923 6.06767 4.06734C6.00964 4.12545 5.94073 4.17156 5.86488 4.20304C5.78903 4.23452 5.70773 4.25075 5.62561 4.25081C5.54349 4.25087 5.46216 4.23475 5.38626 4.20338C5.31037 4.172 5.2414 4.12599 5.18329 4.06796L3.75079 2.63421L3.75079 14.8755Z" fill="url(#paint0_linear_4770_1054)"/>
<defs>
<linearGradient id="paint0_linear_4770_1054" x1="-0.17669" y1="15.4877" x2="6.50258" y2="15.4664" gradientUnits="userSpaceOnUse">
<stop stop-color="#9955D4"/>
<stop offset="1" stop-color="#425AC5"/>
</linearGradient>
</defs>
</svg>
