<svg width="18" height="24" viewBox="0 0 18 24" fill="none" xmlns="http://www.w3.org/2000/svg">
<path fill-rule="evenodd" clip-rule="evenodd" d="M5 0C4.73478 0 4.48043 0.105357 4.29289 0.292893C4.10536 0.48043 4 0.734784 4 1C4 1.26522 4.10536 1.51957 4.29289 1.70711C4.48043 1.89464 4.73478 2 5 2H13C13.2652 2 13.5196 1.89464 13.7071 1.70711C13.8946 1.51957 14 1.26522 14 1C14 0.734784 13.8946 0.48043 13.7071 0.292893C13.5196 0.105357 13.2652 0 13 0H5ZM0 5C0 4.73478 0.105357 4.48043 0.292893 4.29289C0.48043 4.10536 0.734784 4 1 4H17C17.2652 4 17.5196 4.10536 17.7071 4.29289C17.8946 4.48043 18 4.73478 18 5C18 5.26522 17.8946 5.51957 17.7071 5.70711C17.5196 5.89464 17.2652 6 17 6H16V22C16 22.5304 15.7893 23.0391 15.4142 23.4142C15.0391 23.7893 14.5304 24 14 24H4C3.46957 24 2.96086 23.7893 2.58579 23.4142C2.21071 23.0391 2 22.5304 2 22V6H1C0.734784 6 0.48043 5.89464 0.292893 5.70711C0.105357 5.51957 0 5.26522 0 5ZM4 6H14V22H4V6Z" fill="url(#paint0_linear_4654_7771)"/>
<defs>
<linearGradient id="paint0_linear_4654_7771" x1="-0.508834" y1="23.9796" x2="18.7255" y2="23.8691" gradientUnits="userSpaceOnUse">
<stop stop-color="#9955D4"/>
<stop offset="1" stop-color="#425AC5"/>
</linearGradient>
</defs>
</svg>
