<svg width="17" height="13" viewBox="0 0 17 13" fill="none" xmlns="http://www.w3.org/2000/svg">
<path d="M8.38776 12.9433C8.40112 12.961 8.41819 12.9753 8.43768 12.9851C8.45718 12.9949 8.47857 13 8.50026 13C8.52194 13 8.54334 12.9949 8.56283 12.9851C8.58232 12.9753 8.59939 12.961 8.61276 12.9433L10.6128 10.3267C10.6292 10.3049 10.6395 10.2788 10.6423 10.2513C10.6451 10.2238 10.6403 10.196 10.6286 10.1712C10.6169 10.1463 10.5986 10.1254 10.5759 10.1108C10.5532 10.0962 10.527 10.0884 10.5003 10.0885L9.18061 10.0885L9.18061 5.61235C9.18061 5.5311 9.11633 5.46462 9.03776 5.46462L7.96633 5.46462C7.88775 5.46462 7.82347 5.5311 7.82347 5.61235L7.82347 10.0866L6.50025 10.0866C6.38061 10.0866 6.31454 10.2288 6.38775 10.3249L8.38776 12.9433Z" fill="white"/>
<path d="M12.9297 10.1761C13.2887 10.177 13.6438 10.1043 13.9744 9.96261C14.3047 9.82105 14.6035 9.6137 14.8541 9.3534C15.3639 8.82616 15.6429 8.12463 15.6429 7.38636C15.6429 6.13349 14.8254 5.01926 13.6324 4.68694L13.6302 4.68633L13.2042 4.56979L13.0464 4.13825L13.0463 4.13794C12.876 3.67318 12.6382 3.23428 12.3382 2.8378C12.043 2.44653 11.6936 2.10143 11.2977 1.81343L11.2976 1.81336C10.479 1.2181 9.51193 0.901562 8.50357 0.901562C7.49521 0.901562 6.52816 1.2181 5.70952 1.81336L5.70941 1.81344C5.31511 2.10031 4.96465 2.44552 4.66912 2.83752C4.36957 3.23345 4.13144 3.6705 3.96085 4.13801C3.96078 4.13821 3.9607 4.13841 3.96063 4.13861L3.80199 4.57056L3.37497 4.68591L3.37497 4.6859L3.37303 4.68643C2.79931 4.84388 2.28914 5.19529 1.92657 5.67348L1.9258 5.6745C1.57197 6.14365 1.37684 6.70125 1.35741 7.29048L1.35739 7.29123C1.33369 8.04425 1.60296 8.77604 2.11587 9.32224L2.11589 9.32227C2.62969 9.86934 3.32671 10.1761 4.06964 10.1761H4.42857V10.5795H4.06964C2.39018 10.5795 1 9.1668 1 7.38636C1 5.89386 1.98353 4.65275 3.29172 4.29759L3.54118 4.22986L3.63016 3.98717C4.38118 1.93878 6.28746 0.5 8.50357 0.5C10.7194 0.5 12.6259 1.94037 13.377 3.98902L13.4658 4.2312L13.7146 4.29921C15.0195 4.65589 16 5.89527 16 7.38636C16 9.1668 14.6098 10.5795 12.9304 10.5795H12.5714M12.9297 10.1761C12.9295 10.1761 12.9292 10.1761 12.929 10.1761L12.9304 9.67614V10.1761H12.9297ZM12.9297 10.1761H12.5714M12.5714 10.1761V9.82386C12.5714 10.0028 12.4275 10.1761 12.2143 10.1761H12.5714ZM12.5714 10.1761V10.5795M12.5714 10.5795H12.2143C12.4275 10.5795 12.5714 10.7529 12.5714 10.9318V10.5795Z" fill="white" stroke="white"/>
</svg>
