<svg width="15" height="15" viewBox="0 0 15 15" fill="none" xmlns="http://www.w3.org/2000/svg">
<g clip-path="url(#clip0_3994_18822)">
<path d="M7.49962 12.5477V14.7112M0.288086 7.49962H2.45155H0.288086ZM12.5477 7.49962H14.7112H12.5477ZM7.49962 0.288086V2.45155V0.288086Z" stroke="url(#paint0_linear_3994_18822)" stroke-width="0.5" stroke-linecap="round" stroke-linejoin="round"/>
<path d="M7.50023 12.5483C10.2868 12.5483 12.5483 10.2868 12.5483 7.50023C12.5483 4.71369 10.2868 2.45215 7.50023 2.45215C4.71369 2.45215 2.45215 4.71369 2.45215 7.50023C2.45215 10.2868 4.71369 12.5483 7.50023 12.5483Z" stroke="url(#paint1_linear_3994_18822)" stroke-width="0.5" stroke-linecap="round" stroke-linejoin="round"/>
<path d="M7.50038 9.66384C8.69461 9.66384 9.66384 8.69461 9.66384 7.50038C9.66384 6.30614 8.69461 5.33691 7.50038 5.33691C6.30614 5.33691 5.33691 6.30614 5.33691 7.50038C5.33691 8.69461 6.30614 9.66384 7.50038 9.66384Z" stroke="url(#paint2_linear_3994_18822)" stroke-width="0.5" stroke-linecap="round" stroke-linejoin="round"/>
</g>
<defs>
<linearGradient id="paint0_linear_3994_18822" x1="-0.119633" y1="14.6989" x2="15.2921" y2="14.5809" gradientUnits="userSpaceOnUse">
<stop stop-color="#9955D4"/>
<stop offset="1" stop-color="#425AC5"/>
</linearGradient>
<linearGradient id="paint1_linear_3994_18822" x1="2.16674" y1="12.5397" x2="12.9549" y2="12.4571" gradientUnits="userSpaceOnUse">
<stop stop-color="#9955D4"/>
<stop offset="1" stop-color="#425AC5"/>
</linearGradient>
<linearGradient id="paint2_linear_3994_18822" x1="5.2146" y1="9.66016" x2="9.83811" y2="9.62474" gradientUnits="userSpaceOnUse">
<stop stop-color="#9955D4"/>
<stop offset="1" stop-color="#425AC5"/>
</linearGradient>
<clipPath id="clip0_3994_18822">
<rect width="15" height="15" fill="white"/>
</clipPath>
</defs>
</svg>
