<svg width="15" height="16" viewBox="0 0 15 16" fill="none" xmlns="http://www.w3.org/2000/svg">
<g clip-path="url(#clip0_3959_17337)">
<path d="M7.49986 0.779297C5.14144 0.779297 4.86201 0.796063 3.94547 0.829595C3.09599 0.863127 2.62095 1.0252 2.30799 1.13697C1.50881 1.4667 0.966704 2.00881 0.636972 2.80799C0.51961 3.12095 0.357538 3.59599 0.324006 4.44547C0.296063 5.36201 0.279297 5.64144 0.279297 7.99986C0.279297 10.3583 0.296063 10.6377 0.329595 11.5543C0.363127 12.4037 0.525199 12.8788 0.642561 13.1917C0.972292 13.9965 1.50881 14.533 2.31357 14.8628C2.62654 14.9801 3.10158 15.1422 3.95106 15.1757C4.8676 15.2093 5.14703 15.226 7.50545 15.226C9.86387 15.226 10.1433 15.2093 11.0598 15.1757C11.9093 15.1422 12.3844 14.9801 12.6973 14.8628C13.4965 14.533 14.0386 13.9965 14.3683 13.1917C14.4857 12.8788 14.6478 12.4037 14.6813 11.5543C14.7148 10.6377 14.7316 10.3583 14.7316 7.99986C14.7316 5.64144 14.7148 5.36201 14.6813 4.44547C14.6478 3.59599 14.4857 3.12095 14.3683 2.80799C14.0386 2.00322 13.5021 1.4667 12.6973 1.13697C12.3844 1.01961 11.9093 0.857538 11.0598 0.824006C10.1377 0.796063 9.85828 0.779297 7.49986 0.779297Z" stroke="url(#paint0_linear_3959_17337)" stroke-width="0.5" stroke-miterlimit="10"/>
<path d="M7.50007 11.3253C9.33315 11.3253 10.8253 9.83315 10.8253 8.00007C10.8253 6.16698 9.33315 4.6748 7.50007 4.6748C5.66698 4.6748 4.1748 6.16698 4.1748 8.00007C4.1748 9.83315 5.66698 11.3253 7.50007 11.3253Z" stroke="url(#paint1_linear_3959_17337)" stroke-width="0.5" stroke-miterlimit="10"/>
<path d="M12.9382 3.57915C12.9382 4.13802 12.48 4.56276 11.9211 4.56276C11.3622 4.56276 10.9375 4.13802 10.9375 3.57915C10.9375 3.02028 11.3622 2.56201 11.9211 2.56201C12.48 2.56201 12.9382 3.02028 12.9382 3.57915Z" fill="url(#paint2_linear_3959_17337)"/>
</g>
<defs>
<linearGradient id="paint0_linear_3959_17337" x1="-0.129249" y1="15.2137" x2="15.3137" y2="15.0954" gradientUnits="userSpaceOnUse">
<stop stop-color="#9955D4"/>
<stop offset="1" stop-color="#425AC5"/>
</linearGradient>
<linearGradient id="paint1_linear_3959_17337" x1="3.9868" y1="11.3197" x2="11.0932" y2="11.2652" gradientUnits="userSpaceOnUse">
<stop stop-color="#9955D4"/>
<stop offset="1" stop-color="#425AC5"/>
</linearGradient>
<linearGradient id="paint2_linear_3959_17337" x1="10.8809" y1="4.56106" x2="13.0188" y2="4.54468" gradientUnits="userSpaceOnUse">
<stop stop-color="#9955D4"/>
<stop offset="1" stop-color="#425AC5"/>
</linearGradient>
<clipPath id="clip0_3959_17337">
<rect width="15" height="15" fill="white" transform="translate(0 0.5)"/>
</clipPath>
</defs>
</svg>
