<svg width="26" height="32" viewBox="0 0 26 32" fill="none" xmlns="http://www.w3.org/2000/svg">
<path d="M16.75 1H4C3.20435 1 2.44129 1.31607 1.87868 1.87868C1.31607 2.44129 1 3.20435 1 4V28C1 28.7956 1.31607 29.5587 1.87868 30.1213C2.44129 30.6839 3.20435 31 4 31H22C22.7956 31 23.5587 30.6839 24.1213 30.1213C24.6839 29.5587 25 28.7956 25 28V9.25L16.75 1Z" fill="white" stroke="url(#paint0_linear_5730_7435)" stroke-width="2" stroke-linecap="round" stroke-linejoin="round"/>
<path d="M16 1V10H25L16 1Z" fill="white" stroke="url(#paint1_linear_5730_7435)" stroke-width="2" stroke-linecap="round" stroke-linejoin="round"/>
<defs>
<linearGradient id="paint0_linear_5730_7435" x1="0.321555" y1="30.9745" x2="25.9672" y2="30.8173" gradientUnits="userSpaceOnUse">
<stop stop-color="#9955D4"/>
<stop offset="1" stop-color="#425AC5"/>
</linearGradient>
<linearGradient id="paint1_linear_5730_7435" x1="15.7456" y1="9.99235" x2="25.3625" y2="9.91869" gradientUnits="userSpaceOnUse">
<stop stop-color="#9955D4"/>
<stop offset="1" stop-color="#425AC5"/>
</linearGradient>
</defs>
</svg>
