<svg width="16" height="14" viewBox="0 0 16 14" fill="none" xmlns="http://www.w3.org/2000/svg">
<path d="M8.11247 6.02152C8.09911 6.00387 8.08204 5.98959 8.06254 5.97977C8.04305 5.96995 8.02166 5.96484 7.99997 5.96484C7.97829 5.96484 7.95689 5.96995 7.9374 5.97977C7.91791 5.98959 7.90084 6.00387 7.88747 6.02152L5.88747 8.63815C5.87098 8.65992 5.86075 8.68605 5.85795 8.71355C5.85514 8.74105 5.85988 8.76882 5.87162 8.79366C5.88335 8.81851 5.90161 8.83945 5.92431 8.85407C5.94701 8.86869 5.97323 8.87642 5.99997 8.87636H7.31961V13.3525C7.31961 13.4337 7.3839 13.5002 7.46247 13.5002H8.5339C8.61248 13.5002 8.67676 13.4337 8.67676 13.3525V8.8782H9.99998C10.1196 8.8782 10.1857 8.73601 10.1125 8.63999L8.11247 6.02152Z" fill="#AAAAAA"/>
<path d="M12.4297 10.6761C12.7887 10.677 13.1438 10.6043 13.4744 10.4626C13.8047 10.321 14.1035 10.1137 14.3541 9.8534C14.8639 9.32616 15.1429 8.62463 15.1429 7.88636C15.1429 6.63349 14.3254 5.51926 13.1324 5.18694L13.1302 5.18633L12.7042 5.06979L12.5464 4.63825L12.5463 4.63794C12.376 4.17318 12.1382 3.73428 11.8382 3.3378C11.543 2.94653 11.1936 2.60143 10.7977 2.31343L10.7976 2.31336C9.97898 1.7181 9.01193 1.40156 8.00357 1.40156C6.99521 1.40156 6.02816 1.7181 5.20952 2.31336L5.20941 2.31344C4.81511 2.60031 4.46465 2.94552 4.16912 3.33752C3.86957 3.73345 3.63144 4.1705 3.46085 4.63801C3.46078 4.63821 3.4607 4.63841 3.46063 4.63861L3.30199 5.07056L2.87497 5.18591L2.87497 5.1859L2.87303 5.18643C2.29931 5.34388 1.78914 5.69529 1.42657 6.17348L1.4258 6.1745C1.07197 6.64365 0.87684 7.20125 0.857414 7.79048L0.85739 7.79123C0.833692 8.54425 1.10296 9.27604 1.61587 9.82224L1.61589 9.82227C2.12969 10.3693 2.82671 10.6761 3.56964 10.6761H3.92857V11.0795H3.56964C1.89018 11.0795 0.5 9.6668 0.5 7.88636C0.5 6.39386 1.48353 5.15275 2.79172 4.79759L3.04118 4.72986L3.13016 4.48717C3.88118 2.43878 5.78746 1 8.00357 1C10.2194 1 12.1259 2.44037 12.877 4.48902L12.9658 4.7312L13.2146 4.79921C14.5195 5.15589 15.5 6.39527 15.5 7.88636C15.5 9.6668 14.1098 11.0795 12.4304 11.0795H12.0714M12.4297 10.6761C12.4295 10.6761 12.4292 10.6761 12.429 10.6761L12.4304 10.1761V10.6761H12.4297ZM12.4297 10.6761H12.0714M12.0714 10.6761V10.3239C12.0714 10.5028 11.9275 10.6761 11.7143 10.6761H12.0714ZM12.0714 10.6761V11.0795M12.0714 11.0795H11.7143C11.9275 11.0795 12.0714 11.2529 12.0714 11.4318V11.0795Z" fill="#AAAAAA" stroke="#AAAAAA" stroke-linecap="round"/>
</svg>
