<svg width="15" height="13" viewBox="0 0 15 13" fill="none" xmlns="http://www.w3.org/2000/svg">
<path d="M8.125 6.50001H13.75M13.75 6.50001L11.6669 4.00001M13.75 6.50001L11.6669 9.00001M8.75 3.37501V2.23376C8.74999 2.06087 8.71412 1.88986 8.64465 1.73154C8.57517 1.57322 8.47361 1.43104 8.34639 1.31397C8.21916 1.19691 8.06903 1.1075 7.90549 1.05142C7.74194 0.995337 7.56854 0.973789 7.39625 0.988139L2.39625 1.40439C2.08378 1.43041 1.79251 1.57292 1.58019 1.80365C1.36787 2.03437 1.25002 2.33646 1.25 2.65001V10.35C1.25002 10.6636 1.36787 10.9657 1.58019 11.1964C1.79251 11.4271 2.08378 11.5696 2.39625 11.5956L7.39625 12.0125C7.5686 12.0269 7.74205 12.0053 7.90563 11.9492C8.06922 11.8931 8.21938 11.8036 8.34661 11.6865C8.47385 11.5693 8.5754 11.4271 8.64483 11.2687C8.71427 11.1103 8.75008 10.9392 8.75 10.7663V9.62501" stroke="url(#paint0_linear_4423_2098)" stroke-linecap="round" stroke-linejoin="round"/>
<defs>
<linearGradient id="paint0_linear_4423_2098" x1="0.896643" y1="12.0074" x2="14.2532" y2="11.8915" gradientUnits="userSpaceOnUse">
<stop stop-color="#9955D4"/>
<stop offset="1" stop-color="#425AC5"/>
</linearGradient>
</defs>
</svg>
