<svg width="15" height="15" viewBox="0 0 15 15" fill="none" xmlns="http://www.w3.org/2000/svg">
<g clip-path="url(#clip0_3994_18816)">
<path fill-rule="evenodd" clip-rule="evenodd" d="M12.5795 2.15038C11.9004 1.46671 11.0922 0.924617 10.202 0.555498C9.31183 0.186378 8.35723 -0.00242577 7.39354 2.35283e-05C3.35253 2.35283e-05 0.0628855 3.28885 0.0612521 7.33149C0.0612521 8.6235 0.398547 9.88448 1.03965 10.9968L0 14.7953L3.88665 13.7752C4.96174 14.3605 6.16621 14.6673 7.39027 14.6679H7.39354C11.4337 14.6679 14.7234 11.379 14.725 7.33639C14.7278 6.37309 14.5396 5.41879 14.1714 4.52865C13.8031 3.6385 13.2621 2.83018 12.5795 2.15038ZM7.39354 13.4306H7.39109C6.29959 13.4307 5.22818 13.137 4.28928 12.5804L4.06714 12.4481L1.76079 13.0533L2.37577 10.8049L2.23121 10.5746C1.62097 9.60307 1.29792 8.47877 1.29936 7.33149C1.30099 3.97161 4.03447 1.23813 7.39599 1.23813C8.19655 1.23635 8.98952 1.39337 9.729 1.7001C10.4685 2.00682 11.1398 2.45717 11.7041 3.02506C12.2713 3.59025 12.721 4.26227 13.027 5.00228C13.333 5.74229 13.4893 6.53561 13.4869 7.33639C13.4853 10.6963 10.7518 13.4306 7.39354 13.4306ZM10.7363 8.86606C10.5525 8.77378 9.65252 8.33113 9.48428 8.26988C9.31685 8.20862 9.19517 8.17841 9.07266 8.36135C8.95016 8.54428 8.59898 8.95672 8.49199 9.07922C8.385 9.20172 8.27802 9.21642 8.09508 9.12495C7.91214 9.03348 7.32167 8.83993 6.62176 8.21597C6.07703 7.73004 5.70951 7.13059 5.60253 6.94683C5.49554 6.76307 5.59109 6.66425 5.68338 6.57278C5.76586 6.49111 5.86632 6.35881 5.95779 6.25182C6.04926 6.14483 6.07948 6.06888 6.14073 5.94638C6.20198 5.82387 6.17176 5.71689 6.12521 5.62542C6.07948 5.53313 5.71278 4.6315 5.56006 4.2648C5.41224 3.90954 5.26115 3.95691 5.14844 3.95201C5.03172 3.94724 4.9149 3.94506 4.79808 3.94548C4.70519 3.94784 4.61378 3.96938 4.5296 4.00873C4.44542 4.04808 4.37028 4.1044 4.30888 4.17415C4.14064 4.35791 3.66778 4.80056 3.66778 5.70219C3.66778 6.60382 4.3244 7.47523 4.41587 7.59774C4.50734 7.72024 5.70788 9.57005 7.54544 10.3639C7.98319 10.5525 8.32457 10.6652 8.59 10.7502C9.02856 10.8898 9.42792 10.8694 9.74399 10.8229C10.096 10.7706 10.8277 10.3802 10.9805 9.95227C11.1332 9.52432 11.1332 9.15762 11.0874 9.08085C11.0417 9.00408 10.9184 8.95753 10.7363 8.86606Z" fill="url(#paint0_linear_3994_18816)"/>
</g>
<defs>
<linearGradient id="paint0_linear_3994_18816" x1="-0.416255" y1="14.7827" x2="15.3181" y2="14.6627" gradientUnits="userSpaceOnUse">
<stop stop-color="#9955D4"/>
<stop offset="1" stop-color="#425AC5"/>
</linearGradient>
<clipPath id="clip0_3994_18816">
<rect width="15" height="15" fill="white"/>
</clipPath>
</defs>
</svg>
