<svg width="26" height="22" viewBox="0 0 26 22" fill="none" xmlns="http://www.w3.org/2000/svg">
<path d="M3.38237 8.25284H21.7152C21.9219 8.25284 22.1285 8.20737 22.3123 8.12401C22.496 8.03307 22.6644 7.90424 22.7945 7.74509C22.9246 7.58595 23.0165 7.39649 23.0624 7.19945C23.1083 7.00241 23.1083 6.79022 23.0624 6.59318C22.672 4.75164 21.3937 3.07682 19.4494 1.86428C17.5205 0.644161 15.0863 0 12.5526 0C10.0189 0 7.5618 0.666896 5.64049 1.8567C3.71918 3.0465 2.42555 4.74406 2.03516 6.5856C1.98923 6.78264 1.98923 6.99483 2.03516 7.19187C2.08109 7.38891 2.17294 7.57837 2.30307 7.73751C2.4332 7.89666 2.6016 8.02549 2.78531 8.11643C2.97668 8.20737 3.1757 8.25284 3.38237 8.25284ZM23.9503 14.702L19.4954 16.4678L15.0404 14.702C14.9868 14.6793 14.9255 14.6641 14.8643 14.6641C14.8031 14.6641 14.7495 14.6793 14.6883 14.702L10.2333 16.4678L5.77827 14.702C5.72469 14.6793 5.66345 14.6641 5.60221 14.6641C5.54098 14.6641 5.48739 14.6793 5.42616 14.702L0.795111 16.536C0.733874 16.5587 0.680291 16.589 0.634364 16.6269C0.588436 16.6724 0.550163 16.7179 0.519544 16.7785C0.49658 16.8316 0.481271 16.8998 0.473617 16.9604C0.473617 17.021 0.481271 17.0816 0.504235 17.1423C0.527199 17.2029 0.565472 17.2559 0.6114 17.2938C0.657328 17.3393 0.71091 17.3696 0.772147 17.3924C0.841039 17.4227 0.90993 17.4302 0.971167 17.4302C1.0324 17.4302 1.09364 17.4151 1.15488 17.3848L2.83124 16.7179V17.8774C2.83124 18.9687 3.26755 20.022 4.04833 20.795C4.8291 21.568 5.89309 22 6.99536 22H18.1099C19.2121 22 20.2761 21.568 21.0569 20.795C21.8377 20.022 22.274 18.9687 22.274 17.8774V16.3541L24.3025 15.5508C24.3637 15.5281 24.4173 15.4978 24.4632 15.4599C24.5091 15.4144 24.5474 15.3689 24.578 15.3083C24.601 15.2477 24.6163 15.187 24.624 15.1264C24.624 15.0658 24.6163 15.0052 24.5933 14.9445C24.5704 14.8839 24.5321 14.8309 24.4862 14.793C24.4402 14.7475 24.3867 14.7172 24.3254 14.6945C24.2642 14.6717 24.2029 14.6641 24.1417 14.6641C24.0728 14.6566 24.0116 14.6717 23.9503 14.702ZM25.0526 11.4585C25.0526 11.5797 25.0067 11.6934 24.9148 11.7844C24.8306 11.8677 24.7082 11.9208 24.5857 11.9208H0.51189C0.389416 11.9208 0.274596 11.8753 0.182741 11.7844C0.09854 11.701 0.0526123 11.5797 0.0526123 11.4585C0.0526123 11.3372 0.0985401 11.2236 0.190396 11.1326C0.274596 11.0493 0.39707 10.9962 0.519544 10.9962H24.5933C24.7158 10.9962 24.8306 11.0417 24.9225 11.1326C25.0067 11.2236 25.0526 11.3372 25.0526 11.4585Z" fill="#53E7F2"/>
</svg>
