<svg width="23" height="23" viewBox="0 0 23 23" fill="none" xmlns="http://www.w3.org/2000/svg">
<path fill-rule="evenodd" clip-rule="evenodd" d="M19.2887 3.29725C18.2472 2.24896 17.0081 1.41775 15.6431 0.851763C14.2782 0.28578 12.8144 -0.00371952 11.3368 3.60767e-05C5.14056 3.60767e-05 0.0964246 5.04291 0.0939201 11.2416C0.0939201 13.2227 0.611106 15.1562 1.59413 16.8618L0 22.6861L5.95954 21.122C7.60801 22.0194 9.45486 22.4899 11.3318 22.4907H11.3368C17.5317 22.4907 22.5759 17.4478 22.5784 11.2491C22.5826 9.77207 22.2941 8.30881 21.7294 6.94392C21.1648 5.57904 20.3352 4.3396 19.2887 3.29725ZM11.3368 20.5935H11.333C9.65938 20.5937 8.01655 20.1434 6.5769 19.2899L6.23629 19.0871L2.69989 20.015L3.64284 16.5675L3.42119 16.2144C2.48548 14.7247 1.99014 13.0008 1.99236 11.2416C1.99486 6.0898 6.1862 1.89847 11.3405 1.89847C12.5681 1.89574 13.7839 2.1365 14.9178 2.60682C16.0517 3.07713 17.081 3.76765 17.9462 4.63843C18.8161 5.50505 19.5055 6.53548 19.9748 7.67016C20.444 8.80484 20.6837 10.0213 20.6799 11.2491C20.6774 16.401 16.4861 20.5935 11.3368 20.5935ZM16.4623 13.5946C16.1805 13.4531 14.8005 12.7744 14.5426 12.6805C14.2859 12.5866 14.0993 12.5402 13.9114 12.8207C13.7236 13.1012 13.1851 13.7336 13.0211 13.9215C12.857 14.1093 12.693 14.1319 12.4125 13.9916C12.132 13.8513 11.2266 13.5546 10.1534 12.5978C9.31812 11.8527 8.7546 10.9336 8.59055 10.6518C8.4265 10.37 8.57302 10.2185 8.71452 10.0783C8.841 9.95304 8.99503 9.75017 9.13528 9.58613C9.27554 9.42208 9.32187 9.30562 9.41579 9.11778C9.50971 8.92994 9.46338 8.76589 9.392 8.62564C9.32187 8.48413 8.7596 7.10163 8.52543 6.53937C8.29877 5.99463 8.0671 6.06726 7.89429 6.05975C7.71531 6.05243 7.53619 6.04909 7.35707 6.04973C7.21463 6.05336 7.07448 6.08638 6.9454 6.14672C6.81632 6.20705 6.7011 6.29341 6.60696 6.40036C6.34899 6.68212 5.62393 7.36085 5.62393 8.74335C5.62393 10.1259 6.63075 11.462 6.771 11.6499C6.91126 11.8377 8.75209 14.6741 11.5697 15.8913C12.2409 16.1806 12.7644 16.3534 13.1713 16.4836C13.8438 16.6977 14.4562 16.6664 14.9408 16.5951C15.4805 16.5149 16.6026 15.9163 16.8367 15.2601C17.0709 14.604 17.0709 14.0417 17.0008 13.924C16.9306 13.8063 16.7416 13.7349 16.4623 13.5946Z" fill="url(#paint0_linear_4396_2484)"/>
<defs>
<linearGradient id="paint0_linear_4396_2484" x1="-3.22" y1="23" x2="26.22" y2="4.13997" gradientUnits="userSpaceOnUse">
<stop stop-color="#9955D4"/>
<stop offset="1" stop-color="#53E7F2"/>
</linearGradient>
</defs>
</svg>
