<svg width="43" height="38" viewBox="0 0 43 38" fill="none" xmlns="http://www.w3.org/2000/svg">
<g clip-path="url(#clip0_4285_4043)">
<path d="M6.38332 14.9012H36.722C37.065 14.9037 37.4042 14.8288 37.7143 14.6819C38.0243 14.5351 38.2972 14.3202 38.5126 14.0533C38.728 13.7863 38.8804 13.4742 38.9584 13.1401C39.0363 12.806 39.0379 12.4587 38.9629 12.1239C38.3117 9.04028 36.2049 6.24391 32.9871 4.21366C29.7694 2.18342 25.7472 1.11084 21.5527 1.11084C17.3581 1.11084 13.2976 2.22173 10.1182 4.21366C6.93876 6.2056 4.7936 9.04028 4.14239 12.1239C4.06743 12.4587 4.069 12.806 4.14698 13.1401C4.22495 13.4742 4.37733 13.7863 4.59274 14.0533C4.80816 14.3202 5.08105 14.5351 5.39108 14.6819C5.70112 14.8288 6.04029 14.9037 6.38332 14.9012ZM5.63634 12.4304C6.80469 6.85681 13.6424 2.6431 21.5527 2.6431C29.4629 2.6431 36.3007 6.85681 37.469 12.4304C37.4882 12.5437 37.4845 12.6596 37.4581 12.7715C37.4318 12.8833 37.3834 12.9888 37.3158 13.0816C37.2444 13.1707 37.1541 13.2427 37.0514 13.2924C36.9487 13.3421 36.8361 13.3683 36.722 13.3689H6.38332C6.2692 13.3683 6.15667 13.3421 6.05394 13.2924C5.95121 13.2427 5.86089 13.1707 5.78957 13.0816C5.72191 12.9888 5.67351 12.8833 5.64719 12.7715C5.62088 12.6596 5.61719 12.5437 5.63634 12.4304ZM40.4186 25.6844L33.0446 28.634L25.6706 25.6844C25.5796 25.6465 25.4819 25.627 25.3833 25.627C25.2847 25.627 25.187 25.6465 25.096 25.6844L17.722 28.634L10.348 25.6844C10.257 25.6465 10.1594 25.627 10.0607 25.627C9.96211 25.627 9.86447 25.6465 9.77344 25.6844L2.11215 28.7489C2.01302 28.7822 1.92176 28.8354 1.84397 28.9053C1.76619 28.9752 1.70353 29.0603 1.65986 29.1553C1.61619 29.2503 1.59243 29.3532 1.59004 29.4577C1.58765 29.5623 1.60668 29.6662 1.64597 29.7631C1.68525 29.86 1.74395 29.9478 1.81846 30.0212C1.89297 30.0945 1.98171 30.1519 2.07921 30.1896C2.17671 30.2274 2.28091 30.2448 2.38539 30.2408C2.48987 30.2368 2.59243 30.2114 2.68674 30.1663L5.46396 29.0554V30.9899C5.46396 32.8186 6.19041 34.5724 7.48351 35.8655C8.7766 37.1586 10.5304 37.885 12.3591 37.885H30.7462C32.5749 37.885 34.3287 37.1586 35.6218 35.8655C36.9149 34.5724 37.6414 32.8186 37.6414 30.9899V28.4425L40.9932 27.1018C41.0923 27.0685 41.1836 27.0153 41.2614 26.9454C41.3391 26.8755 41.4018 26.7905 41.4455 26.6955C41.4891 26.6005 41.5129 26.4975 41.5153 26.393C41.5177 26.2885 41.4987 26.1845 41.4594 26.0876C41.4201 25.9907 41.3614 25.9029 41.2869 25.8295C41.2124 25.7562 41.1236 25.6989 41.0261 25.6611C40.9286 25.6233 40.8244 25.6059 40.7199 25.6099C40.6155 25.6139 40.5129 25.6393 40.4186 25.6844ZM36.1091 30.9899C36.1041 32.4107 35.5374 33.7718 34.5328 34.7764C33.5281 35.7811 32.167 36.3477 30.7462 36.3528H12.3591C10.9383 36.3477 9.5772 35.7811 8.57255 34.7764C7.56791 33.7718 7.00127 32.4107 6.99622 30.9899V28.4425L10.0607 27.2167L17.4347 30.1663C17.5258 30.2042 17.6234 30.2237 17.722 30.2237C17.8206 30.2237 17.9183 30.2042 18.0093 30.1663L25.3833 27.2167L32.7573 30.1663C32.8483 30.2042 32.946 30.2237 33.0446 30.2237C33.1432 30.2237 33.2409 30.2042 33.3319 30.1663L36.1091 29.0554V30.9899ZM42.2382 20.2641C42.2382 20.4673 42.1574 20.6621 42.0138 20.8058C41.8701 20.9495 41.6752 21.0302 41.472 21.0302H1.63332C1.43013 21.0302 1.23526 20.9495 1.09158 20.8058C0.947905 20.6621 0.867188 20.4673 0.867188 20.2641C0.867188 20.0609 0.947905 19.866 1.09158 19.7223C1.23526 19.5787 1.43013 19.4979 1.63332 19.4979H41.472C41.6752 19.4979 41.8701 19.5787 42.0138 19.7223C42.1574 19.866 42.2382 20.0609 42.2382 20.2641Z" fill="#425AC5"/>
</g>
<defs>
<clipPath id="clip0_4285_4043">
<rect width="41.8" height="38" fill="white" transform="translate(0.599609)"/>
</clipPath>
</defs>
</svg>
