<svg width="39" height="38" viewBox="0 0 39 38" fill="none" xmlns="http://www.w3.org/2000/svg">
<path d="M7.26826 17.6233C7.99411 17.1383 8.84747 16.8794 9.72044 16.8794C10.891 16.8794 12.0137 17.3444 12.8415 18.1722L13.195 17.8186L12.8415 18.1722C13.6692 18.9999 14.1342 20.1226 14.1342 21.2932C14.1342 22.1662 13.8754 23.0195 13.3904 23.7454C12.9054 24.4712 12.216 25.0369 11.4095 25.371C10.603 25.7051 9.71554 25.7925 8.85935 25.6222C8.00315 25.4519 7.21669 25.0315 6.59941 24.4142C5.98213 23.7969 5.56176 23.0105 5.39145 22.1543C5.22115 21.2981 5.30855 20.4106 5.64262 19.6041C5.97669 18.7976 6.54242 18.1082 7.26826 17.6233Z" stroke="#425AC5"/>
<path d="M18.8453 26.7682H17.4414H1.99805M18.8453 26.7682V17.0345H31.2936M18.8453 26.7682H37.1902M1.99805 26.7682V10.7633L18.8453 1.69385L36.4367 11.1564M1.99805 26.7682V37.9998M1.99805 26.7682H37.1902M37.1902 26.7682V37.9998M37.1902 26.7682V22.5564" stroke="#425AC5"/>
<path d="M31.293 17.0347C33.2585 17.0347 37.1895 18.214 37.1895 22.9312" stroke="#425AC5"/>
</svg>
