<svg width="38" height="38" viewBox="0 0 38 38" fill="none" xmlns="http://www.w3.org/2000/svg">
<path d="M8.3271 6.00978L8.32857 5.99063V5.97143C8.32857 4.68628 8.65199 3.28455 9.2774 2.22137C9.89939 1.16398 10.7771 0.5 11.9 0.5C13.3962 0.5 14.689 1.59683 15.6386 3.26679C16.5795 4.92162 17.1 7.00785 17.1 8.68571C17.1 9.97086 16.7766 11.3726 16.1512 12.4358C15.5292 13.4932 14.6515 14.1571 13.5286 14.1571C11.8828 14.1571 10.5257 13.0421 9.58643 11.3903C8.64991 9.74336 8.19932 7.67093 8.3271 6.00978ZM29.0429 6.24286C29.0429 7.77966 28.5252 9.79712 27.5836 11.4206C26.6336 13.0585 25.3407 14.1571 23.8429 14.1571C22.7199 14.1571 21.8422 13.4932 21.2203 12.4358C20.5948 11.3726 20.2714 9.97086 20.2714 8.68571C20.2714 7.14891 20.7891 5.13145 21.7307 3.508C22.6807 1.87012 23.9736 0.771428 25.4714 0.771428C26.5944 0.771428 27.472 1.4354 28.094 2.4928C28.7194 3.55598 29.0429 4.95771 29.0429 6.24286ZM28.1429 20.3571C28.1429 18.6926 28.7239 16.681 29.7279 15.0941C30.7384 13.4969 32.0981 12.4429 33.6143 12.4429C34.4888 12.4429 35.2314 12.9289 35.7768 13.747C36.3255 14.5699 36.6429 15.6917 36.6429 16.8286C36.6429 18.4932 36.0618 20.5047 35.0578 22.0916C34.0474 23.6888 32.6876 24.7429 31.1714 24.7429C30.1483 24.7429 29.4145 24.2443 28.9142 23.4497C28.4018 22.6358 28.1429 21.5149 28.1429 20.3571ZM4.02857 12.4429C5.40295 12.4429 6.76449 13.4884 7.81708 15.1002C8.85774 16.6937 9.5 18.7037 9.5 20.3571C9.5 21.5149 9.24108 22.6358 8.72867 23.4497C8.22835 24.2443 7.49455 24.7429 6.47143 24.7429C5.09705 24.7429 3.7355 23.6973 2.68292 22.0855C1.64226 20.492 1 18.482 1 16.8286C1 15.6708 1.25892 14.5499 1.77133 13.736C2.27165 12.9414 3.00545 12.4429 4.02857 12.4429ZM6.42857 34.4714C6.42857 31.6568 8.17596 28.1054 10.6504 25.2297C11.8795 23.8013 13.2674 22.5647 14.6675 21.6886C16.0728 20.8092 17.4561 20.3143 18.6857 20.3143C19.9153 20.3143 21.2986 20.8092 22.704 21.6886C24.1041 22.5647 25.4919 23.8013 26.721 25.2297C29.1955 28.1054 30.9429 31.6568 30.9429 34.4714C30.9429 35.7968 30.418 36.5081 29.7001 36.9223C28.9351 37.3637 27.8909 37.5 26.8286 37.5C25.4486 37.5 24.1791 36.999 22.8451 36.4517C22.8017 36.4339 22.7583 36.416 22.7147 36.3981C21.4532 35.8799 20.1111 35.3286 18.6857 35.3286C17.1296 35.3286 15.721 35.8789 14.3854 36.4006C14.3445 36.4166 14.3037 36.4326 14.2629 36.4485C12.8643 36.9943 11.5219 37.5 10 37.5C8.96261 37.5 8.06811 37.303 7.44409 36.8492C6.84883 36.4163 6.42857 35.6976 6.42857 34.4714Z" stroke="#425AC5"/>
</svg>
