<svg width="39" height="38" viewBox="0 0 39 38" fill="none" xmlns="http://www.w3.org/2000/svg">
<path d="M19.5 2.375C15.0908 2.375 10.8621 4.12656 7.74435 7.24435C4.62656 10.3621 2.875 14.5908 2.875 19V21.375H6.4375C6.75244 21.375 7.05449 21.5001 7.27719 21.7228C7.49989 21.9455 7.625 22.2476 7.625 22.5625V36.8125C7.625 37.1274 7.49989 37.4295 7.27719 37.6522C7.05449 37.8749 6.75244 38 6.4375 38H5.25C3.99022 38 2.78204 37.4996 1.89124 36.6088C1.00044 35.718 0.5 34.5098 0.5 33.25V19C0.5 13.9609 2.50178 9.12816 6.06497 5.56497C9.62816 2.00178 14.4609 0 19.5 0C24.5391 0 29.3718 2.00178 32.935 5.56497C36.4982 9.12816 38.5 13.9609 38.5 19V33.25C38.5 34.5098 37.9996 35.718 37.1088 36.6088C36.218 37.4996 35.0098 38 33.75 38H32.5625C32.2476 38 31.9455 37.8749 31.7228 37.6522C31.5001 37.4295 31.375 37.1274 31.375 36.8125V22.5625C31.375 22.2476 31.5001 21.9455 31.7228 21.7228C31.9455 21.5001 32.2476 21.375 32.5625 21.375H36.125V19C36.125 14.5908 34.3734 10.3621 31.2556 7.24435C28.1379 4.12656 23.9092 2.375 19.5 2.375ZM2.875 33.25C2.875 33.8799 3.12522 34.484 3.57062 34.9294C4.01602 35.3748 4.62011 35.625 5.25 35.625V23.75H2.875V33.25ZM36.125 33.25V23.75H33.75V35.625C34.3799 35.625 34.984 35.3748 35.4294 34.9294C35.8748 34.484 36.125 33.8799 36.125 33.25ZM20.6875 20.1875C20.6875 19.8726 20.5624 19.5705 20.3397 19.3478C20.117 19.1251 19.8149 19 19.5 19C19.1851 19 18.883 19.1251 18.6603 19.3478C18.4376 19.5705 18.3125 19.8726 18.3125 20.1875V36.8125C18.3125 37.1274 18.4376 37.4295 18.6603 37.6522C18.883 37.8749 19.1851 38 19.5 38C19.8149 38 20.117 37.8749 20.3397 37.6522C20.5624 37.4295 20.6875 37.1274 20.6875 36.8125V20.1875ZM13.5625 23.75C13.8774 23.75 14.1795 23.8751 14.4022 24.0978C14.6249 24.3205 14.75 24.6226 14.75 24.9375V34.4375C14.75 34.7524 14.6249 35.0545 14.4022 35.2772C14.1795 35.4999 13.8774 35.625 13.5625 35.625C13.2476 35.625 12.9455 35.4999 12.7228 35.2772C12.5001 35.0545 12.375 34.7524 12.375 34.4375V24.9375C12.375 24.6226 12.5001 24.3205 12.7228 24.0978C12.9455 23.8751 13.2476 23.75 13.5625 23.75ZM26.625 24.9375C26.625 24.6226 26.4999 24.3205 26.2772 24.0978C26.0545 23.8751 25.7524 23.75 25.4375 23.75C25.1226 23.75 24.8205 23.8751 24.5978 24.0978C24.3751 24.3205 24.25 24.6226 24.25 24.9375V34.4375C24.25 34.7524 24.3751 35.0545 24.5978 35.2772C24.8205 35.4999 25.1226 35.625 25.4375 35.625C25.7524 35.625 26.0545 35.4999 26.2772 35.2772C26.4999 35.0545 26.625 34.7524 26.625 34.4375V24.9375Z" fill="#425AC5"/>
</svg>
