<svg width="51" height="38" viewBox="0 0 51 38" fill="none" xmlns="http://www.w3.org/2000/svg">
<path d="M49.9857 6.55491L49.9868 6.55903C50.0233 6.6917 49.9844 6.8978 49.8426 7.10826L49.8419 7.10938L43.8376 16.0729L43.8376 16.0729L43.8325 16.0807C43.7255 16.2472 43.4414 16.3876 43.1714 16.3876C43.137 16.3876 43.0479 16.3835 42.9483 16.3744C42.9003 16.37 42.8551 16.3649 42.8175 16.3596C42.7757 16.3537 42.7587 16.3495 42.7598 16.3498L42.7598 16.3496L42.7462 16.3463L37.9339 15.1616L37.3144 15.009V15.6471V36.8824C37.3144 37.0864 37.2443 37.2357 37.1485 37.3326C37.0533 37.4287 36.9062 37.5 36.7004 37.5H13.3074C13.1016 37.5 12.9545 37.4287 12.8593 37.3326C12.7635 37.2357 12.6934 37.0864 12.6934 36.8824V15.6471V14.9899L12.0601 15.1652L7.73795 16.361L7.73009 16.3632L7.7223 16.3657C7.57431 16.4118 7.46131 16.3998 7.3717 16.3627C7.27747 16.3238 7.17339 16.2418 7.07842 16.0932L7.0785 16.0931L7.07312 16.085L1.11631 7.14819C1.1159 7.14755 1.11548 7.14691 1.11507 7.14627C1.00028 6.96914 0.974758 6.79244 1.02357 6.61491L1.02621 6.60531L1.02846 6.59561C1.06168 6.45278 1.15943 6.32956 1.37738 6.21456L13.42 0.5H18.8772C19.0864 0.5 19.2331 0.570824 19.3265 0.664512C19.42 0.758322 19.4911 0.906288 19.4911 1.11765C19.4911 2.51749 20.4641 3.63379 21.6189 4.36974C22.7849 5.11281 24.2557 5.55176 25.5052 5.55176C26.7528 5.55176 28.2496 5.11674 29.442 4.37719C30.6207 3.64614 31.6307 2.53028 31.6307 1.11765C31.6307 0.913587 31.7008 0.764249 31.7966 0.66745C31.8917 0.571292 32.0388 0.5 32.2446 0.5H37.7027L49.6259 6.10472C49.8043 6.19598 49.933 6.35658 49.9857 6.55491Z" stroke="#425AC5"/>
</svg>
