<svg width="45" height="38" viewBox="0 0 45 38" fill="none" xmlns="http://www.w3.org/2000/svg">
<path d="M18.3029 8.36355L18.6809 8.26846V7.87866V5.18195C18.6809 4.16931 19.0832 3.19814 19.7992 2.48209C20.5153 1.76604 21.4865 1.36377 22.4991 1.36377C23.5118 1.36377 24.4829 1.76604 25.199 2.48209C25.915 3.19814 26.3173 4.16931 26.3173 5.18195V7.85922V8.25004L26.6965 8.34442C30.4457 9.27749 33.7744 11.4393 36.1515 14.4851C38.5286 17.5308 39.8172 21.2849 39.8116 25.1485V25.1492C39.8116 25.4461 39.6937 25.7308 39.4838 25.9407C39.2739 26.1506 38.9892 26.2685 38.6923 26.2685H6.30593C6.00907 26.2685 5.72437 26.1506 5.51445 25.9407C5.30454 25.7308 5.18661 25.4461 5.18661 25.1492C5.18661 17.0516 10.7841 10.2548 18.3029 8.36355ZM1.4082 33.2501C1.4082 32.2375 1.81047 31.2663 2.52652 30.5503C3.24257 29.8342 4.21374 29.4319 5.22638 29.4319H39.7718C40.7845 29.4319 41.7556 29.8342 42.4717 30.5503C43.1877 31.2663 43.59 32.2375 43.59 33.2501C43.59 34.2628 43.1877 35.2339 42.4717 35.95C41.7556 36.666 40.7845 37.0683 39.7718 37.0683H5.22638C4.21374 37.0683 3.24257 36.666 2.52652 35.95C1.81047 35.2339 1.4082 34.2628 1.4082 33.2501Z" stroke="#425AC5"/>
</svg>
