<svg width="16" height="16" viewBox="0 0 16 16" fill="none" xmlns="http://www.w3.org/2000/svg">
<path d="M12.6668 4.66667H10.6668V3.66667C10.6668 3.22464 10.4912 2.80072 10.1787 2.48816C9.86611 2.17559 9.44219 2 9.00016 2H7.00016C6.55814 2 6.13421 2.17559 5.82165 2.48816C5.50909 2.80072 5.3335 3.22464 5.3335 3.66667V4.66667H3.3335C2.80306 4.66667 2.29436 4.87738 1.91928 5.25245C1.54421 5.62753 1.3335 6.13623 1.3335 6.66667V12C1.3335 12.5304 1.54421 13.0391 1.91928 13.4142C2.29436 13.7893 2.80306 14 3.3335 14H12.6668C13.1973 14 13.706 13.7893 14.081 13.4142C14.4561 13.0391 14.6668 12.5304 14.6668 12V6.66667C14.6668 6.13623 14.4561 5.62753 14.081 5.25245C13.706 4.87738 13.1973 4.66667 12.6668 4.66667ZM6.66683 3.66667C6.66683 3.57826 6.70195 3.49348 6.76446 3.43096C6.82697 3.36845 6.91176 3.33333 7.00016 3.33333H9.00016C9.08857 3.33333 9.17335 3.36845 9.23587 3.43096C9.29838 3.49348 9.3335 3.57826 9.3335 3.66667V4.66667H6.66683V3.66667ZM13.3335 12C13.3335 12.1768 13.2633 12.3464 13.1382 12.4714C13.0132 12.5964 12.8436 12.6667 12.6668 12.6667H3.3335C3.15669 12.6667 2.98712 12.5964 2.86209 12.4714C2.73707 12.3464 2.66683 12.1768 2.66683 12V6.66667C2.66683 6.48986 2.73707 6.32029 2.86209 6.19526C2.98712 6.07024 3.15669 6 3.3335 6H12.6668C12.8436 6 13.0132 6.07024 13.1382 6.19526C13.2633 6.32029 13.3335 6.48986 13.3335 6.66667V12Z" fill="#2490D3"/>
<path d="M7.99984 7C7.381 7 6.78751 7.24583 6.34992 7.68342C5.91234 8.121 5.6665 8.71449 5.6665 9.33333C5.6665 9.95217 5.91234 10.5457 6.34992 10.9832C6.78751 11.4208 7.381 11.6667 7.99984 11.6667C8.61868 11.6667 9.21217 11.4208 9.64975 10.9832C10.0873 10.5457 10.3332 9.95217 10.3332 9.33333C10.3332 8.71449 10.0873 8.121 9.64975 7.68342C9.21217 7.24583 8.61868 7 7.99984 7ZM7.99984 10.3333C7.73462 10.3333 7.48027 10.228 7.29273 10.0404C7.10519 9.8529 6.99984 9.59855 6.99984 9.33333C6.99984 9.06812 7.10519 8.81376 7.29273 8.62623C7.48027 8.43869 7.73462 8.33333 7.99984 8.33333C8.26505 8.33333 8.51941 8.43869 8.70694 8.62623C8.89448 8.81376 8.99984 9.06812 8.99984 9.33333C8.99984 9.59855 8.89448 9.8529 8.70694 10.0404C8.51941 10.228 8.26505 10.3333 7.99984 10.3333V10.3333Z" fill="#2490D3"/>
</svg>
