<svg width="17" height="17" viewBox="0 0 17 17" fill="none" xmlns="http://www.w3.org/2000/svg">
<path d="M2.64378 4.7912C3.83163 4.79151 4.7937 3.82543 4.79032 2.63501C4.78695 1.45503 3.82212 0.497855 2.63857 0.500004C1.45715 0.502152 0.49908 1.46455 0.500001 2.64821C0.500921 3.83003 1.46176 4.79059 2.64378 4.7912ZM2.64685 1.57288C3.23679 1.57349 3.7169 2.05377 3.71751 2.64361C3.71813 3.23406 3.23985 3.71587 2.65053 3.71832C2.05354 3.72078 1.57066 3.23743 1.57281 2.63962C1.57465 2.05009 2.0563 1.57196 2.64685 1.57288Z" fill="white"/>
<path d="M13.3695 5.864C12.1872 5.86461 11.227 6.82455 11.2261 8.00699C11.2252 9.19618 12.1903 10.1583 13.3803 10.1549C14.5602 10.1515 15.5182 9.18697 15.5164 8.00361C15.5149 6.82302 14.5522 5.86338 13.3695 5.864ZM13.3665 9.08232C12.7772 9.08048 12.2986 8.59928 12.2989 8.00852C12.2992 7.41194 12.7848 6.93227 13.3837 6.93718C13.9718 6.94179 14.4473 7.42697 14.4439 8.01834C14.4402 8.60695 13.9573 9.08416 13.3665 9.08232Z" fill="white"/>
<path d="M2.65484 11.228C1.46975 11.2249 0.504309 12.1803 0.500014 13.3596C0.495719 14.5516 1.45502 15.518 2.64287 15.5189C3.8249 15.5198 4.78788 14.5602 4.79034 13.379C4.79279 12.1962 3.83441 11.2308 2.65484 11.228ZM2.64962 14.446C2.05877 14.4482 1.57589 13.971 1.57283 13.3814C1.56945 12.7833 2.05079 12.2993 2.64809 12.3006C3.23803 12.3018 3.71753 12.7824 3.71783 13.3722C3.71783 13.9627 3.23895 14.4442 2.64962 14.446Z" fill="white"/>
<path d="M5.58727 7.47479C4.11135 7.47479 2.63543 7.47479 1.15951 7.4751C1.09815 7.4751 1.03649 7.47356 0.976055 7.48001C0.63737 7.51499 0.42201 7.85011 0.527849 8.17419C0.6116 8.42982 0.80886 8.54767 1.1589 8.54767C4.11564 8.54797 7.0727 8.54797 10.0294 8.54736C10.1006 8.54736 10.1727 8.5449 10.2433 8.53447C10.4743 8.49979 10.6504 8.31689 10.6814 8.0858C10.728 7.73841 10.4841 7.47602 10.1068 7.47571C8.60016 7.47418 7.09387 7.47479 5.58727 7.47479Z" fill="white"/>
<path d="M5.70125 3.15356C5.79788 3.17995 5.90311 3.1824 6.00465 3.1824C8.94606 3.18394 11.8878 3.18363 14.8292 3.18302C14.9056 3.18302 14.9829 3.18179 15.0583 3.17166C15.3016 3.13852 15.4872 2.94549 15.5136 2.70335C15.5406 2.45723 15.3934 2.21663 15.1559 2.14236C15.0703 2.11567 14.9752 2.11229 14.8844 2.11198C13.4036 2.11014 11.9224 2.11075 10.4413 2.11075C8.95526 2.11075 7.46922 2.11075 5.98318 2.11106C5.92182 2.11106 5.86016 2.10983 5.79972 2.11628C5.5497 2.14267 5.35888 2.33632 5.3325 2.58735C5.30519 2.84329 5.45766 3.08696 5.70125 3.15356Z" fill="white"/>
<path d="M14.9335 12.8396C13.4321 12.838 11.9307 12.8389 10.4293 12.8389C8.94852 12.8389 7.46738 12.8389 5.98625 12.8392C5.92489 12.8392 5.86353 12.8377 5.80279 12.8439C5.55215 12.8693 5.36041 13.0614 5.3328 13.3122C5.30427 13.5684 5.4546 13.8124 5.69849 13.8808C5.79482 13.9078 5.90035 13.9106 6.00158 13.9106C8.94821 13.9121 11.8948 13.9118 14.8415 13.9112C14.9129 13.9112 14.9847 13.91 15.0553 13.9002C15.2667 13.871 15.4108 13.7507 15.4836 13.5528C15.6176 13.1866 15.351 12.8399 14.9335 12.8396Z" fill="white"/>
</svg>