<svg width="14" height="14" viewBox="0 0 14 14" fill="none" xmlns="http://www.w3.org/2000/svg">
<path fill-rule="evenodd" clip-rule="evenodd" d="M7.00016 0.333984C5.1585 0.333984 3.66683 1.82565 3.66683 3.66732C3.66683 5.50898 5.1585 7.00065 7.00016 7.00065C8.84183 7.00065 10.3335 5.50898 10.3335 3.66732C10.3335 1.82565 8.84183 0.333984 7.00016 0.333984ZM8.66683 3.66732C8.66683 2.75065 7.91683 2.00065 7.00016 2.00065C6.0835 2.00065 5.3335 2.75065 5.3335 3.66732C5.3335 4.58398 6.0835 5.33398 7.00016 5.33398C7.91683 5.33398 8.66683 4.58398 8.66683 3.66732ZM12.0002 11.1673C11.8335 10.5757 9.25016 9.50065 7.00016 9.50065C4.75016 9.50065 2.16683 10.5757 2.00016 11.1757V12.0007H12.0002V11.1673ZM0.333496 11.1673C0.333496 8.95065 4.77516 7.83398 7.00016 7.83398C9.22516 7.83398 13.6668 8.95065 13.6668 11.1673V13.6673H0.333496V11.1673Z" fill="#95C2F4"/>
</svg>
