<svg width="17" height="18" viewBox="0 0 17 18" fill="none" xmlns="http://www.w3.org/2000/svg">
<path fill-rule="evenodd" clip-rule="evenodd" d="M8.49984 0.666016C3.89984 0.666016 0.166504 4.39935 0.166504 8.99935C0.166504 13.5993 3.89984 17.3327 8.49984 17.3327C13.0998 17.3327 16.8332 13.5993 16.8332 8.99935C16.8332 4.39935 13.0998 0.666016 8.49984 0.666016ZM13.7998 13.0243C12.6082 11.5743 9.7165 11.0827 8.49984 11.0827C7.28317 11.0827 4.3915 11.5743 3.19984 13.0243C2.34984 11.9077 1.83317 10.516 1.83317 8.99935C1.83317 5.32435 4.82484 2.33268 8.49984 2.33268C12.1748 2.33268 15.1665 5.32435 15.1665 8.99935C15.1665 10.516 14.6498 11.9077 13.7998 13.0243ZM5.58317 6.91602C5.58317 5.29935 6.88317 3.99935 8.49984 3.99935C10.1165 3.99935 11.4165 5.29935 11.4165 6.91602C11.4165 8.53268 10.1165 9.83268 8.49984 9.83268C6.88317 9.83268 5.58317 8.53268 5.58317 6.91602Z" fill="white"/>
</svg>
