<svg width="14" height="14" viewBox="0 0 14 14" fill="none" xmlns="http://www.w3.org/2000/svg">
<path fillRule="evenodd" clipRule="evenodd" d="M7.00016 0.494141C3.3135 0.494141 0.333496 3.47414 0.333496 7.16081C0.333496 10.8475 3.3135 13.8275 7.00016 13.8275C10.6868 13.8275 13.6668 10.8475 13.6668 7.16081C13.6668 3.47414 10.6868 0.494141 7.00016 0.494141ZM7.00016 12.4941C4.06016 12.4941 1.66683 10.1008 1.66683 7.16081C1.66683 4.22081 4.06016 1.82747 7.00016 1.82747C9.94016 1.82747 12.3335 4.22081 12.3335 7.16081C12.3335 10.1008 9.94016 12.4941 7.00016 12.4941ZM7.00016 6.22081L9.3935 3.82747L10.3335 4.76747L7.94016 7.16081L10.3335 9.55414L9.3935 10.4941L7.00016 8.10081L4.60683 10.4941L3.66683 9.55414L6.06016 7.16081L3.66683 4.76747L4.60683 3.82747L7.00016 6.22081Z" fill="white"/>
</svg>
