<svg width="20" height="20" viewBox="0 0 20 20" fill="none" xmlns="http://www.w3.org/2000/svg">
<path d="M15.0002 1.66602H5.00016C4.081 1.66602 3.3335 2.41352 3.3335 3.33268V17.4993C3.3335 17.7204 3.42129 17.9323 3.57757 18.0886C3.73385 18.2449 3.94582 18.3327 4.16683 18.3327H15.8335C16.0545 18.3327 16.2665 18.2449 16.4228 18.0886C16.579 17.9323 16.6668 17.7204 16.6668 17.4993V3.33268C16.6668 2.41352 15.9193 1.66602 15.0002 1.66602ZM15.0002 16.666H5.00016V3.33268H15.0002V16.666Z" fill="#ffffff"/>
<path d="M6.6665 5H9.1665V6.66667H6.6665V5ZM10.8332 5H13.3332V6.66667H10.8332V5ZM6.6665 8.33333H9.1665V10H6.6665V8.33333ZM10.8332 8.35917H13.3332V10H10.8332V8.35917ZM6.6665 11.6667H9.1665V13.3333H6.6665V11.6667ZM10.8332 11.6667H13.3332V13.3333H10.8332V11.6667Z" fill="#ffffff"/>
</svg>
