<svg width="11" height="21" viewBox="0 0 11 21" fill="none" xmlns="http://www.w3.org/2000/svg">
<path d="M9.5 4.83984V15.3398C9.5 17.5498 7.71 19.3398 5.5 19.3398C3.29 19.3398 1.5 17.5498 1.5 15.3398V4.83984C1.5 3.45984 2.62 2.33984 4 2.33984C5.38 2.33984 6.5 3.45984 6.5 4.83984V14.3398C6.5 14.8898 6.05 15.3398 5.5 15.3398C4.95 15.3398 4.5 14.8898 4.5 14.3398V4.83984H3V14.3398C3 15.7198 4.12 16.8398 5.5 16.8398C6.88 16.8398 8 15.7198 8 14.3398V4.83984C8 2.62984 6.21 0.839844 4 0.839844C1.79 0.839844 0 2.62984 0 4.83984V15.3398C0 18.3798 2.46 20.8398 5.5 20.8398C8.54 20.8398 11 18.3798 11 15.3398V4.83984H9.5Z" fill="#7D848E"/>
</svg>
