<svg width="33" height="36" viewBox="0 0 33 36" fill="none" xmlns="http://www.w3.org/2000/svg">
<path d="M20.2012 24.5781H12.1208C11.7636 24.5781 11.4211 24.72 11.1685 24.9726C10.9159 25.2251 10.774 25.5677 10.774 25.9249C10.774 26.282 10.9159 26.6246 11.1685 26.8771C11.4211 27.1297 11.7636 27.2716 12.1208 27.2716H20.2012C20.5584 27.2716 20.9009 27.1297 21.1535 26.8771C21.406 26.6246 21.5479 26.282 21.5479 25.9249C21.5479 25.5677 21.406 25.2251 21.1535 24.9726C20.9009 24.72 20.5584 24.5781 20.2012 24.5781Z" fill="#B6E3FF"/>
<path d="M12.1208 21.8829H16.161C16.5182 21.8829 16.8607 21.741 17.1133 21.4885C17.3658 21.2359 17.5077 20.8934 17.5077 20.5362C17.5077 20.179 17.3658 19.8365 17.1133 19.5839C16.8607 19.3313 16.5182 19.1895 16.161 19.1895H12.1208C11.7636 19.1895 11.4211 19.3313 11.1685 19.5839C10.9159 19.8365 10.774 20.179 10.774 20.5362C10.774 20.8934 10.9159 21.2359 11.1685 21.4885C11.4211 21.741 11.7636 21.8829 12.1208 21.8829Z" fill="#B6E3FF"/>
<path d="M26.5848 14.2477L19.2586 6.16732C19.1327 6.02781 18.9789 5.91619 18.8073 5.83965C18.6357 5.76311 18.4499 5.72334 18.262 5.7229H8.83485C8.38739 5.71756 7.94327 5.80042 7.52784 5.96673C7.11241 6.13305 6.73381 6.37957 6.41366 6.69222C6.09351 7.00486 5.83809 7.37751 5.66197 7.78888C5.48584 8.20025 5.39248 8.64228 5.38721 9.08973V29.2907C5.39248 29.7382 5.48584 30.1802 5.66197 30.5916C5.83809 31.003 6.09351 31.3756 6.41366 31.6883C6.73381 32.0009 7.11241 32.2474 7.52784 32.4137C7.94327 32.5801 8.38739 32.6629 8.83485 32.6576H23.4873C24.3909 32.668 25.2616 32.3192 25.9081 31.6879C26.5546 31.0565 26.9239 30.1943 26.9349 29.2907V15.15C26.9341 14.8163 26.8093 14.4947 26.5848 14.2477ZM18.8545 9.7631L22.5446 13.8033H19.8511C19.7101 13.7948 19.5722 13.7583 19.4454 13.6959C19.3186 13.6335 19.2056 13.5465 19.1128 13.4399C19.02 13.3333 18.9494 13.2094 18.9051 13.0752C18.8607 12.9411 18.8436 12.7994 18.8545 12.6586V9.7631ZM23.4873 29.9641H8.83485C8.74108 29.9696 8.64716 29.9565 8.55846 29.9255C8.46977 29.8946 8.38805 29.8465 8.31798 29.784C8.24792 29.7214 8.19089 29.6456 8.15017 29.561C8.10945 29.4764 8.08583 29.3845 8.08067 29.2907V9.08973C8.08583 8.99595 8.10945 8.9041 8.15017 8.81947C8.19089 8.73483 8.24792 8.65906 8.31798 8.5965C8.38805 8.53395 8.46977 8.48583 8.55846 8.45492C8.64716 8.42401 8.74108 8.41091 8.83485 8.41637H16.1611V12.6586C16.1393 13.6506 16.5109 14.611 17.1947 15.3301C17.8784 16.0491 18.8189 16.4686 19.8107 16.4968H24.2415V29.2907C24.2363 29.3845 24.2127 29.4764 24.172 29.561C24.1313 29.6456 24.0742 29.7214 24.0042 29.784C23.9341 29.8465 23.8524 29.8946 23.7637 29.9255C23.675 29.9565 23.5811 29.9696 23.4873 29.9641Z" fill="#B6E3FF"/>
<path d="M20.2009 21.5488H12.1205C11.7634 21.5488 11.4208 21.6907 11.1683 21.9433C10.9157 22.1958 10.7738 22.5384 10.7738 22.8956C10.7738 23.2527 10.9157 23.5953 11.1683 23.8478C11.4208 24.1004 11.7634 24.2423 12.1205 24.2423H20.2009C20.5581 24.2423 20.9007 24.1004 21.1532 23.8478C21.4058 23.5953 21.5477 23.2527 21.5477 22.8956C21.5477 22.5384 21.4058 22.1958 21.1532 21.9433C20.9007 21.6907 20.5581 21.5488 20.2009 21.5488Z" fill="#2490D3"/>
<path d="M12.1205 18.8536H16.1607C16.5179 18.8536 16.8605 18.7117 17.113 18.4592C17.3656 18.2066 17.5075 17.8641 17.5075 17.5069C17.5075 17.1497 17.3656 16.8072 17.113 16.5546C16.8605 16.302 16.5179 16.1602 16.1607 16.1602H12.1205C11.7634 16.1602 11.4208 16.302 11.1683 16.5546C10.9157 16.8072 10.7738 17.1497 10.7738 17.5069C10.7738 17.8641 10.9157 18.2066 11.1683 18.4592C11.4208 18.7117 11.7634 18.8536 12.1205 18.8536Z" fill="#2490D3"/>
<path d="M26.5846 11.2184L19.2583 3.13802C19.1324 2.99851 18.9787 2.8869 18.8071 2.81036C18.6354 2.73382 18.4497 2.69405 18.2617 2.6936H8.8346C8.38715 2.68826 7.94303 2.77112 7.5276 2.93744C7.11217 3.10375 6.73357 3.35027 6.41342 3.66292C6.09327 3.97556 5.83784 4.34821 5.66172 4.75958C5.4856 5.17095 5.39224 5.61298 5.38696 6.06044V26.2614C5.39224 26.7089 5.4856 27.1509 5.66172 27.5623C5.83784 27.9737 6.09327 28.3463 6.41342 28.659C6.73357 28.9716 7.11217 29.2181 7.5276 29.3844C7.94303 29.5508 8.38715 29.6336 8.8346 29.6283H23.4871C24.3906 29.6387 25.2614 29.2899 25.9079 28.6586C26.5543 28.0272 26.9237 27.165 26.9347 26.2614V12.1207C26.9338 11.787 26.809 11.4654 26.5846 11.2184ZM18.8543 6.7338L22.5443 10.774H19.8509C19.7099 10.7655 19.5719 10.729 19.4452 10.6666C19.3184 10.6042 19.2053 10.5172 19.1126 10.4106C19.0198 10.304 18.9492 10.1801 18.9048 10.0459C18.8605 9.91178 18.8433 9.77014 18.8543 9.62928V6.7338ZM23.4871 26.9348H8.8346C8.74083 26.9403 8.64691 26.9272 8.55822 26.8963C8.46952 26.8653 8.3878 26.8172 8.31774 26.7547C8.24768 26.6921 8.19065 26.6163 8.14993 26.5317C8.10921 26.4471 8.08559 26.3552 8.08043 26.2614V6.06044C8.08559 5.96665 8.10921 5.87481 8.14993 5.79017C8.19065 5.70553 8.24768 5.62976 8.31774 5.5672C8.3878 5.50465 8.46952 5.45654 8.55822 5.42562C8.64691 5.39471 8.74083 5.38161 8.8346 5.38707H16.1608V9.62928C16.1391 10.6213 16.5106 11.5817 17.1944 12.3008C17.8782 13.0198 18.8186 13.4393 19.8105 13.4675H24.2412V26.2614C24.2361 26.3552 24.2125 26.4471 24.1717 26.5317C24.131 26.6163 24.074 26.6921 24.0039 26.7547C23.9339 26.8172 23.8521 26.8653 23.7634 26.8963C23.6748 26.9272 23.5808 26.9403 23.4871 26.9348Z" fill="#2490D3"/>
</svg>
