<svg width="28" height="28" viewBox="0 0 28 28" fill="none" xmlns="http://www.w3.org/2000/svg">
<path fillRule="evenodd" clipRule="evenodd" d="M14.1609 0.533203C6.7135 0.533203 0.693604 6.5531 0.693604 14.0005C0.693604 21.448 6.7135 27.4679 14.1609 27.4679C21.6084 27.4679 27.6283 21.448 27.6283 14.0005C27.6283 6.5531 21.6084 0.533203 14.1609 0.533203ZM14.1609 24.7744C8.22185 24.7744 3.38707 19.9396 3.38707 14.0005C3.38707 8.06145 8.22185 3.22667 14.1609 3.22667C20.1 3.22667 24.9348 8.06145 24.9348 14.0005C24.9348 19.9396 20.1 24.7744 14.1609 24.7744ZM14.1609 12.1016L18.9957 7.26687L20.8946 9.16577L16.0598 14.0005L20.8946 18.8353L18.9957 20.7342L14.1609 15.8994L9.32617 20.7342L7.42727 18.8353L12.262 14.0005L7.42727 9.16577L9.32617 7.26687L14.1609 12.1016Z" fill="#2490D3"/>
</svg>
