<svg width="21" height="20" viewBox="0 0 21 20" fill="none" xmlns="http://www.w3.org/2000/svg">
<path d="M10.4998 11.6667C12.3382 11.6667 13.8332 10.1717 13.8332 8.33333C13.8332 6.495 12.3382 5 10.4998 5C8.6615 5 7.1665 6.495 7.1665 8.33333C7.1665 10.1717 8.6615 11.6667 10.4998 11.6667ZM10.4998 6.66667C11.419 6.66667 12.1665 7.41417 12.1665 8.33333C12.1665 9.2525 11.419 10 10.4998 10C9.58067 10 8.83317 9.2525 8.83317 8.33333C8.83317 7.41417 9.58067 6.66667 10.4998 6.66667Z" fill="#ffffff"/>
<path d="M10.0169 18.1777C10.1579 18.2784 10.3269 18.3326 10.5002 18.3326C10.6735 18.3326 10.8425 18.2784 10.9836 18.1777C11.2369 17.9985 17.1919 13.6993 17.1669 8.33268C17.1669 4.65685 14.1761 1.66602 10.5002 1.66602C6.82524 1.66602 3.83357 4.65685 3.83357 8.32852C3.8094 13.6993 9.76357 17.9985 10.0169 18.1777ZM10.5002 3.33268C13.2586 3.33268 15.5002 5.57518 15.5002 8.33685C15.5177 12.0352 11.8436 15.356 10.5002 16.4452C9.15857 15.3552 5.48357 12.0335 5.50024 8.33268C5.50024 5.57518 7.74274 3.33268 10.5002 3.33268Z" fill="#ffffff"/>
</svg>
