<svg width="224" height="224" viewBox="0 0 224 224" fill="none" xmlns="http://www.w3.org/2000/svg">
<mask id="mask0_2656_13969" style="mask-type:alpha" maskUnits="userSpaceOnUse" x="0" y="0" width="224" height="224">
<rect width="224" height="224" rx="10" fill="#D9D9D9"/>
</mask>
<g mask="url(#mask0_2656_13969)">
<path d="M224 280.263C224 281.599 222.765 282.691 221.232 282.691H2.76289C1.23453 282.691 0 281.599 0 280.263V-8.57071C0 -9.90631 1.23453 -10.9986 2.76289 -10.9986H221.232C222.765 -10.9986 224 -9.90631 224 -8.57071V280.263Z" fill="url(#paint0_linear_2656_13969)"/>
<path d="M79.7368 217.818L74.7156 220.618L70.7042 177.718L79.4659 172.385L77.8182 172.422L6.33369 201.874C6.33369 201.874 2.38201 201.874 0.183543 204.935L0 205.247V280.224C0 281.56 1.23453 282.652 2.76289 282.652H99.8259C95.9981 272.684 91.6975 260.268 88.0762 247.408C85.0654 236.7 82.1142 227.209 79.7368 217.818Z" fill="black"/>
<path d="M218.469 200.318L145.424 170.829L81.1228 172.348L109.584 201.144L108.262 201.883C110.451 203.108 112.218 203.801 113.2 203.723C114.93 203.586 117.487 202.31 120.521 200.143L118.4 198.812L144.745 171.738L154.898 177.328L152.896 220.618L148.311 217.722C146.296 226.305 143.373 235.516 140.467 245.852C136.745 259.08 132.28 272.174 128.36 282.652H221.232C222.765 282.652 224 281.56 224 280.224V202.677C221.756 200.35 218.469 200.318 218.469 200.318Z" fill="black"/>
<path d="M153.677 176.414L143.658 169.727C143.208 162.443 143.267 154.48 144.709 148.095C147.931 133.872 79.769 146.599 79.769 146.599C80.5171 153.442 80.7742 161.956 80.485 170.098L72.4944 175.881C72.4944 175.881 73.2884 203.833 112.149 211.282C151.015 218.735 153.677 176.414 153.677 176.414Z" fill="url(#paint1_linear_2656_13969)"/>
<path d="M161.392 97.202C161.301 71.6329 145.751 53.8064 112.246 54.4949C78.1812 55.2017 63.7145 66.4877 65.2199 97.4498C61.0892 96.2794 57.9866 97.5967 58.8036 102.751C59.8225 109.222 61.3601 126.631 64.94 129.619C66.6795 131.069 68.4144 132.029 69.9795 132.258C71.3243 138.831 72.8985 144.77 74.6564 148.529C82.0963 164.409 97.9445 173.9 112.246 173.9C125.694 173.9 142.263 165.079 149.831 150.764C152.58 145.559 154.416 139.088 155.935 132.217C157.45 131.941 159.116 131.01 160.782 129.619C164.367 126.631 165.9 109.222 166.918 102.751C167.676 97.9685 165.069 96.4677 161.392 97.202Z" fill="url(#paint2_radial_2656_13969)"/>
<path d="M135.451 51.6136C133.533 44.1324 136.424 40.8003 121.352 37.2754C105.329 33.5348 91.335 32.8096 75.9549 44.6648C63.8519 53.9819 60.4692 63.4642 61.1118 80.3038C61.7498 97.1342 63.4434 98.6948 63.4434 98.6948L73.0266 106.148C73.0266 106.148 74.6101 81.3548 79.9479 76.3383C88.7326 68.0814 107.257 68.4532 118.148 65.9564C129.044 63.4642 135.451 51.6136 135.451 51.6136Z" fill="url(#paint3_radial_2656_13969)"/>
<path d="M128.92 53.71C132.766 62.4397 146.347 70.3202 150.831 77.806C155.32 85.2872 155.536 106.68 155.536 106.68L163.866 99.8181C163.866 99.8181 170.062 77.8059 161.732 60.3421C153.401 42.8875 139.94 36.6547 131.61 41.0149C123.275 45.3797 128.92 53.71 128.92 53.71Z" fill="url(#paint4_radial_2656_13969)"/>
<path d="M97.4761 282.691C94.4147 272.681 90.7567 260.096 87.1355 247.218C84.12 236.505 81.2239 228.785 78.8464 219.39L73.8253 222.199L66.9041 175.885L79.6818 168.165L110.116 199.554L108.794 200.288C110.983 201.513 112.755 202.206 113.733 202.128C115.458 201.991 115.238 201.738 118.272 199.567L118.933 197.218L143.561 167.632L156.867 173.755L153.14 222.199L148.555 219.303C146.54 227.886 143.901 233.917 141 244.253C137.237 257.641 133.193 271.626 129.81 282.691H97.4761Z" fill="url(#paint5_radial_2656_13969)"/>
<path d="M116.501 195.124H110.566L102.649 202.821C102.649 202.821 107.487 204.363 108.432 214.975C111.512 215.177 112.54 215.2 113.536 215.172C114.527 215.2 115.56 215.177 118.635 214.975C119.59 204.363 125.267 202.569 125.267 202.569L116.501 195.124Z" fill="black"/>
<path d="M118.226 213.587L114.545 211.994V211.269L113.536 211.636L112.526 211.269V211.994L108.836 213.587C104.223 217.681 104.31 233.263 104.31 237.38V282.639H122.756V237.38C122.756 233.263 122.844 217.681 118.226 213.587Z" fill="black"/>
<path d="M116.5 195.121L148.22 216.895L117.216 197.98L116.5 195.121Z" fill="black"/>
<path d="M110.566 195.122L80.6597 216.115L110.534 197.981L110.566 195.122Z" fill="black"/>
</g>
<rect x="1.5" y="1.5" width="221" height="221" rx="8.5" stroke="#D9D9D9" strokeWidth="3"/>
<defs>
<linearGradient id="paint0_linear_2656_13969" x1="235.805" y1="-45.302" x2="-22.5782" y2="332.77" gradientUnits="userSpaceOnUse">
<stop stop-color="white"/>
<stop offset="0.109091" stop-color="white"/>
<stop offset="0.441638" stop-color="white"/>
<stop offset="0.448485" stop-color="white"/>
<stop offset="0.712585" stop-color="#C2C2C2"/>
<stop offset="0.8" stop-color="#C2C2C2"/>
<stop offset="1" stop-color="#C2C2C2"/>
</linearGradient>
<linearGradient id="paint1_linear_2656_13969" x1="169.736" y1="130.82" x2="70.3891" y2="206.094" gradientUnits="userSpaceOnUse">
<stop stop-color="#FAD1BF"/>
<stop offset="0.284914" stop-color="#FAD1BF"/>
<stop offset="0.8" stop-color="#BF7D59"/>
<stop offset="0.950264" stop-color="#D9BFA8"/>
<stop offset="1" stop-color="#D9BFA8"/>
</linearGradient>
<radialGradient id="paint2_radial_2656_13969" cx="0" cy="0" r="1" gradientUnits="userSpaceOnUse" gradientTransform="translate(133.203 76.911) scale(107.433 107.433)">
<stop stop-color="#FAD6C4"/>
<stop offset="0.194999" stop-color="#FAD6C4"/>
<stop offset="0.438778" stop-color="#FAD6C4"/>
<stop offset="0.848485" stop-color="#D6A88F"/>
<stop offset="1" stop-color="#D8A887"/>
</radialGradient>
<radialGradient id="paint3_radial_2656_13969" cx="0" cy="0" r="1" gradientUnits="userSpaceOnUse" gradientTransform="translate(132.381 19.7061) scale(148.208 148.208)">
<stop stop-color="#59260F"/>
<stop offset="0.194999" stop-color="#59260F"/>
<stop offset="0.360822" stop-color="#59260F"/>
<stop offset="0.660606" stop-color="#1C0000"/>
<stop offset="0.9156" stop-color="#160D0B"/>
<stop offset="1" stop-color="#160D0B"/>
</radialGradient>
<radialGradient id="paint4_radial_2656_13969" cx="0" cy="0" r="1" gradientUnits="userSpaceOnUse" gradientTransform="translate(132.225 20.811) scale(145.23 145.23)">
<stop stop-color="#59260F"/>
<stop offset="0.194999" stop-color="#59260F"/>
<stop offset="0.360822" stop-color="#59260F"/>
<stop offset="0.660606" stop-color="#1C0000"/>
<stop offset="0.9156" stop-color="#160D0B"/>
<stop offset="1" stop-color="#160D0B"/>
</radialGradient>
<radialGradient id="paint5_radial_2656_13969" cx="0" cy="0" r="1" gradientUnits="userSpaceOnUse" gradientTransform="translate(110.341 152.528) scale(166.752 166.752)">
<stop stop-color="white"/>
<stop offset="0.194999" stop-color="white"/>
<stop offset="0.302544" stop-color="white"/>
<stop offset="0.49697" stop-color="#D8DBD9"/>
<stop offset="0.697322" stop-color="#C2BFBF"/>
<stop offset="0.763636" stop-color="#C2BFBF"/>
<stop offset="1" stop-color="#C2BFBF"/>
</radialGradient>
</defs>
</svg>
