<svg width="33" height="36" viewBox="0 0 33 36" fill="none" xmlns="http://www.w3.org/2000/svg">
<path fillRule="evenodd" clipRule="evenodd" d="M16.161 8.41992C13.1847 8.41992 10.7741 10.8306 10.7741 13.8069C10.7741 16.7831 13.1847 19.1938 16.161 19.1938C19.1373 19.1938 21.5479 16.7831 21.5479 13.8069C21.5479 10.8306 19.1373 8.41992 16.161 8.41992ZM18.8543 13.8062C18.8543 12.3248 17.6422 11.1127 16.1608 11.1127C14.6794 11.1127 13.4674 12.3248 13.4674 13.8062C13.4674 15.2876 14.6794 16.4997 16.1608 16.4997C17.6422 16.4997 18.8543 15.2876 18.8543 13.8062ZM24.2411 25.9268C23.9717 24.9706 19.7968 23.2333 16.1607 23.2333C12.5245 23.2333 8.34961 24.9706 8.08027 25.9403V27.2735H24.2411V25.9268ZM5.38696 25.9275C5.38696 22.3451 12.5651 20.5405 16.1608 20.5405C19.7566 20.5405 26.9347 22.3451 26.9347 25.9275V29.9677H5.38696V25.9275Z" fill="#B6E3FF"/>
<path fillRule="evenodd" clipRule="evenodd" d="M16.161 5.38867C13.1847 5.38867 10.7741 7.79932 10.7741 10.7756C10.7741 13.7519 13.1847 16.1625 16.161 16.1625C19.1373 16.1625 21.5479 13.7519 21.5479 10.7756C21.5479 7.79932 19.1373 5.38867 16.161 5.38867ZM18.8543 10.7749C18.8543 9.29354 17.6422 8.08148 16.1608 8.08148C14.6794 8.08148 13.4674 9.29354 13.4674 10.7749C13.4674 12.2564 14.6794 13.4684 16.1608 13.4684C17.6422 13.4684 18.8543 12.2564 18.8543 10.7749ZM24.2411 22.8956C23.9717 21.9394 19.7968 20.2021 16.1607 20.2021C12.5245 20.2021 8.34961 21.9394 8.08027 22.909V24.2423H24.2411V22.8956ZM5.38696 22.8962C5.38696 19.3139 12.5651 17.5093 16.1608 17.5093C19.7566 17.5093 26.9347 19.3139 26.9347 22.8962V26.9364H5.38696V22.8962Z" fill="#2490D3"/>
</svg>
