<svg width="68" height="70" viewBox="0 0 68 70" fill="none" xmlns="http://www.w3.org/2000/svg">
<path d="M37.9985 3.71116C37.9985 5.33172 39.2917 6.64453 40.8867 6.64453C42.4829 6.64453 43.7761 5.33172 43.7761 3.71116C43.7761 2.09049 42.4829 0.777678 40.8867 0.777678C39.2917 0.777678 37.9985 2.09049 37.9985 3.71116Z" fill="#6DC6FD"/>
<path d="M35.7505 9.01665C35.7342 8.09609 36.4621 7.34026 37.3688 7.34026H38.9057H42.8828H44.4024H44.4523C45.3485 7.34026 46.074 8.07984 46.0729 8.98856C46.0694 11.4811 46.0717 13.8909 46.0763 16.4157C46.0787 17.3109 45.3647 18.0387 44.4836 18.0387H44.4802L44.4651 18.0378C44.4871 20.155 44.4918 22.2699 44.4755 24.349C44.4685 25.2406 43.7546 25.957 42.8805 25.957H42.8666C41.9855 25.9502 41.2762 25.2187 41.2843 24.3236C41.3017 21.9357 41.2924 20.4987 41.2588 18.0654H40.7039C40.6667 20.4706 40.6563 21.894 40.6725 24.2796C40.6795 25.1743 39.9714 25.9057 39.0891 25.913H39.0764C38.2011 25.913 37.4883 25.1952 37.4814 24.3036C37.4663 22.2259 37.4721 20.12 37.4988 18.0223L37.2921 18.0387L37.241 18.0378C36.36 18.0097 35.6692 17.2609 35.6971 16.3672C35.7749 13.8423 35.7934 11.459 35.7505 9.01665Z" fill="#6DC6FD"/>
<path d="M49.6265 20.2541C49.6265 21.8747 50.9196 23.1875 52.5147 23.1875C54.1108 23.1875 55.4041 21.8747 55.4041 20.2541C55.4041 18.6335 54.1108 17.3206 52.5147 17.3206C50.9196 17.3206 49.6265 18.6335 49.6265 20.2541Z" fill="#2490D3"/>
<path d="M47.0693 25.5577C47.0531 24.6371 47.7821 23.8813 48.6887 23.8813H50.2246H54.2028H55.7224H55.7723C56.6673 23.8813 57.3929 24.6209 57.3917 25.5296C57.3894 28.0222 57.3905 30.4319 57.3963 32.9567C57.3986 33.8519 56.6836 34.5797 55.8036 34.5797H55.8001L55.7839 34.5788C55.806 36.696 55.8106 38.8109 55.7944 40.89C55.7874 41.7816 55.0746 42.498 54.1993 42.498H54.1854C53.3043 42.4912 52.5962 41.7597 52.6032 40.8646C52.6206 38.4767 52.6113 37.0397 52.5776 34.6064H52.0239C51.9856 37.0116 51.9751 38.435 51.9926 40.8206C51.9984 41.7153 51.2902 42.4467 50.408 42.4541H50.3964C49.5199 42.4541 48.8072 41.7362 48.8002 40.8446C48.7863 38.7669 48.7909 36.661 48.8176 34.5634L48.611 34.5797L48.5599 34.5788C47.6788 34.5507 46.9881 33.802 47.016 32.9082C47.0949 30.3833 47.1123 28 47.0693 25.5577Z" fill="#2490D3"/>
<path d="M19.3975 3.71116C19.3975 5.33172 18.1043 6.64453 16.5093 6.64453C14.9131 6.64453 13.6199 5.33172 13.6199 3.71116C13.6199 2.09049 14.9131 0.777678 16.5093 0.777678C18.1043 0.777678 19.3975 2.09049 19.3975 3.71116Z" fill="#6DC6FD"/>
<path d="M21.6455 9.01665C21.6618 8.09609 20.9339 7.34026 20.0272 7.34026H18.4903H14.5132H12.9936H12.9437C12.0475 7.34026 11.322 8.07984 11.3231 8.98856C11.3266 11.4811 11.3243 13.8909 11.3197 16.4157C11.3173 17.3109 12.0313 18.0387 12.9123 18.0387H12.9158L12.9309 18.0378C12.9089 20.155 12.9042 22.2699 12.9205 24.349C12.9274 25.2406 13.6414 25.957 14.5155 25.957H14.5294C15.4105 25.9502 16.1198 25.2187 16.1117 24.3236C16.0943 21.9357 16.1035 20.4987 16.1372 18.0654H16.6921C16.7293 20.4706 16.7397 21.894 16.7234 24.2796C16.7165 25.1743 17.4246 25.9057 18.3069 25.913H18.3196C19.1949 25.913 19.9077 25.1952 19.9146 24.3036C19.9297 22.2259 19.9239 20.12 19.8972 18.0223L20.1039 18.0387L20.1549 18.0378C21.036 18.0097 21.7268 17.2609 21.6989 16.3672C21.6211 13.8423 21.6025 11.459 21.6455 9.01665Z" fill="#6DC6FD"/>
<path d="M7.76953 20.2541C7.76953 21.8747 6.47635 23.1875 4.88133 23.1875C3.28516 23.1875 1.99195 21.8747 1.99195 20.2541C1.99195 18.6335 3.28516 17.3206 4.88133 17.3206C6.47635 17.3206 7.76953 18.6335 7.76953 20.2541Z" fill="#2490D3"/>
<path d="M10.3271 25.5577C10.3434 24.6371 9.61438 23.8813 8.70775 23.8813H7.17191H3.19368H1.67411H1.6242C0.72918 23.8813 0.00362206 24.6209 0.00478268 25.5296C0.00710487 28.0222 0.00596809 30.4319 0.000163078 32.9567C-0.00215816 33.8519 0.712926 34.5797 1.59286 34.5797H1.59634L1.61258 34.5788C1.59052 36.696 1.58587 38.8109 1.60212 40.89C1.60909 41.7816 2.32185 42.498 3.19714 42.498H3.21108C4.09217 42.4912 4.80028 41.7597 4.79332 40.8646C4.7759 38.4767 4.78522 37.0397 4.81888 34.6064H5.37258C5.41089 37.0116 5.42134 38.435 5.40393 40.8206C5.39812 41.7153 6.10626 42.4467 6.98851 42.4541H7.00011C7.87655 42.4541 8.58932 41.7362 8.59628 40.8446C8.61021 38.7669 8.60558 36.661 8.57888 34.5634L8.78552 34.5797L8.83659 34.5788C9.71768 34.5507 10.4084 33.802 10.3805 32.9082C10.3016 30.3833 10.2842 28 10.3271 25.5577Z" fill="#2490D3"/>
<path d="M59.3751 26.7012H59.2166V26.0806H58.9351V25.9795H59.6567V26.0806H59.3751V26.7012Z" fill="#274267"/>
<path d="M64.7077 29.2066L61.7072 29.5879C61.5981 29.2777 61.5026 28.1558 61.5749 27.012L59.1171 27.0038C59.0012 27.0038 58.8894 26.9259 58.7966 26.8152C58.6002 26.5788 58.5716 26.2413 58.6998 25.9625C58.753 25.8463 58.8266 25.7534 58.918 25.722L58.963 25.7056L58.2197 25.7029C57.8365 25.7015 57.5187 25.4022 57.4928 25.0182C57.4682 24.6397 57.7369 24.3035 58.112 24.2461L58.5252 24.1833L58.2347 24.1218C57.8637 24.0425 57.6046 23.7064 57.621 23.3278C57.6373 22.9151 57.9729 22.5886 58.3834 22.5804L61.5749 22.5448V19.3207C62.6109 19.3207 62.7631 18.9818 62.6109 21.778C62.7631 22.0929 62.9166 22.0795 62.9998 22.1669C63.1812 22.3596 63.0835 22.5804 62.9998 22.5558C64.271 22.8728 64.6818 25.4651 64.7077 29.2066Z" fill="#F68B6C"/>
<path d="M67.0591 55.8248C66.8744 57.1452 66.0124 58.2967 64.7768 58.7687C64.5879 58.842 64.3923 58.9071 64.1898 58.9624C62.8857 59.3181 61.4996 59.2185 60.2367 58.7424C55.6446 57.0137 51.37 54.3646 47.3882 50.8713L48.6758 43.0902L49.988 35.1707C50.2343 35.2371 54.279 38.6142 56.8775 40.7968C58.1226 41.8432 59.0339 42.6127 59.0339 42.6127C59.3596 36.6572 59.9261 31.9348 60.8743 29.2138C62.3521 28.7598 63.7273 28.7418 64.9889 29.2138C65.0792 29.5681 65.1667 29.9224 65.2529 30.2781V30.2809C67.2466 38.4703 68.3029 46.8769 67.0591 55.8248Z" fill="#4CA0FB"/>
<path d="M58.935 50.5156C58.935 50.5156 56.6014 46.6526 56.7797 41.1342C57.8615 42.1753 58.6532 42.9411 58.6532 42.9411C58.6532 42.9411 58.2253 46.7407 58.935 50.5156Z" fill="#137DF0"/>
<path d="M67.0481 55.8282C66.8596 57.1472 65.98 58.2976 64.7191 58.7691C64.5264 58.8424 64.3268 58.9073 64.1201 58.9626C62.7895 59.318 61.375 59.2184 60.0863 58.7428C55.4003 57.0159 50.7297 54.2326 46.6665 50.7427L47.5043 41.7499C49.043 44.9826 53.2598 52.0162 58.9539 53.591C66.9951 55.8129 65.2288 30.643 65.205 30.3098C67.2394 38.491 68.3174 46.8893 67.0481 55.8282Z" fill="#137DF0"/>
<path d="M16.6032 58.4946C16.9425 63.2049 17.0495 67.4783 17.0791 70H6.47965C3.73128 52.959 3.97261 38.9139 10.2936 35.3608C13.9413 37.4512 15.6355 47.2257 16.4188 56.2038C16.487 56.9752 16.5463 57.7411 16.6032 58.4946Z" fill="#4CA0FB"/>
<path d="M19.966 70H15.0581C13.3403 59.5176 12.6284 52.5873 12.7662 48.6593C12.8466 46.3679 13.2174 45.0977 13.8464 44.7423L16.6616 56.3567L17.2314 58.7096L19.966 70Z" fill="#137DF0"/>
<path d="M25.0171 24.4842V33.918H35.1202V23.0932L25.0171 24.4842Z" fill="#EC7456"/>
<path d="M29.856 2.88769H29.5603C25.0586 2.88769 21.4092 6.38226 21.4092 10.692V18.7425C21.4092 20.3606 22.0928 21.9113 23.3055 23.0385L24.8207 24.4476C25.8786 25.4292 27.2945 25.9805 28.768 25.9805H29.7082H30.6483C32.1218 25.9805 33.5377 25.4292 34.5956 24.4476L36.1108 23.0385C37.3235 21.9113 38.0071 20.3606 38.0071 18.7425V10.692C38.0071 6.38226 34.3577 2.88769 29.856 2.88769Z" fill="#F68B6C"/>
<path d="M32.9553 20.9279C32.9553 21.7918 32.531 22.565 31.8555 23.0939C31.284 23.5425 30.5306 23.8145 29.7079 23.8145C28.8853 23.8145 28.1318 23.5425 27.5604 23.0939C26.8849 22.565 26.4604 21.7918 26.4604 20.9279H32.9553Z" fill="#210E16"/>
<path d="M30.0688 23.0928C30.9009 23.0928 31.6588 23.1565 32.2337 23.2626C31.631 23.6196 30.8637 23.8145 30.0688 23.8145C29.2737 23.8145 28.5064 23.6196 27.9038 23.2626C28.4786 23.1565 29.2365 23.0928 30.0688 23.0928Z" fill="#210E16"/>
<path d="M32.9553 20.9268C32.7656 21.333 31.3872 21.6484 29.7079 21.6484C28.0287 21.6484 26.6501 21.333 26.4604 20.9268H32.9553Z" fill="#210E16"/>
<path d="M32.9553 20.9268C32.7656 21.333 31.3872 21.6484 29.7079 21.6484C28.0287 21.6484 26.6501 21.333 26.4604 20.9268H32.9553Z" fill="#FDDDC0"/>
<path d="M32.2337 23.2626C31.631 23.6196 30.8637 23.8145 30.0688 23.8145C29.2737 23.8145 28.5064 23.6196 27.9038 23.2626C28.4786 23.1565 29.2365 23.0928 30.0688 23.0928C30.9009 23.0928 31.6588 23.1565 32.2337 23.2626Z" fill="#FDDDC0"/>
<path d="M27.1821 14.0724C27.1821 14.6694 26.859 15.1543 26.4605 15.1543C26.0619 15.1543 25.7388 14.6694 25.7388 14.0724C25.7388 13.4743 26.0619 12.9893 26.4605 12.9893C26.859 12.9893 27.1821 13.4743 27.1821 14.0724Z" fill="#40383E"/>
<path d="M33.6772 14.0724C33.6772 14.6694 33.3541 15.1543 32.9556 15.1543C32.557 15.1543 32.2339 14.6694 32.2339 14.0724C32.2339 13.4743 32.557 12.9893 32.9556 12.9893C33.3541 12.9893 33.6772 13.4743 33.6772 14.0724Z" fill="#40383E"/>
<path d="M30.0973 13.7111C30.3205 14.5075 30.5006 15.3092 30.6654 16.1148C30.7542 16.5444 30.9095 17.0366 30.636 17.4448C30.1471 18.2398 28.5478 18.2398 28.0583 17.4448C27.785 17.0379 27.9396 16.5457 28.0287 16.1148C28.1934 15.3092 28.3736 14.5075 28.5976 13.7111C28.5564 14.5341 28.4717 15.3518 28.3714 16.1669L28.2959 16.7698C28.2325 17.5795 29.2834 17.7355 29.8983 17.5235C30.2141 17.4167 30.4333 17.0953 30.3993 16.7698L30.324 16.1669C30.2238 15.3518 30.1388 14.5341 30.0973 13.7111Z" fill="#EC7456"/>
<path d="M38.639 11.9204C38.639 11.9204 39.1471 12.5781 37.7449 12.083C36.3428 11.5894 34.3673 5.58549 34.3673 5.58549C31.0522 6.86031 24.541 5.7075 24.541 5.7075C23.2755 8.92472 21.6493 12.083 21.6493 12.083L20.6875 11.9204L21.1655 4.96841C21.3783 3.80858 21.8285 2.9012 22.4646 2.19577C22.8947 1.71473 23.4121 1.32625 23.9945 1.02192C25.4324 0.268806 27.2714 -0.000463486 29.2402 -0.000463486C32.1721 -0.000463486 34.7928 0.376797 36.2218 2.42718C36.5264 2.86053 36.7751 3.36681 36.9632 3.96005L38.639 11.9204Z" fill="#DF4538"/>
<path d="M24.2957 5.75253C24.3102 9.16146 22.2575 12.3311 21.6305 12.2666L20.7439 12.1004C20.5971 9.88509 20.7342 7.52219 21.1845 4.99738C21.3806 3.81235 21.7956 2.88525 22.3819 2.16448C22.7142 4.20354 23.2655 5.63503 24.2957 5.75253Z" fill="#AC312D"/>
<path d="M38.6398 11.9365C38.6398 11.9365 39.1442 12.5636 37.7521 12.0916C36.3601 11.621 34.3989 5.89714 34.3989 5.89714C35.6415 5.29414 36.1725 4.23788 36.24 2.88614C36.5424 3.29928 36.7893 3.78195 36.9761 4.34752C37.9659 6.82638 38.5631 9.35071 38.6398 11.9365Z" fill="#AC312D"/>
<path d="M23.5742 10.855L24.0295 12.2676L27.1825 11.6174L26.9984 10.1026L23.5742 10.855Z" fill="#DF4538"/>
<path d="M35.1205 10.855L34.7564 12.2676L32.2339 11.6174L32.3812 10.1026L35.1205 10.855Z" fill="#DF4538"/>
<path d="M22.0931 14.021C22.2954 16.006 21.6609 18.6046 20.6855 18.7567C19.7102 18.9087 18.7632 16.5564 18.5608 14.5714C18.3583 12.5865 18.9771 11.7212 19.9525 11.5691C20.928 11.4171 21.8906 12.0361 22.0931 14.021Z" fill="#F68B6C"/>
<path d="M20.8221 17.0872C20.8221 17.4431 20.9127 17.7721 21.0676 18.041C20.3926 18.0141 19.6702 16.9939 19.3731 15.5781C19.0428 14.0011 19.3688 12.5332 20.1017 12.2991C20.8344 12.0666 21.6972 13.1564 22.0274 14.7335C22.0769 14.9676 22.1101 15.2001 22.1307 15.4263C21.404 15.4516 20.8221 16.1871 20.8221 17.0872Z" fill="#EC7456"/>
<path d="M37.3233 14.021C37.1208 16.006 37.7555 18.6046 38.7309 18.7567C39.7062 18.9087 40.6532 16.5564 40.8556 14.5714C41.0579 12.5865 40.4393 11.7212 39.4638 11.5691C38.4884 11.4171 37.5257 12.0361 37.3233 14.021Z" fill="#F68B6C"/>
<path d="M38.9883 17.0872C38.9883 17.4431 38.9203 17.7721 38.8041 18.041C39.3104 18.0141 39.8521 16.9939 40.0751 15.5781C40.3228 14.0011 40.0781 12.5332 39.5286 12.2991C38.9791 12.0666 38.3319 13.1564 38.0843 14.7335C38.0471 14.9676 38.0223 15.2001 38.0068 15.4263C38.5518 15.4516 38.9883 16.1871 38.9883 17.0872Z" fill="#EC7456"/>
<path d="M29.3405 31.0315H31.5184L34.3986 35.7757C31.7525 37.1477 29.1065 37.1477 26.4604 35.7757L29.3405 31.0315Z" fill="#086EAE"/>
<path d="M50.2752 35.5662C48.6001 45.1164 47.6193 52.3069 45.8981 58.1588C45.1409 60.7054 44.719 65.62 44.2314 70H17.0415C16.5246 65.3616 15.875 60.9239 15.3446 58.1588C14.3576 54.837 13.2272 51.8877 12.4971 48.5481C11.6595 44.7165 11.3913 40.1647 10.5845 35.5662C14.3985 33.2065 18.4956 31.6686 22.9073 31.0309C26.1301 34.6619 30.4295 34.0778 30.4295 34.0778C30.4295 34.0778 34.7312 34.6619 37.954 31.0309C41.7815 31.1464 45.9386 32.9151 50.2752 35.5662Z" fill="#4CA0FB"/>
<path d="M25.2616 27.4222C25.2616 27.4222 22.9639 30.3748 22.8857 30.5919C22.4704 31.7404 26.0273 36.9693 26.5904 35.9514L29.3469 31.1683L25.2616 27.4222Z" fill="#B3B3BF"/>
<path d="M35.1437 27.4222C35.1437 27.4222 37.1861 30.3748 37.2555 30.5919C37.6247 31.7404 34.4631 36.9693 33.9625 35.9514L31.5122 31.1683L35.1437 27.4222Z" fill="#B3B3BF"/>
</svg>
