<svg width="14" height="18" viewBox="0 0 14 18" fill="none" xmlns="http://www.w3.org/2000/svg">
<path d="M13.4502 5.94214L8.91683 0.942142C8.83892 0.855815 8.7438 0.78675 8.6376 0.739388C8.53139 0.692027 8.41645 0.667417 8.30016 0.667142H2.46683C2.18995 0.66384 1.91514 0.715109 1.65808 0.818022C1.40102 0.920936 1.16675 1.07348 0.968648 1.26694C0.770545 1.4604 0.612491 1.69098 0.503511 1.94553C0.394531 2.20008 0.33676 2.4736 0.333496 2.75048V15.2505C0.33676 15.5274 0.394531 15.8009 0.503511 16.0554C0.612491 16.31 0.770545 16.5406 0.968648 16.734C1.16675 16.9275 1.40102 17.08 1.65808 17.1829C1.91514 17.2858 2.18995 17.3371 2.46683 17.3338H11.5335C12.0926 17.3403 12.6314 17.1244 13.0314 16.7338C13.4315 16.3431 13.66 15.8096 13.6668 15.2505V6.50048C13.6663 6.29395 13.5891 6.09497 13.4502 5.94214ZM8.66683 3.16714L10.9502 5.66714H9.2835C9.19623 5.66187 9.11089 5.63928 9.03245 5.60067C8.95401 5.56206 8.88404 5.50822 8.82664 5.44228C8.76923 5.37634 8.72554 5.29963 8.6981 5.21662C8.67066 5.13361 8.66003 5.04597 8.66683 4.95881V3.16714ZM11.5335 15.6671H2.46683C2.40881 15.6705 2.35069 15.6624 2.29581 15.6433C2.24093 15.6242 2.19036 15.5944 2.14701 15.5557C2.10365 15.517 2.06837 15.4701 2.04317 15.4177C2.01797 15.3653 2.00335 15.3085 2.00016 15.2505V2.75048C2.00335 2.69244 2.01797 2.63561 2.04317 2.58324C2.06837 2.53087 2.10365 2.48398 2.14701 2.44527C2.19036 2.40657 2.24093 2.37679 2.29581 2.35767C2.35069 2.33854 2.40881 2.33043 2.46683 2.33381H7.00016V4.95881C6.98671 5.57266 7.21662 6.16691 7.63972 6.61187C8.06282 7.05682 8.64474 7.31635 9.2585 7.33381H12.0002V15.2505C11.997 15.3085 11.9824 15.3653 11.9572 15.4177C11.932 15.4701 11.8967 15.517 11.8533 15.5557C11.81 15.5944 11.7594 15.6242 11.7045 15.6433C11.6496 15.6624 11.5915 15.6705 11.5335 15.6671Z" fill="white"/>
</svg>
