<svg width="18" height="19" viewBox="0 0 18 19" fill="none" xmlns="http://www.w3.org/2000/svg">
<path d="M17 9.52403L9.89312 16.534C8.90658 17.4821 7.58114 18.0087 6.2038 17.9999C4.82646 17.991 3.50809 17.4474 2.53414 16.4868C1.5602 15.5261 1.00907 14.2257 1.00011 12.8672C0.991148 11.5086 1.52507 10.2012 2.48626 9.22814L9.80547 2.00873C10.4603 1.36285 11.3484 1 12.2744 1C13.2005 1 14.0886 1.36285 14.7434 2.00873C15.3982 2.65461 15.7661 3.53061 15.7661 4.44402C15.7661 5.35743 15.3982 6.23343 14.7434 6.87931L7.63526 13.8905C7.30785 14.2134 6.8638 14.3949 6.40078 14.3949C5.93776 14.3949 5.49371 14.2134 5.1663 13.8905C4.8389 13.5676 4.65497 13.1296 4.65497 12.6729C4.65497 12.2162 4.8389 11.7782 5.1663 11.4552L12.0621 4.65345" fill="white"/>
<path d="M17.632 10.1648C17.9859 9.81573 17.9898 9.2459 17.6408 8.89202C17.2917 8.53814 16.7219 8.53423 16.368 8.88328L17.632 10.1648ZM9.89312 16.534L10.5168 17.183L10.5251 17.1748L9.89312 16.534ZM2.48626 9.22814L1.85419 8.58734L1.84596 8.59567L2.48626 9.22814ZM9.80547 2.00873L9.17346 1.36798V1.36798L9.80547 2.00873ZM15.7661 4.44402H16.6661H15.7661ZM7.63526 13.8905L8.26727 14.5313H8.26727L7.63526 13.8905ZM6.40078 14.3949V15.2949V14.3949ZM4.65497 12.6729H5.55497H4.65497ZM5.1663 11.4552L4.53429 10.8145H4.53429L5.1663 11.4552ZM12.6941 5.2942C13.048 4.94515 13.0519 4.37532 12.7028 4.02144C12.3538 3.66756 11.784 3.66365 11.4301 4.0127L12.6941 5.2942ZM16.368 8.88328L9.2611 15.8933L10.5251 17.1748L17.632 10.1648L16.368 8.88328ZM9.26949 15.8851C8.45329 16.6695 7.35417 17.1073 6.20958 17.0999L6.19803 18.8999C7.80811 18.9102 9.35986 18.2947 10.5167 17.1829L9.26949 15.8851ZM6.20958 17.0999C5.06499 17.0926 3.97183 16.6407 3.16615 15.846L1.90213 17.1275C3.04434 18.2542 4.58794 18.8895 6.19803 18.8999L6.20958 17.0999ZM3.16615 15.846C2.36088 15.0517 1.90747 13.9791 1.90009 12.8612L0.100131 12.8731C0.110681 14.4723 0.759513 16.0005 1.90213 17.1275L3.16615 15.846ZM1.90009 12.8612C1.89272 11.7433 2.33193 10.6651 3.12655 9.86061L1.84596 8.59567C0.718205 9.73738 0.0895805 11.2739 0.100131 12.8731L1.90009 12.8612ZM3.11827 9.86889L10.4375 2.64948L9.17346 1.36798L1.85424 8.58739L3.11827 9.86889ZM10.4375 2.64948C10.9226 2.17099 11.5831 1.9 12.2744 1.9V0.1C11.1136 0.1 9.99797 0.554712 9.17346 1.36798L10.4375 2.64948ZM12.2744 1.9C12.9657 1.9 13.6263 2.17099 14.1114 2.64948L15.3754 1.36798C14.5509 0.554713 13.4352 0.1 12.2744 0.1V1.9ZM14.1114 2.64948C14.5961 3.12756 14.8661 3.77332 14.8661 4.44402H16.6661C16.6661 3.2879 16.2003 2.18166 15.3754 1.36798L14.1114 2.64948ZM14.8661 4.44402C14.8661 5.11472 14.5961 5.76048 14.1114 6.23856L15.3754 7.52006C16.2003 6.70638 16.6661 5.60014 16.6661 4.44402H14.8661ZM14.1114 6.23856L7.00325 13.2498L8.26727 14.5313L15.3754 7.52006L14.1114 6.23856ZM7.00325 13.2498C6.84554 13.4053 6.62906 13.4949 6.40078 13.4949V15.2949C7.09854 15.2949 7.77016 15.0216 8.26727 14.5313L7.00325 13.2498ZM6.40078 13.4949C6.1725 13.4949 5.95602 13.4053 5.79832 13.2498L4.53429 14.5313C5.0314 15.0216 5.70302 15.2949 6.40078 15.2949V13.4949ZM5.79832 13.2498C5.64103 13.0946 5.55497 12.8869 5.55497 12.6729H3.75497C3.75497 13.3723 4.03677 14.0405 4.53429 14.5313L5.79832 13.2498ZM5.55497 12.6729C5.55497 12.4589 5.64103 12.2511 5.79832 12.096L4.53429 10.8145C4.03677 11.3052 3.75497 11.9734 3.75497 12.6729H5.55497ZM5.79832 12.096L12.6941 5.2942L11.4301 4.0127L4.53429 10.8145L5.79832 12.096Z" fill="white"/>
</svg>
