<svg width="18" height="18" viewBox="0 0 18 18" fill="none" xmlns="http://www.w3.org/2000/svg">
<path d="M0.484576 6.04562C0.342112 6.09959 0.219459 6.19557 0.132907 6.32082C0.0463546 6.44606 0 6.59465 0 6.74683C0 6.89901 0.0463546 7.04759 0.132907 7.17284C0.219459 7.29809 0.342112 7.39407 0.484576 7.44804L7.69294 10.3279L10.5763 17.5275C10.6305 17.6636 10.7233 17.7808 10.8434 17.8647C10.9635 17.9487 11.1055 17.9957 11.2521 18M0.484576 6.04562L0.655265 6.51558L0.659358 6.51409M0.484576 6.04562L0.661713 6.51319C0.660926 6.51348 0.660141 6.51379 0.659358 6.51409M0.484576 6.04562L17.0037 0.0459235C17.138 -0.0032804 17.2835 -0.0131865 17.4231 0.0173698C17.5628 0.0479261 17.6908 0.117675 17.7922 0.218415M0.659358 6.51409C0.612685 6.53231 0.572612 6.56402 0.544244 6.60507C0.515404 6.64681 0.5 6.69625 0.5 6.74683C0.5 6.79741 0.515404 6.84685 0.544244 6.88858C0.57309 6.93033 0.614036 6.96241 0.661713 6.98047L0.670108 6.98365L0.670078 6.98373L7.87844 9.86358L8.07743 9.94308L8.1571 10.142L11.0404 17.3416L11.0408 17.3425C11.0588 17.3878 11.0898 17.4269 11.1299 17.455C11.1666 17.4807 11.2096 17.496 11.2542 17.4995M0.659358 6.51409L17.1744 0.515889L17.1758 0.515374C17.2208 0.498905 17.2695 0.495583 17.3163 0.505817C17.361 0.515595 17.402 0.537344 17.4351 0.568599M11.2542 17.4995C11.2501 17.4998 11.246 17.5 11.2418 17.5001L11.2521 18M11.2542 17.4995C11.3007 17.4963 11.3453 17.4802 11.3831 17.4531C11.4243 17.4236 11.4555 17.3824 11.4727 17.3349L11.473 17.334L17.48 0.83482L17.4832 0.825973L17.4833 0.826005C17.5003 0.781858 17.5044 0.733817 17.4951 0.687459C17.4863 0.643177 17.4655 0.602095 17.4351 0.568599M11.2542 17.4995C11.2584 17.4999 11.2625 17.5001 11.2666 17.5002L11.2521 18M11.2521 18C11.4038 17.9969 11.551 17.9479 11.6744 17.8596C11.7977 17.7712 11.8913 17.6476 11.9429 17.505L17.4351 0.568599M17.4351 0.568599C17.4337 0.567033 17.4322 0.565484 17.4308 0.563952L17.7922 0.218415M17.4351 0.568599C17.4366 0.570049 17.4381 0.57152 17.4396 0.573012L17.7922 0.218415M17.4351 0.568599L17.7922 0.218415M10.7877 15.3355L11.2751 16.557L11.7223 15.3201L16.4753 2.17332L16.8375 1.1716L15.8355 1.53298L2.67268 6.28023L1.44531 6.72289L2.65418 7.21383L7.88024 9.33622L8.18726 9.46091L8.42171 9.22674L11.5197 6.13251C11.6166 6.03573 11.7736 6.03573 11.8705 6.13251C11.9675 6.22945 11.9675 6.38675 11.8705 6.4837L8.8038 9.54665L8.57058 9.77959L8.69275 10.0857L10.7877 15.3355Z" fill="white" stroke="white"/>
</svg>
