<svg width="20" height="20" viewBox="0 0 20 20" fill="none" xmlns="http://www.w3.org/2000/svg">
<path fill-rule="evenodd" clip-rule="evenodd" d="M3 9.66173C3 9.40937 3.09824 9.16735 3.2731 8.98891C3.44797 8.81047 3.68513 8.71022 3.93243 8.71022L14.7356 8.71023L10.7317 4.62637C10.5566 4.4477 10.4583 4.20538 10.4583 3.95271C10.4583 3.70003 10.5566 3.45771 10.7317 3.27904C10.9068 3.10038 11.1443 3 11.3919 3C11.6395 3 11.877 3.10038 12.052 3.27904L17.6466 8.98806C17.7335 9.07645 17.8024 9.18145 17.8494 9.29705C17.8964 9.41265 17.9206 9.53657 17.9206 9.66173C17.9206 9.78689 17.8964 9.91081 17.8494 10.0264C17.8024 10.142 17.7335 10.247 17.6466 10.3354L12.052 16.0444C11.877 16.2231 11.6395 16.3235 11.3919 16.3235C11.1443 16.3235 10.9068 16.2231 10.7317 16.0444C10.5566 15.8657 10.4583 15.6234 10.4583 15.3707C10.4583 15.1181 10.5566 14.8758 10.7317 14.6971L14.7356 10.6132L3.93243 10.6132C3.68513 10.6132 3.44797 10.513 3.2731 10.3345C3.09824 10.1561 3 9.91408 3 9.66173Z" fill="white"/>
</svg>
