<svg width="20" height="20" viewBox="0 0 20 20" fill="none" xmlns="http://www.w3.org/2000/svg">
<path fill-rule="evenodd" clip-rule="evenodd" d="M18 9.66249C18 9.91485 17.9018 10.1569 17.7269 10.3353C17.552 10.5137 17.3149 10.614 17.0676 10.614L6.26445 10.614L10.2683 14.6978C10.4434 14.8765 10.5417 15.1188 10.5417 15.3715C10.5417 15.6242 10.4434 15.8665 10.2683 16.0452C10.0932 16.2238 9.85575 16.3242 9.60814 16.3242C9.36053 16.3242 9.12306 16.2238 8.94798 16.0452L3.3534 10.3362C3.26657 10.2478 3.19768 10.1428 3.15067 10.0272C3.10367 9.91157 3.07947 9.78765 3.07947 9.66249C3.07947 9.53733 3.10367 9.41341 3.15067 9.29781C3.19768 9.18221 3.26657 9.07721 3.3534 8.98882L8.94798 3.2798C9.12306 3.10114 9.36053 3.00076 9.60814 3.00076C9.85575 3.00076 10.0932 3.10114 10.2683 3.2798C10.4434 3.45847 10.5417 3.7008 10.5417 3.95347C10.5417 4.20614 10.4434 4.44847 10.2683 4.62713L6.26445 8.71099L17.0676 8.71099C17.3149 8.71099 17.552 8.81123 17.7269 8.98968C17.9018 9.16812 18 9.41014 18 9.66249Z" fill="white"/>
</svg>
