<svg width="34" height="24" viewBox="0 0 34 24" fill="none" xmlns="http://www.w3.org/2000/svg">
<path d="M32.9986 1.19317C30.9379 0.328839 28.8756 6.38955e-08 26.8144 6.38955e-08C20.2711 -0.000531178 13.7283 3.31176 7.18504 3.31176C5.54404 3.31176 3.9041 3.10351 2.26309 2.5829C2.07875 2.52446 1.89388 2.49684 1.71325 2.49684C0.798988 2.49684 0 3.20445 0 4.18672V21.0409C0 21.7118 0.384088 22.3477 1.00086 22.6059C3.06155 23.4708 5.12383 23.7996 7.18504 23.7996C13.7283 23.7996 20.2717 20.4873 26.815 20.4873C28.456 20.4873 30.0959 20.6956 31.7369 21.2162C31.9212 21.2746 32.1061 21.3023 32.2867 21.3023C33.201 21.3023 34 20.5946 34 19.6124V2.75874C33.9995 2.08725 33.6154 1.45188 32.9986 1.19317ZM2.54996 5.3241C3.61882 5.59185 4.73443 5.72625 5.88191 5.7985C5.56954 7.35982 4.19681 8.53652 2.54996 8.53652V5.3241ZM2.54996 20.4645V17.9262C4.37584 17.9262 5.85322 19.3749 5.9345 21.188C4.73761 21.0919 3.61882 20.8528 2.54996 20.4645ZM16.9997 16.9997C14.6522 16.9997 12.7498 14.7159 12.7498 11.8998C12.7498 9.08317 14.6527 6.79989 16.9997 6.79989C19.3468 6.79989 21.2497 9.08317 21.2497 11.8998C21.2497 14.717 19.3462 16.9997 16.9997 16.9997ZM31.4495 18.4755C30.5188 18.2423 29.5524 18.1116 28.5638 18.0272C28.8756 16.6417 30.0247 15.5898 31.4495 15.4092V18.4755ZM31.4495 5.93238C29.8085 5.72466 28.5351 4.35459 28.4846 2.66258C29.5227 2.77786 30.5081 2.99355 31.4495 3.33514V5.93238Z" fill="white"/>
</svg>
