<svg width="34" height="23" viewBox="0 0 34 23" fill="none" xmlns="http://www.w3.org/2000/svg">
<path d="M26.1679 7.93244L25.8424 7.82365L23.086 3.00073C22.5683 2.09437 21.7963 1.33639 20.8527 0.807837C19.909 0.279288 18.8291 5.4757e-05 17.7286 4.72103e-09H10.7877C9.51314 -4.85377e-05 8.27087 0.374244 7.23695 1.06984C6.20303 1.76543 5.42991 2.74704 5.02714 3.87556L3.71329 7.55395C2.61255 7.98692 1.67312 8.71329 1.01261 9.64213C0.352106 10.571 -0.000130308 11.661 3.61622e-08 12.7758V15.2983C3.61622e-08 16.9074 1.02729 18.2899 2.50143 18.9132C2.69233 19.9339 3.25221 20.8628 4.0878 21.5451C4.92339 22.2275 5.98426 22.622 7.0937 22.6631C8.20313 22.7042 9.29416 22.3893 10.1851 21.7709C11.0759 21.1525 11.7129 20.2679 11.9899 19.2645H22.0101C22.2871 20.2679 22.9241 21.1525 23.815 21.7709C24.7058 22.3893 25.7969 22.7042 26.9063 22.6631C28.0157 22.622 29.0766 22.2275 29.9122 21.5451C30.7478 20.8628 31.3077 19.9339 31.4986 18.9132C32.244 18.5992 32.8766 18.091 33.3203 17.4498C33.764 16.8086 34 16.0616 34 15.2983V14.53C33.9998 13.3603 33.6118 12.2194 32.8891 11.2638C32.1664 10.3081 31.1445 9.58463 29.9637 9.19256L26.2966 7.9755V7.93244H26.1679ZM7.32943 4.59175C7.57119 3.91434 8.03536 3.32516 8.6561 2.90778C9.27684 2.4904 10.0226 2.266 10.7877 2.26641H13.3571V7.93244H6.137L7.32943 4.59175ZM23.1516 7.93244H15.7857V2.26641H17.7286C18.389 2.26619 19.037 2.43352 19.6034 2.75049C20.1698 3.06746 20.6332 3.52216 20.944 4.06594L23.154 7.93244H23.1516ZM4.85714 18.1313C4.85714 17.5302 5.11301 16.9537 5.56845 16.5287C6.0239 16.1037 6.64162 15.8649 7.28571 15.8649C7.92981 15.8649 8.54753 16.1037 9.00297 16.5287C9.45842 16.9537 9.71429 17.5302 9.71429 18.1313C9.71429 18.7324 9.45842 19.3088 9.00297 19.7339C8.54753 20.1589 7.92981 20.3977 7.28571 20.3977C6.64162 20.3977 6.0239 20.1589 5.56845 19.7339C5.11301 19.3088 4.85714 18.7324 4.85714 18.1313ZM26.7143 15.8649C27.3584 15.8649 27.9761 16.1037 28.4315 16.5287C28.887 16.9537 29.1429 17.5302 29.1429 18.1313C29.1429 18.7324 28.887 19.3088 28.4315 19.7339C27.9761 20.1589 27.3584 20.3977 26.7143 20.3977C26.0702 20.3977 25.4525 20.1589 24.997 19.7339C24.5416 19.3088 24.2857 18.7324 24.2857 18.1313C24.2857 17.5302 24.5416 16.9537 24.997 16.5287C25.4525 16.1037 26.0702 15.8649 26.7143 15.8649Z" fill="white"/>
</svg>
