<svg width="30" height="30" viewBox="0 0 30 30" fill="none" xmlns="http://www.w3.org/2000/svg">
<path d="M23.6386 14.6255C24.4969 13.9465 25.1631 13.0551 25.571 12.0395C25.8507 12.8565 25.9952 13.7693 25.9952 14.7921C25.9952 17.2304 25.1343 18.9397 24.2513 20.0395C23.847 20.5452 23.3767 20.9943 22.853 21.3749V23.012C22.853 23.637 22.6048 24.2364 22.1628 24.6784C21.7208 25.1203 21.1214 25.3686 20.4964 25.3686H19.7109C19.2942 25.3686 18.8946 25.2031 18.5999 24.9085C18.3053 24.6138 18.1398 24.2142 18.1398 23.7975H14.9976C14.9976 24.2142 14.8321 24.6138 14.5374 24.9085C14.2428 25.2031 13.8432 25.3686 13.4265 25.3686H12.641C12.016 25.3686 11.4165 25.1203 10.9746 24.6784C10.5326 24.2364 10.2843 23.637 10.2843 23.012V22.6758C9.28108 22.3551 8.37017 21.7967 7.62921 21.0481C6.7007 20.1055 6.1791 18.9272 5.91673 18.1856C5.88593 18.084 5.83162 17.9911 5.75819 17.9144C5.68476 17.8377 5.59429 17.7793 5.4941 17.7441C5.06408 17.6224 4.68551 17.3637 4.41586 17.0073C4.1462 16.6509 4.0002 16.2162 4 15.7693V14.5218C4 13.6169 4.60016 12.8219 5.46897 12.5737C5.63236 12.5266 5.80832 12.3694 5.89473 12.1071C6.10683 11.4661 6.51374 10.5203 7.26158 9.76302C7.9051 9.11942 8.64116 8.57559 9.44539 8.14951V5.19901C9.44631 4.96022 9.51881 4.72719 9.65352 4.53003C9.78823 4.33287 9.97896 4.18062 10.2011 4.09296C10.4171 4.00325 10.6545 3.97777 10.8847 4.01957C11.1148 4.06137 11.3281 4.16868 11.4988 4.32863C11.8963 4.70569 12.4179 5.15345 12.9756 5.51951C13.5491 5.89343 14.0864 6.13223 14.5247 6.17622H14.5326C13.6914 7.42386 13.3247 8.93141 13.4988 10.426C13.6889 12.0411 14.9395 13.0136 15.989 13.4472L19.7439 15.0026C20.7918 15.4362 22.3629 15.6326 23.6402 14.6255H23.6386ZM9.89158 13.5855C10.2041 13.5855 10.5038 13.4613 10.7248 13.2404C10.9457 13.0194 11.0699 12.7197 11.0699 12.4072C11.0699 12.0946 10.9457 11.7949 10.7248 11.574C10.5038 11.353 10.2041 11.2288 9.89158 11.2288C9.57907 11.2288 9.27936 11.353 9.05838 11.574C8.8374 11.7949 8.71326 12.0946 8.71326 12.4072C8.71326 12.7197 8.8374 13.0194 9.05838 13.2404C9.27936 13.4613 9.57907 13.5855 9.89158 13.5855Z" fill="white"/>
<path d="M15.3591 7.96079C15.6255 7.28848 16.0429 6.68647 16.5792 6.20135C17.1155 5.71623 17.7562 5.36102 18.4517 5.16319C19.1473 4.96537 19.879 4.93024 20.5903 5.06053C21.3016 5.19083 21.9734 5.48304 22.5537 5.91456C23.134 6.34609 23.6072 6.90534 23.9367 7.54905C24.2662 8.19276 24.4431 8.90365 24.4539 9.62671C24.4646 10.3498 24.3088 11.0656 23.9985 11.7188C23.6883 12.372 23.2319 12.9451 22.6647 13.3936C22.0111 13.9089 21.114 13.8696 20.3442 13.5507L16.5893 11.9953C15.8195 11.6764 15.1565 11.0684 15.0591 10.242C15.0127 9.84237 15.018 9.43842 15.0748 9.04013L15.3591 7.95922V7.96079Z" fill="white"/>
<path d="M15.3592 7.96153L15.1455 8.64967C15.1991 8.41466 15.2705 8.18409 15.3592 7.95996V7.96153Z" fill="white"/>
</svg>
