<svg width="30" height="30" viewBox="0 0 30 30" fill="none" xmlns="http://www.w3.org/2000/svg">
<path d="M9.49217 13.1323H8.67384C7.55709 13.0919 6.44397 13.2815 5.40354 13.6892C4.36312 14.097 3.41759 14.7142 2.62565 15.5026L2.3999 15.766V23.5543H6.23763V19.1334L6.75497 18.5502L6.99013 18.2775C8.21474 17.0194 9.73935 16.0936 11.4204 15.5873C10.5788 14.9469 9.91497 14.1017 9.49217 13.1323V13.1323Z" fill="white"/>
<path d="M27.6837 15.4743C26.8918 14.6859 25.9462 14.0687 24.9058 13.6609C23.8654 13.2532 22.7523 13.0636 21.6355 13.104C21.293 13.1049 20.9508 13.1238 20.6102 13.1604C20.1795 14.0699 19.5339 14.8608 18.729 15.4649C20.5237 15.9614 22.1495 16.9369 23.4321 18.2868L23.6673 18.5501L24.1752 19.1333V23.5636H27.8812V15.7377L27.6837 15.4743Z" fill="white"/>
<path d="M8.64546 11.2973H8.93705C8.80157 10.1339 9.00569 8.95628 9.52478 7.90642C10.0439 6.85656 10.8557 5.97938 11.8624 5.38077C11.4975 4.82331 10.9941 4.37018 10.4014 4.06573C9.80877 3.76129 9.14722 3.61598 8.48154 3.64404C7.81587 3.67209 7.16889 3.87254 6.60396 4.22576C6.03903 4.57899 5.57551 5.07287 5.25881 5.65905C4.9421 6.24524 4.78306 6.90362 4.79726 7.56974C4.81146 8.23585 4.99841 8.88686 5.3398 9.45902C5.68119 10.0312 6.16533 10.5049 6.74479 10.8337C7.32426 11.1625 7.97919 11.3352 8.64546 11.3349V11.2973Z" fill="white"/>
<path d="M21.1836 10.5924C21.1951 10.8086 21.1951 11.0252 21.1836 11.2414C21.3642 11.27 21.5465 11.2857 21.7292 11.2884H21.9079C22.5713 11.253 23.2141 11.0465 23.774 10.6889C24.3338 10.3314 24.7915 9.83492 25.1025 9.24795C25.4135 8.66097 25.5672 8.00347 25.5487 7.33945C25.5302 6.67543 25.34 6.02751 24.9968 5.45879C24.6535 4.89007 24.1689 4.41992 23.59 4.09412C23.0111 3.76831 22.3577 3.59795 21.6934 3.59962C21.0291 3.60129 20.3766 3.77494 19.7994 4.10365C19.2221 4.43237 18.7398 4.90495 18.3994 5.47539C19.2508 6.03124 19.9508 6.78972 20.4367 7.68281C20.9227 8.57589 21.1793 9.57564 21.1836 10.5924V10.5924Z" fill="white"/>
<path d="M15.0132 14.8086C17.3353 14.8086 19.2177 12.9261 19.2177 10.604C19.2177 8.28186 17.3353 6.39941 15.0132 6.39941C12.691 6.39941 10.8086 8.28186 10.8086 10.604C10.8086 12.9261 12.691 14.8086 15.0132 14.8086Z" fill="white"/>
<path d="M15.2399 17.0446C14.0114 16.995 12.7857 17.1944 11.6364 17.6308C10.487 18.0673 9.4379 18.7318 8.55205 19.5842L8.31689 19.8476V25.8017C8.32057 25.9957 8.36241 26.187 8.44003 26.3648C8.51766 26.5425 8.62955 26.7033 8.76931 26.8378C8.90907 26.9723 9.07396 27.078 9.25456 27.1487C9.43517 27.2195 9.62794 27.254 9.82189 27.2503H20.6296C20.8235 27.254 21.0163 27.2195 21.1969 27.1487C21.3775 27.078 21.5424 26.9723 21.6822 26.8378C21.8219 26.7033 21.9338 26.5425 22.0115 26.3648C22.0891 26.187 22.1309 25.9957 22.1346 25.8017V19.8664L21.9088 19.5842C21.0287 18.7291 19.9832 18.0628 18.8365 17.6261C17.6897 17.1894 16.4658 16.9915 15.2399 17.0446V17.0446Z" fill="white"/>
</svg>
