<svg width="30" height="30" viewBox="0 0 30 30" fill="none" xmlns="http://www.w3.org/2000/svg">
<path d="M8.53115 9.19049V2.82967C8.53115 2.60963 8.61856 2.3986 8.77415 2.24301C8.92975 2.08741 9.14078 2 9.36082 2C9.58086 2 9.79189 2.08741 9.94749 2.24301C10.1031 2.3986 10.1905 2.60963 10.1905 2.82967V9.19049C10.1905 9.33719 10.2488 9.47788 10.3525 9.5816C10.4562 9.68533 10.5969 9.74361 10.7436 9.74361C10.8903 9.74361 11.031 9.68533 11.1347 9.5816C11.2384 9.47788 11.2967 9.33719 11.2967 9.19049V3.65934C11.2967 3.4393 11.3841 3.22827 11.5397 3.07268C11.6953 2.91708 11.9064 2.82967 12.1264 2.82967C12.3464 2.82967 12.5575 2.91708 12.7131 3.07268C12.8687 3.22827 12.9561 3.4393 12.9561 3.65934V10.0202C12.9561 10.0434 12.9561 10.0666 12.9527 10.0899C13.4317 9.90954 14.0302 9.73918 14.6154 9.73918C15.1685 9.73918 15.6409 9.87746 15.9916 10.0545C16.1652 10.1407 16.3256 10.2469 16.4573 10.3664C16.5225 10.425 16.5967 10.5025 16.6619 10.5987C16.7128 10.6762 16.8279 10.8642 16.8279 11.1264C16.8279 11.2671 16.7922 11.4054 16.7241 11.5285C16.656 11.6516 16.5577 11.7553 16.4385 11.83L14.3289 13.1486L12.4948 15.2394L10.9715 17.339C10.6893 17.7275 10.3192 18.0437 9.89142 18.2617C9.46362 18.4798 8.99029 18.5934 8.51013 18.5934H7.25013C6.73503 18.5978 6.22793 18.4659 5.78016 18.2112C5.3324 17.9566 4.95986 17.5881 4.70028 17.1432C4.30401 16.4609 3.94326 15.7586 3.61949 15.0391C3.30311 14.319 3 13.476 3 12.7857V5.04213C3 4.82209 3.08741 4.61106 3.24301 4.45546C3.3986 4.29987 3.60963 4.21246 3.82967 4.21246C4.04971 4.21246 4.26075 4.29987 4.41634 4.45546C4.57193 4.61106 4.65934 4.82209 4.65934 5.04213V9.7414C4.65934 9.88809 4.71762 10.0288 4.82135 10.1325C4.92508 10.2362 5.06576 10.2945 5.21246 10.2945C5.35915 10.2945 5.49984 10.2362 5.60357 10.1325C5.7073 10.0288 5.76557 9.88809 5.76557 9.7414V3.65934C5.76557 3.4393 5.85299 3.22827 6.00858 3.07268C6.16417 2.91708 6.3752 2.82967 6.59525 2.82967C6.81529 2.82967 7.02632 2.91708 7.18191 3.07268C7.33751 3.22827 7.42492 3.4393 7.42492 3.65934V9.19049C7.42492 9.33719 7.48319 9.47788 7.58692 9.5816C7.69065 9.68533 7.83134 9.74361 7.97803 9.74361C8.12473 9.74361 8.26542 9.68533 8.36914 9.5816C8.47287 9.47788 8.53115 9.33719 8.53115 9.19049V9.19049Z" fill="white"/>
<path d="M18.4877 28.5481C16.0824 28.548 13.7687 27.6261 12.0223 25.9722C10.276 24.3182 9.22985 22.0579 9.09912 19.6562C9.64889 19.5775 10.1773 19.3892 10.6529 19.1024C11.1285 18.8157 11.5417 18.4363 11.868 17.9869L13.3614 15.9293L15.054 13.9979L17.0253 12.7666C17.5905 12.4126 17.9346 11.7931 17.9346 11.125C17.9332 10.6392 17.7595 10.1696 17.4445 9.79971C18.7151 9.65852 20.0011 9.7779 21.224 10.1506C22.4469 10.5232 23.581 11.1414 24.5569 11.9671C25.5328 12.7929 26.3301 13.8091 26.9 14.9534C27.4699 16.0978 27.8004 17.3463 27.8714 18.6228C27.9425 19.8992 27.7524 21.1767 27.313 22.3772C26.8736 23.5777 26.194 24.676 25.3157 25.605C24.4374 26.534 23.379 27.2741 22.205 27.7801C21.031 28.2861 19.7661 28.5475 18.4877 28.5481V28.5481ZM22.4978 17.4858C22.4978 17.3224 22.4656 17.1605 22.403 17.0095C22.3405 16.8586 22.2488 16.7214 22.1333 16.6058C22.0177 16.4902 21.8805 16.3986 21.7295 16.336C21.5785 16.2735 21.4167 16.2413 21.2533 16.2413C21.0898 16.2413 20.928 16.2735 20.777 16.336C20.626 16.3986 20.4888 16.4902 20.3733 16.6058C20.2577 16.7214 20.166 16.8586 20.1035 17.0095C20.0409 17.1605 20.0088 17.3224 20.0088 17.4858C20.0088 17.8159 20.1399 18.1324 20.3733 18.3658C20.6067 18.5992 20.9232 18.7303 21.2533 18.7303C21.5833 18.7303 21.8999 18.5992 22.1333 18.3658C22.3667 18.1324 22.4978 17.8159 22.4978 17.4858V17.4858ZM14.3603 21.5457C14.1927 21.6878 14.0883 21.8906 14.0701 22.1096C14.0518 22.3286 14.1212 22.5459 14.263 22.7138C14.7816 23.3291 15.4284 23.8235 16.1582 24.1625C16.888 24.5015 17.683 24.6769 18.4877 24.6763C19.2925 24.677 20.0878 24.5018 20.8178 24.1628C21.5478 23.8238 22.1948 23.3292 22.7135 22.7138C22.7838 22.6306 22.837 22.5343 22.8701 22.4305C22.9032 22.3267 22.9156 22.2174 22.9064 22.1088C22.8973 22.0002 22.8668 21.8945 22.8169 21.7977C22.7669 21.7009 22.6983 21.6149 22.615 21.5446C22.5318 21.4742 22.4355 21.421 22.3317 21.3879C22.2279 21.3548 22.1186 21.3425 22.01 21.3516C21.9014 21.3608 21.7957 21.3912 21.6989 21.4412C21.6021 21.4912 21.5161 21.5598 21.4458 21.643C21.0829 22.0739 20.6302 22.4201 20.1194 22.6574C19.6086 22.8948 19.0521 23.0175 18.4888 23.0169C17.9252 23.0178 17.3682 22.8953 16.857 22.6579C16.3457 22.4206 15.8927 22.0741 15.5296 21.643C15.4593 21.5598 15.3733 21.4912 15.2765 21.4412C15.1797 21.3912 15.074 21.3607 14.9654 21.3516C14.8568 21.3424 14.7475 21.3548 14.6437 21.3879C14.5399 21.421 14.4436 21.4742 14.3603 21.5446V21.5457ZM16.9666 17.4858C16.9666 17.1557 16.8355 16.8392 16.6021 16.6058C16.3687 16.3724 16.0522 16.2413 15.7221 16.2413C15.3921 16.2413 15.0755 16.3724 14.8421 16.6058C14.6087 16.8392 14.4776 17.1557 14.4776 17.4858C14.4776 17.8159 14.6087 18.1324 14.8421 18.3658C15.0755 18.5992 15.3921 18.7303 15.7221 18.7303C16.0522 18.7303 16.3687 18.5992 16.6021 18.3658C16.8355 18.1324 16.9666 17.8159 16.9666 17.4858V17.4858Z" fill="white"/>
</svg>
