<svg width="30" height="28" viewBox="0 0 30 28" fill="none" xmlns="http://www.w3.org/2000/svg">
<path d="M29.0411 13.7706L15.5673 0.306641C15.4703 0.209437 15.355 0.132319 15.2282 0.0797013C15.1013 0.0270838 14.9654 0 14.828 0C14.6907 0 14.5547 0.0270838 14.4278 0.0797013C14.301 0.132319 14.1858 0.209437 14.0887 0.306641L0.614972 13.7706C0.222437 14.1631 0 14.6963 0 15.2524C0 16.4071 0.938813 17.3459 2.09352 17.3459H3.51319V26.9532C3.51319 27.5322 3.98096 28 4.55995 28H12.7345V20.6727H16.3982V28H25.0961C25.6751 28 26.1428 27.5322 26.1428 26.9532V17.3459H27.5625C28.1186 17.3459 28.6518 17.1268 29.0443 16.731C29.8588 15.9132 29.8588 14.5884 29.0411 13.7706Z" fill="white"/>
</svg>
