<svg width="25" height="25" viewBox="0 0 25 25" fill="none" xmlns="http://www.w3.org/2000/svg">
<path d="M12.5 5C10.7767 5.00197 9.1246 5.66484 7.90606 6.84321C6.68751 8.02159 6.00204 9.61924 6.00001 11.2857C5.99794 12.6476 6.45795 13.9724 7.30946 15.0571C7.30946 15.0571 7.48673 15.2829 7.51569 15.3154L12.5 21L17.4867 15.3126C17.5127 15.2823 17.6905 15.0571 17.6905 15.0571L17.6911 15.0554C18.5422 13.9712 19.002 12.6469 19 11.2857C18.998 9.61924 18.3125 8.02159 17.0939 6.84321C15.8754 5.66484 14.2233 5.00197 12.5 5V5ZM12.5 13.5714C12.0325 13.5714 11.5755 13.4374 11.1868 13.1862C10.7981 12.9351 10.4952 12.5781 10.3163 12.1604C10.1374 11.7428 10.0906 11.2832 10.1818 10.8398C10.273 10.3964 10.4981 9.98913 10.8287 9.66947C11.1592 9.34981 11.5804 9.13211 12.0389 9.04392C12.4974 8.95572 12.9726 9.00099 13.4045 9.17399C13.8364 9.34699 14.2056 9.63996 14.4653 10.0158C14.725 10.3917 14.8636 10.8336 14.8636 11.2857C14.8629 11.8917 14.6136 12.4726 14.1705 12.9011C13.7274 13.3296 13.1266 13.5707 12.5 13.5714V13.5714Z" fill="white"/>
</svg>
