<svg width="60" height="60" viewBox="0 0 60 60" fill="none" xmlns="http://www.w3.org/2000/svg">
<circle cx="30.4885" cy="30.4885" r="21.4885" fill="white"/>
<path fill-rule="evenodd" clip-rule="evenodd" d="M25.3653 18.3265C26.6557 18.2671 27.0671 18.2539 30.3541 18.2539C33.6411 18.2539 34.0525 18.2682 35.3418 18.3265C36.6311 18.3848 37.5111 18.5905 38.2812 18.8886C39.0875 19.1934 39.8191 19.6697 40.4241 20.2857C41.0401 20.8897 41.5154 21.6201 41.819 22.4275C42.1182 23.1976 42.3228 24.0776 42.3822 25.3647C42.4416 26.6573 42.4548 27.0687 42.4548 30.3546C42.4548 33.6416 42.4405 34.053 42.3822 35.3434C42.3239 36.6305 42.1182 37.5105 41.819 38.2806C41.5153 39.0881 41.0393 39.8198 40.4241 40.4246C39.8191 41.0406 39.0875 41.5158 38.2812 41.8195C37.5111 42.1187 36.6311 42.3233 35.344 42.3827C34.0525 42.4421 33.6411 42.4553 30.3541 42.4553C27.0671 42.4553 26.6557 42.441 25.3653 42.3827C24.0783 42.3244 23.1982 42.1187 22.4282 41.8195C21.6206 41.5158 20.889 41.0398 20.2841 40.4246C19.6685 39.8203 19.1921 39.089 18.8882 38.2817C18.59 37.5116 18.3854 36.6316 18.326 35.3445C18.2666 34.0519 18.2534 33.6405 18.2534 30.3546C18.2534 27.0676 18.2677 26.6562 18.326 25.3669C18.3843 24.0776 18.59 23.1976 18.8882 22.4275C19.1926 21.6202 19.6693 20.8889 20.2852 20.2846C20.8892 19.6691 21.6201 19.1927 22.4271 18.8886C23.1971 18.5905 24.0772 18.3859 25.3642 18.3265H25.3653ZM35.2439 20.5046C33.9678 20.4463 33.585 20.4342 30.3541 20.4342C27.1232 20.4342 26.7404 20.4463 25.4643 20.5046C24.284 20.5585 23.6437 20.7554 23.2169 20.9216C22.6526 21.1416 22.2488 21.4023 21.8253 21.8258C21.4238 22.2164 21.1149 22.6919 20.9211 23.2174C20.755 23.6442 20.5581 24.2845 20.5041 25.4648C20.4458 26.7409 20.4337 27.1237 20.4337 30.3546C20.4337 33.5855 20.4458 33.9683 20.5041 35.2444C20.5581 36.4247 20.755 37.065 20.9211 37.4918C21.1147 38.0165 21.4238 38.4929 21.8253 38.8834C22.2158 39.2849 22.6922 39.594 23.2169 39.7876C23.6437 39.9538 24.284 40.1507 25.4643 40.2046C26.7404 40.2629 27.1221 40.275 30.3541 40.275C33.5861 40.275 33.9678 40.2629 35.2439 40.2046C36.4243 40.1507 37.0645 39.9538 37.4913 39.7876C38.0557 39.5676 38.4594 39.3069 38.8829 38.8834C39.2844 38.4929 39.5935 38.0165 39.7872 37.4918C39.9533 37.065 40.1502 36.4247 40.2041 35.2444C40.2624 33.9683 40.2745 33.5855 40.2745 30.3546C40.2745 27.1237 40.2624 26.7409 40.2041 25.4648C40.1502 24.2845 39.9533 23.6442 39.7872 23.2174C39.5671 22.6531 39.3064 22.2493 38.8829 21.8258C38.4923 21.4244 38.0168 21.1154 37.4913 20.9216C37.0645 20.7554 36.4243 20.5585 35.2439 20.5046V20.5046ZM28.8085 34.0849C29.6717 34.4442 30.6328 34.4927 31.5278 34.2221C32.4228 33.9515 33.196 33.3786 33.7155 32.6012C34.2349 31.8238 34.4684 30.8902 34.376 29.9598C34.2836 29.0294 33.871 28.1599 33.2088 27.4999C32.7866 27.078 32.2762 26.755 31.7142 26.554C31.1522 26.3531 30.5526 26.2793 29.9586 26.3378C29.3647 26.3964 28.7911 26.586 28.2792 26.8928C27.7673 27.1997 27.3298 27.6163 26.9982 28.1125C26.6665 28.6088 26.4491 29.1724 26.3615 29.7627C26.2738 30.3531 26.3181 30.9556 26.4913 31.5267C26.6644 32.0979 26.962 32.6236 27.3627 33.066C27.7634 33.5083 28.2572 33.8563 28.8085 34.0849ZM25.9561 25.9565C26.5336 25.379 27.2193 24.9208 27.9739 24.6083C28.7285 24.2957 29.5373 24.1348 30.3541 24.1348C31.1709 24.1348 31.9797 24.2957 32.7343 24.6083C33.4889 24.9208 34.1746 25.379 34.7522 25.9565C35.3297 26.5341 35.7879 27.2198 36.1004 27.9744C36.413 28.729 36.5739 29.5378 36.5739 30.3546C36.5739 31.1714 36.413 31.9802 36.1004 32.7348C35.7879 33.4894 35.3297 34.1751 34.7522 34.7527C33.5857 35.9191 32.0037 36.5744 30.3541 36.5744C28.7045 36.5744 27.1225 35.9191 25.9561 34.7527C24.7896 33.5862 24.1343 32.0042 24.1343 30.3546C24.1343 28.705 24.7896 27.123 25.9561 25.9565V25.9565ZM37.9534 25.0611C38.0965 24.9261 38.2111 24.7637 38.2903 24.5836C38.3696 24.4036 38.4119 24.2094 38.4147 24.0127C38.4176 23.8159 38.381 23.6206 38.307 23.4383C38.233 23.256 38.1232 23.0903 37.9841 22.9512C37.845 22.8121 37.6794 22.7023 37.497 22.6283C37.3147 22.5544 37.1194 22.5177 36.9227 22.5206C36.7259 22.5235 36.5318 22.5658 36.3517 22.645C36.1716 22.7243 36.0092 22.8389 35.8742 22.982C35.6117 23.2603 35.4679 23.63 35.4735 24.0127C35.4791 24.3953 35.6335 24.7606 35.9041 25.0312C36.1747 25.3018 36.5401 25.4563 36.9227 25.4618C37.3053 25.4674 37.675 25.3237 37.9534 25.0611V25.0611Z" fill="#CC0000"/>
</svg>
