<svg width="212" height="58" viewBox="0 0 212 58" fill="none" xmlns="http://www.w3.org/2000/svg">
<path d="M45.7811 43.2362C46.3125 41.4438 46.8439 39.6515 47.2235 37.7812C48.4382 32.3263 48.7419 26.6376 47.6031 21.1048C47.0717 18.4552 45.857 16.1174 43.1998 15.1044C39.4039 13.6237 35.6079 15.6498 34.0896 19.9359C33.1026 22.7412 33.1785 25.7804 33.1785 28.5079C33.4063 35.5214 35.0006 41.9114 37.43 48.1456C37.5059 48.4573 37.7337 48.8469 37.8096 49.0028H43.6553C44.1109 48.1456 44.3386 47.2105 44.6423 46.3533C45.0219 45.3402 45.4015 44.3272 45.7811 43.2362Z" fill="white"/>
<path d="M40.7709 7C21.5634 7 6 20.8711 6 37.9372C6 41.8336 6.83511 45.652 8.35349 49.0808H16.4009C16.0972 48.847 15.338 48.2236 14.9584 47.9898C14.1233 47.2885 13.2123 46.5872 12.4531 45.8079C10.6311 44.1714 8.65716 42.6908 6.75919 40.5867C8.20165 40.5867 12.3772 40.5867 12.3772 40.5867C12.3772 40.5867 13.516 41.8336 15.2621 42.8466C16.8564 43.7818 18.6785 44.639 20.5005 44.7948C29.0793 45.7299 32.3439 44.561 32.3439 44.561V42.6129C31.5847 42.3011 30.2181 41.6777 29.6108 41.1322C25.5871 37.7034 23.6132 33.3395 23.5373 27.7287C23.5373 17.6761 29.9145 11.9874 37.1267 10.5847C42.5929 9.64953 47.8313 10.5847 52.3105 14.6369C54.5881 16.663 56.2583 19.0008 57.1693 22.04C58.7636 27.7287 58.1563 33.0278 54.8918 37.8593C53.6011 39.8075 49.3497 42.6129 49.3497 42.6129V44.561C49.3497 44.561 61.3449 46.9768 67.2665 42.1453C67.9498 41.5998 69.3164 40.4309 69.3164 40.4309H74.7825L65.2167 49.0808H73.1123C74.6307 45.652 75.4658 41.8336 75.4658 37.9372C75.4658 20.8711 59.9024 7 40.7709 7Z" fill="white"/>
<path d="M84.1216 25.9365C84.1216 23.6766 84.4253 21.8063 85.0327 20.3257C85.7159 18.6892 87.9176 17.832 91.7895 17.832H92.8523C95.8891 17.832 98.1666 18.1437 99.685 18.6892C101.431 19.3127 102.266 21.0271 102.266 23.7545V24.9234C102.266 25.7027 102.266 26.482 102.266 27.2613C102.266 28.0405 102.266 28.8198 102.19 29.5991C102.114 30.6121 101.963 31.5473 101.659 32.3265C101.355 33.1058 100.9 33.7292 100.368 34.1189C99.3054 34.9761 97.2556 35.4436 94.2948 35.4436H93.3078C93.156 35.4436 93.0042 35.4436 92.8523 35.4436C92.7005 35.4436 92.5486 35.4436 92.4727 35.4436C91.1821 35.4436 90.0433 35.3657 89.1323 35.2099C88.1453 35.054 87.3102 34.8202 86.627 34.5085C85.1845 33.8851 84.3494 32.4045 84.1976 30.1446C84.1976 29.5991 84.1976 29.0536 84.1976 28.5081C84.1976 27.9626 84.1976 27.4171 84.1976 26.8716V25.9365H84.1216ZM87.9176 26.7937V29.4432C87.9935 30.9238 88.2213 31.859 88.7527 32.2486C89.2082 32.6383 90.4988 32.872 92.4727 32.872C93.6115 32.872 94.5985 32.872 95.4336 32.7941C96.2687 32.7162 96.876 32.5603 97.3315 32.4045C98.0907 32.0928 98.5462 31.0797 98.6222 29.2874V27.9626C98.6222 27.7288 98.6222 27.495 98.6222 27.2613C98.6222 27.0275 98.6222 26.7937 98.6222 26.5599V23.9104C98.6222 22.118 98.2426 21.105 97.5593 20.8712C96.7242 20.5595 95.1299 20.4036 93.0042 20.4036H92.245C90.4988 20.4036 89.36 20.5595 88.7527 20.9491C88.2972 21.2608 87.9935 22.2739 87.9935 23.9104L87.9176 26.7937Z" fill="white"/>
<path d="M133.848 17.9087V35.2086H130.128V22.1947C128.913 24.3767 127.775 26.5586 126.56 28.7406C125.345 30.9226 124.206 33.1045 123.068 35.2865H119.803L112.667 22.3506V35.2865H109.023V17.9087H114.261L121.397 31.0784C122.612 28.8965 123.751 26.7145 124.966 24.5325C126.18 22.2726 127.395 20.0907 128.534 17.9866H133.848V17.9087Z" fill="white"/>
<path d="M144.096 20.5582V25.1559H155.028V27.7276H144.096V32.7149H155.559V35.2865H140.528V17.9087H155.559V20.4803H144.096V20.5582Z" fill="white"/>
<path d="M169.605 26.169H180.006C180.082 26.6366 180.082 27.0262 180.158 27.26C180.158 27.5717 180.158 27.8055 180.158 28.0393V29.5978C180.158 30.9226 179.93 32.1694 179.399 33.1825C179.095 33.8059 178.639 34.1955 177.88 34.5852C177.197 34.8969 176.286 35.1307 175.071 35.2865C174.312 35.3644 173.629 35.3644 172.87 35.3644C172.11 35.3644 171.351 35.3644 170.592 35.3644C166.948 35.3644 164.443 34.9748 163.076 34.1176C161.71 33.2604 161.026 31.4681 161.026 28.8185C161.026 28.4289 161.026 28.0393 161.026 27.7276C161.026 27.3379 161.026 26.9483 161.026 26.5586V24.3767C161.026 22.1168 161.634 20.4803 162.772 19.4672C163.987 18.3763 166.113 17.9087 169.15 17.9087C169.605 17.9087 170.061 17.9087 170.44 17.9087C170.896 17.9087 171.275 17.9087 171.731 17.9087C171.883 17.9087 172.11 17.9087 172.338 17.9087C172.566 17.9087 172.794 17.9087 173.021 17.9087H174.312C176.438 17.9866 177.88 18.3763 178.715 19.2335C179.551 20.0127 180.006 21.1816 180.006 22.6623V23.7533H176.286C176.286 22.5064 176.134 21.6492 175.83 21.1816C175.603 20.792 174.844 20.5582 173.705 20.5582C172.946 20.5582 172.262 20.4803 171.503 20.4803C170.744 20.4803 169.985 20.4803 169.301 20.4803C167.252 20.4803 165.961 20.7141 165.506 21.1037C165.05 21.5713 164.822 22.6623 164.746 24.4546C164.746 24.7663 164.746 25.1559 164.746 25.5456C164.746 25.9352 164.746 26.2469 164.746 26.6366V28.9744C164.746 29.442 164.746 29.9095 164.822 30.3771C164.898 30.8447 164.974 31.2343 165.126 31.6239C165.278 31.9356 165.506 32.1694 165.885 32.3253C166.265 32.5591 166.72 32.637 167.404 32.7149C167.707 32.7149 167.935 32.7928 168.239 32.7928C168.542 32.7928 168.77 32.7928 168.998 32.7928C169.301 32.7928 169.605 32.7928 169.909 32.7928C170.212 32.7928 170.516 32.7928 170.744 32.7928H172.035C173.933 32.7928 175.147 32.637 175.603 32.3253C176.058 32.0136 176.286 31.1564 176.286 29.7537V28.8185H169.453V26.169H169.605Z" fill="white"/>
<path d="M201.264 31.7798H191.242C191.015 32.3253 190.711 32.9487 190.407 33.4942C190.103 34.1176 189.876 34.6631 189.572 35.2086H185.624L193.975 17.9087H198.303L206.806 35.2086H202.858L201.264 31.7798ZM200.049 29.364C199.669 28.5848 199.366 27.9613 199.062 27.26C198.758 26.6366 198.455 26.0131 198.151 25.3897C197.847 24.7663 197.544 24.1429 197.24 23.4415C196.936 22.7402 196.557 22.0388 196.253 21.2596C195.57 22.6623 194.962 23.987 194.355 25.2339C193.748 26.4807 193.14 27.8834 192.457 29.364H200.049Z" fill="white"/>
<path d="M113.502 46.1971H114.564V46.3529C114.564 46.7426 114.716 46.9764 114.944 47.1322C115.248 47.2881 115.779 47.366 116.614 47.366C117.525 47.366 118.133 47.2881 118.36 47.1322C118.588 46.9764 118.664 46.7426 118.664 46.3529C118.664 45.9633 118.588 45.7295 118.36 45.5737C118.209 45.4178 117.753 45.3399 116.994 45.3399C116.766 45.3399 116.386 45.3399 115.931 45.3399C114.944 45.3399 114.337 45.262 114.185 45.184C113.881 45.0282 113.729 44.8723 113.577 44.6385C113.426 44.4048 113.426 44.0931 113.426 43.7034C113.426 43.0021 113.653 42.6124 114.033 42.3787C114.413 42.1449 115.324 41.989 116.766 41.989C117.829 41.989 118.588 42.0669 118.968 42.3007C119.347 42.5345 119.575 42.9241 119.575 43.4696H118.512V43.3917C118.512 43.1579 118.36 42.9241 118.057 42.8462C117.753 42.7683 117.222 42.6904 116.386 42.6904C115.551 42.6904 115.096 42.7683 114.868 42.8462C114.64 42.9241 114.564 43.2359 114.564 43.6255C114.564 43.8593 114.564 44.0151 114.64 44.0931C114.716 44.171 114.792 44.2489 114.868 44.3268C115.096 44.4048 115.551 44.4827 116.311 44.4827C116.462 44.4827 116.614 44.4827 116.766 44.4827C117.373 44.4827 117.829 44.5606 118.209 44.5606C118.588 44.5606 118.816 44.6385 118.968 44.7165C119.271 44.8723 119.499 45.0282 119.651 45.262C119.803 45.4957 119.879 45.8075 119.879 46.275C119.879 46.7426 119.803 47.0543 119.651 47.2881C119.499 47.5219 119.271 47.7556 118.892 47.9115C118.74 47.9894 118.512 48.0673 118.133 48.0673C117.753 48.0673 117.298 48.1453 116.614 48.1453C115.324 48.1453 114.489 47.9894 114.033 47.7556C113.577 47.5219 113.426 47.0543 113.426 46.4309V46.1971H113.502Z" fill="white"/>
<path d="M126.104 48.0674C125.041 48.0674 124.282 47.9116 123.826 47.5219C123.371 47.2102 123.143 46.5868 123.143 45.6517V44.249C123.143 43.3918 123.371 42.7684 123.826 42.3787C124.282 42.067 125.041 41.8333 126.104 41.8333H126.635C127.698 41.8333 128.457 41.9891 128.913 42.3787C129.368 42.6905 129.596 43.3139 129.596 44.249V45.1841H124.358C124.358 45.2621 124.358 45.34 124.358 45.4179C124.358 45.4958 124.358 45.5738 124.358 45.7296C124.358 46.353 124.51 46.7427 124.737 46.9765C124.965 47.2102 125.496 47.2882 126.18 47.2882H126.711C127.394 47.2882 127.85 47.2102 128.078 47.0544C128.305 46.8985 128.457 46.6647 128.533 46.2751H129.672C129.596 46.8985 129.368 47.3661 128.913 47.6778C128.457 47.9895 127.774 48.1454 126.787 48.1454H126.104V48.0674ZM124.282 44.4049H128.457V44.1711C128.457 43.6256 128.305 43.2359 128.078 43.0022C127.85 42.7684 127.319 42.6905 126.635 42.6905H126.104C125.345 42.6905 124.889 42.7684 124.661 43.0022C124.434 43.2359 124.282 43.5477 124.282 44.1711V44.4049Z" fill="white"/>
<path d="M139.01 41.9881V47.9106C139.01 48.7678 138.782 49.3912 138.403 49.7808C137.947 50.0925 137.264 50.3263 136.201 50.3263H135.67C134.683 50.3263 133.999 50.1705 133.544 49.9367C133.088 49.625 132.861 49.1574 132.785 48.534H133.923C133.999 48.9236 134.151 49.1574 134.379 49.3133C134.607 49.4691 135.062 49.5471 135.67 49.5471H136.125C136.732 49.5471 137.188 49.4691 137.492 49.3133C137.795 49.1574 137.871 48.8457 137.871 48.4561V47.2092C137.643 47.5209 137.416 47.7547 137.036 47.9106C136.656 48.0664 136.201 48.1444 135.594 48.1444C134.531 48.1444 133.847 47.9885 133.392 47.5989C132.936 47.2092 132.785 46.6637 132.785 45.7286V44.3259C132.785 43.4687 133.012 42.8453 133.392 42.4556C133.772 42.066 134.531 41.9102 135.594 41.9102C136.201 41.9102 136.732 41.9881 137.112 42.1439C137.492 42.2998 137.795 42.5336 137.947 42.9232V41.9881H139.01V41.9881ZM137.947 45.4948V44.4818C137.947 43.8583 137.795 43.3908 137.416 43.0791C137.036 42.7674 136.505 42.6894 135.745 42.6894C135.062 42.6894 134.531 42.7674 134.303 43.0011C134.075 43.2349 133.923 43.7025 133.923 44.4818V45.4948C133.923 46.2741 134.075 46.7417 134.303 46.9754C134.531 47.2092 134.986 47.2872 135.745 47.2872C136.505 47.2872 137.112 47.1313 137.416 46.8975C137.795 46.5858 137.947 46.1182 137.947 45.4948Z" fill="white"/>
<path d="M148.652 41.9888V47.9892H147.589V47.2099C147.438 47.5216 147.134 47.7554 146.754 47.9112C146.375 48.0671 145.843 48.145 145.16 48.145C144.173 48.145 143.566 47.9892 143.186 47.6775C142.807 47.3658 142.579 46.8203 142.579 46.041V42.0667H143.642V45.8072C143.642 46.4306 143.718 46.8203 143.945 47.054C144.173 47.2878 144.629 47.3658 145.236 47.3658C145.995 47.3658 146.527 47.2099 146.906 46.9761C147.286 46.7423 147.438 46.2748 147.438 45.6514V42.1446H148.652V41.9888Z" fill="white"/>
<path d="M152.296 47.9885V41.9881H153.359V42.8453C153.511 42.5336 153.739 42.2998 154.042 42.1439C154.346 41.9881 154.802 41.9102 155.333 41.9102C156.092 41.9102 156.7 42.066 157.003 42.3777C157.307 42.6894 157.459 43.2349 157.459 44.0921V44.1701H156.396V44.0142C156.396 43.5466 156.32 43.2349 156.092 43.0791C155.94 42.9232 155.561 42.8453 155.029 42.8453C154.422 42.8453 153.966 43.0011 153.739 43.2349C153.435 43.5466 153.359 43.9363 153.359 44.6376V48.1443H152.296V47.9885Z" fill="white"/>
<path d="M163.076 48.0674C162.013 48.0674 161.254 47.9116 160.799 47.522C160.343 47.2102 160.115 46.5868 160.115 45.6517V44.249C160.115 43.3918 160.343 42.7684 160.799 42.3787C161.254 42.067 162.013 41.8333 163.076 41.8333H163.608C164.67 41.8333 165.43 41.9891 165.885 42.3787C166.341 42.6905 166.568 43.3139 166.568 44.249V45.6517C166.568 46.5089 166.341 47.1323 165.885 47.522C165.43 47.8337 164.67 48.0674 163.608 48.0674H163.076ZM165.43 45.4958V44.4828C165.43 43.7035 165.278 43.2359 165.05 43.0022C164.822 42.7684 164.291 42.6905 163.608 42.6905H163.076C162.317 42.6905 161.861 42.7684 161.634 43.0022C161.406 43.2359 161.254 43.7035 161.254 44.4828V45.4958C161.254 46.2751 161.406 46.7427 161.634 46.9765C161.861 47.2102 162.317 47.2882 163.076 47.2882H163.608C164.367 47.2882 164.822 47.2102 165.05 46.9765C165.278 46.7427 165.43 46.2751 165.43 45.4958Z" fill="white"/>
<path d="M169.605 46.1968H170.668V46.3527C170.668 46.7423 170.82 46.9761 171.048 47.132C171.351 47.2878 171.883 47.3658 172.718 47.3658C173.629 47.3658 174.236 47.2878 174.464 47.132C174.692 46.9761 174.768 46.7423 174.768 46.3527C174.768 45.9631 174.692 45.7293 174.464 45.5734C174.312 45.4176 173.857 45.3396 173.098 45.3396C172.87 45.3396 172.49 45.3396 172.035 45.3396C171.048 45.3396 170.44 45.2617 170.289 45.1838C169.985 45.0279 169.833 44.8721 169.681 44.6383C169.529 44.4045 169.529 44.0928 169.529 43.7032C169.529 43.0018 169.757 42.6122 170.137 42.3784C170.516 42.1446 171.427 41.9888 172.87 41.9888C173.933 41.9888 174.692 42.0667 175.071 42.3005C175.451 42.5343 175.679 42.9239 175.679 43.4694H174.616V43.3915C174.616 43.1577 174.464 42.9239 174.16 42.846C173.857 42.768 173.325 42.6901 172.49 42.6901C171.655 42.6901 171.2 42.768 170.972 42.846C170.744 42.9239 170.668 43.2356 170.668 43.6252C170.668 43.859 170.668 44.0149 170.744 44.0928C170.82 44.1707 170.896 44.2487 170.972 44.3266C171.2 44.4045 171.655 44.4824 172.414 44.4824C172.566 44.4824 172.718 44.4824 172.87 44.4824C173.477 44.4824 173.933 44.5604 174.312 44.5604C174.692 44.5604 174.92 44.6383 175.071 44.7162C175.375 44.8721 175.603 45.0279 175.755 45.2617C175.907 45.4955 175.982 45.8072 175.982 46.2748C175.982 46.7423 175.907 47.054 175.755 47.2878C175.603 47.5216 175.375 47.7554 174.996 47.9112C174.844 47.9892 174.616 48.0671 174.236 48.0671C173.857 48.0671 173.401 48.145 172.718 48.145C171.427 48.145 170.592 47.9892 170.137 47.7554C169.681 47.5216 169.529 47.054 169.529 46.4306V46.1968H169.605Z" fill="white"/>
</svg>
