<svg width="25" height="25" viewBox="0 0 25 25" fill="none" xmlns="http://www.w3.org/2000/svg">
<path d="M8.16667 7C7.59203 7 7.04093 7.22827 6.6346 7.6346C6.22827 8.04093 6 8.59203 6 9.16667V9.38442L12.5 12.8847L19 9.3855V9.16667C19 8.59203 18.7717 8.04093 18.3654 7.6346C17.9591 7.22827 17.408 7 16.8333 7H8.16667Z" fill="white"/>
<path d="M19 10.6152L12.7568 13.9768C12.6778 14.0193 12.5896 14.0415 12.5 14.0415C12.4104 14.0415 12.3222 14.0193 12.2433 13.9768L6 10.6152V15.6668C6 16.2415 6.22827 16.7926 6.6346 17.1989C7.04093 17.6052 7.59203 17.8335 8.16667 17.8335H16.8333C17.408 17.8335 17.9591 17.6052 18.3654 17.1989C18.7717 16.7926 19 16.2415 19 15.6668V10.6152Z" fill="white"/>
</svg>
