<svg width="182" height="40" viewBox="0 0 182 40" fill="none" xmlns="http://www.w3.org/2000/svg">
<path d="M35.8814 32.6837C36.3607 31.0671 36.84 29.4505 37.1824 27.7636C38.278 22.8434 38.5519 17.7125 37.5248 12.722C37.0455 10.3323 35.9499 8.22365 33.5532 7.30992C30.1294 5.97445 26.7056 7.80193 25.3361 11.6677C24.4459 14.1981 24.5144 16.9393 24.5144 19.3994C24.7198 25.7252 26.1578 31.4888 28.349 37.1118C28.4175 37.3929 28.6229 37.7444 28.6914 37.8849H33.9641C34.3749 37.1118 34.5803 36.2683 34.8542 35.4952C35.1966 34.5814 35.539 33.6677 35.8814 32.6837Z" fill="#CC0000"/>
<path d="M31.3619 0C14.0375 0 0 12.5112 0 27.9041C0 31.4185 0.753233 34.8626 2.12275 37.9552H9.38118C9.10728 37.7443 8.42252 37.182 8.08014 36.9712C7.32691 36.3386 6.5052 35.706 5.82044 35.0031C4.17702 33.5271 2.39665 32.1916 0.684758 30.2939C1.9858 30.2939 5.75196 30.2939 5.75196 30.2939C5.75196 30.2939 6.7791 31.4185 8.35404 32.3322C9.79203 33.1757 11.4355 33.9488 13.0789 34.0894C20.8166 34.9328 23.7611 33.8785 23.7611 33.8785V32.1213C23.0763 31.8402 21.8438 31.2779 21.296 30.7859C17.6667 27.6932 15.8864 23.7571 15.8179 18.6965C15.8179 9.62938 21.5699 4.49839 28.0751 3.23322C33.0053 2.38977 37.7301 3.23322 41.7702 6.88817C43.8245 8.71564 45.331 10.8243 46.1527 13.5655C47.5907 18.6965 47.0428 23.476 44.0984 27.8338C42.9343 29.591 39.0997 32.1213 39.0997 32.1213V33.8785C39.0997 33.8785 49.9188 36.0574 55.2599 31.6996C55.8762 31.2076 57.1088 30.1533 57.1088 30.1533H62.039L53.4111 37.9552H60.5326C61.9021 34.8626 62.6553 31.4185 62.6553 27.9041C62.6553 12.5112 48.6178 0 31.3619 0Z" fill="#CC0000"/>
<path d="M70.4619 17.0798C70.4619 15.0415 70.7358 13.3546 71.2836 12.0192C71.8999 10.5431 73.8857 9.76996 77.378 9.76996H78.3366C81.0757 9.76996 83.1299 10.0511 84.4995 10.5431C86.0744 11.1054 86.8276 12.6517 86.8276 15.1118V16.1661C86.8276 16.869 86.8276 17.5719 86.8276 18.2747C86.8276 18.9776 86.8276 19.6805 86.7592 20.3834C86.6907 21.2971 86.5537 22.1405 86.2798 22.8434C86.0059 23.5463 85.5951 24.1086 85.1157 24.46C84.1571 25.2332 82.3082 25.6549 79.6377 25.6549H78.7475C78.6105 25.6549 78.4736 25.6549 78.3366 25.6549C78.1997 25.6549 78.0627 25.6549 77.9943 25.6549C76.8302 25.6549 75.803 25.5846 74.9813 25.4441C74.0911 25.3035 73.3379 25.0926 72.7216 24.8115C71.4206 24.2492 70.6673 22.9137 70.5304 20.8754C70.5304 20.3834 70.5304 19.8913 70.5304 19.3993C70.5304 18.9073 70.5304 18.4153 70.5304 17.9233V17.0798H70.4619ZM73.8857 17.853V20.2428C73.9542 21.5782 74.1596 22.4217 74.6389 22.7731C75.0498 23.1246 76.2139 23.3354 77.9943 23.3354C79.0214 23.3354 79.9116 23.3354 80.6648 23.2651C81.418 23.1949 81.9659 23.0543 82.3767 22.9137C83.0615 22.6326 83.4723 21.7188 83.5408 20.1022V18.9073C83.5408 18.6965 83.5408 18.4856 83.5408 18.2747C83.5408 18.0639 83.5408 17.853 83.5408 17.6421V15.2524C83.5408 13.6358 83.1984 12.722 82.5821 12.5112C81.8289 12.23 80.3909 12.0894 78.4736 12.0894H77.7888C76.2139 12.0894 75.1867 12.23 74.6389 12.5815C74.2281 12.8626 73.9542 13.7763 73.9542 15.2524L73.8857 17.853Z" fill="black"/>
<path d="M115.313 9.83948V25.4433H111.958V13.7053C110.863 15.6733 109.835 17.6414 108.74 19.6094C107.644 21.5775 106.617 23.5455 105.59 25.5136H102.645L96.2087 13.8459V25.5136H92.9219V9.83948H97.6467L104.083 21.7181C105.179 19.75 106.206 17.782 107.302 15.8139C108.397 13.7756 109.493 11.8075 110.52 9.90977H115.313V9.83948Z" fill="black"/>
<path d="M124.558 12.2292V16.3762H134.418V18.6957H124.558V23.1941H134.898V25.5136H121.339V9.83948H134.898V12.159H124.558V12.2292Z" fill="black"/>
<path d="M147.565 17.2899H156.947C157.015 17.7117 157.015 18.0631 157.084 18.274C157.084 18.5551 157.084 18.766 157.084 18.9768V20.3826C157.084 21.5775 156.878 22.7021 156.399 23.6158C156.125 24.1781 155.714 24.5295 155.029 24.881C154.413 25.1621 153.591 25.373 152.496 25.5136C151.811 25.5839 151.195 25.5839 150.51 25.5839C149.825 25.5839 149.14 25.5839 148.456 25.5839C145.169 25.5839 142.909 25.2324 141.676 24.4593C140.444 23.6861 139.828 22.0695 139.828 19.6797C139.828 19.3283 139.828 18.9768 139.828 18.6957C139.828 18.3443 139.828 17.9928 139.828 17.6414V15.6733C139.828 13.635 140.375 12.159 141.403 11.2452C142.498 10.2612 144.416 9.83948 147.155 9.83948C147.565 9.83948 147.976 9.83948 148.319 9.83948C148.729 9.83948 149.072 9.83948 149.483 9.83948C149.62 9.83948 149.825 9.83948 150.031 9.83948C150.236 9.83948 150.441 9.83948 150.647 9.83948H151.811C153.728 9.90976 155.029 10.2612 155.782 11.0344C156.536 11.7372 156.947 12.7915 156.947 14.127V15.111H153.591C153.591 13.9864 153.454 13.2133 153.18 12.7915C152.975 12.4401 152.29 12.2292 151.263 12.2292C150.578 12.2292 149.962 12.159 149.277 12.159C148.593 12.159 147.908 12.159 147.292 12.159C145.443 12.159 144.279 12.3698 143.868 12.7213C143.457 13.143 143.251 14.127 143.183 15.7436C143.183 16.0248 143.183 16.3762 143.183 16.7276C143.183 17.0791 143.183 17.3602 143.183 17.7117V19.8203C143.183 20.242 143.183 20.6637 143.251 21.0855C143.32 21.5072 143.388 21.8586 143.525 22.2101C143.662 22.4912 143.868 22.7021 144.21 22.8426C144.552 23.0535 144.963 23.1238 145.58 23.1941C145.854 23.1941 146.059 23.2644 146.333 23.2644C146.607 23.2644 146.812 23.2644 147.018 23.2644C147.291 23.2644 147.565 23.2644 147.839 23.2644C148.113 23.2644 148.387 23.2644 148.593 23.2644H149.757C151.469 23.2644 152.564 23.1238 152.975 22.8426C153.386 22.5615 153.591 21.7883 153.591 20.5232V19.6797H147.428V17.2899H147.565Z" fill="black"/>
<path d="M176.12 22.3506H167.081C166.875 22.8427 166.602 23.405 166.328 23.897C166.054 24.4593 165.848 24.9513 165.574 25.4433H162.014L169.546 9.83948H173.449L181.118 25.4433H177.558L176.12 22.3506ZM175.024 20.1717C174.682 19.4689 174.408 18.9066 174.134 18.274C173.86 17.7117 173.586 17.1494 173.312 16.5871C173.038 16.0248 172.764 15.4625 172.49 14.8299C172.217 14.1973 171.874 13.5647 171.6 12.8618C170.984 14.127 170.436 15.3219 169.888 16.4465C169.341 17.5711 168.793 18.8363 168.176 20.1717H175.024Z" fill="black"/>
<path d="M96.9615 35.354H97.9202V35.4946C97.9202 35.846 98.0572 36.0569 98.2626 36.1974C98.5365 36.338 99.0158 36.4083 99.769 36.4083C100.591 36.4083 101.139 36.338 101.344 36.1974C101.549 36.0569 101.618 35.846 101.618 35.4946C101.618 35.1431 101.549 34.9323 101.344 34.7917C101.207 34.6511 100.796 34.5808 100.111 34.5808C99.906 34.5808 99.5636 34.5808 99.1528 34.5808C98.2626 34.5808 97.7148 34.5105 97.5778 34.4403C97.3039 34.2997 97.167 34.1591 97.03 33.9482C96.8931 33.7374 96.8931 33.4562 96.8931 33.1048C96.8931 32.4722 97.0985 32.1208 97.4409 31.9099C97.7833 31.699 98.605 31.5585 99.906 31.5585C100.865 31.5585 101.549 31.6288 101.892 31.8396C102.234 32.0505 102.44 32.4019 102.44 32.8939H101.481V32.8236C101.481 32.6128 101.344 32.4019 101.07 32.3316C100.796 32.2613 100.317 32.1911 99.5636 32.1911C98.8104 32.1911 98.3995 32.2613 98.1941 32.3316C97.9887 32.4019 97.9202 32.6831 97.9202 33.0345C97.9202 33.2454 97.9202 33.3859 97.9887 33.4562C98.0572 33.5265 98.1256 33.5968 98.1941 33.6671C98.3995 33.7374 98.8104 33.8077 99.4951 33.8077C99.6321 33.8077 99.769 33.8077 99.906 33.8077C100.454 33.8077 100.865 33.878 101.207 33.878C101.549 33.878 101.755 33.9482 101.892 34.0185C102.166 34.1591 102.371 34.2997 102.508 34.5105C102.645 34.7214 102.714 35.0026 102.714 35.4243C102.714 35.846 102.645 36.1271 102.508 36.338C102.371 36.5489 102.166 36.7597 101.823 36.9003C101.686 36.9706 101.481 37.0409 101.139 37.0409C100.796 37.0409 100.385 37.1112 99.769 37.1112C98.605 37.1112 97.8517 36.9706 97.4409 36.7597C97.03 36.5489 96.8931 36.1271 96.8931 35.5648V35.354H96.9615Z" fill="black"/>
<path d="M108.329 37.0414C107.37 37.0414 106.685 36.9009 106.274 36.5494C105.864 36.2683 105.658 35.706 105.658 34.8625V33.5974C105.658 32.8242 105.864 32.2619 106.274 31.9105C106.685 31.6293 107.37 31.4185 108.329 31.4185H108.808C109.767 31.4185 110.452 31.559 110.862 31.9105C111.273 32.1916 111.479 32.7539 111.479 33.5974V34.4408H106.754C106.754 34.5111 106.754 34.5814 106.754 34.6517C106.754 34.722 106.754 34.7922 106.754 34.9328C106.754 35.4951 106.891 35.8466 107.096 36.0574C107.302 36.2683 107.781 36.3386 108.397 36.3386H108.877C109.493 36.3386 109.904 36.2683 110.109 36.1277C110.315 35.9871 110.452 35.7763 110.52 35.4248H111.547C111.479 35.9871 111.273 36.4089 110.862 36.69C110.452 36.9712 109.835 37.1117 108.945 37.1117H108.329V37.0414ZM106.685 33.7379H110.452V33.5271C110.452 33.0351 110.315 32.6836 110.109 32.4728C109.904 32.2619 109.424 32.1916 108.808 32.1916H108.329C107.644 32.1916 107.233 32.2619 107.028 32.4728C106.822 32.6836 106.685 32.9648 106.685 33.5271V33.7379Z" fill="black"/>
<path d="M119.97 31.5583V36.9001C119.97 37.6733 119.764 38.2356 119.422 38.587C119.011 38.8682 118.395 39.079 117.436 39.079H116.957C116.066 39.079 115.45 38.9384 115.039 38.7276C114.628 38.4464 114.423 38.0247 114.354 37.4624H115.382C115.45 37.8138 115.587 38.0247 115.792 38.1653C115.998 38.3059 116.409 38.3761 116.957 38.3761H117.367C117.915 38.3761 118.326 38.3059 118.6 38.1653C118.874 38.0247 118.942 37.7436 118.942 37.3921V36.2675C118.737 36.5487 118.532 36.7595 118.189 36.9001C117.847 37.0407 117.436 37.111 116.888 37.111C115.929 37.111 115.313 36.9704 114.902 36.619C114.491 36.2675 114.354 35.7755 114.354 34.9321V33.6669C114.354 32.8937 114.56 32.3314 114.902 31.98C115.245 31.6286 115.929 31.488 116.888 31.488C117.436 31.488 117.915 31.5583 118.258 31.6988C118.6 31.8394 118.874 32.0503 119.011 32.4017V31.5583H119.97V31.5583ZM119.011 34.7212V33.8075C119.011 33.2452 118.874 32.8234 118.532 32.5423C118.189 32.2611 117.71 32.1909 117.025 32.1909C116.409 32.1909 115.929 32.2611 115.724 32.472C115.519 32.6829 115.382 33.1046 115.382 33.8075V34.7212C115.382 35.4241 115.519 35.8458 115.724 36.0567C115.929 36.2675 116.34 36.3378 117.025 36.3378C117.71 36.3378 118.258 36.1972 118.532 35.9864C118.874 35.7052 119.011 35.2835 119.011 34.7212Z" fill="black"/>
<path d="M128.666 31.5585V36.9706H127.707V36.2677C127.57 36.5489 127.296 36.7597 126.954 36.9003C126.611 37.0409 126.132 37.1112 125.516 37.1112C124.625 37.1112 124.078 36.9706 123.735 36.6894C123.393 36.4083 123.188 35.9163 123.188 35.2134V31.6288H124.146V35.0025C124.146 35.5648 124.215 35.9163 124.42 36.1271C124.625 36.338 125.036 36.4083 125.584 36.4083C126.269 36.4083 126.748 36.2677 127.091 36.0569C127.433 35.846 127.57 35.4243 127.57 34.862V31.699H128.666V31.5585Z" fill="black"/>
<path d="M131.953 36.9704V31.5583H132.911V32.3314C133.048 32.0503 133.254 31.8394 133.528 31.6988C133.801 31.5583 134.212 31.488 134.692 31.488C135.376 31.488 135.924 31.6286 136.198 31.9097C136.472 32.1909 136.609 32.6829 136.609 33.456V33.5263H135.65V33.3857C135.65 32.964 135.582 32.6829 135.376 32.5423C135.239 32.4017 134.897 32.3314 134.418 32.3314C133.87 32.3314 133.459 32.472 133.254 32.6829C132.98 32.964 132.911 33.3154 132.911 33.948V37.111H131.953V36.9704Z" fill="black"/>
<path d="M141.676 37.0414C140.718 37.0414 140.033 36.9009 139.622 36.5494C139.211 36.2683 139.006 35.706 139.006 34.8625V33.5974C139.006 32.8242 139.211 32.2619 139.622 31.9105C140.033 31.6293 140.718 31.4185 141.676 31.4185H142.156C143.114 31.4185 143.799 31.559 144.21 31.9105C144.621 32.1916 144.826 32.7539 144.826 33.5974V34.8625C144.826 35.6357 144.621 36.198 144.21 36.5494C143.799 36.8306 143.114 37.0414 142.156 37.0414H141.676ZM143.799 34.722V33.8082C143.799 33.1054 143.662 32.6836 143.457 32.4728C143.251 32.2619 142.772 32.1916 142.156 32.1916H141.676C140.992 32.1916 140.581 32.2619 140.375 32.4728C140.17 32.6836 140.033 33.1054 140.033 33.8082V34.722C140.033 35.4248 140.17 35.8466 140.375 36.0574C140.581 36.2683 140.992 36.3386 141.676 36.3386H142.156C142.84 36.3386 143.251 36.2683 143.457 36.0574C143.662 35.8466 143.799 35.4248 143.799 34.722Z" fill="black"/>
<path d="M147.565 35.354H148.524V35.4946C148.524 35.846 148.661 36.0569 148.866 36.1974C149.14 36.338 149.619 36.4083 150.373 36.4083C151.194 36.4083 151.742 36.338 151.948 36.1974C152.153 36.0569 152.221 35.846 152.221 35.4946C152.221 35.1431 152.153 34.9323 151.948 34.7917C151.811 34.6511 151.4 34.5808 150.715 34.5808C150.51 34.5808 150.167 34.5808 149.756 34.5808C148.866 34.5808 148.318 34.5105 148.181 34.4403C147.907 34.2997 147.77 34.1591 147.634 33.9482C147.497 33.7374 147.497 33.4562 147.497 33.1048C147.497 32.4722 147.702 32.1208 148.044 31.9099C148.387 31.699 149.208 31.5585 150.51 31.5585C151.468 31.5585 152.153 31.6288 152.495 31.8396C152.838 32.0505 153.043 32.4019 153.043 32.8939H152.084V32.8236C152.084 32.6128 151.948 32.4019 151.674 32.3316C151.4 32.2613 150.92 32.1911 150.167 32.1911C149.414 32.1911 149.003 32.2613 148.798 32.3316C148.592 32.4019 148.524 32.6831 148.524 33.0345C148.524 33.2454 148.524 33.3859 148.592 33.4562C148.661 33.5265 148.729 33.5968 148.798 33.6671C149.003 33.7374 149.414 33.8077 150.099 33.8077C150.236 33.8077 150.373 33.8077 150.51 33.8077C151.057 33.8077 151.468 33.878 151.811 33.878C152.153 33.878 152.358 33.9482 152.495 34.0185C152.769 34.1591 152.975 34.2997 153.112 34.5105C153.249 34.7214 153.317 35.0026 153.317 35.4243C153.317 35.846 153.249 36.1271 153.112 36.338C152.975 36.5489 152.769 36.7597 152.427 36.9003C152.29 36.9706 152.084 37.0409 151.742 37.0409C151.4 37.0409 150.989 37.1112 150.373 37.1112C149.208 37.1112 148.455 36.9706 148.044 36.7597C147.634 36.5489 147.497 36.1271 147.497 35.5648V35.354H147.565Z" fill="black"/>
</svg>
