<svg width="32" height="28" viewBox="0 0 32 28" fill="none" xmlns="http://www.w3.org/2000/svg">
<path d="M29.5556 6.22222H20.2222C19.8097 6.22222 19.414 6.38611 19.1223 6.67783C18.8306 6.96956 18.6667 7.36522 18.6667 7.77778V12.4444H15.5556V1.55556C15.5556 1.143 15.3917 0.747335 15.0999 0.455612C14.8082 0.163888 14.4126 0 14 0H1.55556C1.143 0 0.747335 0.163888 0.455612 0.455612C0.163888 0.747335 0 1.143 0 1.55556V26.4444C0 26.857 0.163888 27.2527 0.455612 27.5444C0.747335 27.8361 1.143 28 1.55556 28H29.5556C29.9681 28 30.3638 27.8361 30.6555 27.5444C30.9472 27.2527 31.1111 26.857 31.1111 26.4444V7.77778C31.1111 7.36522 30.9472 6.96956 30.6555 6.67783C30.3638 6.38611 29.9681 6.22222 29.5556 6.22222ZM9.33333 4.66667H12.4444V7.77778H9.33333V4.66667ZM6.22222 20.2222H3.11111V17.1111H6.22222V20.2222ZM6.22222 14H3.11111V10.8889H6.22222V14ZM6.22222 7.77778H3.11111V4.66667H6.22222V7.77778ZM12.4444 20.2222H9.33333V17.1111H12.4444V20.2222ZM12.4444 14H9.33333V10.8889H12.4444V14ZM26.4444 20.2222H23.3333V17.1111H26.4444V20.2222ZM26.4444 14H23.3333V10.8889H26.4444V14Z" fill="white"/>
</svg>
