<svg width="30" height="30" viewBox="0 0 30 30" fill="none" xmlns="http://www.w3.org/2000/svg">
<path d="M25.6632 11.6281L18.8282 10.5879L15.7728 4.1014C15.6893 3.92381 15.552 3.78004 15.3824 3.69265C14.9571 3.47276 14.4402 3.656 14.2275 4.1014L11.1721 10.5879L4.33713 11.6281C4.14869 11.6563 3.9764 11.7494 3.84449 11.8903C3.68502 12.0619 3.59714 12.2929 3.60017 12.5323C3.6032 12.7718 3.69689 13.0002 3.86064 13.1673L8.80585 18.2161L7.63752 25.3454C7.61012 25.5112 7.62765 25.6818 7.68811 25.8378C7.74857 25.9937 7.84955 26.1288 7.97959 26.2277C8.10963 26.3266 8.26354 26.3854 8.42386 26.3973C8.58417 26.4093 8.74448 26.374 8.88661 26.2954L15.0002 22.9295L21.1137 26.2954C21.2806 26.3884 21.4744 26.4194 21.6602 26.3856C22.1286 26.301 22.4435 25.8359 22.3628 25.3454L21.1945 18.2161L26.1397 13.1673C26.2743 13.0292 26.3631 12.8488 26.39 12.6514C26.4627 12.1581 26.1343 11.7014 25.6632 11.6281V11.6281Z" fill="white"/>
</svg>
