<svg width="61" height="60" viewBox="0 0 61 60" fill="none" xmlns="http://www.w3.org/2000/svg">
<circle cx="30.9623" cy="30.4885" r="21.4885" fill="white"/>
<path d="M40.2124 24.0926C39.011 23.8284 37.9243 23.1905 37.108 22.2703C36.2917 21.3501 35.788 20.195 35.669 18.9707V18.4404H31.5112V34.9149C31.512 35.6459 31.2828 36.3587 30.8561 36.9522C30.4293 37.5457 29.8267 37.9899 29.1335 38.2219C28.4402 38.4538 27.6916 38.4618 26.9936 38.2446C26.2956 38.0275 25.6836 37.5962 25.2443 37.0119C24.8508 36.4947 24.6098 35.8777 24.5486 35.2307C24.4875 34.5837 24.6085 33.9324 24.8982 33.3506C25.1878 32.7688 25.6345 32.2797 26.1876 31.9385C26.7408 31.5973 27.3783 31.4177 28.0283 31.42C28.3877 31.4179 28.7453 31.4708 29.0888 31.5767V27.3586C28.6891 27.3091 28.2863 27.289 27.8836 27.2983C26.4005 27.338 24.961 27.8093 23.7416 28.6545C22.5222 29.4997 21.5757 30.6822 21.0181 32.0571C20.4604 33.432 20.3158 34.9397 20.602 36.3955C20.8881 37.8514 21.5926 39.1922 22.6291 40.2538C23.6915 41.3339 25.0509 42.0737 26.5347 42.3794C28.0185 42.6851 29.5597 42.5429 30.9624 41.9706C32.3651 41.3984 33.5661 40.4222 34.4127 39.1658C35.2593 37.9095 35.7134 36.4299 35.7172 34.9149V26.4788C37.3941 27.6767 39.405 28.3175 41.4658 28.3107V24.2131C41.061 24.2148 40.6571 24.1744 40.2606 24.0926H40.2124Z" fill="#CC0000"/>
</svg>
