<svg width="60" height="60" viewBox="0 0 60 60" fill="none" xmlns="http://www.w3.org/2000/svg">
<circle cx="30.4885" cy="30.4885" r="21.4885" fill="white"/>
<path d="M41.743 23.2963C40.9053 23.6673 40.0055 23.918 39.0595 24.0313C40.0356 23.4475 40.7659 22.5288 41.114 21.4465C40.197 21.9909 39.1933 22.3741 38.1467 22.5795C37.4428 21.8284 36.5106 21.3305 35.4946 21.1632C34.4787 20.9959 33.4359 21.1686 32.5282 21.6543C31.6205 22.14 30.8986 22.9117 30.4746 23.8495C30.0507 24.7873 29.9484 25.8387 30.1836 26.8406C28.3254 26.7474 26.5076 26.2647 24.8482 25.4238C23.1887 24.583 21.7247 23.4028 20.5512 21.9598C20.1499 22.6516 19.9192 23.4537 19.9192 24.308C19.9188 25.077 20.1082 25.8342 20.4708 26.5125C20.8334 27.1907 21.3579 27.7691 21.9978 28.1962C21.2557 28.1726 20.53 27.9722 19.8811 27.6116V27.6718C19.881 28.7503 20.2543 29.7957 20.9376 30.6305C21.6209 31.4653 22.5721 32.0381 23.6299 32.2518C22.9415 32.438 22.2198 32.4654 21.5193 32.332C21.8177 33.26 22.399 34.0716 23.1819 34.653C23.9647 35.2344 24.9099 35.5566 25.885 35.5745C24.2296 36.8733 22.1852 37.5778 20.0807 37.5747C19.7079 37.5748 19.3355 37.553 18.9652 37.5095C21.1014 38.8823 23.5881 39.6108 26.1278 39.608C34.7249 39.608 39.4247 32.4914 39.4247 26.3192C39.4247 26.1187 39.4197 25.9162 39.4106 25.7157C40.3248 25.0549 41.1139 24.2367 41.741 23.2993L41.743 23.2963V23.2963Z" fill="#CC0000"/>
</svg>
