<svg width="27" height="28" viewBox="0 0 27 28" fill="none" xmlns="http://www.w3.org/2000/svg">
<path d="M26.5496 18.2891L18.9034 14L26.5496 9.71086C26.9804 9.46914 27.1278 8.9343 26.8792 8.51539L25.078 5.48406C24.8294 5.0657 24.2787 4.92188 23.8478 5.16359L16.2017 9.45273V0.875C16.2017 0.391562 15.7984 0 15.3011 0H11.6989C11.2016 0 10.7983 0.391562 10.7983 0.875V9.45328L3.15215 5.16414C2.72127 4.92242 2.17058 5.06625 1.92195 5.48461L0.12081 8.51539C-0.127817 8.93375 0.0195592 9.46914 0.450438 9.71086L8.09657 14L0.450438 18.2891C0.0195592 18.5309 -0.127817 19.0662 0.12081 19.4846L1.92195 22.5159C2.17058 22.9343 2.72127 23.0776 3.15215 22.8364L10.7983 18.5473V27.125C10.7983 27.6084 11.2016 28 11.6989 28H15.3011C15.7984 28 16.2017 27.6084 16.2017 27.125V18.5467L23.8478 22.8359C24.2787 23.0776 24.8294 22.9343 25.078 22.5154L26.8792 19.4841C27.1278 19.0657 26.9804 18.5309 26.5496 18.2891Z" fill="white"/>
</svg>
