<svg width="49" height="48" viewBox="0 0 49 48" fill="none" xmlns="http://www.w3.org/2000/svg">
<path fill-rule="evenodd" clip-rule="evenodd" d="M35.1548 28.651C34.5618 28.356 31.6541 26.9345 31.1128 26.7365C30.5714 26.5405 30.1774 26.4435 29.7813 27.0335C29.3873 27.6195 28.2548 28.946 27.9105 29.338C27.5642 29.732 27.2199 29.7795 26.6288 29.4865C26.0378 29.1895 24.1312 28.5698 21.8723 26.5662C20.1149 25.0061 18.9268 23.0797 18.5825 22.4897C18.2382 21.9016 18.5447 21.5829 18.8412 21.2899C19.1079 21.0265 19.4323 20.6029 19.7288 20.2603C20.0254 19.9158 20.1229 19.6703 20.3199 19.2763C20.5189 18.8843 20.4194 18.5418 20.2702 18.2468C20.1229 17.9518 18.9407 15.0553 18.4472 13.8773C17.9675 12.7309 17.4799 12.8873 17.1177 12.8675C16.7714 12.8517 16.3774 12.8477 15.9833 12.8477C15.5892 12.8477 14.9484 12.9942 14.4071 13.5842C13.8637 14.1723 12.3373 15.5958 12.3373 18.4923C12.3373 21.3869 14.4548 24.1844 14.7514 24.5784C15.0479 24.9704 18.9208 30.914 24.8536 33.4621C26.2666 34.0679 27.3672 34.4302 28.225 34.6995C29.642 35.1489 30.9316 35.0856 31.9506 34.9331C33.085 34.7648 35.4494 33.5096 35.943 32.1356C36.4345 30.7615 36.4345 29.5835 36.2873 29.338C36.14 29.0925 35.7459 28.946 35.1528 28.651H35.1548ZM24.364 43.3079H24.356C20.8323 43.3086 17.3732 42.3662 14.3414 40.5797L13.6249 40.156L6.17761 42.1002L8.16581 34.8777L7.69812 34.1372C5.7281 31.0176 4.68555 27.4072 4.69094 23.7231C4.69492 12.9329 13.5194 4.15414 24.372 4.15414C29.6261 4.15414 34.5657 6.1934 38.2794 9.89179C40.1112 11.7065 41.563 13.8645 42.5509 16.241C43.5389 18.6175 44.0433 21.1653 44.0351 23.737C44.0311 34.5272 35.2066 43.3079 24.364 43.3079ZM41.1055 7.08236C38.9127 4.88654 36.3036 3.14547 33.4295 1.96006C30.5554 0.77464 27.4734 0.168443 24.362 0.176595C11.3183 0.176595 0.698605 10.7392 0.694625 23.7211C0.692635 27.8709 1.78127 31.9217 3.85306 35.4914L0.495605 47.6933L13.0418 44.4186C16.5124 46.2998 20.4017 47.2854 24.3541 47.2855H24.364C37.4077 47.2855 48.0274 36.7229 48.0314 23.739C48.041 20.645 47.4339 17.5798 46.2451 14.7207C45.0562 11.8617 43.3094 9.2655 41.1055 7.08236Z" fill="white"/>
</svg>
