<svg width="20" height="20" viewBox="0 0 20 20" fill="none" xmlns="http://www.w3.org/2000/svg">
<path d="M9.2924 9.29241L9.2886 6.49017C9.29155 6.30648 9.36652 6.1315 9.49738 6.0029C9.62824 5.8743 9.80451 5.80238 9.98823 5.80263C10.172 5.80288 10.3484 5.87527 10.4796 6.00423C10.6108 6.13318 10.6863 6.30837 10.6897 6.49207L10.6935 9.29431L13.4958 9.2981C13.5888 9.29661 13.6812 9.31366 13.7677 9.34825C13.8541 9.38285 13.9329 9.4343 13.9993 9.49961C14.0658 9.56491 14.1186 9.64276 14.1547 9.72861C14.1908 9.81445 14.2094 9.90658 14.2095 9.99962C14.2097 10.0927 14.1913 10.1847 14.1554 10.2705C14.1195 10.3562 14.0669 10.4339 14.0007 10.4991C13.9344 10.5642 13.8558 10.6154 13.7694 10.6498C13.6831 10.6842 13.5907 10.701 13.4977 10.6992L10.6954 10.6954L10.6992 13.4977C10.7009 13.5907 10.6841 13.6831 10.6498 13.7694C10.6154 13.8558 10.5642 13.9344 10.4991 14.0007C10.4339 14.067 10.3562 14.1196 10.2705 14.1554C10.1847 14.1913 10.0926 14.2097 9.99961 14.2096C9.90657 14.2094 9.81444 14.1908 9.72859 14.1547C9.64274 14.1186 9.5649 14.0658 9.49959 13.9993C9.43429 13.9329 9.38284 13.8541 9.34824 13.7677C9.31364 13.6812 9.29659 13.5888 9.29808 13.4958L9.29429 10.6935L6.49205 10.6897C6.30836 10.6863 6.13317 10.6108 6.00421 10.4796C5.87526 10.3484 5.80286 10.172 5.80262 9.98825C5.80237 9.80453 5.87429 9.62826 6.00288 9.4974C6.13148 9.36654 6.30647 9.29156 6.49016 9.28862L9.2924 9.29241Z" fill="#425AC5"/>
<path d="M10 18.5714C11.1256 18.5714 12.2402 18.3497 13.2801 17.919C14.3201 17.4882 15.265 16.8568 16.0609 16.0609C16.8568 15.265 17.4882 14.3201 17.919 13.2801C18.3497 12.2402 18.5714 11.1256 18.5714 10C18.5714 8.87438 18.3497 7.75979 17.919 6.71986C17.4882 5.67992 16.8568 4.73502 16.0609 3.93908C15.265 3.14315 14.3201 2.51179 13.2801 2.08103C12.2402 1.65028 11.1256 1.42857 10 1.42857C7.72672 1.42857 5.54654 2.33163 3.93908 3.93908C2.33163 5.54654 1.42857 7.72672 1.42857 10C1.42857 12.2733 2.33163 14.4535 3.93908 16.0609C5.54654 17.6684 7.72672 18.5714 10 18.5714V18.5714ZM10 20C7.34784 20 4.8043 18.9464 2.92893 17.0711C1.05357 15.1957 0 12.6522 0 10C0 7.34784 1.05357 4.8043 2.92893 2.92893C4.8043 1.05357 7.34784 0 10 0C12.6522 0 15.1957 1.05357 17.0711 2.92893C18.9464 4.8043 20 7.34784 20 10C20 12.6522 18.9464 15.1957 17.0711 17.0711C15.1957 18.9464 12.6522 20 10 20Z" fill="#425AC5"/>
</svg>
