<svg width="13" height="12" viewBox="0 0 13 12" fill="none" xmlns="http://www.w3.org/2000/svg">
<path d="M11.9244 0.575872C11.7418 0.3933 11.5251 0.248474 11.2865 0.149665C11.048 0.0508564 10.7924 0 10.5342 0C10.276 0 10.0203 0.0508564 9.78179 0.149665C9.54326 0.248474 9.32653 0.3933 9.14397 0.575872L1.75075 7.96894C1.53076 8.18892 1.37077 8.46191 1.28727 8.76189L0.513802 11.5242C0.495931 11.5883 0.495406 11.6559 0.51228 11.7202C0.529154 11.7845 0.562821 11.8432 0.609831 11.8902C0.656841 11.9372 0.715504 11.9708 0.779809 11.9877C0.844114 12.0046 0.911749 12.0041 0.975784 11.9862L3.73768 11.2127C4.03763 11.1288 4.31091 10.969 4.53115 10.7488L11.9244 3.35571C12.2929 2.98705 12.5 2.48709 12.5 1.96579C12.5 1.44449 12.2929 0.944533 11.9244 0.575872ZM9.67445 1.10584C9.90253 0.877834 10.2118 0.749768 10.5343 0.749815C10.8568 0.749862 11.1661 0.878018 11.3941 1.10609C11.6221 1.33416 11.7502 1.64347 11.7502 1.96597C11.7501 2.28846 11.622 2.59773 11.3939 2.82574L10.6239 3.59519L8.90448 1.8753L9.67445 1.10584ZM8.3745 2.40576L10.0944 4.12566L4.00067 10.2188C3.8716 10.3479 3.71146 10.4416 3.53569 10.4908L1.41527 11.0843L2.00874 8.96438C2.05806 8.78864 2.15172 8.62852 2.28073 8.4994L8.3745 2.40576Z" fill="#425AC5"/>
</svg>
