<svg width="12" height="13" viewBox="0 0 12 13" fill="none" xmlns="http://www.w3.org/2000/svg">
<path d="M11.4244 1.07587C11.2418 0.8933 11.0251 0.748474 10.7865 0.649665C10.548 0.550856 10.2924 0.5 10.0342 0.5C9.77598 0.5 9.52032 0.550856 9.28179 0.649665C9.04326 0.748474 8.82653 0.8933 8.64397 1.07587L1.25075 8.46894C1.03076 8.68892 0.870769 8.96191 0.787272 9.26189L0.0138016 12.0242C-0.00406916 12.0883 -0.00459446 12.1559 0.0122797 12.2202C0.0291539 12.2845 0.0628208 12.3432 0.109831 12.3902C0.156841 12.4372 0.215504 12.4708 0.279809 12.4877C0.344114 12.5046 0.411749 12.5041 0.475784 12.4862L3.23768 11.7127C3.53763 11.6288 3.81091 11.469 4.03115 11.2488L11.4244 3.85571C11.7929 3.48705 12 2.98709 12 2.46579C12 1.94449 11.7929 1.44453 11.4244 1.07587ZM9.17445 1.60584C9.40253 1.37783 9.71184 1.24977 10.0343 1.24981C10.3568 1.24986 10.6661 1.37802 10.8941 1.60609C11.1221 1.83416 11.2502 2.14347 11.2502 2.46597C11.2501 2.78846 11.122 3.09773 10.8939 3.32574L10.1239 4.09519L8.40448 2.3753L9.17445 1.60584ZM7.8745 2.90576L9.59444 4.62566L3.50067 10.7188C3.3716 10.8479 3.21146 10.9416 3.03569 10.9908L0.915267 11.5843L1.50874 9.46438C1.55806 9.28864 1.65172 9.12852 1.78073 8.9994L7.8745 2.90576Z" fill="white"/>
</svg>
