<svg width="41" height="40" viewBox="0 0 41 40" fill="none" xmlns="http://www.w3.org/2000/svg">
<path d="M20.4609 0.15625C25.8516 0.15625 26.5156 0.195312 28.625 0.273438C30.6953 0.351562 32.1406 0.703125 33.4297 1.21094C34.7578 1.71875 35.8516 2.38281 36.9453 3.47656C38.0391 4.57031 38.7031 5.66406 39.2109 6.99219C39.7188 8.28125 40.0703 9.72656 40.1484 11.7969C40.2266 13.9062 40.2656 14.5703 40.2656 19.9609C40.2656 25.3516 40.2266 26.0156 40.1484 28.125C40.0703 30.1953 39.7188 31.6406 39.2109 32.9297C38.7031 34.2578 38.0391 35.3516 36.9453 36.4453C35.8516 37.5391 34.7578 38.2031 33.4297 38.7109C32.1406 39.2188 30.6953 39.5703 28.625 39.6484C26.5156 39.7266 25.8516 39.7656 20.4609 39.7656C15.0703 39.7656 14.4062 39.7266 12.2969 39.6484C10.2266 39.5703 8.78125 39.2188 7.49219 38.7109C6.16406 38.2031 5.07031 37.5391 3.97656 36.4453C2.88281 35.3516 2.21875 34.2578 1.71094 32.9297C1.20312 31.6406 0.851562 30.1953 0.773438 28.125C0.695312 26.0156 0.65625 25.3516 0.65625 19.9609C0.65625 14.5703 0.695312 13.9062 0.773438 11.7969C0.851562 9.72656 1.20312 8.28125 1.71094 6.99219C2.21875 5.66406 2.88281 4.57031 3.97656 3.47656C5.07031 2.38281 6.16406 1.71875 7.49219 1.21094C8.78125 0.703125 10.2266 0.351562 12.2969 0.273438C14.4062 0.195312 15.0703 0.15625 20.4609 0.15625ZM20.4609 2.73438C14.8359 2.73438 14.1719 2.77344 11.9844 2.85156C9.95312 2.92969 8.82031 3.32031 8.07812 3.59375C6.16406 4.375 4.875 5.66406 4.09375 7.57812C3.82031 8.32031 3.42969 9.45312 3.35156 11.4844C3.27344 13.6719 3.23438 14.3359 3.23438 19.9609C3.23438 25.5859 3.27344 26.25 3.35156 28.4375C3.42969 30.4688 3.82031 31.6016 4.09375 32.3438C4.875 34.2578 6.16406 35.5469 8.07812 36.3281C8.82031 36.6016 9.95312 36.9922 11.9844 37.0703C14.1719 37.1484 14.8359 37.1875 20.4609 37.1875C26.0859 37.1875 26.75 37.1484 28.9375 37.0703C30.9688 36.9922 32.1016 36.6016 32.8438 36.3281C34.7578 35.5469 36.0469 34.2578 36.8281 32.3438C37.1016 31.6016 37.4922 30.4688 37.5703 28.4375C37.6484 26.25 37.6875 25.5859 37.6875 19.9609C37.6875 14.3359 37.6484 13.6719 37.5703 11.4844C37.4922 9.45312 37.1016 8.32031 36.8281 7.57812C36.0469 5.66406 34.7578 4.375 32.8438 3.59375C32.1016 3.32031 30.9688 2.92969 28.9375 2.85156C26.75 2.77344 26.0859 2.73438 20.4609 2.73438ZM20.4609 27.8906C24.8359 27.8906 28.3906 24.3359 28.3906 19.9609C28.3906 15.5859 24.8359 12.0312 20.4609 12.0312C16.0859 12.0312 12.5312 15.5859 12.5312 19.9609C12.5312 24.3359 16.0859 27.8906 20.4609 27.8906ZM20.4609 9.80469C26.0859 9.80469 30.6172 14.3359 30.6172 19.9609C30.6172 25.5859 26.0859 30.1172 20.4609 30.1172C14.8359 30.1172 10.3047 25.5859 10.3047 19.9609C10.3047 14.3359 14.8359 9.80469 20.4609 9.80469ZM33.4297 9.41406C33.4297 10.7422 32.3359 11.7578 31.0078 11.7578C29.6797 11.7578 28.6641 10.7422 28.6641 9.41406C28.6641 8.08594 29.6797 6.99219 31.0078 6.99219C32.3359 6.99219 33.4297 8.08594 33.4297 9.41406Z" fill="url(#paint0_linear_5779_396)"/>
<defs>
<linearGradient id="paint0_linear_5779_396" x1="-0.463449" y1="39.7319" x2="41.8609" y2="39.4078" gradientUnits="userSpaceOnUse">
<stop stop-color="#9955D4"/>
<stop offset="1" stop-color="#425AC5"/>
</linearGradient>
</defs>
</svg>
