<svg width="15" height="16" viewBox="0 0 15 16" fill="none" xmlns="http://www.w3.org/2000/svg">
<g clip-path="url(#clip0_3603_14058)">
<path d="M7.49986 0.979492C5.14144 0.979492 4.86201 0.996258 3.94547 1.02979C3.09599 1.06332 2.62095 1.22539 2.30799 1.33717C1.50881 1.6669 0.966704 2.209 0.636972 3.00818C0.51961 3.32115 0.357538 3.79618 0.324006 4.64566C0.296063 5.5622 0.279297 5.84164 0.279297 8.20006C0.279297 10.5585 0.296063 10.8379 0.329595 11.7545C0.363127 12.6039 0.525199 13.079 0.642561 13.3919C0.972292 14.1967 1.50881 14.7332 2.31357 15.063C2.62654 15.1803 3.10158 15.3424 3.95106 15.3759C4.8676 15.4094 5.14703 15.4262 7.50545 15.4262C9.86387 15.4262 10.1433 15.4094 11.0598 15.3759C11.9093 15.3424 12.3844 15.1803 12.6973 15.063C13.4965 14.7332 14.0386 14.1967 14.3683 13.3919C14.4857 13.079 14.6478 12.6039 14.6813 11.7545C14.7148 10.8379 14.7316 10.5585 14.7316 8.20006C14.7316 5.84164 14.7148 5.5622 14.6813 4.64566C14.6478 3.79618 14.4857 3.32115 14.3683 3.00818C14.0386 2.20341 13.5021 1.6669 12.6973 1.33717C12.3844 1.21981 11.9093 1.05773 11.0598 1.0242C10.1377 0.996258 9.85828 0.979492 7.49986 0.979492Z" stroke="url(#paint0_linear_3603_14058)" stroke-width="0.5" stroke-miterlimit="10"/>
<path d="M7.50007 11.5255C9.33315 11.5255 10.8253 10.0333 10.8253 8.20026C10.8253 6.36718 9.33315 4.875 7.50007 4.875C5.66698 4.875 4.1748 6.36718 4.1748 8.20026C4.1748 10.0333 5.66698 11.5255 7.50007 11.5255Z" stroke="url(#paint1_linear_3603_14058)" stroke-width="0.5" stroke-miterlimit="10"/>
<path d="M12.9382 3.77935C12.9382 4.33821 12.48 4.76295 11.9211 4.76295C11.3622 4.76295 10.9375 4.33821 10.9375 3.77935C10.9375 3.22048 11.3622 2.76221 11.9211 2.76221C12.48 2.76221 12.9382 3.22048 12.9382 3.77935Z" fill="url(#paint2_linear_3603_14058)"/>
</g>
<defs>
<linearGradient id="paint0_linear_3603_14058" x1="-0.129249" y1="15.4139" x2="15.3137" y2="15.2956" gradientUnits="userSpaceOnUse">
<stop stop-color="#9955D4"/>
<stop offset="1" stop-color="#425AC5"/>
</linearGradient>
<linearGradient id="paint1_linear_3603_14058" x1="3.9868" y1="11.5199" x2="11.0932" y2="11.4654" gradientUnits="userSpaceOnUse">
<stop stop-color="#9955D4"/>
<stop offset="1" stop-color="#425AC5"/>
</linearGradient>
<linearGradient id="paint2_linear_3603_14058" x1="10.8809" y1="4.76125" x2="13.0188" y2="4.74488" gradientUnits="userSpaceOnUse">
<stop stop-color="#9955D4"/>
<stop offset="1" stop-color="#425AC5"/>
</linearGradient>
<clipPath id="clip0_3603_14058">
<rect width="15" height="15" fill="white" transform="translate(0 0.700195)"/>
</clipPath>
</defs>
</svg>
