<svg width="11" height="11" viewBox="0 0 11 11" fill="none" xmlns="http://www.w3.org/2000/svg">
<path d="M11.0001 10.4446L8.03324 7.47774C8.74619 6.62183 9.10172 5.524 9.02586 4.41263C8.95 3.30126 8.44859 2.26193 7.62594 1.51084C6.80329 0.759742 5.72275 0.35472 4.60908 0.380024C3.49542 0.405329 2.43438 0.859012 1.6467 1.6467C0.859012 2.43438 0.405329 3.49542 0.380024 4.60908C0.35472 5.72275 0.759742 6.80329 1.51084 7.62594C2.26193 8.44859 3.30126 8.95 4.41263 9.02586C5.524 9.10172 6.62183 8.74619 7.47774 8.03324L10.4446 11.0001L11.0001 10.4446ZM1.17867 4.71438C1.17867 4.01508 1.38604 3.33149 1.77454 2.75005C2.16305 2.1686 2.71526 1.71542 3.36132 1.44781C4.00739 1.1802 4.71831 1.11018 5.40417 1.24661C6.09003 1.38303 6.72003 1.71978 7.21451 2.21426C7.70899 2.70873 8.04573 3.33874 8.18216 4.0246C8.31859 4.71046 8.24857 5.42137 7.98096 6.06744C7.71335 6.71351 7.26017 7.26571 6.67872 7.65422C6.09728 8.04273 5.41368 8.2501 4.71438 8.2501C3.77697 8.24906 2.87825 7.87621 2.2154 7.21336C1.55255 6.55051 1.17971 5.65179 1.17867 4.71438Z" fill="url(#paint2_linear_3790_15467)"/>
<defs>
<linearGradient id="paint0_linear_3790_15467" x1="39.3586" y1="18.967" x2="55.8517" y2="18.8409" gradientUnits="userSpaceOnUse">
<stop stop-color="#9955D4"/>
<stop offset="1" stop-color="#425AC5"/>
</linearGradient>
<linearGradient id="paint1_linear_3790_15467" x1="8.86926" y1="54.1519" x2="51.6119" y2="53.8857" gradientUnits="userSpaceOnUse">
<stop stop-color="#9955D4"/>
<stop offset="1" stop-color="#425AC5"/>
</linearGradient>
<linearGradient id="paint2_linear_3790_15467" x1="1.86926" y1="10.1519" x2="16.6119" y2="4.8857" gradientUnits="userSpaceOnUse">
<stop stop-color="#9955D4"/>
<stop offset="1" stop-color="#425AC5"/>
</linearGradient>
</defs>
</svg>
