<svg width="60" height="60" viewBox="0 0 60 60" fill="none" xmlns="http://www.w3.org/2000/svg">
<path d="M51.05 11.2501L54.5 7.80007C54.9674 7.33263 55.2301 6.69864 55.2301 6.03757C55.2301 5.37651 54.9674 4.74251 54.5 4.27507C54.0326 3.80763 53.3986 3.54502 52.7375 3.54502C52.0764 3.54502 51.4424 3.80763 50.975 4.27507L47.5 7.70007L44.05 4.25007C43.5826 3.78263 42.9486 3.52002 42.2875 3.52002C41.6264 3.52002 40.9924 3.78263 40.525 4.25007C40.0576 4.71751 39.795 5.35151 39.795 6.01257C39.795 6.67364 40.0576 7.30763 40.525 7.77507L43.975 11.2251L40.525 14.6751C40.2935 14.9065 40.1099 15.1813 39.9847 15.4837C39.8594 15.7861 39.795 16.1102 39.795 16.4376C39.795 16.7649 39.8594 17.089 39.9847 17.3914C40.1099 17.6938 40.2935 17.9686 40.525 18.2001C40.9924 18.6675 41.6264 18.9301 42.2875 18.9301C42.6148 18.9301 42.939 18.8657 43.2414 18.7404C43.5438 18.6151 43.8186 18.4315 44.05 18.2001L47.5 14.8001L50.95 18.2501C51.1815 18.4815 51.4562 18.6651 51.7586 18.7904C52.0611 18.9157 52.3852 18.9801 52.7125 18.9801C53.0398 18.9801 53.364 18.9157 53.6664 18.7904C53.9688 18.6651 54.2436 18.4815 54.475 18.2501C54.7065 18.0186 54.8901 17.7438 55.0153 17.4414C55.1406 17.139 55.2051 16.8149 55.2051 16.4876C55.2051 16.1602 55.1406 15.8361 55.0153 15.5337C54.8901 15.2313 54.7065 14.9565 54.475 14.7251L51.05 11.2501Z" fill="url(#paint0_linear_3790_15467)"/>
<path d="M46.3786 20.1536L47.5 19.0321L48.8214 20.3536C48.8481 20.3802 48.8767 20.4052 48.9013 20.4258C49.2715 22.0212 49.5 23.7046 49.5 25.5C49.5 29.3457 48.0179 33.5759 44.9939 38.2047C41.9709 42.8319 37.4252 47.8292 31.3456 53.1988C30.5842 53.8588 29.4407 53.8587 28.6792 53.1987C22.5871 47.829 18.0352 42.8317 15.0091 38.2045C11.9821 33.5758 10.5 29.3457 10.5 25.5C10.5 13.3414 19.7606 5.5 30 5.5C32.3817 5.5 34.6953 5.92472 36.8556 6.73086C36.995 7.89976 37.4866 9.01869 38.3964 9.92855L39.7179 11.25L38.3964 12.5714L38.3958 12.5721C37.8304 13.1397 37.3956 13.8236 37.1215 14.5764C36.8474 15.3291 36.7406 16.1325 36.8087 16.9307C36.8767 17.7289 37.1179 18.5026 37.5155 19.1981C37.9128 19.8933 38.4569 20.4935 39.1098 20.9571C41.364 22.5706 44.4837 22.0484 46.3786 20.1536ZM24.5 25C24.5 28.0261 26.9739 30.5 30 30.5C33.0261 30.5 35.5 28.0261 35.5 25C35.5 21.9739 33.0261 19.5 30 19.5C26.9739 19.5 24.5 21.9739 24.5 25Z" fill="url(#paint1_linear_3790_15467)" stroke="url(#paint2_linear_3790_15467)"/>
<defs>
<linearGradient id="paint0_linear_3790_15467" x1="39.3586" y1="18.967" x2="55.8517" y2="18.8409" gradientUnits="userSpaceOnUse">
<stop stop-color="#9955D4"/>
<stop offset="1" stop-color="#425AC5"/>
</linearGradient>
<linearGradient id="paint1_linear_3790_15467" x1="8.86926" y1="54.1519" x2="51.6119" y2="53.8857" gradientUnits="userSpaceOnUse">
<stop stop-color="#9955D4"/>
<stop offset="1" stop-color="#425AC5"/>
</linearGradient>
<linearGradient id="paint2_linear_3790_15467" x1="8.86926" y1="54.1519" x2="51.6119" y2="53.8857" gradientUnits="userSpaceOnUse">
<stop stop-color="#9955D4"/>
<stop offset="1" stop-color="#425AC5"/>
</linearGradient>
</defs>
</svg>
