<svg width="33" height="33" viewBox="0 0 33 33" fill="none" xmlns="http://www.w3.org/2000/svg">
<path fill-rule="evenodd" clip-rule="evenodd" d="M16.4625 2.86438C9.01502 2.86438 2.99512 8.88428 2.99512 16.3317C2.99512 23.7792 9.01502 29.7991 16.4625 29.7991C23.9099 29.7991 29.9298 23.7792 29.9298 16.3317C29.9298 8.88428 23.9099 2.86438 16.4625 2.86438ZM16.4625 27.1056C10.5234 27.1056 5.68858 22.2708 5.68858 16.3317C5.68858 10.3926 10.5234 5.55785 16.4625 5.55785C22.4016 5.55785 27.2363 10.3926 27.2363 16.3317C27.2363 22.2708 22.4016 27.1056 16.4625 27.1056ZM16.4625 14.4328L21.2972 9.59805L23.1961 11.4969L18.3614 16.3317L23.1961 21.1665L21.2972 23.0654L16.4625 18.2306L11.6277 23.0654L9.72879 21.1665L14.5636 16.3317L9.72879 11.4969L11.6277 9.59805L16.4625 14.4328Z" fill="#2490D3"/>
</svg>
