<svg width="11" height="20" viewBox="0 0 11 20" fill="none" xmlns="http://www.w3.org/2000/svg">
<path d="M9.5 3.99988V14.4999C9.5 16.7099 7.71 18.4999 5.5 18.4999C3.29 18.4999 1.5 16.7099 1.5 14.4999V3.99988C1.5 2.61988 2.62 1.49988 4 1.49988C5.38 1.49988 6.5 2.61988 6.5 3.99988V13.4999C6.5 14.0499 6.05 14.4999 5.5 14.4999C4.95 14.4999 4.5 14.0499 4.5 13.4999V3.99988H3V13.4999C3 14.8799 4.12 15.9999 5.5 15.9999C6.88 15.9999 8 14.8799 8 13.4999V3.99988C8 1.78988 6.21 -0.00012207 4 -0.00012207C1.79 -0.00012207 0 1.78988 0 3.99988V14.4999C0 17.5399 2.46 19.9999 5.5 19.9999C8.54 19.9999 11 17.5399 11 14.4999V3.99988H9.5Z" fill="#2490D3"/>
</svg>
