<svg width="24" height="25" viewBox="0 0 24 25" fill="none" xmlns="http://www.w3.org/2000/svg">
<path d="M15.5 6.83997V17.34C15.5 19.55 13.71 21.34 11.5 21.34C9.29 21.34 7.5 19.55 7.5 17.34V6.83997C7.5 5.45997 8.62 4.33997 10 4.33997C11.38 4.33997 12.5 5.45997 12.5 6.83997V16.34C12.5 16.89 12.05 17.34 11.5 17.34C10.95 17.34 10.5 16.89 10.5 16.34V6.83997H9V16.34C9 17.72 10.12 18.84 11.5 18.84C12.88 18.84 14 17.72 14 16.34V6.83997C14 4.62997 12.21 2.83997 10 2.83997C7.79 2.83997 6 4.62997 6 6.83997V17.34C6 20.38 8.46 22.84 11.5 22.84C14.54 22.84 17 20.38 17 17.34V6.83997H15.5Z" fill="#7D848E"/>
</svg>
