<svg width="16" height="17" viewBox="0 0 16 17" fill="none" xmlns="http://www.w3.org/2000/svg">
<path fillRule="evenodd" clipRule="evenodd" d="M7.99967 1.49316C4.31301 1.49316 1.33301 4.47316 1.33301 8.15983C1.33301 11.8465 4.31301 14.8265 7.99967 14.8265C11.6863 14.8265 14.6663 11.8465 14.6663 8.15983C14.6663 4.47316 11.6863 1.49316 7.99967 1.49316ZM7.99967 13.4932C5.05967 13.4932 2.66634 11.0998 2.66634 8.15983C2.66634 5.21983 5.05967 2.8265 7.99967 2.8265C10.9397 2.8265 13.333 5.21983 13.333 8.15983C13.333 11.0998 10.9397 13.4932 7.99967 13.4932ZM7.99967 7.21983L10.393 4.8265L11.333 5.7665L8.93967 8.15983L11.333 10.5532L10.393 11.4932L7.99967 9.09983L5.60634 11.4932L4.66634 10.5532L7.05967 8.15983L4.66634 5.7665L5.60634 4.8265L7.99967 7.21983Z" fill="white"/>
</svg>
