<svg width="14" height="14" viewBox="0 0 14 14" fill="none" xmlns="http://www.w3.org/2000/svg">
<path fillRule="evenodd" clipRule="evenodd" d="M6.99967 0.333313C5.15801 0.333313 3.66634 1.82498 3.66634 3.66665C3.66634 5.50831 5.15801 6.99998 6.99967 6.99998C8.84134 6.99998 10.333 5.50831 10.333 3.66665C10.333 1.82498 8.84134 0.333313 6.99967 0.333313ZM8.66634 3.66665C8.66634 2.74998 7.91634 1.99998 6.99967 1.99998C6.08301 1.99998 5.33301 2.74998 5.33301 3.66665C5.33301 4.58331 6.08301 5.33331 6.99967 5.33331C7.91634 5.33331 8.66634 4.58331 8.66634 3.66665ZM11.9997 11.1666C11.833 10.575 9.24967 9.49998 6.99967 9.49998C4.74967 9.49998 2.16634 10.575 1.99967 11.175V12H11.9997V11.1666ZM0.333008 11.1666C0.333008 8.94998 4.77467 7.83331 6.99967 7.83331C9.22467 7.83331 13.6663 8.94998 13.6663 11.1666V13.6666H0.333008V11.1666Z" fill="white"/>
</svg>
