<svg width="21" height="20" viewBox="0 0 21 20" fill="none" xmlns="http://www.w3.org/2000/svg">
<path fillRule="evenodd" clipRule="evenodd" d="M16.3333 3.33329H15.5V1.66663H13.8333V3.33329H7.16667V1.66663H5.5V3.33329H4.66667C3.74167 3.33329 3 4.08329 3 4.99996V16.6666C3 17.5833 3.74167 18.3333 4.66667 18.3333H16.3333C17.25 18.3333 18 17.5833 18 16.6666V4.99996C18 4.08329 17.25 3.33329 16.3333 3.33329ZM16.3333 16.6666H4.66667V7.49996H16.3333V16.6666ZM5.91667 10.8333C5.91667 9.68329 6.85 8.74996 8 8.74996C9.15 8.74996 10.0833 9.68329 10.0833 10.8333C10.0833 11.9833 9.15 12.9166 8 12.9166C6.85 12.9166 5.91667 11.9833 5.91667 10.8333Z" fill="white"/>
</svg>
