<svg width="10" height="17" viewBox="0 0 10 17" fill="none" xmlns="http://www.w3.org/2000/svg">
<path d="M8.41667 3.40194V12.1519C8.41667 13.9936 6.925 15.4853 5.08333 15.4853C3.24167 15.4853 1.75 13.9936 1.75 12.1519V3.40194C1.75 2.25194 2.68333 1.3186 3.83333 1.3186C4.98333 1.3186 5.91667 2.25194 5.91667 3.40194V11.3186C5.91667 11.7769 5.54167 12.1519 5.08333 12.1519C4.625 12.1519 4.25 11.7769 4.25 11.3186V3.40194H3V11.3186C3 12.4686 3.93333 13.4019 5.08333 13.4019C6.23333 13.4019 7.16667 12.4686 7.16667 11.3186V3.40194C7.16667 1.56027 5.675 0.0686035 3.83333 0.0686035C1.99167 0.0686035 0.5 1.56027 0.5 3.40194V12.1519C0.5 14.6853 2.55 16.7353 5.08333 16.7353C7.61667 16.7353 9.66667 14.6853 9.66667 12.1519V3.40194H8.41667Z" fill="#7D848E"/>
</svg>
