<svg width="16" height="16" viewBox="0 0 16 16" fill="none" xmlns="http://www.w3.org/2000/svg">
<path d="M13.6134 6.78934L8.47341 1.536C8.41148 1.47344 8.33776 1.42377 8.25652 1.38987C8.17527 1.35598 8.08811 1.33852 8.00008 1.33852C7.91204 1.33852 7.82488 1.35598 7.74364 1.38987C7.66239 1.42377 7.58867 1.47344 7.52674 1.536L2.38674 6.796C2.26237 6.92138 2.16414 7.07022 2.09776 7.23387C2.03138 7.39753 1.99818 7.57274 2.00008 7.74934V13.336C1.99956 13.6773 2.12993 14.0058 2.36433 14.2538C2.59873 14.5018 2.91932 14.6506 3.26008 14.6693H12.7401C13.0808 14.6506 13.4014 14.5018 13.6358 14.2538C13.8702 14.0058 14.0006 13.6773 14.0001 13.336V7.74934C14.0006 7.39129 13.862 7.04706 13.6134 6.78934ZM6.66674 13.336V9.336H9.33341V13.336H6.66674ZM12.6667 13.336H10.6667V8.66934C10.6667 8.49253 10.5965 8.32296 10.4715 8.19793C10.3465 8.07291 10.1769 8.00267 10.0001 8.00267H6.00008C5.82327 8.00267 5.6537 8.07291 5.52867 8.19793C5.40365 8.32296 5.33341 8.49253 5.33341 8.66934V13.336H3.33341V7.72267L8.00008 2.956L12.6667 7.74934V13.336Z" fill="#FAFAFA"/>
</svg>
