<svg width="16" height="16" viewBox="0 0 16 16" fill="none" xmlns="http://www.w3.org/2000/svg">
<path d="M14.6667 9.66994H11.0833L11.6917 6.33661H14.6667C14.8877 6.33661 15.0996 6.24881 15.2559 6.09253C15.4122 5.93625 15.5 5.72429 15.5 5.50328C15.5 5.28226 15.4122 5.0703 15.2559 4.91402C15.0996 4.75774 14.8877 4.66994 14.6667 4.66994H11.9917L12.5667 1.49494C12.5894 1.38353 12.5891 1.26865 12.5657 1.15736C12.5424 1.04608 12.4965 0.940747 12.4309 0.847853C12.3654 0.754959 12.2815 0.676467 12.1844 0.617207C12.0874 0.557948 11.9793 0.519176 11.8667 0.503276C11.7547 0.476607 11.6385 0.473414 11.5252 0.493899C11.412 0.514384 11.3042 0.558102 11.2087 0.622298C11.1132 0.686495 11.032 0.769778 10.9703 0.866901C10.9085 0.964023 10.8676 1.07288 10.85 1.18661L10.225 4.66994H6.99167L7.56667 1.49494C7.58939 1.38353 7.58907 1.26865 7.56573 1.15736C7.54239 1.04608 7.49652 0.940747 7.43095 0.847853C7.36537 0.754959 7.28149 0.676467 7.18444 0.617207C7.0874 0.557948 6.97926 0.519176 6.86667 0.503276C6.75472 0.476607 6.63846 0.473414 6.52522 0.493899C6.41197 0.514384 6.3042 0.558102 6.20869 0.622298C6.11318 0.686495 6.032 0.769778 5.97026 0.866901C5.90853 0.964023 5.86758 1.07288 5.85 1.18661L5.225 4.66994H1.33333C1.11232 4.66994 0.900358 4.75774 0.744078 4.91402C0.587797 5.0703 0.5 5.28226 0.5 5.50328C0.5 5.72429 0.587797 5.93625 0.744078 6.09253C0.900358 6.24881 1.11232 6.33661 1.33333 6.33661H4.91667L4.30833 9.66994H1.33333C1.11232 9.66994 0.900358 9.75774 0.744078 9.91402C0.587797 10.0703 0.5 10.2823 0.5 10.5033C0.5 10.7243 0.587797 10.9363 0.744078 11.0925C0.900358 11.2488 1.11232 11.3366 1.33333 11.3366H4.00833L3.43333 14.5116C3.41061 14.623 3.41093 14.7379 3.43427 14.8492C3.45761 14.9605 3.50348 15.0658 3.56905 15.1587C3.63463 15.2516 3.71851 15.3301 3.81556 15.3893C3.9126 15.4486 4.02074 15.4874 4.13333 15.5033C4.24528 15.5299 4.36154 15.5331 4.47478 15.5127C4.58803 15.4922 4.6958 15.4484 4.79131 15.3843C4.88682 15.3201 4.968 15.2368 5.02974 15.1396C5.09147 15.0425 5.13242 14.9337 5.15 14.8199L5.775 11.3366H9.00833L8.43333 14.5116C8.41061 14.623 8.41093 14.7379 8.43427 14.8492C8.45761 14.9605 8.50348 15.0658 8.56905 15.1587C8.63463 15.2516 8.71851 15.3301 8.81556 15.3893C8.9126 15.4486 9.02074 15.4874 9.13333 15.5033C9.24528 15.5299 9.36154 15.5331 9.47478 15.5127C9.58803 15.4922 9.6958 15.4484 9.79131 15.3843C9.88682 15.3201 9.968 15.2368 10.0297 15.1396C10.0915 15.0425 10.1324 14.9337 10.15 14.8199L10.775 11.3366H14.6667C14.8877 11.3366 15.0996 11.2488 15.2559 11.0925C15.4122 10.9363 15.5 10.7243 15.5 10.5033C15.5 10.2823 15.4122 10.0703 15.2559 9.91402C15.0996 9.75774 14.8877 9.66994 14.6667 9.66994V9.66994ZM6.08333 9.66994L6.69167 6.33661H9.91667L9.30833 9.66994H6.08333Z" fill="#FAFAFA"/>
</svg>
