<svg width="20" height="20" viewBox="0 0 20 20" fill="none" xmlns="http://www.w3.org/2000/svg">
<path d="M16.6667 11.6699H13.0833L13.6917 8.33661H16.6667C16.8877 8.33661 17.0996 8.24881 17.2559 8.09253C17.4122 7.93625 17.5 7.72429 17.5 7.50327C17.5 7.28226 17.4122 7.0703 17.2559 6.91402C17.0996 6.75774 16.8877 6.66994 16.6667 6.66994H13.9917L14.5667 3.49494C14.5894 3.38353 14.5891 3.26865 14.5657 3.15736C14.5424 3.04608 14.4965 2.94075 14.4309 2.84785C14.3654 2.75496 14.2815 2.67647 14.1844 2.61721C14.0874 2.55795 13.9793 2.51918 13.8667 2.50328C13.7547 2.47661 13.6385 2.47341 13.5252 2.4939C13.412 2.51438 13.3042 2.5581 13.2087 2.6223C13.1132 2.68649 13.032 2.76978 12.9703 2.8669C12.9085 2.96402 12.8676 3.07288 12.85 3.18661L12.225 6.66994H8.99167L9.56667 3.49494C9.58939 3.38353 9.58907 3.26865 9.56573 3.15736C9.54239 3.04608 9.49652 2.94075 9.43095 2.84785C9.36537 2.75496 9.28149 2.67647 9.18444 2.61721C9.0874 2.55795 8.97926 2.51918 8.86667 2.50328C8.75472 2.47661 8.63846 2.47341 8.52522 2.4939C8.41197 2.51438 8.3042 2.5581 8.20869 2.6223C8.11318 2.68649 8.032 2.76978 7.97026 2.8669C7.90853 2.96402 7.86758 3.07288 7.85 3.18661L7.225 6.66994H3.33333C3.11232 6.66994 2.90036 6.75774 2.74408 6.91402C2.5878 7.0703 2.5 7.28226 2.5 7.50327C2.5 7.72429 2.5878 7.93625 2.74408 8.09253C2.90036 8.24881 3.11232 8.33661 3.33333 8.33661H6.91667L6.30833 11.6699H3.33333C3.11232 11.6699 2.90036 11.7577 2.74408 11.914C2.5878 12.0703 2.5 12.2823 2.5 12.5033C2.5 12.7243 2.5878 12.9363 2.74408 13.0925C2.90036 13.2488 3.11232 13.3366 3.33333 13.3366H6.00833L5.43333 16.5116C5.41061 16.623 5.41093 16.7379 5.43427 16.8492C5.45761 16.9605 5.50348 17.0658 5.56905 17.1587C5.63463 17.2516 5.71851 17.3301 5.81556 17.3893C5.9126 17.4486 6.02074 17.4874 6.13333 17.5033C6.24528 17.5299 6.36154 17.5331 6.47478 17.5127C6.58803 17.4922 6.6958 17.4484 6.79131 17.3843C6.88682 17.3201 6.968 17.2368 7.02974 17.1396C7.09147 17.0425 7.13242 16.9337 7.15 16.8199L7.775 13.3366H11.0083L10.4333 16.5116C10.4106 16.623 10.4109 16.7379 10.4343 16.8492C10.4576 16.9605 10.5035 17.0658 10.5691 17.1587C10.6346 17.2516 10.7185 17.3301 10.8156 17.3893C10.9126 17.4486 11.0207 17.4874 11.1333 17.5033C11.2453 17.5299 11.3615 17.5331 11.4748 17.5127C11.588 17.4922 11.6958 17.4484 11.7913 17.3843C11.8868 17.3201 11.968 17.2368 12.0297 17.1396C12.0915 17.0425 12.1324 16.9337 12.15 16.8199L12.775 13.3366H16.6667C16.8877 13.3366 17.0996 13.2488 17.2559 13.0925C17.4122 12.9363 17.5 12.7243 17.5 12.5033C17.5 12.2823 17.4122 12.0703 17.2559 11.914C17.0996 11.7577 16.8877 11.6699 16.6667 11.6699ZM8.08333 11.6699L8.69167 8.33661H11.9167L11.3083 11.6699H8.08333Z" fill="#B3B3BF"/>
</svg>
