<svg width="20" height="20" viewBox="0 0 20 20" fill="none" xmlns="http://www.w3.org/2000/svg">
<path d="M17.6731 9.69164C17.1559 8.79467 14.3114 4.29366 9.47912 4.43912C5.01043 4.55225 2.42457 8.47952 1.72154 9.69164C1.65062 9.81449 1.61328 9.95384 1.61328 10.0957C1.61328 10.2375 1.65062 10.3769 1.72154 10.4997C2.23063 11.3805 4.95387 15.7522 9.71346 15.7522H9.91548C14.3842 15.6391 16.9781 11.7118 17.6731 10.4997C17.7439 10.3769 17.7812 10.2375 17.7812 10.0957C17.7812 9.95385 17.7439 9.81451 17.6731 9.69164ZM9.87508 14.1361C6.39225 14.2169 4.12154 11.2351 3.41043 10.0957C4.21851 8.79467 6.3276 6.13609 9.55993 6.05528C13.0266 5.96639 15.3054 8.95629 16.0246 10.0957C15.1923 11.3967 13.1074 14.0553 9.87508 14.1361Z" fill="#2490D3"/>
<path d="M9.69742 7.27063C9.32601 7.27063 8.95823 7.34379 8.61509 7.48592C8.27194 7.62805 7.96016 7.83638 7.69753 8.09901C7.4349 8.36165 7.22657 8.67343 7.08443 9.01658C6.9423 9.35972 6.86914 9.7275 6.86914 10.0989C6.86914 10.4703 6.9423 10.8381 7.08443 11.1812C7.22657 11.5244 7.4349 11.8362 7.69753 12.0988C7.96016 12.3614 8.27194 12.5698 8.61509 12.7119C8.95823 12.854 9.32601 12.9272 9.69742 12.9272C10.4475 12.9272 11.1669 12.6292 11.6973 12.0988C12.2277 11.5684 12.5257 10.849 12.5257 10.0989C12.5257 9.34881 12.2277 8.62942 11.6973 8.09901C11.1669 7.56861 10.4475 7.27063 9.69742 7.27063ZM9.69742 11.311C9.37595 11.311 9.06764 11.1833 8.84032 10.956C8.61301 10.7287 8.4853 10.4204 8.4853 10.0989C8.4853 9.77744 8.61301 9.46913 8.84032 9.24181C9.06764 9.0145 9.37595 8.88679 9.69742 8.88679C10.0189 8.88679 10.3272 9.0145 10.5545 9.24181C10.7818 9.46913 10.9095 9.77744 10.9095 10.0989C10.9095 10.4204 10.7818 10.7287 10.5545 10.956C10.3272 11.1833 10.0189 11.311 9.69742 11.311Z" fill="#2490D3"/>
</svg>
