<svg width="19" height="19" viewBox="0 0 19 19" fill="none" xmlns="http://www.w3.org/2000/svg">
<path d="M11.429 12.5924H6.85761C6.65554 12.5924 6.46174 12.6727 6.31886 12.8156C6.17597 12.9584 6.0957 13.1522 6.0957 13.3543C6.0957 13.5564 6.17597 13.7502 6.31886 13.8931C6.46174 14.0359 6.65554 14.1162 6.85761 14.1162H11.429C11.6311 14.1162 11.8249 14.0359 11.9678 13.8931C12.1106 13.7502 12.1909 13.5564 12.1909 13.3543C12.1909 13.1522 12.1106 12.9584 11.9678 12.8156C11.8249 12.6727 11.6311 12.5924 11.429 12.5924Z" fill="#2490D3"/>
<path d="M6.85761 11.0686H9.14331C9.34538 11.0686 9.53917 10.9883 9.68206 10.8454C9.82494 10.7026 9.90521 10.5088 9.90521 10.3067C9.90521 10.1046 9.82494 9.91084 9.68206 9.76796C9.53917 9.62507 9.34538 9.5448 9.14331 9.5448H6.85761C6.65554 9.5448 6.46174 9.62507 6.31886 9.76796C6.17597 9.91084 6.0957 10.1046 6.0957 10.3067C6.0957 10.5088 6.17597 10.7026 6.31886 10.8454C6.46174 10.9883 6.65554 11.0686 6.85761 11.0686Z" fill="#2490D3"/>
<path d="M15.0412 6.74864L10.8964 2.17722C10.8252 2.0983 10.7382 2.03515 10.6411 1.99185C10.544 1.94855 10.4389 1.92605 10.3326 1.9258H4.9993C4.74616 1.92278 4.4949 1.96965 4.25987 2.06374C4.02485 2.15784 3.81066 2.2973 3.62954 2.47418C3.44841 2.65105 3.30391 2.86188 3.20427 3.0946C3.10463 3.32733 3.05181 3.57741 3.04883 3.83055V15.2591C3.05181 15.5122 3.10463 15.7623 3.20427 15.995C3.30391 16.2278 3.44841 16.4386 3.62954 16.6155C3.81066 16.7923 4.02485 16.9318 4.25987 17.0259C4.4949 17.12 4.74616 17.1669 4.9993 17.1638H13.2888C13.8 17.1697 14.2926 16.9724 14.6583 16.6152C15.0241 16.2581 15.233 15.7703 15.2393 15.2591V7.25911C15.2388 7.07028 15.1682 6.88837 15.0412 6.74864V6.74864ZM10.6678 4.2115L12.7555 6.49721H11.2317C11.1519 6.49239 11.0738 6.47173 11.0021 6.43643C10.9304 6.40114 10.8664 6.35191 10.814 6.29162C10.7615 6.23133 10.7215 6.1612 10.6964 6.0853C10.6714 6.00941 10.6616 5.92928 10.6678 5.84959V4.2115V4.2115ZM13.2888 15.64H4.9993C4.94625 15.6431 4.89311 15.6357 4.84294 15.6182C4.79276 15.6007 4.74653 15.5735 4.70689 15.5381C4.66725 15.5027 4.63499 15.4599 4.61195 15.412C4.58891 15.3641 4.57555 15.3121 4.57263 15.2591V3.83055C4.57555 3.77749 4.58891 3.72553 4.61195 3.67765C4.63499 3.62977 4.66725 3.5869 4.70689 3.55151C4.74653 3.51612 4.79276 3.4889 4.84294 3.47141C4.89311 3.45393 4.94625 3.44651 4.9993 3.4496H9.14405V5.84959C9.13175 6.41083 9.34195 6.95414 9.72878 7.36095C10.1156 7.76777 10.6477 8.00505 11.2088 8.02101H13.7155V15.2591C13.7125 15.3121 13.6992 15.3641 13.6761 15.412C13.6531 15.4599 13.6208 15.5027 13.5812 15.5381C13.5416 15.5735 13.4953 15.6007 13.4452 15.6182C13.395 15.6357 13.3418 15.6431 13.2888 15.64Z" fill="#2490D3"/>
</svg>
