<svg width="33" height="34" viewBox="0 0 33 34" fill="none" xmlns="http://www.w3.org/2000/svg">
<path d="M29.9296 17.0008C29.9296 13.4286 28.5105 10.0028 25.9847 7.47696C23.4588 4.95109 20.033 3.53207 16.4609 3.53207C12.8888 3.53207 9.46294 4.95109 6.93707 7.47696C4.41121 10.0028 2.99219 13.4286 2.99219 17.0008C2.99219 20.5729 4.41121 23.9987 6.93707 26.5246C9.46294 29.0504 12.8888 30.4694 16.4609 30.4694C20.033 30.4694 23.4588 29.0504 25.9847 26.5246C28.5105 23.9987 29.9296 20.5729 29.9296 17.0008ZM27.1418 15.654H23.1959C22.9738 12.4867 21.8886 9.44067 20.058 6.84639C21.9387 7.51432 23.5968 8.6915 24.8476 10.2467C26.0984 11.8018 26.8927 13.6739 27.1418 15.654ZM12.5298 18.3475H20.5024C20.1578 21.6747 18.7396 24.7994 16.4622 27.2494C14.1863 24.8096 12.8007 21.673 12.5298 18.3475ZM12.5298 15.654C12.8434 12.3435 14.2234 9.22434 16.4622 6.76558C18.758 9.19795 20.1794 12.325 20.5024 15.654H12.5298ZM13.0146 6.80598C11.1743 9.41464 10.0717 12.4713 9.82282 15.654H5.78262C6.03702 13.6494 6.85005 11.7567 8.12885 10.1922C9.40765 8.62761 11.1007 7.45421 13.0146 6.80598ZM5.78262 18.3475H9.82282C10.0446 21.5275 11.1398 24.5846 12.9876 27.1821C11.0806 26.5307 9.39454 25.3575 8.12091 23.7958C6.84728 22.2341 6.03717 20.3465 5.78262 18.3475ZM19.9907 27.1686C21.8335 24.5703 22.9409 21.5228 23.1959 18.3475H27.1688C26.9141 20.341 26.1069 22.2235 24.8384 23.7823C23.57 25.3411 21.8908 26.5141 19.9907 27.1686Z" fill="#2490D3"/>
</svg>
