<svg width="16" height="15" viewBox="0 0 16 15" fill="none" xmlns="http://www.w3.org/2000/svg">
<path d="M8.09099 0.0585938C10.1125 0.0585938 10.3615 0.0732422 11.1525 0.102539C11.9289 0.131836 12.4709 0.263672 12.9543 0.454102C13.4523 0.644531 13.8625 0.893555 14.2726 1.30371C14.6828 1.71387 14.9318 2.12402 15.1222 2.62207C15.3127 3.10547 15.4445 3.64746 15.4738 4.42383C15.5031 5.21484 15.5177 5.46387 15.5177 7.48535C15.5177 9.50684 15.5031 9.75586 15.4738 10.5469C15.4445 11.3232 15.3127 11.8652 15.1222 12.3486C14.9318 12.8467 14.6828 13.2568 14.2726 13.667C13.8625 14.0771 13.4523 14.3262 12.9543 14.5166C12.4709 14.707 11.9289 14.8389 11.1525 14.8682C10.3615 14.8975 10.1125 14.9121 8.09099 14.9121C6.0695 14.9121 5.82048 14.8975 5.02946 14.8682C4.2531 14.8389 3.71111 14.707 3.22771 14.5166C2.72966 14.3262 2.3195 14.0771 1.90935 13.667C1.49919 13.2568 1.25017 12.8467 1.05974 12.3486C0.869308 11.8652 0.737473 11.3232 0.708176 10.5469C0.678879 9.75586 0.66423 9.50684 0.66423 7.48535C0.66423 5.46387 0.678879 5.21484 0.708176 4.42383C0.737473 3.64746 0.869308 3.10547 1.05974 2.62207C1.25017 2.12402 1.49919 1.71387 1.90935 1.30371C2.3195 0.893555 2.72966 0.644531 3.22771 0.454102C3.71111 0.263672 4.2531 0.131836 5.02946 0.102539C5.82048 0.0732422 6.0695 0.0585938 8.09099 0.0585938ZM8.09099 1.02539C5.98161 1.02539 5.73259 1.04004 4.91228 1.06934C4.15056 1.09863 3.72575 1.24512 3.44743 1.34766C2.72966 1.64062 2.24626 2.12402 1.95329 2.8418C1.85075 3.12012 1.70427 3.54492 1.67497 4.30664C1.64568 5.12695 1.63103 5.37598 1.63103 7.48535C1.63103 9.59473 1.64568 9.84375 1.67497 10.6641C1.70427 11.4258 1.85075 11.8506 1.95329 12.1289C2.24626 12.8467 2.72966 13.3301 3.44743 13.623C3.72575 13.7256 4.15056 13.8721 4.91228 13.9014C5.73259 13.9307 5.98161 13.9453 8.09099 13.9453C10.2004 13.9453 10.4494 13.9307 11.2697 13.9014C12.0314 13.8721 12.4562 13.7256 12.7345 13.623C13.4523 13.3301 13.9357 12.8467 14.2287 12.1289C14.3312 11.8506 14.4777 11.4258 14.507 10.6641C14.5363 9.84375 14.5509 9.59473 14.5509 7.48535C14.5509 5.37598 14.5363 5.12695 14.507 4.30664C14.4777 3.54492 14.3312 3.12012 14.2287 2.8418C13.9357 2.12402 13.4523 1.64062 12.7345 1.34766C12.4562 1.24512 12.0314 1.09863 11.2697 1.06934C10.4494 1.04004 10.2004 1.02539 8.09099 1.02539ZM8.09099 10.459C9.73161 10.459 11.0646 9.12598 11.0646 7.48535C11.0646 5.84473 9.73161 4.51172 8.09099 4.51172C6.45036 4.51172 5.11736 5.84473 5.11736 7.48535C5.11736 9.12598 6.45036 10.459 8.09099 10.459ZM8.09099 3.67676C10.2004 3.67676 11.8996 5.37598 11.8996 7.48535C11.8996 9.59473 10.2004 11.2939 8.09099 11.2939C5.98161 11.2939 4.28239 9.59473 4.28239 7.48535C4.28239 5.37598 5.98161 3.67676 8.09099 3.67676ZM12.9543 3.53027C12.9543 4.02832 12.5441 4.40918 12.0461 4.40918C11.548 4.40918 11.1672 4.02832 11.1672 3.53027C11.1672 3.03223 11.548 2.62207 12.0461 2.62207C12.5441 2.62207 12.9543 3.03223 12.9543 3.53027Z" fill="#425AC5"/>
</svg>
