<svg width="20" height="15" viewBox="0 0 20 15" fill="none" xmlns="http://www.w3.org/2000/svg">
<path d="M19.3944 1.78181C18.7154 2.07471 17.9765 2.28551 17.2154 2.36761C18.0056 1.89816 18.5973 1.15652 18.8796 0.281814C18.1381 0.722914 17.3258 1.03222 16.4787 1.19601C16.1246 0.817523 15.6964 0.516 15.2208 0.310233C14.7451 0.104466 14.2322 -0.00113561 13.7139 9.20947e-06C11.617 9.20947e-06 9.93061 1.69971 9.93061 3.78551C9.93061 4.07841 9.96611 4.37131 10.0238 4.65311C6.88401 4.48891 4.08372 2.98891 2.22203 0.692316C1.88281 1.27171 1.70505 1.93143 1.70724 2.60282C1.70724 3.91643 2.37514 5.07471 3.39363 5.75592C2.79342 5.73229 2.20726 5.56731 1.68283 5.27441V5.32101C1.68283 7.16051 2.98312 8.68492 4.71611 9.03551C4.39072 9.12003 4.05599 9.16327 3.71981 9.16421C3.47351 9.16421 3.24052 9.1398 3.00531 9.10651C3.4846 10.6065 4.88031 11.696 6.54229 11.7315C5.242 12.75 3.6133 13.3491 1.84481 13.3491C1.5275 13.3491 1.2346 13.338 0.930611 13.3025C2.60812 14.3787 4.59851 15 6.742 15C13.7006 15 17.5083 9.23521 17.5083 4.23152C17.5083 4.06731 17.5083 3.90311 17.4972 3.73891C18.2339 3.19971 18.8796 2.53181 19.3944 1.78181Z" fill="#425AC5"/>
</svg>
