<svg width="12" height="12" viewBox="0 0 12 12" fill="none" xmlns="http://www.w3.org/2000/svg">
<path fill-rule="evenodd" clip-rule="evenodd" d="M10.0637 1.7203C9.52029 1.17337 8.8738 0.739693 8.16164 0.444398C7.44947 0.149103 6.68579 -0.00194062 5.91484 1.88226e-05C2.68203 1.88226e-05 0.0503085 2.63108 0.0490018 5.86519C0.0490018 6.8988 0.318838 7.90758 0.831723 8.79746L0 11.8362L3.10932 11.0202C3.9694 11.4884 4.93297 11.7339 5.91222 11.7343H5.91484C9.14699 11.7343 11.7787 9.10323 11.78 5.86911C11.7822 5.09847 11.6317 4.33503 11.3371 3.62292C11.0425 2.9108 10.6097 2.26414 10.0637 1.7203ZM5.91484 10.7445H5.91288C5.03968 10.7445 4.18255 10.5096 3.43143 10.0643L3.25372 9.95847L1.40864 10.4426L1.90061 8.64392L1.78497 8.45967C1.29677 7.68245 1.03834 6.78302 1.03949 5.86519C1.0408 3.17729 3.22758 0.990506 5.9168 0.990506C6.55725 0.989083 7.19163 1.1147 7.78321 1.36008C8.37479 1.60546 8.91183 1.96573 9.36325 2.42005C9.81709 2.8722 10.1768 3.40981 10.4216 4.00182C10.6664 4.59383 10.7915 5.22849 10.7895 5.86911C10.7882 8.55702 8.60144 10.7445 5.91484 10.7445ZM8.58902 7.09285C8.44202 7.01902 7.72202 6.6649 7.58743 6.6159C7.45349 6.5669 7.35614 6.54272 7.25814 6.68908C7.16013 6.83543 6.87919 7.16537 6.7936 7.26338C6.70801 7.36138 6.62242 7.37314 6.47607 7.29996C6.32972 7.22679 5.85734 7.07194 5.29741 6.57278C4.86163 6.18403 4.56762 5.70447 4.48203 5.55746C4.39644 5.41046 4.47288 5.3314 4.54671 5.25823C4.6127 5.19289 4.69306 5.08705 4.76624 5.00146C4.83941 4.91587 4.86359 4.85511 4.91259 4.7571C4.96159 4.6591 4.93742 4.57351 4.90017 4.50033C4.86359 4.4265 4.57023 3.7052 4.44805 3.41184C4.32979 3.12763 4.20892 3.16553 4.11876 3.16161C4.02538 3.15779 3.93193 3.15605 3.83847 3.15638C3.76415 3.15827 3.69103 3.1755 3.62369 3.20698C3.55634 3.23846 3.49622 3.28352 3.44711 3.33932C3.31252 3.48633 2.93422 3.84044 2.93422 4.56175C2.93422 5.28305 3.45952 5.98019 3.5327 6.07819C3.60587 6.17619 4.56631 7.65604 6.03636 8.29111C6.38656 8.44203 6.65966 8.53219 6.872 8.60014C7.22286 8.71187 7.54235 8.69553 7.7952 8.65829C8.07679 8.61648 8.6622 8.30417 8.78438 7.96181C8.90656 7.61946 8.90656 7.3261 8.86997 7.26468C8.83338 7.20327 8.73472 7.16603 8.58902 7.09285Z" fill="#ADADAD"/>
</svg>
