<svg width="73" height="73" viewBox="0 0 73 73" fill="none" xmlns="http://www.w3.org/2000/svg">
<g clip-path="url(#clip0_6936_22484)">
<path d="M48.6001 44.4717H24.6001C24.0697 44.4717 23.561 44.6825 23.1859 45.0575C22.8108 45.4326 22.6001 45.9413 22.6001 46.4717C22.6001 47.0022 22.8108 47.5109 23.1859 47.886C23.561 48.261 24.0697 48.4717 24.6001 48.4717H48.6001C49.1305 48.4717 49.6392 48.261 50.0143 47.886C50.3894 47.5109 50.6001 47.0022 50.6001 46.4717C50.6001 45.9413 50.3894 45.4326 50.0143 45.0575C49.6392 44.6825 49.1305 44.4717 48.6001 44.4717Z" fill="#DFDFDF"/>
<path d="M36.5 4.35175C30.171 4.35175 23.9841 6.22851 18.7218 9.74472C13.4594 13.2609 9.35787 18.2586 6.93587 24.1059C4.51386 29.9531 3.88016 36.3872 5.11489 42.5946C6.34961 48.802 9.39732 54.5039 13.8726 58.9792C18.3479 63.4544 24.0497 66.5022 30.2571 67.7369C36.4645 68.9716 42.8986 68.3379 48.7459 65.9159C54.5931 63.4939 59.5908 59.3924 63.107 54.13C66.6232 48.8676 68.5 42.6807 68.5 36.3517C68.5 27.8648 65.1286 19.7255 59.1274 13.7243C53.1263 7.72317 44.9869 4.35175 36.5 4.35175ZM36.5 64.3517C30.9621 64.3517 25.5486 62.7096 20.944 59.6329C16.3395 56.5562 12.7506 52.1832 10.6314 47.0669C8.51213 41.9506 7.95764 36.3207 9.03803 30.8892C10.1184 25.4577 12.7852 20.4686 16.701 16.5528C20.6169 12.6369 25.606 9.97014 31.0375 8.88976C36.469 7.80937 42.0988 8.36387 47.2152 10.4831C52.3315 12.6024 56.7045 16.1912 59.7812 20.7958C62.8578 25.4004 64.5 30.8139 64.5 36.3517C64.5 43.7778 61.55 50.8997 56.299 56.1507C51.048 61.4018 43.9261 64.3517 36.5 64.3517Z" fill="#DFDFDF"/>
<path d="M50.8202 32.5118C52.8084 32.5118 54.4202 30.9 54.4202 28.9118C54.4202 26.9235 52.8084 25.3118 50.8202 25.3118C48.832 25.3118 47.2202 26.9235 47.2202 28.9118C47.2202 30.9 48.832 32.5118 50.8202 32.5118Z" fill="#DFDFDF"/>
<path d="M22.8202 32.5118C24.8084 32.5118 26.4202 30.9 26.4202 28.9118C26.4202 26.9235 24.8084 25.3118 22.8202 25.3118C20.832 25.3118 19.2202 26.9235 19.2202 28.9118C19.2202 30.9 20.832 32.5118 22.8202 32.5118Z" fill="#DFDFDF"/>
</g>
<defs>
<clipPath id="clip0_6936_22484">
<rect width="72" height="72" fill="white" transform="translate(0.5 0.351746)"/>
</clipPath>
</defs>
</svg>
