<svg width="13" height="22" viewBox="0 0 13 22" fill="none" xmlns="http://www.w3.org/2000/svg">
<path d="M12.8333 1.08095C12.8333 0.926245 12.7719 0.777872 12.6625 0.668475C12.5531 0.559079 12.4047 0.497621 12.25 0.497621H9.33333C7.86464 0.42446 6.4267 0.935578 5.33367 1.9193C4.24065 2.90302 3.58141 4.27937 3.5 5.74762V8.89762H0.583333C0.428624 8.89762 0.280251 8.95908 0.170854 9.06848C0.0614583 9.17787 0 9.32625 0 9.48096V12.5143C0 12.669 0.0614583 12.8174 0.170854 12.9268C0.280251 13.0362 0.428624 13.0976 0.583333 13.0976H3.5V20.9143C3.5 21.069 3.56146 21.2174 3.67085 21.3268C3.78025 21.4362 3.92862 21.4976 4.08333 21.4976H7.58333C7.73804 21.4976 7.88642 21.4362 7.99581 21.3268C8.10521 21.2174 8.16667 21.069 8.16667 20.9143V13.0976H11.2233C11.3531 13.0995 11.4797 13.0581 11.5832 12.9799C11.6868 12.9017 11.7613 12.7912 11.795 12.666L12.635 9.63262C12.6582 9.54643 12.6613 9.45606 12.6441 9.36848C12.6269 9.28089 12.5898 9.19842 12.5357 9.12742C12.4816 9.05642 12.412 8.99878 12.3321 8.95894C12.2522 8.9191 12.1643 8.89812 12.075 8.89762H8.16667V5.74762C8.19569 5.45884 8.3313 5.19125 8.54703 4.9971C8.76275 4.80294 9.0431 4.69617 9.33333 4.69762H12.25C12.4047 4.69762 12.5531 4.63616 12.6625 4.52677C12.7719 4.41737 12.8333 4.269 12.8333 4.11429V1.08095Z" fill="#FAFAFA"/>
</svg>
