<svg width="133" height="26" viewBox="0 0 133 26" fill="none" xmlns="http://www.w3.org/2000/svg">
<g clipPath="url(#clip0_1200_3865)">
<path d="M45.993 11.2942C45.993 11.5463 45.993 11.7564 45.993 11.9664C45.993 15.8908 45.993 19.8152 45.993 23.7396C45.993 24.6051 45.6576 25.311 44.861 25.6807C43.5613 26.2774 41.641 25.79 41.5236 23.7564C41.5153 23.5967 41.5236 23.437 41.5236 23.2774C41.5236 19.4959 41.5236 15.7059 41.5236 11.9244C41.5236 11.7143 41.5236 11.5127 41.5236 11.2774C39.1758 11.2774 36.8866 11.2774 34.5471 11.2774C34.5387 11.4959 34.5219 11.6975 34.5219 11.9076C34.5219 15.832 34.5219 19.7564 34.5219 23.6807C34.5219 24.5211 34.2285 25.2017 33.4738 25.6303C32.4759 26.1933 31.0588 25.9748 30.4467 25.0337C30.2706 24.7648 30.1784 24.4286 30.0861 24.1093C30.0274 23.9076 30.0442 23.6891 30.0442 23.479C30.0442 18.7564 30.0442 14.0337 30.0442 9.31938C30.0442 8.53787 30.2455 7.8572 30.8492 7.32779C31.2517 6.97485 31.7045 6.77317 32.2412 6.77317C32.8952 6.77317 33.5493 6.77317 34.2033 6.77317C39.1422 6.77317 44.0895 6.78997 49.0285 6.76476C50.6217 6.75636 52.0555 7.21014 53.3637 8.06728C55.4348 9.42023 56.7932 11.2858 57.2544 13.7564C57.3383 14.2185 57.397 14.6975 57.397 15.1765C57.4137 18.0253 57.4053 20.874 57.4053 23.7143C57.4053 24.5967 57.0783 25.3026 56.265 25.7059C55.4097 26.1345 54.546 26.0673 53.7578 25.5211C53.2882 25.1933 53.0366 24.7059 52.9612 24.1345C52.9276 23.9244 52.9276 23.7143 52.9276 23.4959C52.9276 20.7564 52.936 18.0169 52.9192 15.2774C52.9192 14.7143 52.8521 14.1513 52.7431 13.5967C52.3826 11.7816 51.2925 11.3278 49.9844 11.2606C48.7517 11.1933 47.5107 11.2438 46.2781 11.2522C46.2026 11.2522 46.1355 11.269 45.993 11.2942Z" fill="white"/>
<path d="M13.4835 2.31089C14.9677 2.31089 16.4518 2.21005 17.9277 2.3277C21.8855 2.65543 24.9545 4.47896 26.9083 8.00837C28.0654 10.1008 28.5182 12.3697 28.4009 14.7395C28.2751 17.3445 27.4785 19.7227 25.8517 21.7899C24.2082 23.8739 22.0532 25.1092 19.4789 25.6554C18.4056 25.8823 17.3155 25.9495 16.2254 25.9579C13.9279 25.9664 11.6387 25.9579 9.34113 25.9579C8.4523 25.9579 7.73116 25.6302 7.24482 24.8571C7.03518 24.5126 6.94295 24.1512 6.95133 23.7479C6.95972 22.6302 6.95133 21.521 6.95133 20.4033C6.95133 15.1008 6.9681 9.78988 6.94295 4.48736C6.93456 3.54618 7.62215 2.55459 8.56969 2.3361C8.77094 2.28568 8.98895 2.26887 9.19858 2.26887C10.6241 2.26047 12.058 2.26887 13.4835 2.26887C13.4835 2.28568 13.4835 2.29408 13.4835 2.31089ZM11.3871 6.68064C11.3871 11.647 11.3871 16.5546 11.3871 21.5126C11.6052 21.5126 11.798 21.5126 11.9825 21.5126C13.6931 21.5126 15.4037 21.521 17.1143 21.5042C17.5503 21.5042 17.9947 21.4621 18.4224 21.3781C20.5103 20.9664 22.1119 19.8571 23.1684 17.9916C23.898 16.6974 24.1831 15.3025 24.1495 13.8235C24.116 12.4117 23.747 11.1008 23.0091 9.90753C21.6591 7.73946 19.6299 6.72265 17.1227 6.64702C15.3618 6.5966 13.5925 6.63862 11.8316 6.63862C11.7058 6.65543 11.5632 6.67223 11.3871 6.68064Z" fill="white"/>
<path d="M83.5926 6.97479C83.8441 6.97479 84.0286 6.97479 84.2215 6.97479C85.9488 6.97479 87.6846 6.94958 89.4119 6.98319C90.98 7.01681 92.4893 7.35294 93.8645 8.13445C96.0531 9.37815 97.4283 11.2605 98.0655 13.6723C98.7364 16.1849 98.5519 18.6555 97.4115 21C96.2292 23.4202 94.2922 24.9664 91.676 25.6387C90.8207 25.8571 89.9486 25.958 89.0598 25.958C86.5358 25.9664 84.0118 25.958 81.4879 25.958C80.7667 25.958 80.1462 25.7311 79.6515 25.1765C79.3077 24.7899 79.1316 24.3445 79.1064 23.8319C79.1064 23.7647 79.1064 23.6891 79.1064 23.6219C79.1064 16.5126 79.1064 9.40336 79.1064 2.29412C79.1064 1.63025 79.2574 1.03361 79.7689 0.57983C80.4816 -0.0504219 81.3202 -0.142859 82.1838 0.159662C83.0307 0.45378 83.5171 1.10084 83.5422 2C83.5842 3.44538 83.5674 4.89916 83.5758 6.34454C83.5926 6.53781 83.5926 6.73109 83.5926 6.97479ZM83.6345 11.1429C83.5255 12.1849 83.5674 21.2185 83.6764 21.5882C83.7267 21.5966 83.777 21.6134 83.8274 21.6134C85.5883 21.6134 87.3576 21.6555 89.1185 21.605C90.6278 21.563 91.9359 20.9916 92.8751 19.7563C93.8394 18.5042 94.1664 17.084 93.94 15.521C93.5794 13.0168 91.676 11.1681 88.934 11.1345C87.3492 11.1176 85.7643 11.1345 84.1711 11.1345C84.0034 11.1429 83.8357 11.1429 83.6345 11.1429Z" fill="white"/>
<path d="M124.446 18.5715C122.626 18.5715 120.815 18.5715 118.995 18.5715C118.702 18.5715 118.358 18.5211 118.207 18.8488C118.056 19.1597 118.249 19.4286 118.433 19.6639C119.297 20.79 120.446 21.437 121.871 21.4706C123.968 21.5127 126.072 21.4622 128.169 21.4959C128.672 21.5043 129.192 21.5799 129.67 21.7396C131.238 22.269 131.573 24.0001 130.5 25.2101C130.055 25.7143 129.469 25.958 128.814 25.9664C126.659 25.9833 124.504 26.0505 122.358 25.9496C119.775 25.8236 117.503 24.8656 115.633 23.0169C114.107 21.5043 113.184 19.6975 112.941 17.5715C112.631 14.832 113.31 12.353 115.105 10.2185C116.639 8.38661 118.61 7.27737 120.949 6.89081C123.876 6.41182 126.458 7.21854 128.689 9.15972C130.114 10.395 131.162 11.8992 131.825 13.6723C132.093 14.3866 132.227 15.1345 132.278 15.8908C132.303 16.2354 132.236 16.5967 132.143 16.9328C131.85 18.0169 131.12 18.5631 129.972 18.5715C128.11 18.5799 126.282 18.5715 124.446 18.5715ZM127.095 14.0253C126.332 12.4118 124.127 11.1345 122.349 11.2522C120.379 11.3866 118.794 12.1933 117.738 14.0253C120.89 14.0253 123.968 14.0253 127.095 14.0253Z" fill="white"/>
<path d="M67.9792 25.8908C62.9313 25.9916 58.3613 21.7395 58.4535 16.1681C58.5374 11.2101 62.5036 6.76473 68.0127 6.78154C73.5135 6.80675 77.5468 11.1765 77.5384 16.3614C77.53 21.8824 72.9936 26.0084 67.9792 25.8908ZM73.1864 16.4118C73.1948 13.7227 71.1237 11.1849 67.996 11.1597C64.9857 11.1345 62.8726 13.5883 62.7803 16.2101C62.6797 19.0336 65.0024 21.5378 67.8786 21.5883C70.8553 21.6471 73.1697 19.2017 73.1864 16.4118Z" fill="white"/>
<path d="M106.828 12.916C106.828 9.37816 106.828 5.84035 106.828 2.31094C106.828 2.05043 106.845 1.77312 106.912 1.52942C107.239 0.39497 108.228 -0.0167952 109.184 0.033625C110.585 0.109255 111.297 1.06724 111.297 2.37816C111.297 9.45379 111.297 16.521 111.297 23.5966C111.297 24.7227 110.828 25.4538 109.889 25.7899C108.664 26.2353 107.239 25.6891 106.912 24.4202C106.845 24.1681 106.828 23.8992 106.828 23.6387C106.828 20.0588 106.828 16.4874 106.828 12.916Z" fill="white"/>
<path d="M4.47755 14.0756C4.47755 17.2941 4.46078 20.5042 4.48594 23.7227C4.49433 24.7983 3.84866 25.9412 2.24707 25.9244C0.938971 25.9244 0.117214 25.2101 -0.000179463 23.7563C-0.00856473 23.6471 -0.000179463 23.5462 -0.000179463 23.437C-0.000179463 17.2185 -0.000179463 11 0.00820581 4.7731C0.00820581 4.41176 0.0501322 4.0252 0.159141 3.68067C0.486166 2.65546 1.54271 2.10083 2.70826 2.30251C3.74804 2.48739 4.46078 3.31092 4.46917 4.36974C4.47755 7.61344 4.47755 10.8487 4.47755 14.0756Z" fill="white"/>
<path d="M104.455 16.4117C104.455 18.7815 104.455 21.1428 104.455 23.5126C104.455 23.7731 104.455 24.0504 104.396 24.3025C104.137 25.4033 103.189 26 102.007 25.9159C101.495 25.8739 101.042 25.7142 100.665 25.3697C100.179 24.9243 99.9858 24.3529 99.9858 23.7142C99.9858 22.4453 99.9858 21.168 99.9858 19.8991C99.9858 16.2941 99.9858 12.689 99.9858 9.08399C99.9858 7.92433 100.69 7.05878 101.814 6.82349C103.046 6.56298 104.254 7.42013 104.43 8.67223C104.455 8.88231 104.455 9.09239 104.455 9.30248C104.455 11.6722 104.455 14.042 104.455 16.4117Z" fill="white"/>
<path d="M104.656 4.10078C104.614 5.46213 103.658 6.51255 102.233 6.52095C100.715 6.53776 99.7593 5.3949 99.7761 4.04196C99.7929 2.61339 100.925 1.647 102.216 1.6386C103.566 1.63019 104.665 2.74784 104.656 4.10078Z" fill="white"/>
<path d="M130.416 0.0672607C130.785 0.193311 130.986 0.445412 131.187 0.680706C131.816 1.44541 132.101 2.36138 132.143 3.32776C132.202 4.6723 131.875 5.916 131.003 6.98323C130.869 7.15129 130.693 7.28575 130.474 7.48743C130.34 6.97482 130.407 6.60508 130.6 6.22692C131.129 5.19331 131.338 4.10087 131.204 2.94121C131.137 2.33617 130.994 1.74793 130.625 1.25213C130.349 0.89079 130.391 0.521042 130.416 0.0672607Z" fill="white"/>
<path d="M128.378 6.45373C128.319 6.06718 128.37 5.74785 128.487 5.42012C128.94 4.22684 129.049 3.03356 128.437 1.83188C128.336 1.6302 128.412 1.33609 128.412 1.08398C130.064 1.98314 129.938 5.40331 128.378 6.45373Z" fill="white"/>
<path d="M126.827 5.80677C126.886 5.49584 126.894 5.26055 126.961 5.05887C127.288 4.15131 127.364 3.24374 126.945 2.33618C126.869 2.17652 126.886 1.97484 126.861 1.75635C128.152 2.27736 128.06 5.09248 126.827 5.80677Z" fill="white"/>
</g>
<defs>
<clipPath id="clip0_1200_3865">
<rect width="132.261" height="26" fill="white"/>
</clipPath>
</defs>
</svg>
