<svg width="229" height="103" viewBox="0 0 229 103" fill="none" xmlns="http://www.w3.org/2000/svg">
<mask id="mask0_8473_48017" style="mask-type:alpha" maskUnits="userSpaceOnUse" x="4" y="4" width="221" height="95">
<rect x="5.12012" y="5.35254" width="218.76" height="91.6946" rx="9" fill="white" stroke="#2490D3" stroke-width="2"/>
</mask>
<g mask="url(#mask0_8473_48017)">
<rect x="4.12012" y="-4.63281" width="220.76" height="112.947" fill="#086EAE"/>
<g clip-path="url(#clip0_8473_48017)">
<path d="M78.8664 50.8921C78.8664 51.0627 78.8664 51.2048 78.8664 51.347C78.8664 54.0025 78.8664 56.6579 78.8664 59.3134C78.8664 59.8991 78.6267 60.3767 78.0572 60.6269C77.1281 61.0306 75.7554 60.7008 75.6715 59.3248C75.6655 59.2167 75.6715 59.1087 75.6715 59.0006C75.6715 56.4418 75.6715 53.8774 75.6715 51.3186C75.6715 51.1764 75.6715 51.0399 75.6715 50.8807C73.9931 50.8807 72.3567 50.8807 70.6843 50.8807C70.6783 51.0286 70.6664 51.165 70.6664 51.3072C70.6664 53.9627 70.6664 56.6181 70.6664 59.2736C70.6664 59.8422 70.4566 60.3028 69.9171 60.5928C69.2038 60.9738 68.1908 60.8259 67.7532 60.1891C67.6273 60.0071 67.5614 59.7796 67.4954 59.5636C67.4535 59.4271 67.4655 59.2793 67.4655 59.1371C67.4655 55.9415 67.4655 52.7458 67.4655 49.5558C67.4655 49.027 67.6093 48.5664 68.0409 48.2082C68.3286 47.9694 68.6523 47.8329 69.0359 47.8329C69.5035 47.8329 69.971 47.8329 70.4386 47.8329C73.9692 47.8329 77.5057 47.8443 81.0363 47.8272C82.1752 47.8215 83.2002 48.1286 84.1353 48.7086C85.6159 49.6241 86.587 50.8864 86.9167 52.5582C86.9766 52.8709 87.0186 53.195 87.0186 53.5191C87.0305 55.4468 87.0245 57.3744 87.0245 59.2963C87.0245 59.8934 86.7908 60.371 86.2093 60.644C85.5979 60.934 84.9805 60.8885 84.4171 60.5189C84.0814 60.2971 83.9016 59.9673 83.8476 59.5806C83.8236 59.4385 83.8236 59.2963 83.8236 59.1485C83.8236 57.2948 83.8296 55.4411 83.8176 53.5874C83.8176 53.2064 83.7697 52.8254 83.6918 52.4501C83.434 51.2219 82.6548 50.9148 81.7197 50.8694C80.8385 50.8239 79.9514 50.858 79.0702 50.8637C79.0163 50.8637 78.9683 50.8807 78.8664 50.8921Z" fill="white"/>
<path d="M55.6267 44.8132C56.6877 44.8132 57.7487 44.745 58.8036 44.8246C61.6329 45.0463 63.8268 46.2802 65.2234 48.6684C66.0506 50.0843 66.3743 51.6196 66.2904 53.2231C66.2005 54.9858 65.631 56.595 64.4682 57.9938C63.2933 59.404 61.7528 60.2399 59.9126 60.6095C59.1453 60.763 58.3661 60.8085 57.5868 60.8142C55.9444 60.8199 54.308 60.8142 52.6656 60.8142C52.0302 60.8142 51.5147 60.5924 51.167 60.0693C51.0172 59.8362 50.9512 59.5917 50.9572 59.3187C50.9632 58.5625 50.9572 57.8119 50.9572 57.0556C50.9572 53.4676 50.9692 49.8739 50.9512 46.2859C50.9452 45.6491 51.4368 44.9781 52.1141 44.8302C52.258 44.7961 52.4138 44.7848 52.5637 44.7848C53.5827 44.7791 54.6077 44.7848 55.6267 44.7848C55.6267 44.8018 55.6267 44.8075 55.6267 44.8132ZM54.1282 47.7757C54.1282 51.1363 54.1282 54.457 54.1282 57.8119C54.284 57.8119 54.4219 57.8119 54.5537 57.8119C55.7766 57.8119 56.9994 57.8176 58.2222 57.8062C58.5339 57.8062 58.8516 57.7778 59.1573 57.7209C60.6499 57.4423 61.7947 56.6917 62.55 55.4293C63.0715 54.5537 63.2753 53.6098 63.2513 52.609C63.2274 51.6537 62.9636 50.7667 62.4361 49.9592C61.4711 48.4922 60.0205 47.8041 58.2282 47.753C56.9694 47.7188 55.7046 47.7473 54.4458 47.7473C54.3559 47.753 54.254 47.7643 54.1282 47.7757Z" fill="white"/>
<path d="M105.744 47.9752C105.924 47.9752 106.056 47.9752 106.194 47.9752C107.428 47.9752 108.669 47.9581 109.904 47.9808C111.025 48.0036 112.104 48.231 113.087 48.7599C114.651 49.6014 115.634 50.8751 116.09 52.5071C116.57 54.2072 116.438 55.879 115.622 57.4654C114.777 59.1031 113.393 60.1493 111.522 60.6042C110.911 60.7521 110.288 60.8203 109.652 60.8203C107.848 60.826 106.044 60.8203 104.239 60.8203C103.724 60.8203 103.28 60.6668 102.927 60.2915C102.681 60.0299 102.555 59.7286 102.537 59.3817C102.537 59.3362 102.537 59.285 102.537 59.2395C102.537 54.429 102.537 49.6185 102.537 44.8079C102.537 44.3587 102.645 43.955 103.011 43.6479C103.52 43.2215 104.12 43.1589 104.737 43.3636C105.342 43.5627 105.69 44.0005 105.708 44.6089C105.738 45.5869 105.726 46.5707 105.732 47.5487C105.744 47.6795 105.744 47.8046 105.744 47.9752ZM105.774 50.7898C105.696 51.4949 105.726 57.6076 105.804 57.8578C105.84 57.8635 105.876 57.8749 105.912 57.8749C107.171 57.8749 108.435 57.9033 109.694 57.8692C110.773 57.8407 111.708 57.4541 112.38 56.6182C113.069 55.771 113.303 54.81 113.141 53.7524C112.883 52.0579 111.522 50.8069 109.562 50.7841C108.429 50.7728 107.297 50.7841 106.158 50.7841C106.038 50.7898 105.918 50.7898 105.774 50.7898Z" fill="white"/>
<path d="M134.948 55.8164C133.647 55.8164 132.352 55.8164 131.052 55.8164C130.842 55.8164 130.596 55.7822 130.488 56.004C130.38 56.2144 130.518 56.3964 130.65 56.5556C131.267 57.3175 132.089 57.7554 133.108 57.7781C134.606 57.8065 136.111 57.7724 137.609 57.7952C137.969 57.8009 138.34 57.852 138.682 57.9601C139.803 58.3183 140.043 59.4897 139.276 60.3085C138.958 60.6496 138.538 60.8145 138.071 60.8202C136.53 60.8316 134.99 60.8771 133.455 60.8089C131.609 60.7236 129.985 60.0753 128.648 58.8244C127.557 57.8009 126.898 56.5783 126.724 55.1397C126.502 53.286 126.987 51.6086 128.27 50.1643C129.367 48.9247 130.776 48.1741 132.448 47.9125C134.54 47.5884 136.386 48.1343 137.981 49.4478C139 50.2837 139.749 51.3015 140.223 52.5013C140.414 52.9846 140.51 53.4907 140.546 54.0025C140.564 54.2356 140.516 54.4801 140.45 54.7075C140.241 55.4411 139.719 55.8107 138.898 55.8164C137.567 55.822 136.26 55.8164 134.948 55.8164ZM136.842 52.7458C136.296 51.6541 134.72 50.7897 133.449 50.8694C132.041 50.9603 130.908 51.5062 130.152 52.7458C132.406 52.7458 134.606 52.7458 136.842 52.7458Z" fill="white"/>
<path d="M94.5829 60.7752C90.9744 60.8434 87.7075 57.9662 87.7734 54.1963C87.8334 50.8414 90.6686 47.8334 94.6068 47.8448C98.539 47.8618 101.422 50.8186 101.416 54.327C101.41 58.0572 98.1674 60.8491 94.5829 60.7752ZM98.3053 54.3555C98.3113 52.5359 96.8307 50.8186 94.5949 50.8016C92.4429 50.7845 90.9324 52.4449 90.8665 54.219C90.7945 56.1296 92.4549 57.8241 94.5109 57.8582C96.6389 57.898 98.2933 56.2433 98.3053 54.3555Z" fill="white"/>
<path d="M122.354 51.9893C122.354 49.5954 122.354 47.2015 122.354 44.8133C122.354 44.637 122.366 44.4493 122.414 44.2844C122.648 43.5168 123.356 43.2382 124.039 43.2723C125.04 43.3235 125.549 43.9717 125.549 44.8587C125.549 49.6465 125.549 54.4286 125.549 59.2164C125.549 59.9784 125.214 60.4731 124.542 60.7005C123.667 61.0019 122.648 60.6323 122.414 59.7737C122.366 59.6031 122.354 59.4211 122.354 59.2449C122.354 56.8225 122.354 54.4059 122.354 51.9893Z" fill="white"/>
<path d="M49.1889 52.7801C49.1889 54.9579 49.1769 57.1301 49.1949 59.3079C49.2009 60.0357 48.7394 60.809 47.5945 60.7977C46.6594 60.792 46.0719 60.3143 45.988 59.3249C45.982 59.251 45.988 59.1828 45.988 59.1089C45.988 54.9011 45.988 50.6933 45.994 46.4798C45.994 46.2353 46.024 45.9737 46.1019 45.7406C46.3357 45.0469 47.0909 44.6716 47.9241 44.808C48.6674 44.9331 49.1769 45.4904 49.1829 46.2069C49.1889 48.4017 49.1889 50.5909 49.1889 52.7801Z" fill="white"/>
<path d="M120.658 54.3555C120.658 55.9591 120.658 57.5569 120.658 59.1604C120.658 59.3367 120.658 59.5243 120.616 59.6949C120.43 60.4398 119.753 60.8435 118.907 60.7867C118.542 60.7582 118.218 60.6502 117.948 60.417C117.601 60.1157 117.463 59.729 117.463 59.2969C117.463 58.4382 117.463 57.5739 117.463 56.7153C117.463 54.2759 117.463 51.8366 117.463 49.3972C117.463 48.6125 117.966 48.0268 118.77 47.8676C119.651 47.6913 120.514 48.2713 120.64 49.1185C120.658 49.2607 120.658 49.4029 120.658 49.545C120.658 51.1542 120.658 52.752 120.658 54.3555Z" fill="white"/>
<path d="M120.801 46.0304C120.771 46.9515 120.088 47.6623 119.069 47.668C117.984 47.6794 117.301 46.906 117.313 45.9905C117.325 45.0239 118.134 44.37 119.057 44.3643C120.022 44.3586 120.807 45.1149 120.801 46.0304Z" fill="white"/>
<path d="M139.216 43.3008C139.48 43.3861 139.624 43.5567 139.768 43.7159C140.217 44.2333 140.421 44.8531 140.451 45.507C140.493 46.4168 140.259 47.2584 139.636 47.9805C139.54 48.0943 139.414 48.1852 139.258 48.3217C139.162 47.9749 139.21 47.7247 139.348 47.4688C139.726 46.7694 139.876 46.0302 139.78 45.2455C139.732 44.8361 139.63 44.438 139.366 44.1025C139.168 43.8523 139.198 43.6022 139.216 43.3008Z" fill="white"/>
<path d="M137.759 47.6227C137.717 47.3612 137.753 47.1451 137.837 46.9233C138.16 46.1159 138.238 45.3085 137.801 44.4953C137.729 44.3589 137.783 44.1598 137.783 43.9893C138.964 44.592 138.874 46.9063 137.759 47.6227Z" fill="white"/>
<path d="M136.65 47.1792C136.692 46.9688 136.698 46.8096 136.746 46.6732C136.98 46.059 137.034 45.4449 136.734 44.8308C136.68 44.7228 136.692 44.5863 136.674 44.4385C137.597 44.7967 137.532 46.6959 136.65 47.1792Z" fill="white"/>
<path d="M183.556 52.0353C183.556 56.8516 183.556 61.6678 183.556 66.4783C183.556 68.042 182.507 69.0485 180.852 69.0485C175.907 69.0542 170.962 69.0542 166.016 69.0485C164.386 69.0485 163.331 68.042 163.331 66.5011C163.331 56.8686 163.331 47.2419 163.331 37.6094C163.331 36.0457 164.386 35.0449 166.034 35.0449C170.98 35.0449 175.925 35.0449 180.87 35.0449C182.501 35.0449 183.562 36.0514 183.562 37.5867C183.562 42.4029 183.556 47.2191 183.556 52.0353ZM164.356 52.0296C164.356 56.8345 164.356 61.6393 164.356 66.4385C164.356 67.5018 164.949 68.0591 166.07 68.0591C170.968 68.0591 175.865 68.0591 180.756 68.0591C181.955 68.0591 182.525 67.5189 182.525 66.3816C182.525 56.8174 182.525 47.2589 182.525 37.6947C182.525 36.5688 181.937 36.0116 180.75 36.0116C175.877 36.0116 171.004 36.0116 166.136 36.0116C164.926 36.0116 164.35 36.5631 164.35 37.7174C164.356 42.4882 164.356 47.2589 164.356 52.0296Z" fill="white"/>
<path d="M173.425 39.0938C172.622 39.0938 171.813 39.0995 171.01 39.0938C170.464 39.0881 170.128 38.781 170.117 38.3091C170.105 37.8314 170.458 37.4732 170.998 37.4675C172.634 37.4561 174.264 37.4561 175.901 37.4675C176.44 37.4732 176.788 37.8371 176.776 38.3148C176.764 38.781 176.422 39.0824 175.877 39.0881C175.056 39.0995 174.241 39.0938 173.425 39.0938Z" fill="white"/>
<path d="M174.936 65.0564C174.924 65.8354 174.246 66.4665 173.431 66.4552C172.61 66.4438 171.938 65.7956 171.956 65.0279C171.98 64.2375 172.646 63.6291 173.461 63.6348C174.276 63.6348 174.942 64.2887 174.936 65.0564Z" fill="white"/>
<path d="M178.838 49.9649C177.783 49.9649 176.752 49.9649 175.691 49.9649C175.691 48.9641 175.691 47.969 175.691 46.9512C176.74 46.9512 177.783 46.9512 178.838 46.9512C178.838 47.9519 178.838 48.9413 178.838 49.9649ZM176.309 47.5425C176.309 48.1567 176.309 48.7537 176.309 49.3451C176.956 49.3451 177.574 49.3451 178.197 49.3451C178.197 48.7366 178.197 48.1453 178.197 47.5425C177.562 47.5425 176.944 47.5425 176.309 47.5425Z" fill="white"/>
<path d="M178.808 54.1504C178.808 55.1625 178.808 56.1406 178.808 57.1413C177.754 57.1413 176.705 57.1413 175.644 57.1413C175.644 56.1406 175.644 55.1569 175.644 54.1504C176.705 54.1504 177.742 54.1504 178.808 54.1504ZM178.185 54.719H176.249L176.243 56.5329C176.914 56.5329 177.532 56.5329 178.161 56.5329C178.161 55.9245 178.161 55.3388 178.161 54.7133" fill="white"/>
<path d="M171.208 54.1611C171.208 55.1676 171.208 56.1513 171.208 57.1521C170.153 57.1521 169.116 57.1521 168.055 57.1521C168.055 56.157 168.055 55.1733 168.055 54.1611C169.092 54.1611 170.129 54.1611 171.208 54.1611ZM168.696 54.7298C168.696 55.3552 168.696 55.9409 168.696 56.538C169.331 56.538 169.949 56.538 170.578 56.538C170.578 55.9295 170.578 55.3325 170.578 54.7298C169.943 54.7298 169.337 54.7298 168.696 54.7298Z" fill="white"/>
<path d="M174.384 49.9713C174.031 49.9713 173.749 49.9713 173.467 49.9713C173.449 49.9144 173.431 49.8803 173.431 49.8519C173.389 49.3174 173.389 49.3174 173.941 49.3174C174.288 49.3174 174.636 49.3174 175.014 49.3174C175.014 50.3352 175.014 51.3303 175.014 52.3538C174.828 52.3538 174.636 52.3538 174.39 52.3538C174.384 51.5805 174.384 50.8015 174.384 49.9713Z" fill="white"/>
<path d="M172.497 54.116C172.827 54.116 173.108 54.116 173.42 54.116C173.42 54.3435 173.42 54.5425 173.42 54.7529C172.898 54.7529 172.383 54.7529 171.831 54.7529C171.831 54.3776 171.831 54.0023 171.831 53.6327C171.604 53.5759 171.358 53.5815 171.244 53.4735C171.148 53.3825 171.208 53.1494 171.196 52.9561C171.634 52.9561 172.047 52.9561 172.503 52.9561C172.497 53.3257 172.497 53.7066 172.497 54.116Z" fill="white"/>
<path d="M169.949 47.5888C169.535 47.5888 169.146 47.5888 168.714 47.5888C168.714 47.9869 168.714 48.3565 168.714 48.7431C168.474 48.7431 168.276 48.7431 168.055 48.7431C168.055 48.1404 168.055 47.5547 168.055 46.9463C168.684 46.9463 169.301 46.9463 169.949 46.9463C169.949 47.1453 169.949 47.3443 169.949 47.5888Z" fill="white"/>
<path d="M169.967 50.5566C169.967 51.1708 169.967 51.7451 169.967 52.3535C169.751 52.3535 169.541 52.3535 169.295 52.3535C169.295 51.9611 169.295 51.5802 169.295 51.1651C168.864 51.1651 168.474 51.1651 168.061 51.1651C168.061 50.949 168.061 50.7613 168.061 50.5566C168.696 50.5566 169.331 50.5566 169.967 50.5566Z" fill="white"/>
<path d="M178.796 50.5447C178.796 50.7608 178.796 50.9371 178.796 51.1475C178.383 51.1475 177.993 51.1475 177.567 51.1475C177.567 51.5626 177.567 51.9436 177.567 52.3473C177.334 52.3473 177.142 52.3473 176.914 52.3473C176.914 51.7559 176.914 51.1589 176.914 50.5391C177.543 50.5447 178.161 50.5447 178.796 50.5447Z" fill="white"/>
<path d="M171.214 48.7423C170.579 48.7423 169.973 48.7423 169.332 48.7423C169.332 48.549 169.332 48.367 169.332 48.1339C169.722 48.1339 170.117 48.1339 170.549 48.1339C170.549 47.7188 170.549 47.3492 170.549 46.9512C170.783 46.9512 170.986 46.9512 171.214 46.9512C171.214 47.5482 171.214 48.1282 171.214 48.7423Z" fill="white"/>
<path d="M173.419 48.771C173.108 48.771 172.826 48.771 172.508 48.771C172.508 49.1861 172.508 49.5671 172.508 49.9594C172.274 49.9594 172.071 49.9594 171.843 49.9594C171.843 49.351 171.843 48.7539 171.843 48.1455C172.37 48.1455 172.886 48.1455 173.419 48.1455C173.419 48.3388 173.419 48.5265 173.419 48.771Z" fill="white"/>
<path d="M175.014 55.9355C174.48 55.9355 173.971 55.9355 173.443 55.9355C173.443 55.7308 173.443 55.5432 173.443 55.3271C173.743 55.3271 174.025 55.3271 174.36 55.3271C174.36 54.9177 174.36 54.5424 174.36 54.1387C174.606 54.1387 174.804 54.1387 175.014 54.1387C175.014 54.7528 175.014 55.3385 175.014 55.9355Z" fill="white"/>
<path d="M168.049 49.954C168.049 49.7379 168.049 49.5502 168.049 49.3398C168.69 49.3398 169.32 49.3398 169.961 49.3398C169.961 49.5502 169.961 49.7436 169.961 49.954C169.332 49.954 168.708 49.954 168.049 49.954Z" fill="white"/>
<path d="M171.843 50.5342C172.382 50.5342 172.886 50.5342 173.413 50.5342C173.413 50.7218 173.413 50.9095 173.413 51.1255C172.91 51.1255 172.388 51.1255 171.843 51.1255C171.843 50.9436 171.843 50.7559 171.843 50.5342Z" fill="white"/>
<path d="M170.566 50.557C170.566 50.1305 170.566 49.7382 170.566 49.3174C170.77 49.3174 170.98 49.3174 171.214 49.3174C171.214 49.7154 171.214 50.1248 171.214 50.557C171.016 50.557 170.812 50.557 170.566 50.557Z" fill="white"/>
<path d="M173.359 49.3174C173.809 49.3174 174.223 49.3174 174.666 49.3174C174.666 49.5278 174.666 49.7325 174.666 49.9713C174.247 49.9713 173.815 49.9713 173.359 49.9713C173.359 49.7723 173.359 49.5619 173.359 49.3174Z" fill="white"/>
<path d="M173.401 46.9404C173.905 46.9404 174.378 46.9404 174.876 46.9404C174.876 47.1338 174.876 47.3328 174.876 47.5545C174.402 47.5545 173.917 47.5545 173.401 47.5545C173.401 47.3612 173.401 47.1679 173.401 46.9404Z" fill="white"/>
<path d="M178.797 52.9562C178.797 52.5524 178.797 52.1601 178.797 51.7734C178.563 51.7734 178.353 51.7734 178.149 51.7734C178.149 52.1772 178.149 52.5638 178.149 52.9562C177.934 52.9562 177.724 52.9562 177.502 52.9562C177.502 53.1893 177.502 53.3826 177.502 53.5703C177.958 53.5703 178.383 53.5703 178.803 53.5703C178.803 53.3428 178.803 53.1495 178.797 52.9562C178.803 52.9562 178.803 52.9562 178.797 52.9562Z" fill="white"/>
<path d="M175.613 52.9619C176.117 52.9619 176.59 52.9619 177.088 52.9619C177.088 53.1552 177.088 53.3543 177.088 53.576C176.614 53.576 176.129 53.576 175.613 53.576C175.613 53.3827 175.613 53.1894 175.613 52.9619Z" fill="white"/>
<path d="M171.813 55.3213C172.155 55.3213 172.467 55.3213 172.803 55.3213C172.803 55.5146 172.803 55.7136 172.803 55.9354C172.485 55.9354 172.161 55.9354 171.813 55.9354C171.813 55.7478 171.813 55.5544 171.813 55.3213Z" fill="white"/>
<path d="M171.789 46.9287C172.191 46.9287 172.568 46.9287 172.964 46.9287C172.964 47.122 172.964 47.3211 172.964 47.5428C172.586 47.5428 172.197 47.5428 171.789 47.5428C171.789 47.3495 171.789 47.1562 171.789 46.9287Z" fill="white"/>
<path d="M173.431 56.5615C173.431 56.7719 173.431 56.9482 173.431 57.1472C172.898 57.1472 172.376 57.1472 171.837 57.1472C171.837 56.9539 171.837 56.7662 171.837 56.5615C172.37 56.5615 172.886 56.5615 173.431 56.5615Z" fill="white"/>
<path d="M175.02 53.5529C174.48 53.5529 173.977 53.5529 173.449 53.5529C173.449 53.3482 173.449 53.1606 173.449 52.9502C173.965 52.9502 174.48 52.9502 175.02 52.9502C175.02 53.1492 175.02 53.3369 175.02 53.5529Z" fill="white"/>
<path d="M174.055 48.1455C174.372 48.1455 174.684 48.1455 175.014 48.1455C175.014 48.3388 175.014 48.5265 175.014 48.7369C174.696 48.7369 174.39 48.7369 174.055 48.7369C174.055 48.5606 174.055 48.373 174.055 48.1455Z" fill="white"/>
<path d="M174.055 56.5557C174.384 56.5557 174.678 56.5557 175.008 56.5557C175.008 56.749 175.008 56.9366 175.008 57.147C174.702 57.147 174.384 57.147 174.055 57.147C174.055 56.948 174.055 56.7547 174.055 56.5557Z" fill="white"/>
<path d="M175.638 50.5342C175.859 50.5342 176.051 50.5342 176.273 50.5342C176.273 50.7275 176.273 50.9095 176.273 51.1255C176.075 51.1255 175.865 51.1255 175.638 51.1255C175.638 50.9436 175.638 50.7559 175.638 50.5342Z" fill="white"/>
<path d="M176.279 52.3588C176.051 52.3588 175.854 52.3588 175.632 52.3588C175.632 52.1598 175.632 51.9721 175.632 51.7617C175.842 51.7617 176.045 51.7617 176.279 51.7617C176.279 51.9607 176.279 52.1427 176.279 52.3588Z" fill="white"/>
<path d="M176.908 48.1396C177.13 48.1396 177.322 48.1396 177.538 48.1396C177.538 48.333 177.538 48.5149 177.538 48.731C177.34 48.731 177.136 48.731 176.908 48.731C176.908 48.532 176.908 48.3557 176.908 48.1396Z" fill="white"/>
<path d="M176.908 55.9302C176.908 55.7255 176.908 55.5436 176.908 55.3389C177.124 55.3389 177.322 55.3389 177.538 55.3389C177.538 55.5322 177.538 55.7142 177.538 55.9302C177.346 55.9302 177.148 55.9302 176.908 55.9302Z" fill="white"/>
<path d="M169.319 55.9302C169.319 55.7312 169.319 55.5436 169.319 55.3389C169.535 55.3389 169.727 55.3389 169.949 55.3389C169.949 55.5322 169.949 55.7142 169.949 55.9302C169.751 55.9302 169.547 55.9302 169.319 55.9302Z" fill="white"/>
<path d="M170.608 52.9219H169.835V53.5872H170.608V52.9219Z" fill="white"/>
<path d="M169.373 52.9274H168.69C168.69 52.518 168.69 52.1484 168.69 51.7617C168.456 51.7617 168.264 51.7617 168.061 51.7617C168.061 52.3701 168.061 52.9558 168.061 53.5756H169.122H169.379V52.9274H169.373Z" fill="white"/>
<path d="M171.963 52.9561H171.172V53.6441H171.963V52.9561Z" fill="white"/>
<path d="M171.292 51.7052V51.165H170.591V52.3705H171.292H173.42V51.7052H171.292Z" fill="white"/>
<path d="M153.111 67.7687C153.099 67.763 153.087 67.7516 153.069 67.7516C152.308 67.6379 151.78 67.2399 151.45 66.5916C151.391 66.4779 151.343 66.3528 151.307 66.2277C151.061 65.4487 150.821 64.6754 150.575 63.8964C150.036 62.1678 149.496 60.4448 148.951 58.7162C148.417 57.0161 147.884 55.3216 147.356 53.6214C146.805 51.853 146.253 50.0846 145.702 48.3105C145.648 48.1456 145.6 47.975 145.582 47.7987C145.576 47.7646 145.57 47.7305 145.54 47.7077C145.54 47.6111 145.534 47.5144 145.534 47.4177C145.576 47.3893 145.57 47.3495 145.576 47.3097C145.63 46.8093 145.852 46.3942 146.247 46.0587C146.511 45.837 146.823 45.6891 147.165 45.5925C147.77 45.4162 148.381 45.2456 148.987 45.075C149.49 44.9329 149.994 44.7907 150.497 44.6485C150.533 44.6372 150.575 44.6258 150.605 44.6087C150.677 44.5803 150.695 44.5405 150.671 44.478C150.659 44.4382 150.635 44.404 150.617 44.3699C150.336 43.8525 150.054 43.3407 149.772 42.8233C149.7 42.6868 149.64 42.5446 149.616 42.3911C149.55 42.0101 149.64 41.6747 149.916 41.3847C150.024 41.2709 150.156 41.18 150.3 41.106C150.425 41.0435 150.557 40.998 150.695 40.9582C151.223 40.8104 151.744 40.6625 152.272 40.5147C152.577 40.4294 152.877 40.3384 153.189 40.2815C153.201 40.2815 153.207 40.2702 153.219 40.2645C153.279 40.2645 153.345 40.2588 153.405 40.2588C153.429 40.2645 153.453 40.2758 153.483 40.2815C153.776 40.3157 154.034 40.4294 154.256 40.6056C154.472 40.7705 154.585 40.9866 154.609 41.2482C154.633 41.4813 154.663 41.7145 154.693 41.9476C154.717 42.1523 154.741 42.3627 154.765 42.5674C154.789 42.7835 154.813 43.0052 154.831 43.2213C154.849 43.3691 154.891 43.3976 155.041 43.3521C155.473 43.2327 155.904 43.1076 156.336 42.9825C157.043 42.7835 157.75 42.5845 158.458 42.3854C158.715 42.3115 158.979 42.2774 159.249 42.2945C159.908 42.3343 160.436 42.6072 160.825 43.1133C160.981 43.3123 161.089 43.534 161.161 43.7729C161.401 44.5405 161.641 45.3138 161.886 46.0815C162.036 46.5648 162.186 47.0538 162.342 47.5371C162.366 47.6054 162.378 47.6736 162.378 47.7475C162.402 48.6005 162.426 49.4534 162.45 50.3063C162.45 50.3348 162.45 50.3632 162.45 50.3973C162.45 50.4087 162.438 50.4144 162.432 50.4201C162.396 50.4144 162.396 50.3859 162.384 50.3575C162.3 50.0846 162.21 49.8059 162.126 49.533C161.647 48.0034 161.167 46.4738 160.688 44.9442C160.598 44.6542 160.508 44.3585 160.418 44.0686C160.37 43.9093 160.31 43.7558 160.214 43.6193C160.022 43.335 159.752 43.1474 159.399 43.0792C159.165 43.0337 158.937 43.0564 158.709 43.119C158.116 43.2839 157.529 43.4431 156.935 43.608C156.354 43.7672 155.778 43.9321 155.197 44.0913C155.149 44.1027 155.101 44.1197 155.053 44.1368C154.981 44.1652 154.945 44.2221 154.939 44.296C154.939 44.3301 154.939 44.3699 154.945 44.4097C154.987 44.785 155.029 45.166 155.071 45.5413C155.095 45.763 155.119 45.9848 155.143 46.2066C155.149 46.2407 155.149 46.2805 155.149 46.3203C155.143 46.3885 155.107 46.434 155.047 46.4624C155.017 46.4795 154.981 46.4852 154.945 46.4966C154.118 46.7354 153.285 46.9685 152.457 47.2073C152.416 47.2187 152.374 47.2301 152.332 47.2358C152.266 47.2471 152.206 47.2187 152.164 47.1675C152.14 47.1334 152.116 47.0993 152.098 47.0652C151.804 46.525 151.51 45.9905 151.217 45.4503C151.211 45.4389 151.205 45.4276 151.199 45.4219C151.127 45.3025 151.067 45.274 150.929 45.3138C150.761 45.3593 150.599 45.4048 150.431 45.456C149.388 45.7517 148.351 46.0474 147.308 46.343C147.081 46.4056 146.883 46.5079 146.721 46.6785C146.421 46.9856 146.307 47.3495 146.391 47.7589C146.427 47.9352 146.487 48.1115 146.541 48.2877C147.368 50.9261 148.196 53.5645 149.023 56.2029C149.718 58.4206 150.413 60.6382 151.109 62.8558C151.444 63.9191 151.774 64.9824 152.104 66.0458C152.182 66.2903 152.308 66.5064 152.505 66.6769C152.745 66.8873 153.033 66.9897 153.363 66.9954C153.518 66.9954 153.668 66.9726 153.812 66.9271C154.4 66.7622 154.987 66.5973 155.574 66.4324C157.367 65.9264 159.159 65.4203 160.951 64.9142C161.509 64.755 162.072 64.5958 162.63 64.4423C162.672 64.4309 162.72 64.4195 162.768 64.4138C162.815 64.4081 162.839 64.4252 162.851 64.4707C162.857 64.4877 162.863 64.5048 162.863 64.5276C162.869 64.6811 162.881 64.8346 162.863 64.9824C162.851 65.0962 162.797 65.1701 162.69 65.2099C162.606 65.244 162.522 65.2724 162.432 65.2952C161.095 65.6705 159.758 66.0515 158.416 66.4267C156.965 66.8362 155.515 67.2399 154.058 67.6493C153.962 67.6777 153.86 67.6948 153.764 67.7175C153.752 67.7232 153.734 67.7289 153.722 67.7346C153.518 67.7573 153.315 67.763 153.111 67.7687ZM153.321 41.0435C153.225 41.0549 153.135 41.0719 153.045 41.1003C152.32 41.3051 151.588 41.5154 150.863 41.7201C150.797 41.7372 150.737 41.7599 150.677 41.7884C150.587 41.8282 150.509 41.8907 150.455 41.9703C150.372 42.0898 150.354 42.2205 150.419 42.3513C150.431 42.3741 150.443 42.3968 150.455 42.4196C150.629 42.738 150.803 43.0507 150.977 43.3691C151.492 44.3074 152.002 45.2456 152.517 46.1838C152.535 46.2179 152.553 46.2521 152.577 46.2805C152.613 46.3374 152.673 46.3544 152.739 46.343C152.769 46.3374 152.799 46.326 152.829 46.3203C153.261 46.1952 153.692 46.0758 154.124 45.9507C154.148 45.945 154.178 45.9336 154.202 45.9279C154.28 45.8938 154.304 45.854 154.292 45.7687C154.274 45.5925 154.25 45.4219 154.232 45.2456C154.202 44.984 154.178 44.7225 154.154 44.4552C154.124 44.1652 154.094 43.8695 154.064 43.5795C154.04 43.318 154.01 43.0621 153.986 42.8005C153.956 42.5219 153.932 42.2433 153.902 41.9647C153.884 41.7827 153.866 41.6007 153.842 41.4188C153.818 41.2425 153.71 41.1288 153.53 41.0776C153.465 41.0605 153.393 41.0549 153.321 41.0435Z" fill="#00A3DE"/>
<path d="M166.916 62.8098C166.91 62.8212 166.898 62.8269 166.898 62.8383C166.862 63.151 166.736 63.4353 166.544 63.6912C166.221 64.129 165.777 64.3963 165.231 64.5157C165.219 64.5157 165.207 64.5214 165.196 64.5214C165.19 64.5214 165.19 64.5214 165.178 64.5157C165.172 64.4987 165.166 64.4816 165.166 64.4588C165.16 64.2712 165.154 64.0779 165.148 63.8902C165.142 63.7822 165.172 63.7424 165.279 63.7026C165.777 63.5377 166.023 63.1738 166.119 62.7075C166.161 62.5028 166.143 62.2981 166.071 62.0991C165.789 61.303 165.549 60.4899 165.303 59.6824C165.213 59.3867 165.124 59.0967 165.034 58.8011C165.022 58.7556 165.01 58.7044 165.01 58.6589C164.986 57.9595 164.962 57.2601 164.968 56.5607C164.968 56.4015 164.968 56.2423 164.968 56.0831C164.968 56.0603 164.974 56.0433 164.974 56.0205C165.01 56.0262 165.004 56.0489 165.01 56.0603C165.172 56.5834 165.339 57.1009 165.501 57.624C165.861 58.784 166.227 59.944 166.586 61.0983C166.658 61.3201 166.73 61.5475 166.808 61.7693C166.838 61.8603 166.874 61.9512 166.88 62.0479C166.88 62.0593 166.892 62.0763 166.898 62.0877C166.904 62.3322 166.91 62.571 166.916 62.8098Z" fill="#00A3DE"/>
<path d="M156.359 49.7094C156.359 49.7719 156.365 49.8345 156.365 49.897C156.365 49.9482 156.371 49.9994 156.389 50.0505C156.407 50.1074 156.395 50.1756 156.389 50.2382C156.389 50.3064 156.383 50.3803 156.383 50.4486C156.383 50.4827 156.389 50.5168 156.401 50.5452C156.425 50.6362 156.485 50.6874 156.575 50.7045C156.629 50.7158 156.683 50.7272 156.737 50.7215C156.905 50.7215 157.067 50.7499 157.222 50.7841C157.438 50.8295 157.648 50.875 157.864 50.9205C158.373 51.0229 158.775 51.2844 159.069 51.6939C159.225 51.9099 159.332 52.1488 159.422 52.3989C159.524 52.6719 159.596 52.9448 159.674 53.2234C159.722 53.3827 159.764 53.5419 159.818 53.6954C159.86 53.8205 159.83 53.9229 159.746 54.0195C159.668 54.1048 159.566 54.1617 159.452 54.1958C159.237 54.2583 159.027 54.3209 158.811 54.3777C156.899 54.9179 154.987 55.4524 153.068 55.9926C153.033 56.004 153.003 56.0097 152.967 56.0211C152.895 56.0381 152.817 56.0381 152.745 56.0211C152.607 55.9869 152.505 55.9073 152.463 55.7766C152.325 55.333 152.151 54.9009 152.043 54.4517C151.996 54.2526 151.954 54.0536 151.948 53.8432C151.924 53.3315 152.091 52.8823 152.451 52.5013C152.757 52.1715 153.08 51.8588 153.44 51.5801C153.578 51.4778 153.584 51.4266 153.488 51.2844C153.272 50.9546 153.068 50.6192 152.871 50.2837C152.685 49.9652 152.649 49.6298 152.733 49.2772C152.799 49.0043 152.937 48.7598 153.134 48.5551C153.314 48.3731 153.536 48.248 153.8 48.1968C154.028 48.1513 154.249 48.0945 154.477 48.049C154.591 48.0262 154.705 48.0035 154.825 47.9864C154.981 47.9637 155.13 47.9921 155.274 48.0433C155.64 48.1798 155.922 48.4015 156.132 48.7143C156.155 48.7484 156.173 48.7882 156.191 48.8223C156.209 48.8564 156.221 48.8906 156.233 48.9247C156.293 49.1635 156.359 49.4023 156.353 49.6525C156.359 49.6809 156.365 49.698 156.359 49.7094C156.365 49.7094 156.365 49.7094 156.359 49.7094ZM153.296 55.0772C153.332 55.0715 153.368 55.0658 153.398 55.0601C153.488 55.0373 153.578 55.0146 153.668 54.9862C155.017 54.6052 156.365 54.2242 157.714 53.8432C158.032 53.7523 158.355 53.667 158.673 53.576C158.829 53.5305 158.853 53.4793 158.805 53.3372C158.763 53.2121 158.721 53.0813 158.679 52.9505C158.643 52.8311 158.607 52.7174 158.565 52.598C158.511 52.4501 158.439 52.308 158.343 52.1829C158.182 51.9668 157.966 51.8246 157.696 51.7678C157.606 51.7507 157.51 51.728 157.42 51.7109C157.049 51.6484 156.677 51.5858 156.311 51.5233C156.275 51.5176 156.233 51.5176 156.191 51.5176C156.126 51.5176 156.072 51.5403 156.024 51.5858C155.994 51.6142 155.97 51.6427 155.94 51.6654C155.592 52.0009 155.172 52.1374 154.675 52.0805C154.591 52.0691 154.513 52.0521 154.429 52.0407C154.333 52.0237 154.249 52.0407 154.171 52.1146C153.968 52.3023 153.758 52.4786 153.554 52.6605C153.416 52.7856 153.278 52.9164 153.146 53.0472C153.009 53.1836 152.925 53.3429 152.877 53.5248C152.847 53.6499 152.817 53.7807 152.835 53.9115C152.847 54.0195 152.871 54.1276 152.901 54.2299C152.967 54.4574 153.033 54.6791 153.104 54.9066C153.116 54.9407 153.128 54.9691 153.14 54.9975C153.17 55.0487 153.218 55.0772 153.296 55.0772ZM155.496 50.0733C155.496 50.0733 155.502 50.0733 155.496 50.0733C155.496 49.9709 155.496 49.8743 155.49 49.7719C155.478 49.5843 155.442 49.3966 155.376 49.2147C155.352 49.1578 155.328 49.0953 155.292 49.0441C155.214 48.9304 155.101 48.8621 154.951 48.8507C154.615 48.828 154.297 48.8849 153.992 49.027C153.914 49.0668 153.842 49.1123 153.782 49.1692C153.65 49.2886 153.584 49.4364 153.596 49.6127C153.602 49.698 153.632 49.7776 153.662 49.8629C153.836 50.295 154.087 50.6817 154.411 51.0286C154.441 51.057 154.471 51.0911 154.501 51.1139C154.819 51.3811 155.22 51.2219 155.358 50.9888C155.394 50.9262 155.424 50.8637 155.448 50.7954C155.49 50.6646 155.502 50.5339 155.502 50.3974C155.508 50.2894 155.502 50.1813 155.496 50.0733Z" fill="#00A3DE"/>
<path d="M153.285 57.5619C153.279 57.4197 153.339 57.3287 153.452 57.2719C153.5 57.2491 153.554 57.2321 153.602 57.215C154.615 56.925 155.634 56.6407 156.647 56.3564C157.654 56.0721 158.661 55.7878 159.668 55.5091C159.71 55.4978 159.752 55.4864 159.794 55.4807C159.842 55.475 159.89 55.4693 159.932 55.475C160.088 55.4921 160.184 55.583 160.22 55.7309C160.25 55.8617 160.196 55.9811 160.076 56.0607C160.016 56.1005 159.95 56.1232 159.884 56.1403C159.309 56.3052 158.733 56.4701 158.158 56.6293C156.749 57.0273 155.341 57.4197 153.926 57.8177C153.854 57.8405 153.782 57.8575 153.71 57.8746C153.68 57.8803 153.65 57.886 153.62 57.886C153.452 57.8917 153.333 57.8064 153.297 57.6528C153.291 57.6073 153.291 57.5789 153.285 57.5619Z" fill="#00A3DE"/>
<path d="M160.238 56.6406C160.292 56.652 160.34 56.652 160.382 56.6691C160.502 56.7089 160.58 56.7885 160.598 56.9079C160.616 57.0443 160.58 57.1638 160.454 57.2377C160.406 57.2661 160.346 57.2889 160.292 57.3059C159.77 57.4538 159.249 57.6016 158.727 57.7494C157.271 58.1645 155.82 58.5739 154.364 58.989C154.274 59.0118 154.184 59.0345 154.094 59.063C153.962 59.1028 153.854 59.0573 153.758 58.9777C153.638 58.8753 153.584 58.6024 153.8 58.4716C153.854 58.4375 153.92 58.4147 153.98 58.392C154.298 58.301 154.621 58.2157 154.939 58.1247C155.994 57.829 157.043 57.5334 158.098 57.232C158.733 57.05 159.369 56.8738 160.004 56.6918C160.082 56.6747 160.16 56.6577 160.238 56.6406Z" fill="#00A3DE"/>
<path d="M160.999 59.7284C160.472 59.8762 159.956 60.024 159.423 60.1776C159.267 59.6772 159.105 59.1768 158.943 58.665C159.471 58.5172 159.992 58.3693 160.52 58.2158C160.682 58.7162 160.838 59.2166 160.999 59.7284ZM159.351 58.8754C159.447 59.1825 159.543 59.4838 159.633 59.7795C159.956 59.6885 160.268 59.5976 160.58 59.5123C160.484 59.2052 160.388 58.9095 160.298 58.6082C159.974 58.6935 159.669 58.7844 159.351 58.8754Z" fill="#00A3DE"/>
<path d="M161.647 61.8262C161.809 62.3322 161.959 62.8213 162.121 63.3273C161.593 63.4752 161.066 63.6287 160.532 63.7765C160.376 63.2762 160.22 62.7815 160.059 62.2754C160.592 62.1275 161.114 61.9797 161.647 61.8262ZM161.425 62.2015L160.454 62.4744L160.736 63.3842C161.072 63.2875 161.383 63.2022 161.695 63.1113C161.599 62.8099 161.509 62.5142 161.407 62.2015" fill="#00A3DE"/>
<path d="M157.84 62.9131C157.996 63.4135 158.152 63.9082 158.314 64.4142C157.786 64.5621 157.265 64.7099 156.731 64.8635C156.576 64.3688 156.42 63.8741 156.258 63.3623C156.779 63.2145 157.301 63.0666 157.84 62.9131ZM156.671 63.5613C156.767 63.8741 156.863 64.1697 156.959 64.4654C157.277 64.3744 157.589 64.2892 157.9 64.1982C157.804 63.8911 157.708 63.5954 157.613 63.2941C157.295 63.385 156.995 63.4703 156.671 63.5613Z" fill="#00A3DE"/>
<path d="M158.77 60.3651C158.59 60.4163 158.452 60.4561 158.308 60.4959C158.29 60.4675 158.278 60.4561 158.272 60.439C158.164 60.1775 158.164 60.1775 158.44 60.0979C158.614 60.0467 158.788 60.0012 158.973 59.9443C159.135 60.4561 159.291 60.9565 159.453 61.4626C159.363 61.491 159.261 61.5194 159.141 61.5535C159.021 61.1726 158.902 60.7802 158.77 60.3651Z" fill="#00A3DE"/>
<path d="M158.482 62.7136C158.643 62.6681 158.787 62.6283 158.943 62.5828C158.979 62.6966 159.009 62.7932 159.045 62.9013C158.781 62.9752 158.524 63.0491 158.248 63.1287C158.188 62.9411 158.128 62.7534 158.074 62.5658C157.948 62.5715 157.828 62.6056 157.756 62.5715C157.696 62.5373 157.684 62.4179 157.648 62.3156C157.864 62.253 158.074 62.1962 158.302 62.1279C158.356 62.3156 158.416 62.5032 158.482 62.7136Z" fill="#00A3DE"/>
<path d="M156.168 59.8018C155.964 59.8587 155.767 59.9156 155.551 59.9781C155.617 60.1771 155.671 60.3648 155.731 60.5581C155.611 60.5922 155.509 60.6206 155.401 60.6491C155.305 60.3477 155.215 60.052 155.119 59.7507C155.431 59.6597 155.743 59.5744 156.066 59.4834C156.102 59.5801 156.132 59.6767 156.168 59.8018Z" fill="#00A3DE"/>
<path d="M156.647 61.2861C156.743 61.5932 156.833 61.8832 156.929 62.1846C156.821 62.213 156.719 62.2471 156.593 62.2812C156.534 62.0822 156.474 61.8946 156.408 61.6842C156.192 61.7467 155.994 61.8036 155.79 61.8604C155.754 61.7524 155.724 61.6557 155.694 61.5591C156.012 61.4681 156.33 61.3771 156.647 61.2861Z" fill="#00A3DE"/>
<path d="M161.071 60.0244C161.107 60.1325 161.131 60.2234 161.167 60.3258C160.963 60.3826 160.765 60.4395 160.55 60.5021C160.616 60.7124 160.675 60.9001 160.741 61.1048C160.628 61.1389 160.526 61.1673 160.412 61.1958C160.316 60.9001 160.226 60.5987 160.124 60.2917C160.442 60.2064 160.753 60.1154 161.071 60.0244Z" fill="#00A3DE"/>
<path d="M156.989 60.2004C156.671 60.2913 156.366 60.3766 156.048 60.4676C156.018 60.3709 155.988 60.28 155.952 60.1662C156.144 60.1094 156.348 60.0525 156.564 59.9956C156.498 59.7909 156.438 59.6033 156.378 59.4043C156.498 59.3702 156.6 59.3417 156.713 59.3076C156.797 59.6033 156.887 59.8933 156.989 60.2004Z" fill="#00A3DE"/>
<path d="M158.098 59.8989C157.942 59.9443 157.799 59.9841 157.643 60.0296C157.709 60.2343 157.769 60.4277 157.828 60.6267C157.709 60.6608 157.613 60.6892 157.493 60.7234C157.397 60.422 157.301 60.1206 157.205 59.8136C157.469 59.7396 157.727 59.6657 157.996 59.5918C158.026 59.6828 158.056 59.7794 158.098 59.8989Z" fill="#00A3DE"/>
<path d="M160.029 63.2656C159.765 63.3395 159.507 63.4135 159.243 63.4874C159.213 63.385 159.183 63.2884 159.147 63.1803C159.297 63.1405 159.441 63.095 159.609 63.0495C159.543 62.8448 159.483 62.6572 159.423 62.4582C159.549 62.424 159.645 62.3956 159.753 62.3672C159.843 62.6742 159.933 62.9642 160.029 63.2656Z" fill="#00A3DE"/>
<path d="M155.593 61.2577C155.557 61.1497 155.527 61.053 155.497 60.9507C155.821 60.8597 156.132 60.7687 156.456 60.6777C156.492 60.7858 156.522 60.8768 156.552 60.9848C156.234 61.0758 155.923 61.1667 155.593 61.2577Z" fill="#00A3DE"/>
<path d="M157.583 61.0079C157.853 60.934 158.105 60.8601 158.368 60.7861C158.398 60.8828 158.428 60.9738 158.464 61.0818C158.212 61.1557 157.949 61.2297 157.679 61.3036C157.649 61.2126 157.619 61.1216 157.583 61.0079Z" fill="#00A3DE"/>
<path d="M156.948 61.201C156.882 60.9906 156.816 60.7916 156.75 60.5812C156.852 60.5528 156.954 60.5244 157.074 60.4902C157.134 60.6893 157.2 60.894 157.271 61.11C157.176 61.1385 157.074 61.1669 156.948 61.201Z" fill="#00A3DE"/>
<path d="M158.152 60.1828C158.374 60.1202 158.584 60.0577 158.806 59.9951C158.842 60.0975 158.872 60.2055 158.908 60.3249C158.698 60.3818 158.482 60.4443 158.254 60.5126C158.224 60.4102 158.194 60.3079 158.152 60.1828Z" fill="#00A3DE"/>
<path d="M157.799 58.9838C158.051 58.9099 158.29 58.8474 158.536 58.7734C158.566 58.8701 158.596 58.9668 158.632 59.0805C158.392 59.1487 158.152 59.217 157.895 59.2909C157.865 59.1999 157.835 59.1032 157.799 58.9838Z" fill="#00A3DE"/>
<path d="M161.455 61.2291C161.389 61.0244 161.329 60.831 161.269 60.6377C161.149 60.6718 161.047 60.7002 160.945 60.7287C161.011 60.9277 161.071 61.121 161.131 61.32C161.023 61.3485 160.916 61.3826 160.808 61.411C160.844 61.5247 160.874 61.6214 160.904 61.7181C161.131 61.6555 161.347 61.593 161.557 61.5304C161.515 61.4281 161.485 61.3314 161.455 61.2291Z" fill="#00A3DE"/>
<path d="M159.86 61.6899C160.112 61.616 160.352 61.5534 160.598 61.4795C160.628 61.5762 160.658 61.6728 160.694 61.7865C160.454 61.8548 160.214 61.923 159.956 61.9969C159.926 61.9003 159.896 61.8036 159.86 61.6899Z" fill="#00A3DE"/>
<path d="M158.326 63.4127C158.494 63.3672 158.656 63.3217 158.824 63.2705C158.854 63.3672 158.884 63.4638 158.92 63.5776C158.758 63.6231 158.596 63.6685 158.422 63.7197C158.392 63.6231 158.362 63.5264 158.326 63.4127Z" fill="#00A3DE"/>
<path d="M156.989 59.2108C157.193 59.1539 157.379 59.1028 157.577 59.0459C157.607 59.1426 157.637 59.2392 157.673 59.353C157.481 59.4041 157.289 59.461 157.085 59.5179C157.055 59.4212 157.025 59.3245 156.989 59.2108Z" fill="#00A3DE"/>
<path d="M159.333 63.8057C159.369 63.908 159.393 63.999 159.423 64.1013C159.16 64.1753 158.896 64.2492 158.626 64.3288C158.596 64.2321 158.566 64.1355 158.536 64.0331C158.806 63.9535 159.058 63.8796 159.333 63.8057Z" fill="#00A3DE"/>
<path d="M159.657 62.0709C159.387 62.1505 159.135 62.2187 158.871 62.2927C158.841 62.1903 158.811 62.0993 158.775 61.9913C159.033 61.9174 159.291 61.8435 159.561 61.7695C159.591 61.8662 159.621 61.9629 159.657 62.0709Z" fill="#00A3DE"/>
<path d="M158.314 59.4949C158.476 59.4494 158.626 59.4039 158.794 59.3584C158.824 59.4551 158.854 59.5517 158.89 59.6541C158.734 59.6996 158.578 59.7451 158.41 59.7906C158.38 59.7053 158.35 59.6086 158.314 59.4949Z" fill="#00A3DE"/>
<path d="M159.645 63.7087C159.806 63.6632 159.956 63.6178 160.124 63.5723C160.154 63.6689 160.184 63.7656 160.22 63.8679C160.064 63.9134 159.908 63.9589 159.74 64.0044C159.71 63.9078 159.68 63.8111 159.645 63.7087Z" fill="#00A3DE"/>
<path d="M159.489 60.4679C159.603 60.4338 159.699 60.4111 159.807 60.377C159.837 60.4736 159.867 60.5646 159.903 60.6726C159.801 60.7011 159.699 60.7295 159.585 60.7636C159.549 60.6726 159.525 60.5817 159.489 60.4679Z" fill="#00A3DE"/>
<path d="M160.1 61.2916C159.986 61.3257 159.884 61.3542 159.777 61.3826C159.747 61.2802 159.717 61.1893 159.681 61.0812C159.783 61.0528 159.89 61.0244 160.004 60.9902C160.034 61.0926 160.064 61.1836 160.1 61.2916Z" fill="#00A3DE"/>
<path d="M159.747 59.092C159.861 59.0578 159.951 59.0351 160.059 59.001C160.089 59.0976 160.119 59.1886 160.155 59.2967C160.053 59.3251 159.951 59.3535 159.843 59.3876C159.807 59.2853 159.777 59.1943 159.747 59.092Z" fill="#00A3DE"/>
<path d="M160.976 62.9921C160.946 62.8898 160.916 62.7988 160.88 62.6964C160.988 62.668 161.084 62.6396 161.198 62.6055C161.228 62.7021 161.258 62.7931 161.293 62.9012C161.198 62.9296 161.096 62.958 160.976 62.9921Z" fill="#00A3DE"/>
<path d="M157.175 64.0722C157.145 63.9699 157.115 63.8789 157.079 63.7765C157.187 63.7481 157.283 63.7197 157.397 63.6855C157.427 63.7822 157.457 63.8732 157.493 63.9812C157.391 64.0097 157.289 64.0381 157.175 64.0722Z" fill="#00A3DE"/>
<path d="M157.346 62.3804L156.955 62.4912L157.06 62.8235L157.45 62.7126L157.346 62.3804Z" fill="#00A3DE"/>
<path d="M156.726 62.5603L156.384 62.657C156.318 62.4523 156.258 62.2646 156.199 62.0713C156.085 62.1054 155.983 62.1338 155.881 62.1623C155.977 62.4693 156.067 62.7593 156.169 63.0721L156.702 62.9185L156.828 62.8844L156.726 62.5603Z" fill="#00A3DE"/>
<path d="M158.027 62.2049L157.631 62.3174L157.739 62.6606L158.135 62.5481L158.027 62.2049Z" fill="#00A3DE"/>
<path d="M157.493 61.6734L157.409 61.4062L157.056 61.5029L157.247 62.1056L157.601 62.0089L158.668 61.7076L158.56 61.3721L157.493 61.6734Z" fill="#00A3DE"/>
</g>
</g>
<g filter="url(#filter0_d_8473_48017)">
<rect x="5.12012" y="5.35254" width="218.76" height="91.6946" rx="9" stroke="#2490D3" stroke-width="2" shape-rendering="crispEdges"/>
</g>
<defs>
<filter id="filter0_d_8473_48017" x="0.120117" y="0.352539" width="228.76" height="101.694" filterUnits="userSpaceOnUse" color-interpolation-filters="sRGB">
<feFlood flood-opacity="0" result="BackgroundImageFix"/>
<feColorMatrix in="SourceAlpha" type="matrix" values="0 0 0 0 0 0 0 0 0 0 0 0 0 0 0 0 0 0 127 0" result="hardAlpha"/>
<feMorphology radius="1" operator="dilate" in="SourceAlpha" result="effect1_dropShadow_8473_48017"/>
<feOffset/>
<feGaussianBlur stdDeviation="1.5"/>
<feComposite in2="hardAlpha" operator="out"/>
<feColorMatrix type="matrix" values="0 0 0 0 0 0 0 0 0 0.619608 0 0 0 0 0.831373 0 0 0 0.25 0"/>
<feBlend mode="normal" in2="BackgroundImageFix" result="effect1_dropShadow_8473_48017"/>
<feBlend mode="normal" in="SourceGraphic" in2="effect1_dropShadow_8473_48017" result="shape"/>
</filter>
<clipPath id="clip0_8473_48017">
<rect width="137.567" height="34.0092" fill="white" transform="translate(45.9883 35.0449)"/>
</clipPath>
</defs>
</svg>
