<svg width="172" height="26" viewBox="0 0 172 26" fill="none" xmlns="http://www.w3.org/2000/svg">
<path fillRule="evenodd" clipRule="evenodd" d="M16.8334 24.7888L16.6683 25.6697V25.7248L16.8334 25.7798H16.8885L17.0536 24.8989V24.8439L16.8334 24.7888C16.8885 24.7338 16.8885 24.7338 16.8334 24.7888ZM16.9435 24.4585L17.1637 24.5135C17.2188 24.5135 17.3288 24.5686 17.3839 24.6237C17.4389 24.6787 17.4389 24.7888 17.4389 24.8439L17.2738 25.7798C17.2738 25.8349 17.2188 25.8899 17.1637 25.945C17.1087 25.945 17.1087 26 17.0536 26C16.9986 26 16.9435 26 16.8885 26H16.7784C16.7233 26 16.6133 25.945 16.6133 25.8899C16.5582 25.8349 16.5032 25.7798 16.5032 25.6697C16.5032 25.6146 16.5032 25.6147 16.5032 25.5596L16.6683 24.7338C16.6683 24.6237 16.7233 24.5686 16.7784 24.5686C16.7784 24.5686 16.8334 24.5135 16.8885 24.5135C16.8334 24.4585 16.8885 24.4585 16.9435 24.4585ZM15.9527 24.2933L16.283 24.3484C16.283 24.3484 16.338 24.3484 16.338 24.4034L16.1178 25.6146H16.2279C16.2279 25.6146 16.283 25.6146 16.283 25.6697L16.2279 25.8349C16.2279 25.8349 16.2279 25.8899 16.1729 25.8899L15.6775 25.7798C15.6775 25.7798 15.6224 25.7798 15.6224 25.7248L15.6775 25.5596C15.6775 25.5596 15.6775 25.5045 15.7325 25.5045H15.8426L16.0077 24.5135H15.8977C15.8977 24.5135 15.8426 24.5135 15.8426 24.4585L15.8977 24.2933C15.8977 24.3484 15.8977 24.2933 15.9527 24.2933C15.8977 24.2933 15.8977 24.2933 15.9527 24.2933ZM15.072 24.4585L14.9068 25.3394V25.3944L15.072 25.4495H15.127L15.2922 24.5686V24.5135L15.072 24.4585C15.127 24.4585 15.127 24.4585 15.072 24.4585ZM15.1821 24.1832L15.4022 24.2383C15.4573 24.2383 15.5674 24.2933 15.6224 24.3484C15.6775 24.4034 15.6775 24.5135 15.6775 24.5686L15.4573 25.4495C15.4573 25.5045 15.4022 25.5596 15.3472 25.6146C15.2921 25.6146 15.2922 25.6697 15.2371 25.6697C15.1821 25.6697 15.127 25.6697 15.072 25.6697H14.9619C14.9068 25.6697 14.7967 25.6147 14.7967 25.5596C14.7417 25.5045 14.6867 25.4495 14.6867 25.3394C14.6867 25.2843 14.6867 25.2843 14.6867 25.2293L14.8518 24.4034C14.8518 24.2933 14.9068 24.2383 14.9619 24.2383C14.9619 24.2383 15.0169 24.1832 15.072 24.1832C15.072 24.1832 15.127 24.1832 15.1821 24.1832ZM14.1912 24.0181L14.5215 24.0731C14.5215 24.0731 14.5766 24.0731 14.5766 24.1282L14.3564 25.3394H14.4665C14.4665 25.3394 14.5215 25.3394 14.5215 25.3944L14.4665 25.5596C14.4665 25.5596 14.4665 25.6146 14.4114 25.6146L13.916 25.5045C13.916 25.5045 13.861 25.5045 13.861 25.4495L13.916 25.2843C13.916 25.2843 13.916 25.2293 13.971 25.2293H14.0811L14.2463 24.2383H14.1362C14.1362 24.2383 14.0811 24.2383 14.0811 24.1832L14.1362 24.0181C14.1362 24.0181 14.1362 24.0181 14.1912 24.0181C14.1362 24.0181 14.1912 24.0181 14.1912 24.0181ZM13.3105 24.1832L13.1454 25.0641V25.1191L13.3105 25.1742H13.3656L13.5307 24.2933V24.2383L13.3105 24.1832C13.3655 24.1282 13.3655 24.1282 13.3105 24.1832ZM13.4206 23.8529L13.6408 23.9079C13.6958 23.9079 13.8059 23.963 13.861 24.0181C13.916 24.0731 13.916 24.1832 13.916 24.2383L13.7509 25.1742C13.7509 25.2293 13.6958 25.2843 13.6408 25.3394C13.5857 25.3394 13.5857 25.3944 13.5307 25.3944C13.4756 25.3944 13.4206 25.3944 13.3656 25.3944H13.2555C13.2004 25.3944 13.0903 25.3394 13.0903 25.2843C13.0353 25.2293 12.9802 25.1742 12.9802 25.0641C12.9802 25.009 12.9802 25.009 12.9802 24.954L13.1454 24.1282C13.1454 24.0181 13.2004 23.963 13.2555 23.963C13.2555 23.963 13.3105 23.9079 13.3656 23.9079C13.3105 23.8529 13.3655 23.8529 13.4206 23.8529ZM12.4298 23.6877L12.76 23.7428C12.76 23.7428 12.8151 23.7428 12.8151 23.7978L12.5949 25.009H12.705C12.705 25.009 12.76 25.009 12.76 25.0641L12.705 25.2293C12.705 25.2293 12.705 25.2843 12.6499 25.2843L12.1545 25.1742C12.1545 25.1742 12.0995 25.1742 12.0995 25.1191L12.1545 24.954C12.1545 24.954 12.1545 24.8989 12.2096 24.8989H12.3197L12.4848 23.9079H12.3747C12.3747 23.9079 12.3197 23.9079 12.3197 23.8529L12.3747 23.6877C12.3747 23.6877 12.3747 23.6877 12.4298 23.6877C12.3747 23.6877 12.4298 23.6877 12.4298 23.6877ZM11.549 23.8529L11.3839 24.7338V24.7888L11.549 24.8439H11.6041L11.7692 23.963V23.9079L11.549 23.8529C11.6041 23.7978 11.6041 23.8529 11.549 23.8529ZM11.6591 23.5776L11.8793 23.6327C11.9344 23.6327 12.0444 23.6877 12.0995 23.7428C12.1545 23.7978 12.1545 23.9079 12.1545 23.963L11.9894 24.8989C11.9894 24.954 11.9344 25.009 11.8793 25.0641C11.8243 25.0641 11.8243 25.1191 11.7692 25.1191C11.7142 25.1191 11.6591 25.1191 11.6041 25.1191H11.494C11.4389 25.1191 11.3288 25.0641 11.3288 25.009C11.2738 24.954 11.2188 24.8989 11.2188 24.7888C11.2188 24.7338 11.2188 24.7338 11.2188 24.6787L11.3839 23.8529C11.3839 23.7428 11.4389 23.6877 11.494 23.6877C11.494 23.6877 11.549 23.6327 11.6041 23.6327C11.549 23.5776 11.6041 23.5226 11.6591 23.5776ZM17.4389 22.5316L17.6591 22.5866C17.7142 22.5866 17.8243 22.6417 17.8793 22.6967C17.9344 22.7518 17.9344 22.8619 17.9344 22.917L17.8793 23.1372L17.8243 23.1922L17.6591 23.1372C17.6591 23.1372 17.6041 23.1372 17.6041 23.0821L17.6591 22.917V22.8619L17.494 22.8068H17.4389L17.2738 23.6877V23.7428L17.4389 23.7978H17.494L17.549 23.5776H17.4389C17.4389 23.5776 17.3839 23.5776 17.3839 23.5226L17.4389 23.3574C17.4389 23.3574 17.4389 23.3023 17.494 23.3023L17.8243 23.3574C17.8243 23.3574 17.8793 23.3574 17.8793 23.4125L17.8243 23.8529C17.8243 23.9079 17.7692 23.963 17.7142 24.0181C17.6591 24.0181 17.6591 24.0731 17.6041 24.0731C17.549 24.0731 17.494 24.0731 17.4389 24.0731H17.3288C17.2738 24.0731 17.1637 24.0181 17.1637 23.963C17.1087 23.9079 17.0536 23.8529 17.0536 23.7428C17.0536 23.6877 17.0536 23.6877 17.0536 23.6327L17.2188 22.8068C17.2188 22.6967 17.2738 22.6417 17.3288 22.6417C17.3288 22.6417 17.3839 22.5866 17.4389 22.5866C17.3289 22.5316 17.3839 22.5316 17.4389 22.5316ZM16.9435 22.4765C16.9435 22.4765 16.9986 22.4765 16.9435 22.4765V22.6967C16.9435 22.6967 16.9435 22.6967 16.8885 22.7518L16.6133 22.6967L16.5582 23.1372L16.7784 23.1922C16.7784 23.1922 16.8334 23.1922 16.8334 23.2473L16.7784 23.4125C16.7784 23.4675 16.7233 23.4675 16.7233 23.4675L16.5032 23.4125L16.3931 23.9079C16.3931 23.9079 16.3931 23.963 16.338 23.963L16.1729 23.9079C16.1178 23.9079 16.1178 23.8529 16.1178 23.8529L16.3931 22.4215C16.3931 22.4215 16.3931 22.3664 16.4481 22.3664L16.9435 22.4765ZM16.1178 22.3114C16.1729 22.3114 16.1729 22.3114 16.1178 22.3114V22.5316C16.1178 22.5316 16.1178 22.5316 16.0628 22.5866L15.7876 22.5316L15.7325 22.972L15.9527 23.0271C15.9527 23.0271 16.0077 23.0271 16.0077 23.0821L15.9527 23.2473C15.9527 23.3023 15.8977 23.3023 15.8977 23.3023L15.6775 23.2473L15.6224 23.5226L15.9527 23.5776C15.9527 23.5776 16.0077 23.5776 16.0077 23.6327L15.9527 23.7978C15.9527 23.7978 15.9527 23.7978 15.8977 23.8529L15.4022 23.7428C15.3472 23.7428 15.3472 23.7428 15.3472 23.6877L15.6224 22.2563C15.6224 22.2563 15.6224 22.2012 15.6775 22.2012L16.1178 22.3114ZM14.7967 22.3664L14.6316 23.3574L14.8518 23.4125H14.9068L15.072 22.5316V22.4765L14.7967 22.3664ZM15.072 22.1462C15.127 22.1462 15.2371 22.2012 15.2922 22.2563C15.3472 22.3114 15.3472 22.4215 15.3472 22.4765L15.1821 23.4125C15.1821 23.4675 15.127 23.5226 15.072 23.5776C15.0169 23.5776 15.0169 23.6327 14.9619 23.6327C14.9068 23.6327 14.8518 23.6327 14.7967 23.6327L14.3564 23.5776C14.3013 23.5776 14.3013 23.5226 14.3013 23.5226L14.5766 22.0911C14.5766 22.0911 14.5766 22.0361 14.6316 22.0361L15.072 22.1462ZM13.861 21.926L14.0811 21.981C14.1362 21.981 14.2463 22.0361 14.3013 22.0911C14.3564 22.1462 14.3564 22.2563 14.3564 22.3114L14.3013 22.5316L14.2463 22.5866L14.0811 22.5316C14.0811 22.5316 14.0261 22.5316 14.0261 22.4765L14.0811 22.3114V22.2563L13.916 22.2012H13.861L13.6958 23.0821V23.1372L13.861 23.1922H13.916L13.971 23.0271C13.971 23.0271 13.971 22.972 14.0261 22.972L14.1912 23.0271C14.1912 23.0271 14.2463 23.0271 14.2463 23.0821L14.1912 23.3023C14.1912 23.3574 14.1362 23.4124 14.0811 23.4675C14.0261 23.4675 14.0261 23.5226 13.971 23.5226C13.916 23.5226 13.861 23.5226 13.8059 23.5226H13.6958C13.6408 23.5226 13.5307 23.4675 13.5307 23.4125C13.4756 23.3574 13.4206 23.3023 13.4206 23.1922C13.4206 23.1372 13.4206 23.1372 13.4206 23.0821L13.5857 22.2563C13.5857 22.1462 13.6408 22.0911 13.6958 22.0911C13.6958 22.0911 13.7509 22.0361 13.8059 22.0361C13.7509 21.926 13.8059 21.926 13.861 21.926ZM12.6499 22.6967L12.5949 22.972L12.8151 23.0271H12.8701L12.9252 22.8619V22.8068L12.6499 22.6967ZM12.76 21.981L12.705 22.4215L12.9252 22.4765H12.9802L13.0353 22.0911V22.0361L12.76 21.981ZM13.0353 21.7608C13.0903 21.7608 13.2004 21.8159 13.2555 21.8709C13.3105 21.926 13.3105 22.0361 13.3105 22.0911L13.2555 22.4765C13.2555 22.5316 13.2004 22.5866 13.1454 22.6417C13.1454 22.6967 13.2004 22.7518 13.1454 22.8068L13.0903 23.0271C13.0903 23.0821 13.0353 23.1372 12.9802 23.1922C12.9252 23.1922 12.9252 23.2473 12.8701 23.2473C12.8151 23.2473 12.76 23.2473 12.705 23.2473L12.2646 23.1922C12.2096 23.1922 12.2096 23.1372 12.2096 23.1372L12.4848 21.7057C12.4848 21.7057 12.4848 21.6507 12.5399 21.6507L13.0353 21.7608ZM11.7692 21.8709L11.7142 22.2563L11.9894 22.3114L12.0444 21.926V21.8709H11.7692C11.7692 21.8159 11.7692 21.8159 11.7692 21.8709ZM11.8243 21.5406L12.0444 21.5956C12.0995 21.5956 12.2096 21.6507 12.2646 21.7057C12.3197 21.7608 12.3197 21.8709 12.3197 21.926L12.0995 23.0821C12.0995 23.0821 12.0995 23.0821 12.0444 23.1372L11.8793 23.0821C11.8793 23.0821 11.8243 23.0821 11.8243 23.0271L11.9344 22.5316L11.6591 22.4765L11.549 22.972C11.549 23.0271 11.494 23.0271 11.494 23.0271L11.3288 22.972C11.3288 22.972 11.2738 22.972 11.2738 22.917L11.494 21.8159C11.494 21.7057 11.549 21.6507 11.6041 21.6507C11.6041 21.6507 11.6591 21.5956 11.7142 21.5956C11.7142 21.5406 11.7692 21.5406 11.8243 21.5406ZM11.8243 20.8799L17.9344 21.981C18.2646 22.0361 18.3747 21.3754 18.0445 21.3204L11.9344 20.2193C11.6041 20.1642 11.494 20.8249 11.8243 20.8799ZM11.9894 19.8339L18.0995 20.935C18.4298 20.99 18.5399 20.3294 18.2096 20.2743L12.0995 19.1732C11.7692 19.1182 11.6591 19.7788 11.9894 19.8339ZM12.1545 18.8429L18.2646 19.944C18.5949 19.999 18.705 19.3384 18.3747 19.2833L12.2646 18.1822C11.9344 18.1272 11.8243 18.7328 12.1545 18.8429Z" fill="white"/>
<path fillRule="evenodd" clipRule="evenodd" d="M7.36552 16.4204L1.91598 17.4114C1.80589 17.4114 1.6958 17.5765 1.75085 17.6866L2.90682 24.2382C2.90682 24.3483 3.07196 24.4584 3.18205 24.4033L8.63159 23.4123C8.74168 23.4123 8.85176 23.2472 8.79672 23.1371L7.64075 16.5855C7.64075 16.4754 7.47561 16.3653 7.36552 16.4204ZM1.8059 16.9159L7.25544 15.9249C7.64076 15.8698 7.97104 16.09 8.08113 16.4754L9.23709 23.027C9.29214 23.4123 9.07196 23.7427 8.68664 23.8528L3.23708 24.8438C2.85176 24.8988 2.52148 24.6786 2.41139 24.2932L1.25544 17.7417C1.20039 17.3563 1.42058 16.9709 1.8059 16.9159ZM4.11782 21.9809L4.22792 22.5865L3.73251 22.6966C3.67746 22.4214 3.51231 21.5955 3.56736 21.3753C3.56736 21.2652 3.62241 21.2101 3.67746 21.1551C3.89764 20.9349 3.95268 21.045 4.17287 21.1C4.94351 21.4854 5.93433 21.2652 6.53983 20.6596C6.70497 20.4944 6.70498 20.3843 6.98021 20.4944C7.14535 20.5495 7.25544 20.6596 7.31049 20.9349L7.47562 21.9809L6.98021 22.091C6.92516 21.6506 6.92516 21.2101 6.59488 21.2652C6.26461 21.3203 6.42975 21.7607 6.4848 22.2011L4.72333 22.5315C4.66828 22.091 4.66827 21.6506 4.338 21.7056C4.22791 21.7056 4.11782 21.8157 4.11782 21.9809ZM3.0169 21.5955L3.29213 23.082C3.29213 23.2472 3.56737 23.2472 3.73251 23.2472L7.64075 22.5315C7.80589 22.4764 8.02608 22.4213 7.97103 22.2562L7.6958 20.7697C7.58571 20.2742 7.09029 19.9989 6.53983 20.054C6.3747 20.054 6.3747 20.109 6.2646 20.2192C5.71414 20.8798 4.94351 20.9899 4.22792 20.6045C4.11782 20.5495 4.06277 20.4944 3.89764 20.5495C3.34718 20.6596 2.96185 21.1 3.0169 21.5955ZM4.28296 19.4484C4.22792 19.1731 4.22791 18.9529 4.39305 18.6776C4.83341 18.1271 5.7692 18.3473 5.87929 18.9529L5.93434 19.1181C5.98939 19.5034 5.71415 19.8888 5.21873 19.9989C4.77837 20.1091 4.33801 19.8338 4.28296 19.4484ZM3.73251 19.4484C3.78755 19.6686 3.84259 19.8338 3.95269 19.9989C4.11782 20.2192 4.4481 20.4394 4.72333 20.5495C5.27378 20.6596 5.82425 20.4944 6.15452 20.054C6.59489 19.3933 6.4848 18.6226 5.87929 18.1821C4.83342 17.4114 3.51232 18.2922 3.73251 19.4484Z" fill="#00ADEE"/>
<path fillRule="evenodd" clipRule="evenodd" d="M99.7876 17.7968C99.4573 17.7968 99.2371 18.072 99.2371 18.3473V25.1741C99.2371 25.5044 99.5124 25.7247 99.7876 25.7247H103.971C104.301 25.7247 104.522 25.4494 104.522 25.1741V18.3473C104.522 18.017 104.246 17.7968 103.971 17.7968C101.989 17.7968 101.769 17.7968 99.7876 17.7968ZM99.7876 17.5215C100.889 17.5215 102.815 17.5215 103.971 17.5215C104.411 17.5215 104.797 17.9069 104.797 18.3473V25.1741C104.797 25.6145 104.411 25.9999 103.971 25.9999H99.7876C99.3472 25.9999 98.9619 25.6145 98.9619 25.1741V18.3473C98.9619 17.8518 99.2922 17.5215 99.7876 17.5215ZM102.98 22.3113C102.98 22.5865 103.311 22.5315 103.311 22.3663C103.255 22.091 102.98 22.2011 102.98 22.3113ZM100.448 22.3113C100.448 22.4214 100.503 22.4764 100.558 22.4764H102.485C102.595 22.4764 102.595 22.3663 102.595 22.3113C102.595 22.2562 102.54 22.2011 102.485 22.2011H100.558C100.558 22.2011 100.448 22.2562 100.448 22.3113ZM100.448 21.7056C100.448 21.8158 100.503 21.8708 100.558 21.8708H103.145C103.255 21.8708 103.255 21.7607 103.255 21.7056C103.255 21.6506 103.2 21.5955 103.145 21.5955H100.558C100.558 21.5955 100.448 21.6506 100.448 21.7056ZM100.778 20.5495C100.778 20.1641 100.999 20.054 101.329 19.9439C101.604 19.8338 101.494 19.8338 101.659 19.8888C101.769 19.9439 101.989 19.9439 102.1 19.8888C102.155 19.8338 102.21 19.8338 102.265 19.8338L102.595 19.999C102.705 20.054 102.815 20.1091 102.87 20.1641C103.035 20.3293 102.98 20.6046 102.98 20.8798H100.778V20.5495ZM101.494 18.9529C101.494 18.5675 102.044 18.7327 102.1 18.7327C102.265 18.8428 102.155 19.1731 102.1 19.3383C101.989 19.6686 101.659 19.6686 101.604 19.3383C101.604 19.2832 101.494 19.063 101.494 18.9529ZM101.164 18.9529C101.164 19.1181 101.274 19.4484 101.329 19.6136C101.219 19.6136 100.833 19.8338 100.778 19.8888C100.393 20.1641 100.503 20.6046 100.503 21.1001C100.503 21.1551 100.558 21.2102 100.613 21.2102H103.2C103.255 21.2102 103.311 21.1551 103.311 21.1001C103.311 20.6046 103.366 20.1641 103.035 19.8888C102.98 19.8338 102.54 19.6136 102.485 19.6136C102.595 19.1731 102.76 18.9529 102.485 18.6226C102.32 18.4024 102.044 18.4574 101.769 18.4574C101.439 18.4024 101.164 18.6776 101.164 18.9529ZM101.879 23.7427H102.044V24.1831H102.155V23.6326H101.879V23.7427ZM102.265 23.1371H102.87V23.7427H102.265V23.1371ZM102.375 23.2472H102.76V23.6326H102.375V23.2472ZM102.265 24.5135H102.87V25.119H102.265V24.5135ZM102.375 24.6236H102.76V25.0089H102.375V24.6236ZM100.889 24.5135H101.494V25.119H100.889V24.5135ZM100.999 24.6236H101.384V25.0089H100.999V24.6236ZM102.265 24.1831H102.375V24.073H102.265V24.1831ZM101.219 24.4033H101.329V24.2932H101.219V24.4033ZM102.265 23.8528V23.9629H102.375V23.8528H102.265ZM102.485 24.7887V24.8988H102.595V24.7887H102.485ZM101.109 24.8988H101.219V24.7887H101.109V24.8988ZM102.485 23.4674H102.595V23.3573H102.485V23.4674ZM101.989 25.119H102.155V25.0089H101.989V25.119ZM101.549 23.2472H101.714V23.1371H101.549V23.2472ZM101.549 24.7887V24.8988H101.714V24.7887H101.549ZM101.989 23.4674H102.155V23.3573H101.989V23.4674ZM102.265 24.4033H102.485V24.2932H102.265V24.4033ZM101.329 23.8528H101.439V23.6326H101.329V23.8528ZM101.549 25.119H101.824V25.0089H101.549V25.119ZM101.879 23.2472H102.155V23.1371H101.879V23.2472ZM101.879 24.4033H102.155V24.2932H101.879V24.4033ZM101.549 23.8528V23.9629H101.824V23.8528H101.549ZM100.889 23.7427H101.219V23.6326H100.889V23.7427ZM102.705 24.2932H102.595V24.4033H102.815V24.073H102.705V24.2932ZM100.889 24.4033H101.109V24.2932H100.999V24.073H100.889V24.4033ZM102.044 24.7887H101.879V24.8988H102.155V24.5685H102.044V24.7887ZM101.549 23.6876C101.549 23.7427 101.549 23.7427 101.549 23.6876H101.659V23.4674H101.824V23.3573H101.549V23.6876ZM102.485 23.8528V24.1831H102.595V23.9629H102.815V23.8528H102.485ZM100.889 23.9629H101.109V24.1831H101.219V23.8528H100.889V23.9629ZM100.999 23.2472H101.219V23.1371H100.889V23.4674H100.999V23.2472ZM101.329 23.3573H101.109V23.4674H101.439V23.1371H101.329V23.3573ZM101.329 24.1831H101.879V24.073H101.494V23.9629H101.384V24.1831H101.329ZM101.439 24.4033H101.549V24.6236H101.824V24.5135H101.659V24.2932H101.439V24.4033Z" fill="white"/>
<path fillRule="evenodd" clipRule="evenodd" d="M96.4299 0.950091H97.5858L98.1363 0.509651L96.4299 0.950091ZM108.1 5.29942C108.32 5.29942 108.43 5.46459 108.43 5.62975C108.43 5.84997 108.265 5.96009 108.1 5.96009C107.879 5.96009 107.769 5.79492 107.769 5.62975C107.769 5.46459 107.879 5.29942 108.1 5.29942ZM102.1 1.44558V10.86C102.1 11.0251 101.989 11.1352 101.824 11.1352C101.659 11.1352 101.549 11.0251 101.549 10.86V1.44558H97.806V12.5116H105.843V1.44558H102.1ZM98.3014 0.950091H104.962L104.026 0.509651H98.8519L98.3014 0.950091ZM106.063 0.950091H107.109C106.889 0.895036 105.843 0.509651 105.733 0.509651H105.072L106.063 0.950091ZM108.925 1.0602C109.641 1.28042 110.191 1.94108 110.191 2.71184V18.8429C110.191 19.7789 109.421 20.6047 108.43 20.6047H106.393L107.384 23.3024C107.549 23.5776 107.329 23.908 106.999 23.908H105.182V23.4675H106.944L105.843 20.6047H105.182V20.1642H105.898H108.375C109.09 20.1642 109.641 19.5586 109.641 18.898V2.7669C109.641 2.43657 109.476 2.10625 109.256 1.83097C109.09 1.66581 108.87 1.50064 108.595 1.50064C108.54 1.50064 108.375 1.50064 108.155 1.50064H106.228V13.0622H105.072V17.2463C104.742 17.2463 98.8519 17.2463 98.4666 17.2463V13.0622H97.3106V1.50064H95.1088C94.4482 1.50064 93.8978 2.1613 93.8978 2.7669V18.8429C93.8978 19.5586 94.5033 20.1092 95.1638 20.1092H97.8611H98.3014V20.5496H97.9161L96.8702 23.4125H98.3014V23.8529H96.8152C96.5399 23.8529 96.3198 23.5776 96.4299 23.3024L97.4207 20.5496H95.1638C94.228 20.5496 93.4023 19.7789 93.4023 18.7879V2.6568C93.4023 1.83097 94.0079 1.0602 94.8335 0.950091L97.9711 0.0141602H105.623L108.925 1.0602Z" fill="white"/>
<path fillRule="evenodd" clipRule="evenodd" d="M6.375 10.1993C6.375 10.915 6.9805 11.5206 7.64105 11.4656C8.46674 11.4656 8.68693 10.7498 9.18234 10.4195C9.18234 11.6307 9.18234 12.897 9.18234 14.1082C9.18234 14.6587 9.12729 15.4295 9.29243 15.87C9.67775 16.8609 11.1089 16.971 11.6044 15.87C11.7695 15.4846 11.7145 14.6587 11.7145 14.1632C11.7145 12.952 11.7145 11.6858 11.7145 10.4746C12.2099 10.8049 12.43 11.4656 13.2557 11.4656C14.1915 11.4656 15.0722 10.3645 14.0814 9.31842L13.9713 9.20831C13.9163 9.15326 13.9163 9.15325 13.9163 9.15325C13.8612 9.0982 13.8612 9.04315 13.8062 8.98809L11.8245 7.00612C11.4943 6.67579 11.164 6.23535 10.5585 6.23535C9.95299 6.23535 9.6227 6.62073 9.29243 6.95106C8.57683 7.66677 7.42088 8.76787 6.76033 9.48359C6.54014 9.64875 6.375 9.97908 6.375 10.1993Z" fill="#00ADEE"/>
<path fillRule="evenodd" clipRule="evenodd" d="M88.1725 14.9338C87.4569 14.9338 86.8513 14.3282 86.9064 13.6676C86.9064 12.8417 87.622 12.6215 87.9523 12.126C86.7413 12.126 85.4752 12.126 84.2642 12.126C83.7137 12.126 82.9431 12.1811 82.5027 12.0159C81.5119 11.6305 81.4018 10.1991 82.5027 9.70361C82.888 9.53844 83.7137 9.5935 84.2091 9.5935C85.4202 9.5935 86.6862 9.5935 87.8972 9.5935C87.567 9.09801 86.9064 8.87778 86.9064 8.05196C86.9064 7.11603 88.0073 6.23515 89.0532 7.22614C89.8238 7.99691 90.5945 8.76768 91.4202 9.53845C92.466 10.5845 92.5211 11.0249 91.4752 12.071C90.7596 12.7867 89.6587 13.9428 88.9431 14.6035C88.778 14.7687 88.3926 14.9338 88.1725 14.9338Z" fill="#00ADEE"/>
<path fillRule="evenodd" clipRule="evenodd" d="M8.136 3.37236C7.69563 3.26225 7.36536 2.98697 6.48462 2.98697C4.1727 2.98697 2.90663 4.47346 2.68644 6.6206C2.6314 6.78576 2.68646 6.73071 2.63141 6.78577C2.63141 6.78577 1.36535 7.11609 0.649756 8.21719C-0.946575 10.6396 0.539658 13.9979 3.56718 13.9979H8.41123C8.63141 13.9979 8.79654 13.8328 8.79654 13.5575C8.79654 13.1171 8.24609 13.1721 7.80572 13.1721H3.56718C1.69562 13.1721 0.429566 11.4104 0.814887 9.70367C0.869933 9.48345 0.924976 9.37334 1.03507 9.15312C1.36534 8.43741 2.136 7.77675 2.90664 7.61159C3.18187 7.55653 3.51213 7.61158 3.51213 7.11609C3.56718 4.47346 5.76902 3.15214 8.08095 4.41841C8.24609 4.52851 8.41122 4.52851 8.57636 4.41841C8.7415 4.3083 8.79654 3.86786 9.01672 3.48247C11.4938 -1.41741 18.7598 1.5005 17.2736 6.6206C17.1635 6.95093 16.8883 7.44642 17.4938 7.61159C21.4021 8.54752 20.3011 13.2822 17.1635 13.2272H12.98C12.4296 13.2272 11.9342 13.1721 11.9342 13.6676C11.9342 13.8878 12.1543 14.053 12.3195 14.053H17.1635C20.6314 14.053 22.1727 9.37334 19.0901 7.33631C18.8699 7.17115 18.3195 6.89587 18.0443 6.89587C18.0443 6.6206 18.2094 6.23521 18.2094 5.29928C18.2644 -1.58258 9.18187 -1.25225 8.136 3.37236Z" fill="white"/>
<path fillRule="evenodd" clipRule="evenodd" d="M72.8146 24.2933H73.6403V25.1742H72.8146V24.2933ZM73.6403 12.1812H74.576V11.3003H73.6403V12.1812ZM70.1724 12.1812H71.1081V11.3003H70.1724V12.1812ZM60.6494 12.1812H61.5852V11.3003H60.6494V12.1812ZM71.8788 12.1812H72.8146V11.3003H71.8788V12.1812ZM73.6403 22.5866H74.576V21.8158C74.576 21.7057 74.521 21.6506 74.4109 21.6506H73.6403V22.5866ZM73.6403 17.4114H74.4109C74.521 17.4114 74.576 17.3564 74.576 17.2463V16.4755H73.6403V17.4114ZM71.8788 22.5866H72.8146V21.8158C72.8146 21.7057 72.7595 21.6506 72.6494 21.6506H71.8788V22.5866ZM71.8788 17.4114H72.6494C72.7595 17.4114 72.8146 17.3564 72.8146 17.2463V16.4755H71.8788V17.4114ZM60.6494 17.2463C60.6494 17.4665 60.8696 17.4114 61.4201 17.4114C61.6402 17.4114 61.5852 17.0811 61.5852 16.4755H60.6494V17.2463ZM60.6494 21.8158V22.5866H61.5852C61.5852 21.4855 61.7503 21.6506 60.8146 21.6506C60.7045 21.6506 60.6494 21.7057 60.6494 21.8158ZM70.1724 22.5866C71.2733 22.5866 71.1081 22.7517 71.1081 21.8158C71.1081 21.5956 70.7779 21.6506 70.1724 21.6506V22.5866ZM70.1724 17.4114C71.2733 17.4114 71.1081 17.5766 71.1081 16.6406C71.1081 16.4204 70.7779 16.4755 70.1724 16.4755V17.4114ZM74.0806 26H72.3191C71.7687 25.9449 71.9338 25.5595 71.9338 24.2933H63.3467C63.3467 24.7888 63.5118 26 63.0164 26H61.1448C60.6494 25.8899 60.7045 25.5595 60.7045 24.2933C59.8788 24.2933 58.998 24.4584 58.998 23.8528V20.4945C58.998 19.7788 59.7136 19.9439 60.7045 19.9439V19.1181C59.7136 19.1181 58.998 19.2833 58.998 18.5676V15.2092C58.998 14.6036 59.8788 14.7688 60.7045 14.7688V13.8879C59.7687 13.8879 58.998 14.0531 58.998 13.4475V10.0341C58.998 9.64868 59.3283 9.53857 59.7136 9.53857H75.6219C76.0072 9.53857 76.3375 9.64868 76.3375 10.0341V13.4475C76.3375 14.1081 75.5118 13.8879 74.6311 13.8879V14.7688C75.732 14.7688 76.3375 14.6036 76.3375 15.3193V18.6226C76.3375 19.2833 75.4017 19.1181 74.6311 19.1181V19.9439C75.4017 19.9439 76.3375 19.7788 76.3375 20.4394V23.7427C76.3375 24.4584 75.6769 24.2933 74.6311 24.2933C74.521 25.064 74.6861 26 74.0806 26ZM61.5852 24.2933H62.4109V25.1742H61.5852V24.2933ZM59.8788 20.8248H75.4017V23.4124H59.8788V20.8248ZM72.8146 19.1181H73.6403V19.9439H72.8146V19.1181ZM63.2916 19.1181H71.8788V19.9439H63.2916V19.1181ZM61.5852 19.1181H62.4109V19.9439H61.5852V19.1181ZM59.8788 15.7047H75.4017V18.2372H59.8788V15.7047ZM72.8146 13.8879H73.6403V14.7688H72.8146V13.8879ZM63.2916 13.8879H71.8788V14.7688H63.2916V13.8879ZM61.5852 13.8879H62.4109V14.7688H61.5852V13.8879ZM59.8788 10.4745H75.4017V13.0621H59.8788V10.4745Z" fill="#00ADEE"/>
<path fillRule="evenodd" clipRule="evenodd" d="M65.7138 3.59262C65.4936 3.42745 65.2734 3.15217 64.6679 2.82184C61.6954 1.1702 57.7322 3.20723 57.6221 7.00602C57.6221 7.17118 57.6771 7.22624 57.6771 7.44646C57.2918 7.44646 56.7413 7.61162 56.4661 7.77678C53.3285 9.26326 54.5395 13.9429 57.6771 13.9429H58.1175V13.0621C57.512 13.0621 56.9065 12.8969 56.411 12.5666L56.1358 12.2913C54.9248 10.97 55.5303 8.98799 57.0716 8.4925C57.8422 8.21722 58.6679 8.54755 58.6129 7.83184C58.6129 7.66667 58.5028 7.3914 58.5028 7.17118C58.5028 3.70273 62.2459 2.05108 64.723 3.978L65.0533 4.25327C65.3285 4.52855 65.6588 5.07909 66.0441 4.74876C66.2643 4.5836 66.9799 2.05108 69.7872 1.22525C73.5854 0.124157 76.9982 3.04207 76.9982 6.34536C76.9982 8.38239 76.5028 8.16217 77.7138 8.43745C80.2459 8.98799 80.1909 13.1171 76.9982 13.1171V13.998C77.7138 13.998 77.989 13.998 78.6496 13.6677C81.4019 12.3463 80.9615 8.27228 77.8239 7.55656L77.8789 6.45547C77.989 0.124158 69.0166 -2.62858 65.7138 3.59262Z" fill="white"/>
<path fillRule="evenodd" clipRule="evenodd" d="M148.833 6.95096L150.154 6.62064L149.879 2.98701C149.879 2.76679 149.549 2.65668 149.328 2.71174L147.567 3.20724C147.402 3.26229 147.182 3.48251 147.237 3.64767L148.833 6.95096ZM148.888 9.81382C148.943 10.0891 149.328 10.6947 149.493 11.025C149.328 11.1351 148.613 11.7958 148.503 11.9059C147.897 12.6767 148.282 13.5025 148.558 14.4384C148.558 14.5485 148.778 14.6586 148.888 14.6036L154.007 13.2272C154.117 13.2272 154.227 13.007 154.172 12.8969C153.897 11.9059 153.842 11.025 152.961 10.6396C152.796 10.5846 151.86 10.3644 151.64 10.3644C151.585 9.42844 151.805 8.87789 151.09 8.38239C150.649 8.05206 150.099 8.27228 149.604 8.38239C149.108 8.60261 148.723 9.26327 148.888 9.81382ZM149.549 9.70371C149.328 8.87788 150.539 8.93294 150.594 8.93294C151.035 9.04305 150.925 9.81382 150.925 10.1992C150.925 10.9149 150.264 11.0801 149.934 10.4745C149.879 10.3093 149.604 9.92393 149.549 9.70371ZM148.943 13.2823C148.723 12.4564 149.163 12.2362 149.714 11.7407C150.154 11.3554 149.989 11.4655 150.319 11.5205C150.594 11.5756 150.98 11.4655 151.255 11.3003C151.365 11.1902 151.365 11.0801 151.53 11.0801L152.246 11.2452C152.466 11.3003 152.741 11.3003 152.906 11.4655C153.292 11.7407 153.347 12.2362 153.512 12.7868L149.163 13.9429L148.943 13.2823ZM152.136 20.1091C152.191 20.1091 152.191 20.1641 152.136 20.1091L152.411 20.054L152.521 20.4945C152.521 20.4945 152.521 20.4945 152.576 20.4945L153.182 20.3293L153.127 20.054L152.741 20.1641L152.631 19.6686L152.136 19.7787V20.1091ZM151.805 19.7237L152.906 19.4484L152.851 19.2282L151.971 19.3934L151.916 19.1732L151.64 19.2282L151.805 19.7237ZM151.365 18.017L150.87 18.1271L150.925 18.4024L151.64 18.1822L151.42 17.4664L151.145 17.5215L151.365 18.017ZM150.539 17.9619L151.035 17.8518L150.98 17.5766L150.264 17.7968L150.484 18.5125L150.76 18.4574L150.539 17.9619ZM150.705 19.5035L151.2 19.3934L151.31 19.8889L151.585 19.8338L151.42 19.1181C151.42 19.1181 151.42 19.1181 151.365 19.1181L150.649 19.2833L150.705 19.5035ZM154.007 18.3473L154.172 19.063L154.448 19.008L154.338 18.5125L154.833 18.4024L154.778 18.1271L154.007 18.3473ZM152.026 18.5675C152.026 18.6226 152.026 18.6226 152.026 18.5675L152.301 18.5125L152.191 18.017L152.576 17.9069L152.521 17.6316L151.916 17.7968L152.026 18.5675ZM153.567 20.5495L153.182 20.6596L153.237 20.9349L153.842 20.7697L153.677 20.054C153.677 20.054 153.677 20.054 153.622 20.054L153.402 20.1091L153.567 20.5495ZM150.98 20.4394L151.42 20.3293C151.42 20.3293 151.42 20.3293 151.42 20.2742L151.365 20.054C151.365 20.054 151.365 20.054 151.31 20.054L151.09 20.1091L150.98 19.6136L150.76 19.6686L150.98 20.4394ZM154.778 19.1732L154.558 19.2282C154.558 19.2282 154.558 19.2282 154.558 19.2833L154.613 19.5035C154.613 19.5035 154.613 19.5035 154.668 19.5035L155.108 19.3934L154.888 18.6777L154.668 18.7327L154.778 19.1732ZM150.594 19.008L151.31 18.7878L151.255 18.5675C151.255 18.5675 151.255 18.5675 151.2 18.5675L150.484 18.7327L150.594 19.008ZM152.081 18.8979L152.136 19.1181L152.741 18.9529L152.686 18.6777L152.081 18.8979C152.081 18.8428 152.081 18.8428 152.081 18.8979ZM153.016 19.8889L153.622 19.7237C153.622 19.7237 153.622 19.7237 153.622 19.6686L153.567 19.4484L152.961 19.6136L153.016 19.8889ZM152.356 17.4664L152.961 17.3013L152.906 17.0811L152.301 17.2462L152.356 17.4664ZM152.796 21.5405L153.402 21.3753L153.347 21.1551L152.741 21.3203L152.796 21.5405ZM151.585 19.008L151.86 18.9529L151.75 18.4574L151.475 18.5125L151.585 19.008ZM153.842 19.6686C153.842 19.6686 153.897 19.6686 153.842 19.6686L154.338 19.5585C154.338 19.5585 154.338 19.5585 154.338 19.5035L154.282 19.2833L153.787 19.3934L153.842 19.6686ZM152.741 17.9069L153.071 17.7968C153.071 17.7968 153.071 17.7968 153.071 17.7417L153.016 17.5215L152.631 17.6316L152.741 17.9069ZM152.631 20.8248L152.686 21.045L153.071 20.9349L153.016 20.6596L152.631 20.8248C152.631 20.7697 152.631 20.7697 152.631 20.8248ZM151.75 17.6316L152.136 17.5215L152.081 17.3013L151.695 17.4114L151.75 17.6316ZM153.677 21.3203L154.062 21.2102L154.007 20.99L153.622 21.1001L153.677 21.3203ZM153.842 17.5766C153.842 17.6316 153.842 17.6316 153.842 17.5766L154.117 17.5215L154.062 17.2462L153.787 17.3013L153.842 17.5766ZM151.695 21.3203L151.971 21.2652L151.916 21.045C151.916 21.045 151.915 21.045 151.86 21.045L151.64 21.1001L151.695 21.3203ZM154.558 20.2742L154.613 20.4945L154.888 20.4394L154.833 20.1641L154.558 20.2742ZM153.567 18.4574L153.622 18.6777L153.897 18.6226L153.842 18.4024C153.842 18.4024 153.842 18.4024 153.787 18.4024L153.567 18.4574ZM151.695 20.2192C151.695 20.2742 151.695 20.2742 151.695 20.2192L151.916 20.1641C151.916 20.1641 151.916 20.1641 151.916 20.1091L151.86 19.8889L151.585 19.9439L151.695 20.2192ZM153.732 19.1732L154.007 19.1181L153.952 18.8979L153.677 18.9529L153.732 19.1732ZM151.31 20.8798L152.081 20.6596L152.301 21.4304L151.53 21.6506L151.31 20.8798ZM151.035 20.7147L152.246 20.3844L152.576 21.5956L151.365 21.9259L151.035 20.7147ZM154.227 20.1091L154.998 19.8889L155.218 20.6596L154.448 20.8798L154.227 20.1091ZM153.952 19.8889L155.163 19.5585L155.494 20.7697L154.282 21.1001L153.952 19.8889ZM153.457 17.1912L154.227 16.971L154.448 17.7417L153.677 17.9619L153.457 17.1912ZM153.182 17.026L154.393 16.6957L154.723 17.9069L153.512 18.2372L153.182 17.026ZM152.631 18.4574L153.016 18.3473L153.292 19.3383L153.567 19.2833L153.237 18.0721C153.237 18.0721 153.237 18.0721 153.182 18.0721L152.576 18.2372L152.631 18.4574ZM149.328 15.5946L154.117 14.3283C154.227 14.2733 154.393 14.3834 154.448 14.4935C154.503 14.6036 154.393 14.7688 154.282 14.8238L149.493 16.0901C149.383 16.1451 149.218 16.035 149.163 15.9249C149.108 15.8148 149.163 15.6496 149.328 15.5946ZM149.549 16.5856L154.338 15.3193C154.448 15.2643 154.613 15.3744 154.668 15.4845C154.723 15.5946 154.613 15.7597 154.503 15.8148L149.714 17.0811C149.604 17.1361 149.438 17.026 149.383 16.9159C149.328 16.7507 149.438 16.6406 149.549 16.5856ZM157.971 14.7137L159.292 19.6686C159.512 20.4945 159.016 21.3753 158.136 21.6506L157.916 21.7057V21.045H157.971C158.521 20.8798 158.796 20.3293 158.686 19.8338L157.916 17.026V14.7137H157.971ZM147.457 2.60163L149.218 2.10614C149.714 1.99603 150.319 2.21625 150.484 2.7668L150.649 4.63866L153.457 3.86789C154.282 3.64768 155.163 4.14316 155.438 5.02404L156.264 8.21723V10.5295L154.833 5.18921C154.668 4.63866 154.117 4.36338 153.622 4.47349L150.705 5.24427L150.815 7.06108C150.044 7.2813 149.328 7.44646 148.558 7.66668L147.787 6.01503L144.87 6.7858C144.319 6.95097 144.044 7.50152 144.154 7.99701L148.062 22.6967C148.227 23.2472 148.778 23.5225 149.273 23.4124L156.209 21.5405V22.1461L149.383 23.9629C148.558 24.1831 147.677 23.6876 147.402 22.8068L143.493 8.10712C143.273 7.28129 143.769 6.40041 144.649 6.12514L147.457 5.35437L146.631 3.64767C146.521 3.26229 146.961 2.71174 147.457 2.60163Z" fill="#00ADEE"/>
<path fillRule="evenodd" clipRule="evenodd" d="M169.53 0.785051H158.576C158.301 0.785051 158.026 0.895164 157.806 1.11538C157.585 1.3356 157.475 1.61087 157.475 1.88615V24.1834C157.475 24.4586 157.585 24.7339 157.806 24.9541C158.026 25.1744 158.301 25.2845 158.576 25.2845H169.53C169.806 25.2845 170.081 25.1744 170.301 24.9541C170.521 24.7339 170.631 24.4586 170.631 24.1834V1.88615C170.631 1.61087 170.521 1.3356 170.301 1.11538C170.136 0.950219 169.861 0.785051 169.53 0.785051ZM164.081 21.9261C164.686 21.9261 165.127 22.4216 165.127 22.9722C165.127 23.5778 164.631 24.0182 164.081 24.0182C163.475 24.0182 163.035 23.5227 163.035 22.9722C162.98 22.3666 163.475 21.9261 164.081 21.9261ZM162.264 1.94121H165.842C166.173 1.94121 166.448 2.21648 166.448 2.5468C166.448 2.87713 166.173 3.15241 165.842 3.15241H162.264C161.934 3.15241 161.659 2.87713 161.659 2.5468C161.659 2.21648 161.934 1.94121 162.264 1.94121ZM162.429 14.1634C162.429 14.2184 162.429 14.2184 162.429 14.1634L162.87 14.2184V15.0993C162.87 15.1544 162.87 15.1544 162.925 15.1544H164.026V14.6589H163.365V13.7229H162.429V14.1634ZM161.989 13.2825H164.081V12.8421H162.429V12.4016H161.934V13.2825H161.989ZM161.989 10.0893H161.053V10.5848H162.429V9.20845H161.934V10.0893H161.989ZM160.613 9.64889H161.549V9.15339H160.173V10.5298H160.668V9.64889H160.613ZM160.173 12.3466H161.108V13.2825H161.604V11.9612C161.604 11.9061 161.604 11.9061 161.549 11.9061H160.228V12.3466H160.173ZM166.558 11.9612V13.2825H167.053V12.3466H167.989V11.8511L166.558 11.9612C166.558 11.9061 166.558 11.9061 166.558 11.9612ZM162.87 11.4106C162.87 11.4657 162.925 11.4657 162.87 11.4106L163.365 11.4657V10.5298H164.026V10.0343H162.87V11.4106ZM164.741 15.5398H164.081V16.0352H165.237V14.7139C165.237 14.6589 165.237 14.6589 165.182 14.6589H164.741V15.5398ZM160.173 14.2184H161.053C161.108 14.2184 161.108 14.2184 161.108 14.1634V13.778C161.108 13.7229 161.108 13.7229 161.053 13.7229H160.613V12.787H160.173V14.2184ZM167.494 13.7229H167.053C166.998 13.7229 166.998 13.7229 166.998 13.778V14.1634C166.998 14.2184 166.998 14.2184 167.053 14.2184H167.934V12.8421H167.494V13.7229ZM160.173 11.4657H161.549V11.0253C161.549 10.9702 161.549 10.9702 161.494 10.9702H160.173V11.4657ZM162.87 11.9612V12.4016H164.026V11.9061L162.87 11.9612C162.925 11.9061 162.87 11.9061 162.87 11.9612ZM164.026 14.2184H165.127C165.182 14.2184 165.182 14.2184 165.182 14.1634V13.7229H164.026V14.2184ZM164.026 9.59383H165.182V9.15339H164.026V9.59383ZM162.87 16.9712H164.026V16.5307H162.87V16.9712ZM161.989 11.9061H162.485V10.9702H161.989V11.9061ZM165.622 14.1634C165.622 14.2184 165.677 14.2184 165.622 14.1634L166.503 14.2184C166.558 14.2184 166.558 14.2184 166.558 14.1634V13.7229H165.622V14.1634ZM164.521 10.5298H165.182C165.237 10.5298 165.237 10.5298 165.237 10.4747V10.0343H164.521V10.5298ZM162.87 15.5948V16.0352H163.585V15.5398L162.87 15.5948C162.925 15.5398 162.87 15.5948 162.87 15.5948ZM162.87 9.59383H163.585V9.15339H162.87V9.59383ZM164.521 16.9712H165.237V16.5307H164.521V16.9712ZM166.558 10.4747C166.558 10.5298 166.558 10.5298 166.558 10.4747L167.053 10.5298V10.0343H166.558V10.4747ZM161.053 16.0352H161.549V15.5948C161.549 15.5398 161.549 15.5398 161.494 15.5398H161.053V16.0352ZM166.558 15.5948V16.0352H167.053V15.5398L166.558 15.5948C166.558 15.5398 166.558 15.5948 166.558 15.5948ZM165.622 11.9612V12.4016H166.118V11.9612C166.118 11.9061 166.118 11.9061 166.063 11.9061L165.622 11.9612C165.677 11.9061 165.622 11.9061 165.622 11.9612ZM161.494 14.1634C161.494 14.2184 161.549 14.2184 161.494 14.1634L161.934 14.2184C161.989 14.2184 161.989 14.2184 161.989 14.1634V13.7229H161.494V14.1634ZM165.622 13.2825H166.118V12.8421H165.622V13.2825ZM160.613 15.0993H162.044V16.5307H160.613V15.0993ZM160.173 14.6589H162.485V16.9712H160.173V14.6589ZM166.118 15.0993H167.549V16.5307H166.118V15.0993ZM165.677 14.6589H167.989V16.9712H165.677V14.6589ZM166.118 9.59383H167.549V11.0253H166.118V9.59383ZM165.677 9.15339H167.989V11.4657H165.677V9.15339ZM164.026 11.4657H164.686V13.2825H165.182V11.0253C165.182 10.9702 165.182 10.9702 165.127 10.9702H164.026V11.4657ZM158.576 0.0693359H169.53C170.026 0.0693359 170.466 0.289555 170.796 0.619885C171.127 0.950214 171.347 1.39065 171.347 1.88615V24.1834C171.347 24.6789 171.127 25.1193 170.796 25.4496C170.466 25.78 170.026 26.0002 169.53 26.0002H158.576C158.081 26.0002 157.64 25.78 157.31 25.4496C156.98 25.1193 156.76 24.6789 156.76 24.1834V1.88615C156.76 1.39065 156.98 0.950214 157.31 0.619885C157.585 0.289555 158.081 0.0693359 158.576 0.0693359Z" fill="white"/>
</svg>
