<svg width="28" height="28" viewBox="0 0 28 28" fill="none" xmlns="http://www.w3.org/2000/svg">
<path d="M24.4382 9.69278C24.4265 8.80917 24.261 7.93436 23.9494 7.10745C23.6792 6.40996 23.2664 5.77651 22.7374 5.24758C22.2085 4.71865 21.5751 4.30587 20.8776 4.03561C20.0613 3.7292 19.199 3.56351 18.3272 3.54561C17.2049 3.49545 16.8491 3.48145 14.0001 3.48145C11.1511 3.48145 10.7859 3.48145 9.67175 3.54561C8.80043 3.56364 7.93849 3.72932 7.12258 4.03561C6.42498 4.30568 5.79144 4.7184 5.26249 5.24735C4.73353 5.7763 4.32082 6.40985 4.05075 7.10745C3.74372 7.9231 3.57839 8.78524 3.56192 9.65661C3.51175 10.7801 3.49658 11.1359 3.49658 13.9849C3.49658 16.8339 3.49658 17.1979 3.56192 18.3133C3.57942 19.1859 3.74392 20.0469 4.05192 20.8648C4.32231 21.5621 4.73515 22.1953 5.26407 22.724C5.793 23.2527 6.42637 23.6653 7.12375 23.9354C7.93741 24.2542 8.79951 24.4317 9.67292 24.4604C10.7964 24.5106 11.1522 24.5258 14.0012 24.5258C16.8502 24.5258 17.2154 24.5258 18.3296 24.4604C19.2013 24.4433 20.0637 24.278 20.8799 23.9716C21.5773 23.7012 22.2106 23.2883 22.7395 22.7594C23.2685 22.2305 23.6813 21.5972 23.9517 20.8998C24.2586 20.0831 24.4231 19.2221 24.4417 18.3483C24.4907 17.2259 24.5059 16.8701 24.5059 14.0199C24.5036 11.1709 24.5036 10.8093 24.4382 9.69278ZM13.9931 19.3726C13.2848 19.3728 12.5833 19.2334 11.9289 18.9624C11.2745 18.6914 10.6798 18.2941 10.179 17.7932C9.6781 17.2924 9.28082 16.6977 9.00983 16.0433C8.73883 15.3889 8.59943 14.6874 8.59958 13.9791C8.59981 12.9127 8.91623 11.8703 9.50884 10.9837C10.1014 10.0971 10.9436 9.40618 11.9289 8.99819C12.9142 8.5902 13.9983 8.48351 15.0442 8.69162C16.0901 8.89972 17.0508 9.41326 17.8049 10.1673C18.5589 10.9214 19.0725 11.8821 19.2806 12.928C19.4887 13.9739 19.382 15.058 18.974 16.0433C18.566 17.0286 17.875 17.8707 16.9885 18.4634C16.1019 19.056 15.0595 19.3724 13.9931 19.3726ZM19.6012 9.64378C19.4331 9.64906 19.2656 9.62052 19.1087 9.55985C18.9518 9.49919 18.8087 9.40763 18.6878 9.29062C18.5669 9.1736 18.4708 9.03351 18.4051 8.87864C18.3394 8.72377 18.3055 8.55729 18.3053 8.38906C18.3052 8.22084 18.3388 8.05429 18.4042 7.89931C18.4696 7.74432 18.5655 7.60404 18.6861 7.4868C18.8068 7.36956 18.9497 7.27774 19.1065 7.21678C19.2633 7.15583 19.4308 7.12698 19.5989 7.13195C19.9254 7.14159 20.2353 7.27798 20.4629 7.51221C20.6905 7.74645 20.818 8.06011 20.8183 8.38673C20.8186 8.71335 20.6917 9.02725 20.4645 9.26191C20.2373 9.49656 19.9277 9.63353 19.6012 9.64378Z" fill="#FAFAFA"/>
<path d="M13.9928 17.4801C14.9219 17.4801 15.8131 17.111 16.4701 16.454C17.1271 15.797 17.4963 14.9058 17.4963 13.9766C17.4963 13.0475 17.1271 12.1563 16.4701 11.4993C15.8131 10.8423 14.9219 10.4731 13.9928 10.4731C13.0636 10.4731 12.1724 10.8423 11.5154 11.4993C10.8584 12.1563 10.4893 13.0475 10.4893 13.9766C10.4893 14.9058 10.8584 15.797 11.5154 16.454C12.1724 17.111 13.0636 17.4801 13.9928 17.4801Z" fill="#FAFAFA"/>
</svg>
