<svg width="28" height="28" viewBox="0 0 28 28" fill="none" xmlns="http://www.w3.org/2000/svg">
<path d="M17.6751 9.79766C16.7809 9.79459 15.8949 9.96787 15.0677 10.3076C14.2406 10.6473 13.4885 11.1468 12.8546 11.7774C12.2207 12.4081 11.7174 13.1576 11.3734 13.983C11.0295 14.8083 10.8516 15.6935 10.8501 16.5877V23.4477C10.8501 23.7261 10.9607 23.9932 11.1576 24.1901C11.3545 24.387 11.6216 24.4977 11.9001 24.4977H14.3501C14.6286 24.4977 14.8956 24.387 15.0926 24.1901C15.2895 23.9932 15.4001 23.7261 15.4001 23.4477V16.5877C15.4001 16.2697 15.467 15.9553 15.5965 15.6649C15.726 15.3745 15.9153 15.1146 16.1519 14.9022C16.3885 14.6898 16.6672 14.5296 16.9699 14.432C17.2725 14.3345 17.5923 14.3018 17.9084 14.336C18.4754 14.4074 18.9965 14.6844 19.3728 15.1145C19.7492 15.5446 19.9546 16.0979 19.9501 16.6693V23.4477C19.9501 23.7261 20.0607 23.9932 20.2576 24.1901C20.4545 24.387 20.7216 24.4977 21.0001 24.4977H23.4501C23.7286 24.4977 23.9956 24.387 24.1926 24.1901C24.3895 23.9932 24.5001 23.7261 24.5001 23.4477V16.5877C24.4989 15.6934 24.3213 14.8081 23.9774 13.9826C23.6335 13.1571 23.1302 12.4075 22.4962 11.7767C21.8623 11.146 21.1101 10.6466 20.2828 10.307C19.4555 9.96735 18.5694 9.79428 17.6751 9.79766Z" fill="#FAFAFA"/>
<path d="M7.7 10.8466H4.55C4.27152 10.8466 4.00445 10.9572 3.80754 11.1541C3.61062 11.351 3.5 11.6181 3.5 11.8966V23.4466C3.5 23.725 3.61062 23.9921 3.80754 24.189C4.00445 24.3859 4.27152 24.4966 4.55 24.4966H7.7C7.83789 24.4966 7.97443 24.4694 8.10182 24.4166C8.22921 24.3639 8.34496 24.2865 8.44246 24.189C8.53996 24.0915 8.61731 23.9758 8.67007 23.8484C8.72284 23.721 8.75 23.5844 8.75 23.4466V11.8966C8.75 11.7587 8.72284 11.6221 8.67007 11.4947C8.61731 11.3673 8.53996 11.2516 8.44246 11.1541C8.34496 11.0566 8.22921 10.9793 8.10182 10.9265C7.97443 10.8737 7.83789 10.8466 7.7 10.8466Z" fill="#FAFAFA"/>
<path d="M6.125 8.75C6.46972 8.75 6.81106 8.6821 7.12954 8.55018C7.44802 8.41827 7.7374 8.22491 7.98115 7.98115C8.22491 7.7374 8.41827 7.44802 8.55018 7.12954C8.6821 6.81106 8.75 6.46972 8.75 6.125C8.75 5.78028 8.6821 5.43894 8.55018 5.12046C8.41827 4.80198 8.22491 4.5126 7.98115 4.26884C7.7374 4.02509 7.44802 3.83173 7.12954 3.69982C6.81106 3.5679 6.46972 3.5 6.125 3.5C5.42881 3.5 4.76113 3.77656 4.26884 4.26884C3.77656 4.76113 3.5 5.42881 3.5 6.125C3.5 6.82119 3.77656 7.48887 4.26884 7.98115C4.76113 8.47344 5.42881 8.75 6.125 8.75Z" fill="#FAFAFA"/>
</svg>
