<svg width="22" height="20" viewBox="0 0 22 20" fill="none" xmlns="http://www.w3.org/2000/svg">
<path d="M6.42684 19.33C8.1519 19.3874 9.87097 19.0985 11.4825 18.4804C13.094 17.8622 14.5653 16.9274 15.8095 15.7311C17.0537 14.5347 18.0455 13.1012 18.7263 11.5151C19.4072 9.92909 19.7632 8.22266 19.7735 6.49667C20.564 5.51829 21.1511 4.39178 21.5002 3.18334C21.5262 3.08786 21.5241 2.98689 21.4941 2.89258C21.4641 2.79827 21.4075 2.71464 21.331 2.65177C21.2546 2.58889 21.1616 2.54946 21.0633 2.5382C20.965 2.52695 20.8655 2.54436 20.7768 2.58834C20.3632 2.78744 19.8976 2.85175 19.4455 2.77221C18.9934 2.69268 18.5777 2.47331 18.2568 2.14501C17.8473 1.69652 17.3519 1.33479 16.8 1.08127C16.248 0.827752 15.6509 0.687592 15.0438 0.669097C14.4367 0.650602 13.8321 0.754148 13.2658 0.9736C12.6994 1.19305 12.1829 1.52395 11.7468 1.94667C11.1497 2.52494 10.7124 3.24785 10.4773 4.04513C10.2422 4.84241 10.2173 5.68695 10.4052 6.49667C6.49684 6.73001 3.8135 4.87501 1.66684 2.33167C1.60235 2.25864 1.51799 2.20597 1.42406 2.18009C1.33013 2.15421 1.23069 2.15624 1.1379 2.18593C1.0451 2.21563 0.962965 2.2717 0.901511 2.3473C0.840056 2.42291 0.801947 2.51477 0.791837 2.61167C0.382885 4.88017 0.677888 7.21948 1.63722 9.31542C2.59656 11.4114 4.17429 13.1636 6.1585 14.3367C4.82808 15.8625 2.95975 16.8154 0.943504 16.9967C0.835485 17.0146 0.735769 17.0658 0.658314 17.1432C0.580858 17.2206 0.529539 17.3203 0.511538 17.4283C0.493537 17.5363 0.509756 17.6472 0.557924 17.7456C0.606093 17.8439 0.6838 17.9247 0.78017 17.9767C2.53428 18.8533 4.46594 19.3162 6.42684 19.33Z" fill="#FAFAFA"/>
</svg>
