<svg width="38" height="38" viewBox="0 0 38 38" fill="none" xmlns="http://www.w3.org/2000/svg">
<path fillRule="evenodd" clipRule="evenodd" d="M18.8839 3.14728C10.1974 3.14728 3.14746 10.1972 3.14746 18.8837C3.14746 27.5702 10.1974 34.6201 18.8839 34.6201C27.5704 34.6201 34.6203 27.5702 34.6203 18.8837C34.6203 10.1972 27.5704 3.14728 18.8839 3.14728ZM28.8923 26.4844C26.642 23.7463 21.1814 22.8178 18.8839 22.8178C16.5864 22.8178 11.1258 23.7463 8.87552 26.4844C7.27041 24.3757 6.29475 21.7477 6.29475 18.8837C6.29475 11.9439 11.9441 6.29456 18.8839 6.29456C25.8237 6.29456 31.473 11.9439 31.473 18.8837C31.473 21.7477 30.4974 24.3757 28.8923 26.4844ZM13.3761 14.9496C13.3761 11.8967 15.831 9.44185 18.8839 9.44185C21.9368 9.44185 24.3916 11.8967 24.3916 14.9496C24.3916 18.0025 21.9368 20.4574 18.8839 20.4574C15.831 20.4574 13.3761 18.0025 13.3761 14.9496Z" fill="#086EAE"/>
</svg>
