<svg width="16" height="16" viewBox="0 0 16 16" fill="none" xmlns="http://www.w3.org/2000/svg">
<path d="M8.86024 6.1902L6.19357 8.85687C6.13101 8.9188 6.08134 8.99252 6.04744 9.07376C6.01355 9.15501 5.99609 9.24217 5.99609 9.3302C5.99609 9.41823 6.01355 9.50539 6.04744 9.58664C6.08134 9.66789 6.13101 9.74161 6.19357 9.80353C6.25555 9.86602 6.32928 9.91562 6.41052 9.94946C6.49176 9.98331 6.5789 10.0007 6.66691 10.0007C6.75491 10.0007 6.84205 9.98331 6.92329 9.94946C7.00453 9.91562 7.07826 9.86602 7.14024 9.80353L9.80691 7.13687C9.93244 7.01133 10.003 6.84107 10.003 6.66354C10.003 6.486 9.93244 6.31574 9.80691 6.1902C9.68137 6.06467 9.51111 5.99414 9.33357 5.99414C9.15604 5.99414 8.98578 6.06467 8.86024 6.1902Z" fill="#FAFAFA"/>
<path d="M8.18669 11.5983L7.33335 12.4449C6.8543 12.9386 6.21031 13.2386 5.52421 13.2878C4.83811 13.3369 4.15791 13.1319 3.61335 12.7116C3.32553 12.4744 3.09066 12.1795 2.92391 11.8459C2.75716 11.5123 2.66224 11.1475 2.64528 10.7749C2.62831 10.4024 2.68969 10.0304 2.82543 9.68301C2.96118 9.33564 3.16828 9.02061 3.43335 8.75827L4.38002 7.80494C4.45871 7.7274 4.5169 7.63153 4.54936 7.52594C4.58182 7.42035 4.58753 7.30835 4.56598 7.2C4.54443 7.09166 4.49629 6.99036 4.4259 6.90523C4.3555 6.8201 4.26506 6.75379 4.16269 6.71227C4.04037 6.66139 3.90567 6.6481 3.77577 6.6741C3.64587 6.70011 3.52666 6.76422 3.43335 6.85827L2.58669 7.7116C1.87346 8.40227 1.43508 9.32828 1.35293 10.3177C1.27079 11.3071 1.55046 12.2928 2.14002 13.0916C2.48994 13.5456 2.93245 13.9199 3.43815 14.1896C3.94385 14.4594 4.50116 14.6185 5.07307 14.6563C5.64499 14.6942 6.2184 14.6099 6.75523 14.4091C7.29206 14.2083 7.78002 13.8955 8.18669 13.4916L9.13335 12.5449C9.19551 12.4828 9.24482 12.409 9.27846 12.3278C9.3121 12.2466 9.32941 12.1595 9.32941 12.0716C9.32941 11.9837 9.3121 11.8967 9.27846 11.8154C9.24482 11.7342 9.19551 11.6604 9.13335 11.5983C9.07119 11.5361 8.9974 11.4868 8.91619 11.4532C8.83497 11.4195 8.74793 11.4022 8.66002 11.4022C8.57211 11.4022 8.48507 11.4195 8.40385 11.4532C8.32264 11.4868 8.24885 11.5361 8.18669 11.5983Z" fill="#FAFAFA"/>
<path d="M13.1069 2.14702C12.3025 1.55133 11.3088 1.26881 10.3114 1.35223C9.31401 1.43566 8.38107 1.87932 7.68686 2.60035L6.96686 3.33368C6.88457 3.39351 6.81575 3.46995 6.76487 3.55805C6.71399 3.64616 6.68218 3.74397 6.6715 3.84515C6.66081 3.94633 6.6715 4.04862 6.70285 4.14541C6.73421 4.2422 6.78554 4.33132 6.85353 4.40702C6.9155 4.4695 6.98924 4.5191 7.07048 4.55294C7.15172 4.58679 7.23885 4.60422 7.32686 4.60422C7.41487 4.60422 7.50201 4.58679 7.58324 4.55294C7.66448 4.5191 7.73822 4.4695 7.80019 4.40702L8.66686 3.53368C9.14326 3.03789 9.78649 2.73624 10.4723 2.68699C11.1581 2.63774 11.8378 2.84439 12.3802 3.26702C12.6702 3.50422 12.9069 3.79985 13.075 4.13466C13.243 4.46947 13.3387 4.83593 13.3557 5.21017C13.3727 5.58441 13.3106 5.95803 13.1735 6.30668C13.0365 6.65533 12.8275 6.97119 12.5602 7.23368L11.6135 8.18702C11.551 8.24899 11.5014 8.32273 11.4676 8.40396C11.4338 8.4852 11.4163 8.57234 11.4163 8.66035C11.4163 8.74836 11.4338 8.83549 11.4676 8.91673C11.5014 8.99797 11.551 9.07171 11.6135 9.13368C11.6755 9.19609 11.7493 9.24561 11.8305 9.27941C11.9118 9.3132 11.9989 9.3306 12.0869 9.3306C12.1748 9.3306 12.262 9.3132 12.3432 9.27941C12.4244 9.24561 12.4982 9.19609 12.5602 9.13368L13.5069 8.18702C13.9097 7.78047 14.2216 7.29295 14.4218 6.75676C14.622 6.22057 14.706 5.64796 14.6682 5.07686C14.6304 4.50577 14.4716 3.94923 14.2024 3.44412C13.9333 2.93902 13.5598 2.49689 13.1069 2.14702Z" fill="#FAFAFA"/>
</svg>
