<svg width="33" height="33" viewBox="0 0 33 33" fill="none" xmlns="http://www.w3.org/2000/svg">
<circle cx="16.5" cy="16.5" r="16.5" fill="#898989"/>
<path d="M23.202 10.4463C23.5131 10.1569 23.927 9.99687 24.3565 10C24.7859 10.0032 25.1973 10.1693 25.5038 10.4634C25.8104 10.7574 25.9881 11.1563 25.9994 11.576C26.0108 11.9956 25.8549 12.4031 25.5647 12.7126L16.7544 23.4826C16.6029 23.6421 16.4201 23.7701 16.2168 23.859C16.0136 23.9478 15.7941 23.9957 15.5714 23.9997C15.3488 24.0038 15.1277 23.9639 14.9212 23.8824C14.7147 23.801 14.5271 23.6797 14.3697 23.5258L8.52709 17.8149C8.36438 17.6667 8.23388 17.488 8.14337 17.2894C8.05285 17.0908 8.00418 16.8765 8.00026 16.6591C7.99633 16.4418 8.03724 16.2259 8.12053 16.0243C8.20382 15.8228 8.32779 15.6397 8.48505 15.486C8.64231 15.3322 8.82963 15.2111 9.03584 15.1297C9.24205 15.0482 9.46292 15.0083 9.68528 15.0121C9.90764 15.0159 10.1269 15.0635 10.3301 15.152C10.5332 15.2404 10.716 15.368 10.8677 15.527L15.4914 20.0444L23.1601 10.4938C23.1739 10.4772 23.1886 10.4614 23.2042 10.4463H23.202Z" fill="white"/>
</svg>
