<svg width="32" height="32" viewBox="0 0 32 32" fill="none" xmlns="http://www.w3.org/2000/svg">
<ellipse rx="14.7778" ry="14.7778" transform="matrix(-1 0 0 1 15.647 15.9995)" fill="white"/>
<path d="M16.6897 13.3183C17.1918 13.3093 17.6933 13.2955 18.1989 13.3073C19.2609 13.3322 20.2906 13.515 21.2717 13.9304C21.5926 14.0599 21.8952 14.2315 22.1717 14.4407C22.4997 14.6948 22.8104 14.969 23.0224 15.3339C23.1555 15.5631 23.327 15.7666 23.4238 16.0214C23.4807 16.1717 23.4972 16.3289 23.5411 16.4791C23.6954 17.0088 23.6947 17.5641 23.6213 18.1028C23.551 18.5339 23.3977 18.947 23.1699 19.3186C23.0511 19.5402 22.9146 19.7516 22.7617 19.9507C22.6293 20.1114 22.4818 20.2609 22.3549 20.4271C22.0839 20.7816 21.7574 21.0856 21.4693 21.4255C21.2559 21.6783 21.0796 21.9573 20.8923 22.2225C20.7031 22.4957 20.5311 22.7806 20.3771 23.0755C20.1281 23.5436 19.8969 24.0185 19.665 24.4963C19.4592 24.9207 19.3007 25.3632 19.1045 25.7904C18.992 26.0355 18.9467 26.3152 18.8088 26.5471C18.6435 26.8241 18.5385 27.144 18.2291 27.3351C17.9547 27.5026 17.7125 27.4473 17.4608 27.3517C17.3927 27.3355 17.3281 27.3071 17.27 27.2679C17.0704 27.1024 17.0725 26.8954 17.0821 26.6676C17.0859 26.4585 17.1304 26.2522 17.2131 26.0604C17.3208 25.8236 17.4313 25.5882 17.5397 25.3521C17.648 25.116 17.7626 24.8674 17.8676 24.6265C18.0082 24.3003 18.1475 23.9735 18.2792 23.6426C18.319 23.5408 18.365 23.3829 18.2703 23.3234C18.1489 23.2472 18.0453 23.3864 17.965 23.4702C17.6549 23.7928 17.41 24.1695 17.1349 24.5212C16.8015 24.9477 16.4653 25.3729 16.1196 25.7883C15.8026 26.1587 15.5179 26.5534 15.1982 26.9203C14.8785 27.2873 14.4841 27.3815 14.032 27.3115C13.8749 27.2873 13.7967 27.1585 13.7452 27.0304C13.6162 26.7112 13.68 26.4073 13.857 26.1227C14.0938 25.7526 14.3491 25.3949 14.622 25.0509C14.9053 24.686 15.2215 24.3474 15.4994 23.9784C15.723 23.6813 16.0119 23.4397 16.1985 23.1136C16.2671 22.9896 16.2595 22.7674 16.1758 22.6815C16.1031 22.6068 16.0537 22.6061 15.9645 22.6767C15.6116 22.9645 15.2291 23.2134 14.8236 23.4189C14.4436 23.6038 14.0937 23.8503 13.7226 24.0559C13.5593 24.1466 13.3994 24.245 13.2341 24.3329C12.7827 24.5637 12.3414 24.8116 11.9101 25.0765C11.4552 25.3535 10.905 25.2025 10.7047 24.6895C10.5675 24.3391 10.643 24.1626 10.9037 23.9105C11.2638 23.5643 11.696 23.3303 12.1193 23.0914C12.5426 22.8526 12.9556 22.6068 13.3768 22.3713C13.7356 22.1712 14.0841 21.9559 14.4498 21.7676C14.6377 21.6713 14.8257 21.5945 14.9609 21.4158C14.9897 21.3852 15.0089 21.3466 15.016 21.3049C15.0231 21.2633 15.0177 21.2204 15.0006 21.1818C14.8566 20.8799 14.2343 21.0433 13.9963 21.0911C13.4927 21.1957 12.9672 21.2012 12.4513 21.2573C12.0342 21.3087 11.6137 21.3256 11.1938 21.3078C10.8831 21.2905 10.5936 21.1624 10.4831 20.8619C10.4035 20.6459 10.3802 20.3856 10.5332 20.1564C10.6944 19.9147 10.9153 19.8102 11.1932 19.7368C11.8902 19.5609 12.5995 19.6032 13.3048 19.5595C14.1582 19.5062 15.0089 19.4211 15.8602 19.3518C16.5984 19.293 17.2453 19.2251 17.7901 18.6594C18.0031 18.4446 18.1658 18.1844 18.2662 17.8978C18.424 17.4673 18.4432 16.9975 18.321 16.5553C18.2216 16.2091 18.0645 15.9321 17.7873 15.7244C17.5738 15.572 17.3366 15.4566 17.0855 15.3831C16.5422 15.2037 15.9789 15.2446 15.4246 15.1871C15.0754 15.1497 14.7125 15.1996 14.3688 15.0625C14.246 15.0133 14.0944 15.0189 13.9627 14.9732C13.879 14.9429 13.8045 14.891 13.7468 14.8228C13.689 14.7545 13.6499 14.6722 13.6334 14.584C13.5991 14.4371 13.5967 14.2844 13.6264 14.1364C13.6561 13.9884 13.7173 13.8487 13.8056 13.7269C13.9476 13.5274 14.1486 13.4298 14.3901 13.3807C14.9924 13.2671 15.605 13.3246 16.2136 13.3204C16.372 13.3239 16.5312 13.3211 16.6897 13.3183Z" fill="#3CC7BA"/>
<path d="M17.1766 12.1768C16.3493 12.1768 15.5219 12.181 14.6939 12.1768C14.1917 12.1734 13.7629 12.3617 13.363 12.6511C13.017 12.9011 12.7626 13.2594 12.6392 13.6703C12.5349 13.9853 12.4986 14.3191 12.5329 14.6494C12.6241 15.3674 13.0392 15.85 13.6456 16.1622C14.2411 16.469 14.8963 16.4697 15.55 16.4343C15.8119 16.4121 16.0752 16.4163 16.3362 16.4468C16.6155 16.4883 16.9269 16.5389 17.0483 16.8338C17.0978 16.9663 17.1177 17.1082 17.1067 17.2493C17.1046 17.4161 17.0696 17.5809 17.0037 17.734C16.9529 17.8384 16.8816 17.9312 16.7941 18.0069C16.7066 18.0826 16.6047 18.1396 16.4947 18.1743C15.9939 18.3446 15.4766 18.2844 14.9635 18.2207C14.8674 18.2082 14.7707 18.2048 14.6747 18.1951C13.5674 18.0829 12.3572 18.1542 11.2658 17.8399C10.9845 17.7582 10.6984 17.7014 10.4199 17.5955C10.177 17.5041 9.93075 17.421 9.69475 17.3123C9.27353 17.1184 8.85162 16.9059 8.52232 16.5818C8.28358 16.3478 8.0421 16.0971 7.87127 15.7953C7.68673 15.4608 7.50768 15.1299 7.42124 14.7491C7.34303 14.4029 7.25247 14.0643 7.28403 13.7105C7.30795 13.4462 7.3499 13.1838 7.40958 12.9253C7.4598 12.6902 7.53264 12.4606 7.62705 12.2398C7.81986 11.8089 8.08282 11.4136 8.40501 11.0704C8.77821 10.6626 9.19052 10.2942 9.59253 9.91479C9.8582 9.6707 10.0988 9.40023 10.3108 9.10747C10.5729 8.73427 10.8631 8.38046 11.1135 7.99964C11.3879 7.58005 11.6506 7.148 11.8887 6.70556C12.0821 6.34552 12.2722 5.98202 12.4512 5.61297C12.666 5.16777 12.8546 4.70525 13.1633 4.3092C13.2817 4.16194 13.445 4.05832 13.6277 4.01449C13.8105 3.97065 14.0025 3.98907 14.1739 4.06687C14.2274 4.0911 14.285 4.08833 14.3399 4.1361C14.4671 4.25201 14.5553 4.4051 14.5922 4.57403C14.6291 4.74296 14.6128 4.9193 14.5457 5.07845C14.3344 5.60189 14.0236 6.06856 13.7609 6.56224C13.5482 6.96175 13.3451 7.3668 13.1482 7.77461C13.12 7.85637 13.1126 7.94403 13.127 8.02941C13.1352 8.12981 13.2093 8.09034 13.2525 8.06196C13.4442 7.95057 13.6166 7.80838 13.7629 7.64098C14.0072 7.33633 14.2802 7.05799 14.5491 6.77619C14.7735 6.54147 14.9902 6.29913 15.2125 6.06164C15.476 5.77984 15.7421 5.5008 16.0056 5.21831C16.1709 5.03967 16.3232 4.84719 16.4995 4.68032C16.6087 4.57805 16.7354 4.49664 16.8734 4.44006C17.0517 4.36812 17.2435 4.33623 17.4353 4.34659C17.6719 4.35905 17.9649 4.5827 17.9731 4.87627C17.9848 5.27924 17.8105 5.57766 17.567 5.85323C17.3234 6.1288 17.0778 6.43553 16.8123 6.70764C16.5002 7.02337 16.2018 7.35364 15.904 7.68391C15.6948 7.91517 15.4368 8.09935 15.255 8.35484C15.1832 8.44058 15.1339 8.54321 15.1117 8.65326C15.1066 8.69577 15.1141 8.73885 15.1333 8.77705C15.1525 8.81525 15.1824 8.84686 15.2194 8.8679C15.417 9.00638 15.8327 8.59925 15.9905 8.50301C16.4467 8.22605 16.9509 8.05226 17.4346 7.83555C17.8133 7.6666 18.1961 7.50112 18.5672 7.31764C18.8999 7.15216 19.2409 6.99983 19.564 6.81081C19.9756 6.57055 20.5204 6.72564 20.7721 7.14177C20.8682 7.30102 20.8099 7.78362 20.6781 7.92279C20.4627 8.15058 20.1924 8.29875 19.9187 8.43792C19.586 8.60687 19.2553 8.78412 18.9116 8.92675C18.5 9.09985 18.1131 9.32972 17.6946 9.49174C17.4092 9.60183 17.1458 9.76524 16.8604 9.88225C16.7149 9.94249 16.586 10.0297 16.4426 10.09C16.3633 10.1327 16.2989 10.1989 16.258 10.2797C16.1695 10.4182 16.304 10.5989 16.5023 10.6106C16.6847 10.6217 16.8672 10.6176 17.0511 10.6183C17.1252 10.6183 17.1993 10.6093 17.2734 10.6106C18.0232 10.6252 18.7696 10.4922 19.5201 10.5414C19.7945 10.5594 20.0792 10.5739 20.3392 10.693C20.5992 10.8121 20.803 11.1279 20.7872 11.3854C20.768 11.6908 20.5128 11.9954 20.2329 12.1021C19.9729 12.2004 19.7067 12.1851 19.4419 12.1879C18.6873 12.1962 17.9326 12.1879 17.1821 12.1879L17.1766 12.1768Z" fill="#3CC7BA"/>
</svg>
