<svg width="18" height="17" viewBox="0 0 18 17" fill="none" xmlns="http://www.w3.org/2000/svg">
<g clip-path="url(#clip0_1877_6832)">
<path d="M8.85992 6.99914C7.50992 6.99914 6.41992 5.90914 6.41992 4.55914C6.41992 3.20914 7.50992 2.11914 8.85992 2.11914C10.2099 2.11914 11.2999 3.20914 11.2999 4.55914C11.2999 5.90914 10.2099 6.99914 8.85992 6.99914ZM8.85992 3.11914C8.06992 3.11914 7.41992 3.76914 7.41992 4.55914C7.41992 5.34914 8.06992 5.99914 8.85992 5.99914C9.64992 5.99914 10.2999 5.34914 10.2999 4.55914C10.2999 3.76914 9.64992 3.11914 8.85992 3.11914Z" fill="#898989"/>
<path d="M16.46 4.5293C15.64 4.5293 14.99 5.1893 14.99 5.9993C14.99 6.0893 15 6.1893 15.02 6.2793C13.2 7.3693 11.05 7.9093 8.9 7.9093H8.88C6.78 7.9093 4.68 7.3893 2.88 6.3493C2.92 6.2393 2.93 6.1193 2.93 5.9993C2.93 5.1893 2.27 4.5293 1.46 4.5293C0.65 4.5293 0 5.1893 0 5.9993C0 6.8093 0.65 7.4693 1.46 7.4693C1.79 7.4693 2.09 7.3593 2.33 7.1793C4.03 8.1793 5.99 8.7493 7.97 8.8793L4.94 13.3293C4.86 13.3193 4.79 13.3093 4.71 13.3093C3.9 13.3093 3.24 13.9693 3.24 14.7793C3.24 15.5893 3.9 16.2493 4.71 16.2493C5.52 16.2493 6.18 15.5893 6.18 14.7793C6.18 14.4093 6.04 14.0693 5.82 13.8193L8.88 9.3193L11.87 13.9393C11.71 14.1793 11.61 14.4693 11.61 14.7793C11.61 15.5893 12.27 16.2493 13.08 16.2493C13.89 16.2493 14.55 15.5893 14.55 14.7793C14.55 13.9693 13.89 13.3093 13.08 13.3093C12.95 13.3093 12.82 13.3293 12.7 13.3693L9.79 8.8793C11.81 8.7493 13.81 8.1593 15.53 7.1293C15.78 7.3493 16.1 7.4693 16.46 7.4693C17.27 7.4693 17.92 6.8093 17.92 5.9993C17.92 5.1893 17.27 4.5293 16.46 4.5293ZM1.46 6.4693C1.21 6.4693 1 6.2593 1 5.9993C1 5.7393 1.21 5.5293 1.46 5.5293C1.71 5.5293 1.93 5.7393 1.93 5.9993C1.93 6.2593 1.72 6.4693 1.46 6.4693ZM4.71 15.2493C4.45 15.2493 4.24 15.0393 4.24 14.7793C4.24 14.5193 4.45 14.3093 4.71 14.3093C4.77 14.3093 4.84 14.3093 4.89 14.3493C5.06 14.4193 5.18 14.5893 5.18 14.7793C5.18 15.0393 4.97 15.2493 4.71 15.2493ZM13.55 14.7793C13.55 15.0393 13.34 15.2493 13.08 15.2493C12.82 15.2493 12.61 15.0393 12.61 14.7793C12.61 14.5193 12.82 14.3093 13.08 14.3093C13.34 14.3093 13.55 14.5193 13.55 14.7793ZM16.46 6.4693C16.2 6.4693 15.99 6.2593 15.99 5.9993C15.99 5.7393 16.2 5.5293 16.46 5.5293C16.72 5.5293 16.92 5.7393 16.92 5.9993C16.92 6.2593 16.71 6.4693 16.46 6.4693Z" fill="#898989"/>
<path d="M2.57001 13.53C2.41001 13.53 2.26001 13.46 2.16001 13.32C1.20001 11.96 0.550014 10.21 0.470014 8.75001C0.450014 8.47001 0.670014 8.24001 0.940014 8.22001C1.25001 8.20001 1.45001 8.42001 1.47001 8.69001C1.54001 9.97001 2.12001 11.52 2.98001 12.74C3.14001 12.97 3.09001 13.28 2.86001 13.44C2.77001 13.5 2.67001 13.53 2.57001 13.53Z" fill="#898989"/>
<path d="M8.92088 16.5899C8.17088 16.5899 7.43088 16.4899 6.71088 16.2899C6.44088 16.2199 6.29088 15.9399 6.36088 15.6699C6.43088 15.3999 6.71088 15.2499 6.98088 15.3199C8.19088 15.6499 9.51088 15.6599 10.7209 15.3599C10.9909 15.2899 11.2609 15.4499 11.3309 15.7199C11.4009 15.9899 11.2409 16.2599 10.9709 16.3299C10.3109 16.4999 9.62088 16.5799 8.93088 16.5799L8.92088 16.5899Z" fill="#898989"/>
<path d="M15.0697 13.5795C14.9597 13.5795 14.8497 13.5495 14.7597 13.4695C14.5397 13.2995 14.4997 12.9895 14.6697 12.7695C15.5897 11.5895 16.1197 10.1795 16.1997 8.68954C16.2097 8.40954 16.4497 8.18954 16.7297 8.21954C17.0097 8.22954 17.2197 8.46954 17.1997 8.74954C17.1097 10.4495 16.5097 12.0595 15.4597 13.3995C15.3597 13.5295 15.2097 13.5895 15.0697 13.5895V13.5795Z" fill="#898989"/>
<path d="M15.0887 4.03C14.9387 4.03 14.7887 3.96 14.6887 3.84C13.2987 2.04 11.1887 1.01 8.91873 1.01C6.64873 1.01 4.55873 2.03 3.16873 3.81C2.99873 4.03 2.68873 4.07 2.46873 3.9C2.24873 3.73 2.20873 3.42 2.37873 3.2C3.95873 1.17 6.34873 0 8.91873 0C11.4887 0 13.8987 1.17 15.4787 3.22C15.6487 3.44 15.6087 3.75 15.3887 3.92C15.2987 3.99 15.1887 4.02 15.0787 4.02L15.0887 4.03Z" fill="#898989"/>
</g>
<defs>
<clipPath id="clip0_1877_6832">
<rect width="17.92" height="16.59" fill="white"/>
</clipPath>
</defs>
</svg>
