<svg width="162" height="88" viewBox="0 0 162 88" fill="none" xmlns="http://www.w3.org/2000/svg">
<rect width="162" height="87.1364" rx="8" transform="matrix(-1 0 0 1 162 0)" fill="#DEDEDE"/>
<path d="M86.4078 53.1561H70.108C69.5995 53.1561 69.1117 52.9541 68.7521 52.5945C68.3925 52.2348 68.1904 51.7471 68.1904 51.2385V35.8976C68.1904 35.389 68.3925 34.9013 68.7521 34.5416C69.1117 34.182 69.5995 33.98 70.108 33.98H86.4078C86.9163 33.98 87.4041 34.182 87.7637 34.5416C88.1233 34.9013 88.3254 35.389 88.3254 35.8976V39.7903L93.5221 36.0798C93.6652 35.9779 93.8336 35.9173 94.0088 35.9045C94.184 35.8918 94.3593 35.9275 94.5156 36.0076C94.672 36.0877 94.8033 36.2093 94.8952 36.359C94.9872 36.5087 95.0362 36.6807 95.037 36.8564V50.2797C95.0362 50.4554 94.9872 50.6274 94.8952 50.7771C94.8033 50.9268 94.672 51.0484 94.5156 51.1285C94.3593 51.2086 94.184 51.2443 94.0088 51.2316C93.8336 51.2188 93.6652 51.1582 93.5221 51.0563L88.3254 47.3457V51.2385C88.3254 51.7471 88.1233 52.2348 87.7637 52.5945C87.4041 52.9541 86.9163 53.1561 86.4078 53.1561Z" fill="white"/>
</svg>
