<svg width="21" height="12" viewBox="0 0 21 12" fill="none" xmlns="http://www.w3.org/2000/svg">
<path d="M1.93997 7.318C1.85044 7.56242 1.66914 7.76229 1.43459 7.87516C1.20003 7.98803 0.930711 8.00499 0.68385 7.92244C0.436988 7.83989 0.232042 7.66434 0.112558 7.43309C-0.00692689 7.20184 -0.0315325 6.93311 0.043969 6.684C0.023969 6.744 0.043969 6.682 0.043969 6.682C0.0795331 6.57188 0.120925 6.46373 0.167969 6.358C0.247969 6.168 0.365969 5.906 0.527969 5.596C0.857969 4.976 1.37197 4.15 2.12997 3.324C3.65997 1.654 6.16597 0 9.99197 0C13.818 0 16.324 1.654 17.854 3.324C18.6706 4.21995 19.333 5.24521 19.814 6.358L19.906 6.584C19.912 6.6 19.932 6.704 19.952 6.804L19.992 7C19.992 7 20.16 7.666 19.308 7.948C19.0571 8.03179 18.7832 8.01275 18.5463 7.89505C18.3094 7.77735 18.1288 7.57058 18.044 7.32V7.314L18.032 7.282C17.9315 7.02508 17.8166 6.77402 17.688 6.53C17.3323 5.85904 16.8928 5.23603 16.38 4.676C15.16 3.346 13.166 2 9.99197 2C6.81797 2 4.82397 3.346 3.60397 4.676C2.94345 5.40014 2.4063 6.22781 2.01397 7.126C1.99299 7.17762 1.97298 7.22963 1.95397 7.282L1.93997 7.318ZM5.99197 8C5.99197 6.93913 6.4134 5.92172 7.16354 5.17157C7.91369 4.42143 8.9311 4 9.99197 4C11.0528 4 12.0703 4.42143 12.8204 5.17157C13.5705 5.92172 13.992 6.93913 13.992 8C13.992 9.06087 13.5705 10.0783 12.8204 10.8284C12.0703 11.5786 11.0528 12 9.99197 12C8.9311 12 7.91369 11.5786 7.16354 10.8284C6.4134 10.0783 5.99197 9.06087 5.99197 8Z" fill="white"/>
</svg>
