<svg width="36" height="36" viewBox="0 0 36 36" fill="none" xmlns="http://www.w3.org/2000/svg">
<circle cx="18" cy="18" r="18" fill="#484848"/>
<path d="M10.0758 20.8113L9.02626 25.3409C8.99006 25.5065 8.9913 25.6781 9.0299 25.8431C9.06849 26.0082 9.14347 26.1625 9.24936 26.2948C9.35524 26.4272 9.48935 26.5342 9.64189 26.6081C9.79444 26.682 9.96156 26.7209 10.131 26.7219C10.21 26.7299 10.2896 26.7299 10.3686 26.7219L14.9258 25.6723L23.6757 16.9556L18.7926 12.0835L10.0758 20.8113Z" fill="white"/>
<path d="M26.4271 12.592L23.168 9.33286C22.9537 9.11968 22.6638 9 22.3615 9C22.0592 9 21.7693 9.11968 21.555 9.33286L19.7432 11.1447L24.6208 16.0223L26.4326 14.2105C26.5387 14.1039 26.6226 13.9775 26.6798 13.8384C26.7369 13.6994 26.766 13.5504 26.7655 13.4001C26.765 13.2498 26.7348 13.101 26.6768 12.9623C26.6187 12.8237 26.5339 12.6978 26.4271 12.592Z" fill="white"/>
</svg>
