<svg width="36" height="36" viewBox="0 0 36 36" fill="none" xmlns="http://www.w3.org/2000/svg">
<circle cx="18" cy="18" r="18" fill="#3089B0"/>
<path d="M27 12.0014H22V10.3314C21.9765 9.6912 21.7002 9.08644 21.2316 8.64967C20.7629 8.2129 20.1402 7.97977 19.5 8.00138H16.5C15.8598 7.97977 15.2371 8.2129 14.7684 8.64967C14.2998 9.08644 14.0235 9.6912 14 10.3314V12.0014H9C8.73478 12.0014 8.48043 12.1067 8.29289 12.2943C8.10536 12.4818 8 12.7362 8 13.0014C8 13.2666 8.10536 13.5209 8.29289 13.7085C8.48043 13.896 8.73478 14.0014 9 14.0014H10V25.0014C10 25.797 10.3161 26.5601 10.8787 27.1227C11.4413 27.6853 12.2044 28.0014 13 28.0014H23C23.7956 28.0014 24.5587 27.6853 25.1213 27.1227C25.6839 26.5601 26 25.797 26 25.0014V14.0014H27C27.2652 14.0014 27.5196 13.896 27.7071 13.7085C27.8946 13.5209 28 13.2666 28 13.0014C28 12.7362 27.8946 12.4818 27.7071 12.2943C27.5196 12.1067 27.2652 12.0014 27 12.0014ZM16 22.0014C16 22.2666 15.8946 22.5209 15.7071 22.7085C15.5196 22.896 15.2652 23.0014 15 23.0014C14.7348 23.0014 14.4804 22.896 14.2929 22.7085C14.1054 22.5209 14 22.2666 14 22.0014V18.0014C14 17.7362 14.1054 17.4818 14.2929 17.2943C14.4804 17.1067 14.7348 17.0014 15 17.0014C15.2652 17.0014 15.5196 17.1067 15.7071 17.2943C15.8946 17.4818 16 17.7362 16 18.0014V22.0014ZM16 10.3314C16 10.1714 16.21 10.0014 16.5 10.0014H19.5C19.79 10.0014 20 10.1714 20 10.3314V12.0014H16V10.3314ZM22 22.0014C22 22.2666 21.8946 22.5209 21.7071 22.7085C21.5196 22.896 21.2652 23.0014 21 23.0014C20.7348 23.0014 20.4804 22.896 20.2929 22.7085C20.1054 22.5209 20 22.2666 20 22.0014V18.0014C20 17.7362 20.1054 17.4818 20.2929 17.2943C20.4804 17.1067 20.7348 17.0014 21 17.0014C21.2652 17.0014 21.5196 17.1067 21.7071 17.2943C21.8946 17.4818 22 17.7362 22 18.0014V22.0014Z" fill="white"/>
</svg>
