<svg width="36" height="36" viewBox="0 0 36 36" fill="none" xmlns="http://www.w3.org/2000/svg">
<circle cx="18" cy="18" r="18" fill="#3089B0"/>
<path d="M10.0758 20.8118L9.02626 25.3414C8.99006 25.507 8.9913 25.6786 9.0299 25.8436C9.06849 26.0086 9.14347 26.163 9.24936 26.2953C9.35524 26.4277 9.48935 26.5347 9.64189 26.6086C9.79444 26.6825 9.96156 26.7214 10.131 26.7224C10.21 26.7304 10.2896 26.7304 10.3686 26.7224L14.9258 25.6728L23.6757 16.9561L18.7926 12.084L10.0758 20.8118Z" fill="white"/>
<path d="M26.4261 12.592L23.167 9.33286C22.9527 9.11968 22.6628 9 22.3605 9C22.0583 9 21.7683 9.11968 21.554 9.33286L19.7422 11.1447L24.6198 16.0223L26.4317 14.2105C26.5377 14.1039 26.6217 13.9775 26.6788 13.8384C26.7359 13.6994 26.765 13.5504 26.7645 13.4001C26.764 13.2498 26.7339 13.101 26.6758 12.9623C26.6177 12.8237 26.5329 12.6978 26.4261 12.592Z" fill="white"/>
</svg>
