<svg width="18" height="19" viewBox="0 0 18 19" fill="none" xmlns="http://www.w3.org/2000/svg">
<path d="M8.09498 4.19241C9.0147 4.19241 9.76027 3.45634 9.76027 2.54836C9.76027 1.64037 9.0147 0.904297 8.09498 0.904297C7.17526 0.904297 6.42969 1.64037 6.42969 2.54836C6.42969 3.45634 7.17526 4.19241 8.09498 4.19241Z" fill="black"/>
<path fill-rule="evenodd" clip-rule="evenodd" d="M14.923 17.6138C14.7414 17.6138 14.5627 17.5686 14.4029 17.4824C14.2431 17.3962 14.1073 17.2716 14.0076 17.1198L12.586 14.3134H7.53868C7.39294 14.3125 7.2488 14.283 7.11448 14.2264C6.98017 14.1698 6.85831 14.0873 6.75588 13.9836C6.65344 13.8799 6.57244 13.7571 6.51748 13.6221C6.46252 13.4871 6.43468 13.3426 6.43557 13.1969V6.56365C6.43557 5.9456 6.92957 5.44824 7.53868 5.44824C8.14557 5.44824 8.64068 5.9456 8.64068 6.56365V12.0815H13.1739C13.5416 12.0815 13.8847 12.2659 14.087 12.5755L15.2985 15.0622L16.0294 14.7627C16.1593 14.6974 16.3008 14.6585 16.4458 14.6484C16.5907 14.6383 16.7363 14.6572 16.8739 14.7039C17.0115 14.7506 17.1385 14.8242 17.2473 14.9205C17.3562 15.0167 17.4449 15.1337 17.5081 15.2645C17.6384 15.529 17.6594 15.8341 17.5666 16.114C17.4737 16.3938 17.2745 16.6259 17.0119 16.7599L15.4125 17.4965C15.261 17.574 15.0932 17.6142 14.923 17.6138Z" fill="black"/>
<path fill-rule="evenodd" clip-rule="evenodd" d="M6.85465 18.7571C3.57324 18.7571 0.904297 16.0926 0.904297 12.8191C0.904297 10.89 1.84871 9.07493 3.43018 7.96176C3.51033 7.90515 3.60086 7.86492 3.69659 7.84338C3.79233 7.82184 3.89137 7.81941 3.98804 7.83623C4.08471 7.85305 4.17711 7.88879 4.25994 7.9414C4.34276 7.99401 4.41439 8.06246 4.47071 8.14281C4.52734 8.22281 4.56762 8.3132 4.58923 8.4088C4.61084 8.5044 4.61336 8.60332 4.59664 8.6999C4.57992 8.79647 4.5443 8.8888 4.49181 8.97157C4.43932 9.05434 4.371 9.12593 4.29077 9.18223C3.70722 9.59255 3.23083 10.1371 2.90173 10.77C2.57263 11.4029 2.40045 12.1057 2.39971 12.8191C2.40237 13.999 2.87306 15.1297 3.70848 15.9631C4.54389 16.7964 5.67579 17.2642 6.85577 17.2639C8.08518 17.2639 9.22853 16.7755 10.0802 15.8892C10.2173 15.7464 10.4055 15.6638 10.6035 15.6597C10.8014 15.6556 10.9929 15.7303 11.1358 15.8674C11.2787 16.0045 11.3612 16.1928 11.3653 16.3907C11.3694 16.5887 11.2947 16.7802 11.1576 16.9231C10.6027 17.5052 9.93497 17.9682 9.19513 18.2835C8.45528 18.5989 7.65889 18.76 6.85465 18.7571Z" fill="black"/>
</svg>
