<svg width="28" height="28" viewBox="0 0 28 28" fill="none" xmlns="http://www.w3.org/2000/svg">
<path d="M13.8674 1C11.6357 0.999249 9.4423 1.5791 7.50259 2.68259C5.56288 3.78607 3.94362 5.37522 2.80393 7.29388C1.66423 9.21255 1.04332 11.3947 1.00219 13.626C0.961055 15.8572 1.50113 18.0608 2.56933 20.0201L1.04721 25.3583C0.993649 25.5458 0.992222 25.7443 1.04308 25.9324C1.09394 26.1206 1.19516 26.2914 1.33584 26.4264C1.47653 26.5613 1.65135 26.6553 1.8415 26.6983C2.03165 26.7413 2.22992 26.7316 2.41498 26.6703L7.42727 25.0003C9.13561 25.9875 11.0482 26.5684 13.0169 26.6982C14.9857 26.828 16.958 26.5031 18.7811 25.7488C20.6043 24.9944 22.2294 23.8307 23.5309 22.3478C24.8324 20.8648 25.7753 19.1023 26.2866 17.1967C26.798 15.2911 26.8641 13.2933 26.4798 11.358C26.0956 9.42275 25.2713 7.6018 24.0707 6.03605C22.8701 4.47031 21.3255 3.20173 19.5562 2.32847C17.7869 1.4552 15.8404 1.00066 13.8674 1ZM9.57969 11.7192C9.57969 11.4349 9.69262 11.1623 9.89365 10.9612C10.0947 10.7602 10.3673 10.6473 10.6516 10.6473H17.0831C17.3674 10.6473 17.6401 10.7602 17.8411 10.9612C18.0421 11.1623 18.155 11.4349 18.155 11.7192C18.155 12.0035 18.0421 12.2761 17.8411 12.4772C17.6401 12.6782 17.3674 12.7911 17.0831 12.7911H10.6516C10.3673 12.7911 10.0947 12.6782 9.89365 12.4772C9.69262 12.2761 9.57969 12.0035 9.57969 11.7192ZM10.6516 14.935H14.9393C15.2236 14.935 15.4962 15.0479 15.6973 15.2489C15.8983 15.4499 16.0112 15.7226 16.0112 16.0069C16.0112 16.2912 15.8983 16.5638 15.6973 16.7648C15.4962 16.9659 15.2236 17.0788 14.9393 17.0788H10.6516C10.3673 17.0788 10.0947 16.9659 9.89365 16.7648C9.69262 16.5638 9.57969 16.2912 9.57969 16.0069C9.57969 15.7226 9.69262 15.4499 9.89365 15.2489C10.0947 15.0479 10.3673 14.935 10.6516 14.935Z" fill="#CEE0E8"/>
</svg>
