<svg width="35" height="35" viewBox="0 0 35 35" fill="none" xmlns="http://www.w3.org/2000/svg">
<circle cx="17" cy="17" r="17" fill="white"/>
<path fill-rule="evenodd" clip-rule="evenodd" d="M12.7476 7.05868C13.7905 7.01067 14.123 7 16.7794 7C19.4359 7 19.7684 7.01156 20.8103 7.05868C21.8523 7.1058 22.5635 7.27205 23.1858 7.51297C23.8375 7.75924 24.4287 8.14419 24.9177 8.64205C25.4155 9.13013 25.7996 9.72045 26.045 10.373C26.2868 10.9953 26.4521 11.7066 26.5001 12.7467C26.5482 13.7914 26.5588 14.1239 26.5588 16.7794C26.5588 19.4359 26.5473 19.7684 26.5001 20.8112C26.453 21.8514 26.2868 22.5626 26.045 23.1849C25.7996 23.8376 25.4149 24.4289 24.9177 24.9177C24.4287 25.4155 23.8375 25.7996 23.1858 26.045C22.5635 26.2868 21.8523 26.4521 20.8121 26.5001C19.7684 26.5482 19.4359 26.5588 16.7794 26.5588C14.123 26.5588 13.7905 26.5473 12.7476 26.5001C11.7075 26.453 10.9962 26.2868 10.3739 26.045C9.72127 25.7996 9.12997 25.4149 8.64116 24.9177C8.14364 24.4293 7.75863 23.8383 7.51297 23.1858C7.27205 22.5635 7.10668 21.8523 7.05868 20.8121C7.01067 19.7675 7 19.435 7 16.7794C7 14.123 7.01156 13.7905 7.05868 12.7485C7.1058 11.7066 7.27205 10.9953 7.51297 10.373C7.75899 9.72053 8.1443 9.12952 8.64205 8.64116C9.13017 8.14375 9.72087 7.75874 10.373 7.51297C10.9953 7.27205 11.7066 7.10668 12.7467 7.05868H12.7476ZM20.7312 8.81897C19.6999 8.77185 19.3905 8.76207 16.7794 8.76207C14.1683 8.76207 13.8589 8.77185 12.8276 8.81897C11.8737 8.86253 11.3563 9.02167 11.0113 9.15592C10.5553 9.33372 10.229 9.54443 9.8867 9.8867C9.56225 10.2024 9.31255 10.5866 9.15592 11.0113C9.02167 11.3563 8.86253 11.8737 8.81897 12.8276C8.77185 13.8589 8.76207 14.1683 8.76207 16.7794C8.76207 19.3905 8.77185 19.6999 8.81897 20.7312C8.86253 21.6851 9.02167 22.2025 9.15592 22.5475C9.31239 22.9716 9.56221 23.3565 9.8867 23.6721C10.2023 23.9966 10.5873 24.2464 11.0113 24.4029C11.3563 24.5372 11.8737 24.6963 12.8276 24.7399C13.8589 24.787 14.1674 24.7967 16.7794 24.7967C19.3914 24.7967 19.6999 24.787 20.7312 24.7399C21.6851 24.6963 22.2025 24.5372 22.5475 24.4029C23.0036 24.2251 23.3298 24.0144 23.6721 23.6721C23.9966 23.3565 24.2464 22.9716 24.4029 22.5475C24.5372 22.2025 24.6963 21.6851 24.7399 20.7312C24.787 19.6999 24.7967 19.3905 24.7967 16.7794C24.7967 14.1683 24.787 13.8589 24.7399 12.8276C24.6963 11.8737 24.5372 11.3563 24.4029 11.0113C24.2251 10.5553 24.0144 10.229 23.6721 9.8867C23.3564 9.56227 22.9722 9.31257 22.5475 9.15592C22.2025 9.02167 21.6851 8.86253 20.7312 8.81897ZM15.5303 19.7941C16.2279 20.0845 17.0047 20.1237 17.728 19.905C18.4512 19.6863 19.0761 19.2233 19.496 18.595C19.9158 17.9668 20.1045 17.2123 20.0298 16.4603C19.9551 15.7084 19.6217 15.0058 19.0865 14.4724C18.7453 14.1314 18.3327 13.8703 17.8786 13.7079C17.4244 13.5455 16.9398 13.4858 16.4598 13.5332C15.9798 13.5805 15.5162 13.7337 15.1025 13.9817C14.6888 14.2297 14.3352 14.5664 14.0672 14.9674C13.7992 15.3685 13.6235 15.824 13.5527 16.3011C13.4818 16.7782 13.5177 17.2651 13.6576 17.7267C13.7975 18.1883 14.038 18.6131 14.3619 18.9706C14.6857 19.3281 15.0848 19.6094 15.5303 19.7941ZM13.225 13.225C13.6918 12.7583 14.2459 12.388 14.8558 12.1354C15.4657 11.8828 16.1193 11.7528 16.7794 11.7528C17.4395 11.7528 18.0932 11.8828 18.703 12.1354C19.3129 12.388 19.867 12.7583 20.3338 13.225C20.8005 13.6918 21.1708 14.2459 21.4234 14.8558C21.676 15.4657 21.8061 16.1193 21.8061 16.7794C21.8061 17.4395 21.676 18.0932 21.4234 18.703C21.1708 19.3129 20.8005 19.867 20.3338 20.3338C19.3911 21.2765 18.1126 21.8061 16.7794 21.8061C15.4463 21.8061 14.1677 21.2765 13.225 20.3338C12.2824 19.3911 11.7528 18.1126 11.7528 16.7794C11.7528 15.4463 12.2824 14.1677 13.225 13.225ZM22.9209 12.5014C23.0366 12.3923 23.1291 12.261 23.1932 12.1155C23.2572 11.97 23.2914 11.813 23.2938 11.654C23.2961 11.4951 23.2665 11.3372 23.2067 11.1899C23.1469 11.0425 23.0582 10.9087 22.9457 10.7962C22.8333 10.6838 22.6994 10.5951 22.5521 10.5353C22.4048 10.4755 22.2469 10.4459 22.0879 10.4482C21.9289 10.4505 21.772 10.4847 21.6265 10.5488C21.4809 10.6128 21.3497 10.7054 21.2406 10.8211C21.0284 11.046 20.9122 11.3448 20.9167 11.654C20.9212 11.9633 21.0461 12.2585 21.2647 12.4772C21.4834 12.6959 21.7787 12.8207 22.0879 12.8252C22.3971 12.8297 22.6959 12.7136 22.9209 12.5014Z" fill="#3089B0"/>
</svg>
