<svg width="36" height="36" viewBox="0 0 36 36" fill="none" xmlns="http://www.w3.org/2000/svg">
<circle cx="18" cy="18" r="18" fill="#484848"/>
<path d="M9.93997 19.318C9.85044 19.5624 9.66914 19.7623 9.43459 19.8752C9.20003 19.988 8.93071 20.005 8.68385 19.9224C8.43699 19.8399 8.23204 19.6643 8.11256 19.4331C7.99307 19.2018 7.96847 18.9331 8.04397 18.684C8.02397 18.744 8.04397 18.682 8.04397 18.682C8.07953 18.5719 8.12092 18.4637 8.16797 18.358C8.24797 18.168 8.36597 17.906 8.52797 17.596C8.85797 16.976 9.37197 16.15 10.13 15.324C11.66 13.654 14.166 12 17.992 12C21.818 12 24.324 13.654 25.854 15.324C26.6706 16.22 27.333 17.2452 27.814 18.358L27.906 18.584C27.912 18.6 27.932 18.704 27.952 18.804L27.992 19C27.992 19 28.16 19.666 27.308 19.948C27.0571 20.0318 26.7832 20.0128 26.5463 19.8951C26.3094 19.7773 26.1288 19.5706 26.044 19.32V19.314L26.032 19.282C25.9315 19.0251 25.8166 18.774 25.688 18.53C25.3323 17.859 24.8928 17.236 24.38 16.676C23.16 15.346 21.166 14 17.992 14C14.818 14 12.824 15.346 11.604 16.676C10.9434 17.4001 10.4063 18.2278 10.014 19.126C9.99299 19.1776 9.97298 19.2296 9.95397 19.282L9.93997 19.318ZM13.992 20C13.992 18.9391 14.4134 17.9217 15.1635 17.1716C15.9137 16.4214 16.9311 16 17.992 16C19.0528 16 20.0703 16.4214 20.8204 17.1716C21.5705 17.9217 21.992 18.9391 21.992 20C21.992 21.0609 21.5705 22.0783 20.8204 22.8284C20.0703 23.5786 19.0528 24 17.992 24C16.9311 24 15.9137 23.5786 15.1635 22.8284C14.4134 22.0783 13.992 21.0609 13.992 20Z" fill="white"/>
</svg>
