<svg width="143" height="33" viewBox="0 0 143 33" fill="none" xmlns="http://www.w3.org/2000/svg">
<path d="M122.063 27.5091C121.614 21.2354 124.567 10.263 114.943 10.0458C112.565 10.0515 110.732 10.9599 109.518 12.7169C109.488 11.583 109.866 9.69075 108.193 9.64238C106.952 9.73093 104.729 9.1398 104.638 10.9435V27.5091C104.73 29.3128 106.953 28.7159 108.193 28.8094C108.544 28.8094 108.881 28.6724 109.129 28.4286C109.378 28.1847 109.517 27.854 109.518 27.5091V18.6544C109.51 17.5274 109.826 16.5602 110.466 15.7529C111.511 14.1582 115.328 14.0517 116.359 15.666C116.923 16.4279 117.198 17.409 117.184 18.6093V27.5091C117.272 29.3128 119.501 28.7159 120.738 28.8094C120.912 28.8095 121.084 28.776 121.245 28.7107C121.406 28.6455 121.552 28.5498 121.675 28.4291C121.798 28.3084 121.895 28.1651 121.962 28.0074C122.028 27.8497 122.063 27.6798 122.063 27.5091Z" fill="#3089B0"/>
<path d="M142.973 27.509V10.941C142.972 10.596 142.833 10.2652 142.584 10.0212C142.336 9.77728 141.999 9.64013 141.648 9.63991C140.414 9.73009 138.179 9.13651 138.093 10.941V19.7957C138.093 22.1315 136.758 23.9598 134.134 23.9647C131.432 23.959 130.429 22.252 130.426 19.8408V10.941C130.338 9.13733 128.11 9.73337 126.872 9.63991C126.698 9.63991 126.526 9.67357 126.365 9.73897C126.204 9.80437 126.058 9.90022 125.935 10.0211C125.812 10.1419 125.715 10.2853 125.648 10.4432C125.582 10.601 125.548 10.7702 125.548 10.941V20.7795C125.577 25.0035 127.833 28.397 132.668 28.4043C135.045 28.4043 136.879 27.4894 138.093 25.7332C138.12 26.8638 137.745 28.7667 139.418 28.8077C140.656 28.7151 142.883 29.316 142.973 27.509Z" fill="#3089B0"/>
<path d="M56.545 27.5096V4.77862C56.5441 4.43425 56.4043 4.10427 56.1562 3.86099C55.908 3.61771 55.5719 3.48098 55.2213 3.48076C53.9827 3.57341 51.7551 2.97572 51.6666 4.7819V13.7472H41.212V4.77862C41.1219 2.9749 38.8959 3.57013 37.6573 3.47748C37.3062 3.4777 36.9695 3.61488 36.7213 3.85887C36.4731 4.10286 36.3336 4.43368 36.3336 4.77862V27.5096C36.3336 27.8545 36.4731 28.1852 36.7213 28.4291C36.9696 28.6729 37.3063 28.8099 37.6573 28.8099C38.8951 28.723 41.1227 29.3117 41.212 27.5096V18.5402H51.6666V27.5096C51.6666 27.8545 51.8061 28.1852 52.0543 28.4291C52.3026 28.6729 52.6392 28.8099 52.9903 28.8099C54.2289 28.7165 56.4565 29.3166 56.545 27.5096Z" fill="#3089B0"/>
<path d="M101.152 27.5091C100.703 21.2354 103.656 10.263 94.0323 10.0458C91.6544 10.0515 89.8216 10.9599 88.6072 12.7169C88.5788 11.583 88.956 9.69075 87.2826 9.64238C86.0423 9.73093 83.8189 9.1398 83.7288 10.9435V27.5091C83.8197 29.3128 86.0432 28.7159 87.2826 28.8094C87.4564 28.8095 87.6286 28.776 87.7892 28.7107C87.9499 28.6455 88.0959 28.5498 88.2189 28.4291C88.3419 28.3084 88.4395 28.1651 88.5061 28.0074C88.5727 27.8497 88.6071 27.6806 88.6072 27.5099V18.6552C88.6005 17.5282 88.9168 16.561 89.5561 15.7537C90.6019 14.1591 94.4178 14.0525 95.4494 15.6668C96.0131 16.4287 96.288 17.4099 96.2741 18.6102V27.5091C96.3575 29.3128 98.591 28.7159 99.8287 28.8094C100.18 28.8092 100.516 28.6721 100.765 28.4283C101.013 28.1845 101.152 27.8539 101.152 27.5091Z" fill="#3089B0"/>
<path d="M78.9196 9.64029C76.2797 9.65751 75.1079 9.17378 75.3649 12.3787C73.7382 10.3577 71.8595 9.55913 69.1102 9.53125C63.4514 9.55913 60.0562 14.1307 60.0311 19.241C60.0578 24.3423 63.4806 28.7868 69.1102 28.8106C71.8294 28.7868 73.7157 28.0087 75.3649 26.0722C75.107 29.2746 76.283 28.795 78.9196 28.8106C79.2707 28.8106 79.6074 28.6736 79.8556 28.4297C80.1039 28.1859 80.2433 27.8551 80.2433 27.5103V10.9423C80.2435 10.7715 80.2095 10.6024 80.1432 10.4445C80.0769 10.2867 79.9796 10.1432 79.8568 10.0223C79.734 9.90141 79.5882 9.80545 79.4277 9.7399C79.2672 9.67436 79.0951 9.64051 78.9213 9.64029H78.9196ZM73.6239 22.9534C72.0181 25.0105 67.6863 25.0031 66.0864 22.9395C64.3103 21.0251 64.3153 17.4315 66.0864 15.5286C67.6855 13.4789 72.0189 13.474 73.6239 15.5155C75.395 17.3988 75.4008 21.0578 73.6239 22.9534Z" fill="#3089B0"/>
<path d="M9.82903 30.7824C7.13402 29.6042 4.52246 29.1271 1.57706 29.2763C2.03527 26.4141 1.82745 23.8126 0.914361 21.0571C-4.69184 4.92277 17.2439 -7.51962 28.6624 5.31549C40.4616 17.8153 25.576 37.9448 9.82903 30.7824Z" fill="#C25525"/>
<path d="M22.3323 9.49049C22.3165 9.48311 19.3827 9.49787 18.1926 9.53312C17.5249 9.42162 17.7986 8.88296 18.2009 8.7772C18.6558 8.54763 22.8423 6.82918 22.8865 6.8095C22.8865 6.8095 24.1443 6.37743 23.8747 5.55345C23.4816 4.42613 22.5719 4.89182 22.1712 5.03857C21.7706 5.18533 17.2319 7.27109 16.676 7.41621C16.5091 7.46212 16.3547 7.27437 16.3547 7.10055C16.3547 6.96774 16.5801 6.77261 16.5934 6.76031C16.9081 6.43892 19.8752 3.52919 19.8752 3.52919C19.8752 3.52919 20.7933 2.66094 19.9311 2.12639C19.1031 1.61151 18.2193 2.48139 18.2193 2.48139C18.2193 2.48139 15.2697 5.2911 14.5185 6.08145C14.4142 6.1905 14.1388 6.48401 14.0403 6.48401C13.6313 6.44138 13.9243 6.00438 14.0403 5.78302C14.1421 5.58297 15.7262 2.82738 15.7262 2.82738C15.7262 2.82738 16.2746 1.96815 15.4016 1.58609C14.5285 1.20403 13.8884 2.05342 13.8884 2.05342C13.8884 2.05342 13.3434 2.76425 12.0038 5.25666C10.4781 7.5605 9.30292 8.45417 7.64952 10.0119C5.65559 11.8821 5.34845 15.8076 7.9575 17.5671C10.181 19.0666 17.7894 20.3161 18.4179 18.6665C19.1081 16.8521 15.7663 17.0227 15.0018 16.7496C14.5986 16.6053 12.164 15.8617 13.0087 13.3283C13.7081 11.2385 16.5183 11.3606 17.6926 11.3606C18.8669 11.3606 22.3457 11.4336 22.3457 11.4336C22.3457 11.4336 23.6168 11.4885 23.6694 10.6039C23.737 9.4126 22.3323 9.49049 22.3323 9.49049Z" fill="white"/>
<path d="M10.6496 22.676C10.6655 22.6834 13.5984 22.6695 14.7894 22.6334C15.4571 22.7449 15.1833 23.2844 14.7802 23.3901C14.3262 23.6189 10.1388 25.3382 10.0946 25.3578C10.0946 25.3578 8.83765 25.7899 9.10724 26.6131C9.50202 27.7404 10.4101 27.2747 10.8107 27.1312C11.2113 26.9877 15.7492 24.8962 16.3034 24.7487C16.4745 24.7028 16.6247 24.8897 16.6247 25.0643C16.6247 25.1971 16.3986 25.3923 16.386 25.4037C16.0714 25.726 13.1043 28.6349 13.1043 28.6349C13.1043 28.6349 12.1862 29.5039 13.0484 30.0385C13.8763 30.5534 14.7602 29.6827 14.7602 29.6827C14.7602 29.6827 17.7089 26.873 18.4601 26.0834C18.5653 25.9736 18.8407 25.68 18.9392 25.68C19.3481 25.7227 19.0543 26.1605 18.9392 26.381C18.8382 26.5811 17.2541 29.3375 17.2541 29.3375C17.2541 29.3375 16.7057 30.1959 17.5779 30.5788C18.4501 30.9617 19.0911 30.1106 19.0911 30.1106C19.0911 30.1106 19.6394 29.4023 20.9748 26.9131C22.5005 24.6093 23.7625 23.7976 25.3291 22.1579C27.4415 19.9499 27.6302 16.3614 25.0211 14.6019C22.7977 13.1024 15.1892 11.8537 14.5607 13.5033C13.8705 15.3168 17.2123 15.143 17.9768 15.4201C18.38 15.5644 20.8146 16.3072 19.9699 18.8407C18.8908 21.9873 12.3464 20.4525 10.6354 20.7321C8.68408 20.6575 9.07469 22.8384 10.6496 22.676Z" fill="white"/>
</svg>
