<svg width="103" height="24" viewBox="0 0 103 24" fill="none" xmlns="http://www.w3.org/2000/svg">
<path d="M87.6613 19.6775C87.3414 15.2199 89.4449 7.42373 82.5893 7.26935C80.8955 7.27343 79.5899 7.91889 78.7249 9.16727C78.7041 8.36162 78.9734 7.01711 77.7814 6.98274C76.8973 7.04566 75.3141 6.62565 75.2493 7.90724V19.6775C75.3147 20.9591 76.8979 20.535 77.7814 20.6014C78.0315 20.6014 78.2714 20.5041 78.4483 20.3308C78.6253 20.1576 78.7247 19.9226 78.7249 19.6775V13.386C78.7197 12.5852 78.9449 11.898 79.4003 11.3244C80.1452 10.1914 82.864 10.1157 83.5983 11.2627C84.0002 11.804 84.196 12.5012 84.1857 13.354V19.6775C84.2487 20.9591 85.8367 20.535 86.7178 20.6014C86.8416 20.6015 86.9642 20.5777 87.0786 20.5313C87.1931 20.4849 87.2971 20.4169 87.3847 20.3312C87.4723 20.2455 87.5418 20.1437 87.5893 20.0316C87.6367 19.9195 87.6612 19.7994 87.6613 19.6781V19.6775Z" fill="white"/>
<path d="M102.556 19.6774V7.9054C102.556 7.66026 102.456 7.4252 102.279 7.25186C102.102 7.07852 101.862 6.98106 101.612 6.98091C100.733 7.04499 99.1414 6.62323 99.0802 7.9054V14.1968C99.0802 15.8565 98.1289 17.1556 96.2597 17.1591C94.3352 17.155 93.6206 15.9421 93.6188 14.2289V7.9054C93.5558 6.62381 91.969 7.04732 91.0867 6.98091C90.9628 6.98091 90.8402 7.00483 90.7257 7.05129C90.6113 7.09776 90.5073 7.16587 90.4198 7.25172C90.3322 7.33758 90.2628 7.4395 90.2154 7.55166C90.168 7.66382 90.1437 7.78402 90.1438 7.9054V14.8959C90.1646 17.8972 91.7716 20.3083 95.2157 20.3135C96.909 20.3135 98.2151 19.6634 99.0802 18.4156C99.0992 19.2189 98.8323 20.571 100.024 20.6001C100.905 20.5343 102.492 20.9613 102.556 19.6774Z" fill="white"/>
<path d="M40.9909 19.678V3.52704C40.9903 3.28236 40.8907 3.0479 40.7139 2.87504C40.5372 2.70218 40.2977 2.60503 40.048 2.60488C39.1657 2.67071 37.5789 2.24604 37.5159 3.52937V9.89947H30.0688V3.52704C30.0046 2.24545 28.419 2.66838 27.5367 2.60255C27.2865 2.6027 27.0467 2.70018 26.8699 2.87353C26.6931 3.04689 26.5937 3.28195 26.5938 3.52704V19.678C26.5938 19.923 26.6931 20.158 26.8699 20.3313C27.0468 20.5046 27.2866 20.6019 27.5367 20.6019C28.4184 20.5402 30.0052 20.9584 30.0688 19.678V13.305H37.5159V19.678C37.5159 19.923 37.6152 20.158 37.7921 20.3313C37.9689 20.5046 38.2087 20.6019 38.4588 20.6019C39.3411 20.5355 40.9279 20.9619 40.9909 19.678Z" fill="white"/>
<path d="M72.7664 19.6775C72.4465 15.2199 74.55 7.42373 67.6945 7.26935C66.0006 7.27343 64.6951 7.91889 63.83 9.16727C63.8098 8.36162 64.0785 7.01711 62.8865 6.98274C62.003 7.04566 60.4192 6.62565 60.355 7.90724V19.6775C60.4198 20.9591 62.0036 20.535 62.8865 20.6014C63.0103 20.6015 63.1329 20.5777 63.2474 20.5313C63.3618 20.4849 63.4658 20.4169 63.5534 20.3312C63.641 20.2455 63.7105 20.1437 63.758 20.0316C63.8055 19.9195 63.8299 19.7994 63.83 19.6781V13.3866C63.8253 12.5858 64.0506 11.8986 64.506 11.325C65.2509 10.192 67.9691 10.1162 68.704 11.2633C69.1055 11.8046 69.3013 12.5017 69.2914 13.3546V19.6775C69.3508 20.9591 70.9418 20.535 71.8235 20.6014C72.0735 20.6012 72.3132 20.5039 72.49 20.3306C72.6668 20.1574 72.7662 19.9225 72.7664 19.6775Z" fill="white"/>
<path d="M56.9292 6.9808C55.0487 6.99303 54.214 6.64933 54.3971 8.92649C53.2383 7.49052 51.9 6.92313 49.9417 6.90332C45.9107 6.92313 43.4922 10.1714 43.4744 13.8024C43.4934 17.4269 45.9316 20.5849 49.9417 20.6018C51.8786 20.5849 53.2223 20.0321 54.3971 18.6561C54.2134 20.9315 55.051 20.5907 56.9292 20.6018C57.1792 20.6018 57.4191 20.5044 57.5959 20.3312C57.7727 20.1579 57.8721 19.9229 57.8721 19.6779V7.90587C57.8722 7.78454 57.848 7.66437 57.8008 7.55222C57.7535 7.44007 57.6842 7.33813 57.5968 7.25223C57.5093 7.16633 57.4054 7.09814 57.2911 7.05157C57.1768 7.005 57.0542 6.98095 56.9304 6.9808H56.9292ZM53.1569 16.4401C52.013 17.9017 48.9274 17.8965 47.7877 16.4302C46.5225 15.07 46.5261 12.5167 47.7877 11.1646C48.9268 9.70826 52.0136 9.70476 53.1569 11.1553C54.4185 12.4934 54.4226 15.0933 53.1569 16.4401Z" fill="white"/>
<path d="M7.71411 22.003C5.79437 21.1659 3.93408 20.8269 1.83599 20.9329C2.16238 18.8993 2.01434 17.0509 1.36393 15.0929C-2.62953 3.62911 12.9959 -5.21154 21.1297 3.90814C29.5346 12.7896 18.9311 27.0921 7.71411 22.003Z" fill="white"/>
<path d="M16.6204 6.87495C16.6091 6.8697 14.5193 6.88019 13.6715 6.90524C13.1959 6.82601 13.3909 6.44328 13.6774 6.36814C14.0014 6.20503 16.9836 4.98402 17.0151 4.97004C17.0151 4.97004 17.9111 4.66304 17.719 4.07758C17.439 3.27659 16.791 3.60747 16.5056 3.71175C16.2202 3.81602 12.9872 5.29801 12.5912 5.40112C12.4723 5.43374 12.3623 5.30034 12.3623 5.17684C12.3623 5.08247 12.5229 4.94382 12.5324 4.93508C12.7565 4.70673 14.8701 2.63929 14.8701 2.63929C14.8701 2.63929 15.524 2.02238 14.9099 1.64256C14.3201 1.27672 13.6905 1.8948 13.6905 1.8948C13.6905 1.8948 11.5894 3.89117 11.0544 4.45274C10.98 4.53022 10.7839 4.73877 10.7137 4.73877C10.4224 4.70848 10.6311 4.39798 10.7137 4.24069C10.7862 4.09855 11.9146 2.14063 11.9146 2.14063C11.9146 2.14063 12.3053 1.53013 11.6834 1.25867C11.0615 0.987201 10.6055 1.59071 10.6055 1.59071C10.6055 1.59071 10.2173 2.09578 9.26304 3.8667C8.17624 5.50364 7.33914 6.13862 6.16138 7.24544C4.74104 8.57422 4.52226 11.3634 6.38076 12.6136C7.96459 13.679 13.3843 14.5668 13.832 13.3948C14.3237 12.1056 11.9432 12.2268 11.3986 12.0328C11.1114 11.9302 9.37719 11.4019 9.97886 9.60182C10.4771 8.11693 12.4789 8.20372 13.3154 8.20372C14.1519 8.20372 16.6299 8.25557 16.6299 8.25557C16.6299 8.25557 17.5353 8.2946 17.5728 7.66604C17.621 6.81961 16.6204 6.87495 16.6204 6.87495Z" fill="#3089B0"/>
<path d="M8.29854 16.2432C8.30984 16.2485 10.399 16.2386 11.2474 16.2129C11.723 16.2922 11.528 16.6755 11.2409 16.7506C10.9174 16.9132 7.93469 18.1347 7.90318 18.1487C7.90318 18.1487 7.00782 18.4557 7.19985 19.0406C7.48106 19.8416 8.12791 19.5107 8.41329 19.4088C8.69866 19.3068 11.9311 17.8208 12.3259 17.7159C12.4478 17.6833 12.5548 17.8161 12.5548 17.9402C12.5548 18.0345 12.3937 18.1732 12.3847 18.1814C12.1606 18.4103 10.0471 20.4771 10.0471 20.4771C10.0471 20.4771 9.39307 21.0946 10.0072 21.4745C10.597 21.8403 11.2266 21.2216 11.2266 21.2216C11.2266 21.2216 13.3271 19.2253 13.8622 18.6643C13.9371 18.5862 14.1333 18.3777 14.2034 18.3777C14.4947 18.408 14.2855 18.719 14.2034 18.8757C14.1315 19.0179 13.0031 20.9764 13.0031 20.9764C13.0031 20.9764 12.6125 21.5863 13.2337 21.8584C13.855 22.1304 14.3116 21.5257 14.3116 21.5257C14.3116 21.5257 14.7022 21.0224 15.6535 19.2538C16.7403 17.6169 17.6392 17.0402 18.7551 15.8751C20.2599 14.3063 20.3943 11.7565 18.5358 10.5064C16.9519 9.4409 11.5322 8.55368 11.0845 9.72576C10.5928 11.0143 12.9733 10.8908 13.5179 11.0877C13.8051 11.1903 15.5393 11.7181 14.9377 13.5181C14.1689 15.7539 9.50722 14.6634 8.28843 14.862C6.89842 14.809 7.17666 16.3586 8.29854 16.2432Z" fill="#3089B0"/>
</svg>
