<svg width="36" height="36" viewBox="0 0 36 36" fill="none" xmlns="http://www.w3.org/2000/svg">
<circle cx="18" cy="18" r="18" fill="#3089B0"/>
<path d="M9.93899 19.318C9.84947 19.5624 9.66816 19.7623 9.43361 19.8752C9.19905 19.988 8.92973 20.005 8.68287 19.9224C8.43601 19.8399 8.23107 19.6643 8.11158 19.4331C7.9921 19.2018 7.96749 18.9331 8.04299 18.684C8.02299 18.744 8.04299 18.682 8.04299 18.682C8.07856 18.5719 8.11995 18.4637 8.16699 18.358C8.24699 18.168 8.36499 17.906 8.52699 17.596C8.85699 16.976 9.37099 16.15 10.129 15.324C11.659 13.654 14.165 12 17.991 12C21.817 12 24.323 13.654 25.853 15.324C26.6697 16.22 27.332 17.2452 27.813 18.358L27.905 18.584C27.911 18.6 27.931 18.704 27.951 18.804L27.991 19C27.991 19 28.159 19.666 27.307 19.948C27.0561 20.0318 26.7822 20.0128 26.5453 19.8951C26.3084 19.7773 26.1278 19.5706 26.043 19.32V19.314L26.031 19.282C25.9305 19.0251 25.8157 18.774 25.687 18.53C25.3314 17.859 24.8918 17.236 24.379 16.676C23.159 15.346 21.165 14 17.991 14C14.817 14 12.823 15.346 11.603 16.676C10.9425 17.4001 10.4053 18.2278 10.013 19.126C9.99201 19.1776 9.97201 19.2296 9.95299 19.282L9.93899 19.318ZM13.991 20C13.991 18.9391 14.4124 17.9217 15.1626 17.1716C15.9127 16.4214 16.9301 16 17.991 16C19.0519 16 20.0693 16.4214 20.8194 17.1716C21.5696 17.9217 21.991 18.9391 21.991 20C21.991 21.0609 21.5696 22.0783 20.8194 22.8284C20.0693 23.5786 19.0519 24 17.991 24C16.9301 24 15.9127 23.5786 15.1626 22.8284C14.4124 22.0783 13.991 21.0609 13.991 20Z" fill="white"/>
<path d="M26.5 27.5L9.5 10.5" stroke="white" stroke-width="2.4" stroke-linecap="round"/>
</svg>
