<svg width="23" height="26" viewBox="0 0 23 26" fill="none" xmlns="http://www.w3.org/2000/svg">
<path d="M11.5 0C14.55 0 17.4751 1.17399 19.6317 3.26369C21.7884 5.3534 23 8.18765 23 11.1429C23 16.4674 19.2913 21.3685 12.0137 25.8553C11.8601 25.9498 11.6819 26 11.5 26C11.3181 26 11.1399 25.9498 10.9863 25.8553C3.70875 21.3685 0 16.4674 0 11.1429C0 8.18765 1.2116 5.3534 3.36827 3.26369C5.52494 1.17399 8.45001 0 11.5 0ZM11.5 7.42863C10.4833 7.42863 9.50831 7.81996 8.78942 8.51653C8.07053 9.21309 7.66667 10.1578 7.66667 11.1429C7.66667 12.128 8.07053 13.0728 8.78942 13.7694C9.50831 14.4659 10.4833 14.8573 11.5 14.8573C12.5167 14.8573 13.4917 14.4659 14.2106 13.7694C14.9295 13.0728 15.3333 12.128 15.3333 11.1429C15.3333 10.1578 14.9295 9.21309 14.2106 8.51653C13.4917 7.81996 12.5167 7.42863 11.5 7.42863Z" fill="#CEE0E8"/>
</svg>
