<svg width="14" height="17" viewBox="0 0 14 17" fill="none" xmlns="http://www.w3.org/2000/svg">
<path d="M2.4 6.85706H3.99V11.6785C3.99 12.2089 4.44 12.6428 4.99 12.6428H8.99C9.54 12.6428 9.99 12.2089 9.99 11.6785V6.85706H11.58C12.47 6.85706 12.92 5.81562 12.29 5.20811L7.7 0.782002C7.60749 0.692609 7.4976 0.621687 7.37662 0.573297C7.25565 0.524908 7.12597 0.5 6.995 0.5C6.86403 0.5 6.73435 0.524908 6.61338 0.573297C6.4924 0.621687 6.38251 0.692609 6.29 0.782002L1.7 5.20811C1.07 5.81562 1.51 6.85706 2.4 6.85706ZM0 15.5357C0 16.0661 0.45 16.5 1 16.5H13C13.55 16.5 14 16.0661 14 15.5357C14 15.0053 13.55 14.5714 13 14.5714H1C0.45 14.5714 0 15.0053 0 15.5357Z" fill="white"/>
</svg>
