<svg width="29" height="26" viewBox="0 0 29 26" fill="none" xmlns="http://www.w3.org/2000/svg">
<path d="M0.176226 12.9753C0.176226 13.8776 0.905394 14.5844 1.73178 14.5844H3.28734L3.25331 22.6103C3.25331 22.7507 3.26303 22.881 3.27761 23.0163V23.8284C3.27761 24.9363 4.14775 25.8337 5.22206 25.8337H5.99984C6.05331 25.8337 6.10678 25.7885 6.16025 25.8286C6.22831 25.7885 6.29636 25.8337 6.36442 25.8337H9.11095C10.1853 25.8337 11.0554 24.9363 11.0554 23.8284V19.417C11.0554 18.5297 11.7505 17.8128 12.6109 17.8128H15.7221C16.5825 17.8128 17.2776 18.5297 17.2776 19.417V23.8284C17.2776 24.9363 18.1478 25.8337 19.2221 25.8337H21.9394C22.0123 25.8337 22.0853 25.8286 22.1582 25.8236C22.2165 25.8286 22.2748 25.8337 22.3332 25.8337H23.1109C24.1848 25.8337 25.0554 24.9363 25.0554 23.8284V18.2139C25.0554 18.1687 25.0539 18.1186 25.051 18.0735V14.5844H26.6085C27.485 14.5844 28.1665 13.8776 28.1665 12.9753C28.1665 12.5241 28.0205 12.123 27.6799 11.7721L15.2165 0.568836C14.8762 0.217223 14.4873 0.166992 14.1471 0.166992C13.8068 0.166992 13.4179 0.267453 13.1214 0.518605L0.710949 11.7721C0.32206 12.123 0.122753 12.5241 0.176226 12.9753Z" fill="#CEE0E8"/>
</svg>
