<svg width="15" height="18" viewBox="0 0 15 18" fill="none" xmlns="http://www.w3.org/2000/svg">
<path fillRule="evenodd" clipRule="evenodd" d="M13.3333 2.33329H12.5V0.666626H10.8333V2.33329H4.16667V0.666626H2.5V2.33329H1.66667C0.741667 2.33329 0 3.08329 0 3.99996V15.6666C0 16.5833 0.741667 17.3333 1.66667 17.3333H13.3333C14.25 17.3333 15 16.5833 15 15.6666V3.99996C15 3.08329 14.25 2.33329 13.3333 2.33329ZM13.3333 15.6666H1.66667V6.49996H13.3333V15.6666ZM2.91667 9.83329C2.91667 8.68329 3.85 7.74996 5 7.74996C6.15 7.74996 7.08333 8.68329 7.08333 9.83329C7.08333 10.9833 6.15 11.9166 5 11.9166C3.85 11.9166 2.91667 10.9833 2.91667 9.83329Z" fill="#95C2F4"/>
</svg>
