<svg width="33" height="33" viewBox="0 0 33 33" fill="none" xmlns="http://www.w3.org/2000/svg">
<path d="M20.2016 21.5474H12.1211C11.764 21.5474 11.4214 21.6892 11.1689 21.9418C10.9163 22.1944 10.7744 22.5369 10.7744 22.8941C10.7744 23.2513 10.9163 23.5938 11.1689 23.8464C11.4214 24.0989 11.764 24.2408 12.1211 24.2408H20.2016C20.5587 24.2408 20.9013 24.0989 21.1538 23.8464C21.4064 23.5938 21.5483 23.2513 21.5483 22.8941C21.5483 22.5369 21.4064 22.1944 21.1538 21.9418C20.9013 21.6892 20.5587 21.5474 20.2016 21.5474Z" fill="#2490D3"/>
<path d="M12.1211 18.8544H16.1613C16.5185 18.8544 16.8611 18.7125 17.1136 18.4599C17.3662 18.2073 17.5081 17.8648 17.5081 17.5076C17.5081 17.1504 17.3662 16.8079 17.1136 16.5553C16.8611 16.3028 16.5185 16.1609 16.1613 16.1609H12.1211C11.764 16.1609 11.4214 16.3028 11.1689 16.5553C10.9163 16.8079 10.7744 17.1504 10.7744 17.5076C10.7744 17.8648 10.9163 18.2073 11.1689 18.4599C11.4214 18.7125 11.764 18.8544 12.1211 18.8544Z" fill="#2490D3"/>
<path d="M26.5843 11.2179L19.2581 3.13754C19.1322 2.99802 18.9784 2.88641 18.8068 2.80987C18.6352 2.73333 18.4494 2.69356 18.2615 2.69311H8.83436C8.3869 2.68778 7.94278 2.77063 7.52735 2.93695C7.11192 3.10326 6.73332 3.34978 6.41317 3.66243C6.09303 3.97508 5.8376 4.34772 5.66148 4.75909C5.48536 5.17046 5.39199 5.61249 5.38672 6.05995V26.261C5.39199 26.7084 5.48536 27.1504 5.66148 27.5618C5.8376 27.9732 6.09303 28.3458 6.41317 28.6585C6.73332 28.9711 7.11192 29.2176 7.52735 29.384C7.94278 29.5503 8.3869 29.6331 8.83436 29.6278H23.4868C24.3904 29.6382 25.2611 29.2894 25.9076 28.6581C26.5541 28.0267 26.9235 27.1645 26.9345 26.261V12.1202C26.9336 11.7865 26.8088 11.4649 26.5843 11.2179ZM18.8541 6.73331L22.5441 10.7735H19.8506C19.7096 10.765 19.5717 10.7285 19.4449 10.6661C19.3182 10.6037 19.2051 10.5167 19.1123 10.4101C19.0195 10.3036 18.9489 10.1796 18.9046 10.0454C18.8602 9.91129 18.8431 9.76965 18.8541 9.62879V6.73331ZM23.4868 26.9343H8.83436C8.74059 26.9398 8.64667 26.9267 8.55797 26.8958C8.46928 26.8649 8.38756 26.8167 8.3175 26.7542C8.24743 26.6916 8.19041 26.6159 8.14968 26.5312C8.10896 26.4466 8.08534 26.3547 8.08019 26.261V6.05995C8.08534 5.96616 8.10896 5.87432 8.14968 5.78968C8.19041 5.70504 8.24743 5.62927 8.3175 5.56672C8.38756 5.50416 8.46928 5.45605 8.55797 5.42514C8.64667 5.39422 8.74059 5.38112 8.83436 5.38658H16.1606V9.62879C16.1388 10.6208 16.5104 11.5812 17.1942 12.3003C17.8779 13.0194 18.8184 13.4388 19.8102 13.467H24.241V26.261C24.2358 26.3547 24.2122 26.4466 24.1715 26.5312C24.1308 26.6159 24.0737 26.6916 24.0037 26.7542C23.9336 26.8167 23.8519 26.8649 23.7632 26.8958C23.6745 26.9267 23.5806 26.9398 23.4868 26.9343Z" fill="#2490D3"/>
</svg>
