<svg width="28" height="28" viewBox="0 0 28 28" fill="none" xmlns="http://www.w3.org/2000/svg">
<path fill-rule="evenodd" clip-rule="evenodd" d="M14.1607 0.693359C6.71326 0.693359 0.693359 6.71326 0.693359 14.1607C0.693359 21.6081 6.71326 27.628 14.1607 27.628C21.6081 27.628 27.628 21.6081 27.628 14.1607C27.628 6.71326 21.6081 0.693359 14.1607 0.693359ZM14.1607 24.9346C8.2216 24.9346 3.38683 20.0998 3.38683 14.1607C3.38683 8.2216 8.2216 3.38683 14.1607 3.38683C20.0998 3.38683 24.9346 8.2216 24.9346 14.1607C24.9346 20.0998 20.0998 24.9346 14.1607 24.9346ZM14.1607 12.2618L18.9955 7.42703L20.8944 9.32592L16.0596 14.1607L20.8944 18.9955L18.9955 20.8944L14.1607 16.0596L9.32592 20.8944L7.42703 18.9955L12.2618 14.1607L7.42703 9.32592L9.32592 7.42703L14.1607 12.2618Z" fill="#FF6633"/>
</svg>
