<svg width="14" height="14" viewBox="0 0 14 14" fill="none" xmlns="http://www.w3.org/2000/svg">
<path fillRule="evenodd" clipRule="evenodd" d="M7.00016 0.333374C5.1585 0.333374 3.66683 1.82504 3.66683 3.66671C3.66683 5.50837 5.1585 7.00004 7.00016 7.00004C8.84183 7.00004 10.3335 5.50837 10.3335 3.66671C10.3335 1.82504 8.84183 0.333374 7.00016 0.333374ZM8.66683 3.66671C8.66683 2.75004 7.91683 2.00004 7.00016 2.00004C6.0835 2.00004 5.3335 2.75004 5.3335 3.66671C5.3335 4.58337 6.0835 5.33337 7.00016 5.33337C7.91683 5.33337 8.66683 4.58337 8.66683 3.66671ZM12.0002 11.1667C11.8335 10.575 9.25016 9.50004 7.00016 9.50004C4.75016 9.50004 2.16683 10.575 2.00016 11.175V12H12.0002V11.1667ZM0.333496 11.1667C0.333496 8.95004 4.77516 7.83337 7.00016 7.83337C9.22516 7.83337 13.6668 8.95004 13.6668 11.1667V13.6667H0.333496V11.1667Z" fill="#95C2F4"/>
</svg>
