<svg width="212" height="54" viewBox="0 0 212 54" fill="none" xmlns="http://www.w3.org/2000/svg">
<path d="M149.588 53.498C147.924 53.498 146.257 53.4863 144.593 53.5038C143.772 53.5126 142.968 53.5096 142.339 52.8504C141.876 52.3632 141.376 52.6637 140.878 52.7862C134.382 54.3994 127.883 54.4636 121.432 52.6228C115.124 50.8229 110.79 46.7214 108.734 40.3911C106.123 32.3484 105.86 24.1161 107.89 15.9217C109.88 7.88483 115.041 2.87602 122.973 0.99735C128.606 -0.338722 134.296 -0.335806 139.932 1.02652C148.644 3.12981 153.7 8.92043 155.338 17.707C156.776 25.4113 156.51 33.1098 154.128 40.6507C153.631 42.226 152.936 43.7079 152.044 45.0819C151.664 45.6683 151.707 46.0416 152.115 46.5813C153.422 48.3025 154.675 50.0674 155.933 51.8293C156.204 52.2086 156.659 52.6403 156.436 53.1071C156.17 53.6672 155.518 53.4951 155.012 53.498C153.205 53.5126 151.398 53.5038 149.591 53.5038L149.588 53.498Z" fill="#374F6E"/>
<path d="M18.5617 26.9722C18.5617 18.8858 18.5617 10.7993 18.5617 2.71287C18.5617 0.679588 18.6475 0.592072 20.6519 0.594989C27.4057 0.606658 34.1623 0.516226 40.9132 0.673755C46.4832 0.805028 51.6271 2.33655 55.5959 6.64232C58.521 9.8133 60.0336 13.699 60.777 17.9114C61.9865 24.7581 61.9293 31.5959 60.1651 38.3405C57.8118 47.3458 51.7758 52.4305 42.6516 53.1977C35.103 53.8337 27.5343 53.3436 19.9771 53.4953C18.6847 53.5215 18.5503 52.6872 18.5503 51.6633C18.5617 46.6749 18.556 41.6894 18.556 36.701C18.556 33.4571 18.556 30.2132 18.556 26.9693L18.5617 26.9722Z" fill="#374F6E"/>
<path d="M189.722 0.547986C194.383 0.547986 199.046 0.547986 203.707 0.547986C205.706 0.547986 205.737 0.582992 205.74 2.54626C205.74 3.80648 205.74 5.06379 205.74 6.32402C205.737 10.1718 204.445 11.5079 200.713 11.5079C193.387 11.5079 186.062 11.5049 178.736 11.5137C177.647 11.5137 176.555 11.5254 175.488 11.8346C174.187 12.2109 173.321 12.9898 173.029 14.3667C172.737 15.7465 173.249 16.8609 174.239 17.7302C175.439 18.7833 176.843 19.4805 178.402 19.8423C184.095 21.1638 189.788 22.4765 195.469 23.8476C196.616 24.1247 197.737 24.5739 198.815 25.064C206.969 28.7805 209.929 39.3378 204.862 46.7446C202.372 50.3823 198.669 52.0364 194.551 52.8969C192.45 53.3345 190.317 53.495 188.175 53.495C179.754 53.495 171.336 53.495 162.916 53.495C161.091 53.495 160.963 53.3666 160.957 51.5317C160.951 49.8864 160.908 48.2382 160.968 46.5929C161.074 43.6815 162.312 42.503 165.177 42.5001C172.978 42.4942 180.781 42.5001 188.581 42.4942C189.673 42.4942 190.765 42.5059 191.841 42.2113C193.21 41.8379 194.317 41.1727 194.603 39.6354C194.9 38.0397 194.302 36.7824 193.027 35.8605C191.886 35.035 190.574 34.6149 189.227 34.294C183.634 32.9521 178.036 31.6394 172.457 30.2479C169.286 29.4544 166.407 28.0396 163.891 25.8517C158.083 20.8049 158.332 8.1035 166.784 3.19971C170.201 1.21894 173.873 0.533399 177.733 0.545068C181.727 0.556737 185.724 0.545068 189.719 0.545068L189.722 0.547986Z" fill="#374F6E"/>
<path d="M66.2438 28.1333C66.2438 20.6244 66.2409 13.1185 66.2495 5.60968C66.2495 4.93289 66.2838 4.25319 66.3696 3.58515C66.6298 1.58979 67.6048 0.653377 69.5578 0.57753C71.0789 0.519186 72.603 0.548359 74.1241 0.548359C83.497 0.548359 92.8699 0.574613 102.243 0.516269C103.655 0.507518 104.201 0.863414 104.119 2.37743C103.998 4.50115 104.099 6.63945 104.084 8.769C104.073 10.8402 103.744 11.2719 101.685 11.2924C95.8808 11.3536 90.0764 11.3361 84.2719 11.3478C82.3676 11.3507 80.4633 11.3828 78.5618 11.3303C77.7755 11.3099 77.4953 11.517 77.5125 12.363C77.5639 15.073 77.5811 17.7889 77.5067 20.499C77.4781 21.5229 77.8699 21.6717 78.7391 21.6688C85.0182 21.6396 91.3002 21.6513 97.5821 21.6542C99.781 21.6542 99.9582 21.8322 99.9611 24.023C99.9611 26.2517 99.9211 28.4804 99.9783 30.7062C100.01 31.9052 99.5722 32.3049 98.3885 32.2961C91.8692 32.2524 85.3499 32.302 78.8335 32.2465C77.7641 32.2378 77.4696 32.5062 77.5067 33.6001C77.5925 36.1147 77.5896 38.6381 77.5067 41.1556C77.4724 42.2262 77.7355 42.5325 78.8249 42.5267C86.1048 42.4713 93.3846 42.4975 100.664 42.5004C103.472 42.5004 104.03 43.0547 104.039 45.864C104.047 47.8972 104.016 49.9334 104.05 51.9667C104.067 53.0694 103.644 53.5157 102.526 53.5157C91.0114 53.4895 79.4968 53.4837 67.9823 53.5216C66.5212 53.5274 66.2267 52.7923 66.2295 51.5321C66.2495 43.7344 66.2409 35.9368 66.2409 28.1362L66.2438 28.1333Z" fill="#374F6E"/>
<path d="M12.1483 27.0158C12.1483 35.1985 12.1483 43.3841 12.1483 51.5668C12.1483 53.3347 11.9968 53.4922 10.2869 53.4951C7.71923 53.5009 5.14868 53.5243 2.581 53.4805C0.622354 53.4484 0.282093 53.0925 0.104814 51.1351C0.0476272 50.5108 0.00473754 49.8807 0.00473754 49.2535C-0.000981128 34.5334 -0.000981194 19.8103 0.00187814 5.0902C0.00187814 0.641486 0.0962358 0.545218 4.45672 0.545218C6.4554 0.545218 8.45408 0.606479 10.4499 0.524798C11.7823 0.469371 12.1769 1.0178 12.1712 2.31595C12.134 10.5483 12.1512 18.7806 12.1512 27.0129L12.1483 27.0158Z" fill="#374F6E"/>
<path d="M207.149 28.0132C213.589 32.3423 213.611 45.1079 207.249 49.93C207.152 48.6727 207.129 47.5904 207.644 46.4206C209.926 41.231 210.558 36.0238 207.41 30.8924C206.892 30.0523 207.275 29.0984 207.149 28.0132Z" fill="#7089AE"/>
<path d="M140.65 14.5183C142.005 16.3182 142.528 18.3982 142.617 20.6211C141.696 21.3796 140.607 21.0353 139.592 21.0558C136.761 21.1141 135.349 22.5319 135.34 25.4199C135.337 26.6276 135.354 27.8382 135.326 29.0459C135.303 30.0203 134.931 30.5687 133.862 30.5425C132.106 30.4987 130.345 30.4987 128.589 30.5425C127.525 30.5687 127.137 30.029 127.114 29.0518C127.079 27.6019 127.088 26.1492 127.114 24.6993C127.131 23.6987 127.6 23.1736 128.595 23.1591C128.784 23.1591 128.978 23.1678 129.164 23.1357C129.904 23.0103 130.854 23.477 131.271 22.4181C131.674 21.3883 131.305 19.8364 130.493 19.1042C129.284 18.0161 128.009 17.0038 126.791 15.9215C126.405 15.5773 125.898 15.166 126.144 14.5913C126.35 14.1099 126.951 14.1508 127.42 14.1449C129.984 14.1158 132.552 14.0983 135.117 14.1537C136.023 14.1741 136.795 14.39 136.115 15.7173C137.453 14.2529 138.88 13.649 140.656 14.5183H140.65Z" fill="white"/>
<path d="M140.65 14.5184C138.926 14.3579 137.353 14.5767 136.289 16.2191C136.104 16.5079 135.769 16.925 135.357 16.54C134.957 16.1666 135.332 15.8515 135.58 15.5656C135.8 15.3148 136.029 15.0697 136.387 14.673H126.007C127.729 16.1607 129.293 17.5172 130.865 18.8679C131.64 19.533 132.183 22.2693 131.694 23.1124C131.391 23.6375 130.874 23.5033 130.416 23.515C128.451 23.5675 127.468 24.5846 127.468 26.5663C127.468 30.2041 127.468 30.2245 130.985 30.1924C132.258 30.1807 133.893 30.7438 134.711 29.959C135.609 29.0956 134.908 27.3919 135.017 26.0617C135.057 25.5803 135.023 25.0932 135.023 24.6089C135.023 22.4356 136.787 20.6211 138.911 20.6124C140.147 20.6065 141.385 20.6182 142.62 20.6211C142.703 20.942 142.786 21.2629 142.869 21.5838C141.725 22.2635 140.467 21.8318 139.269 21.9543C137.682 22.1176 136.607 23.0978 136.501 24.5097C136.427 25.5045 136.741 26.0675 137.825 26.0471C139.003 26.0238 140.184 26.0238 141.362 26.0529C141.917 26.0675 142.511 25.9858 142.943 26.4876C142.943 26.7618 142.943 27.0389 142.943 27.3131C142.171 28.0016 141.227 27.6836 140.353 27.7653C140.212 27.7799 140.067 27.7595 139.926 27.7682C138.937 27.8266 137.836 27.4561 136.984 27.9753C135.963 28.5967 136.824 29.8861 136.398 30.7875C133.57 30.7992 130.742 30.805 127.914 30.8254C127.331 30.8313 126.591 30.6533 126.659 31.6773C126.093 33.1096 125.069 33.8681 123.534 33.836C122.367 33.8126 121.198 33.9585 120.034 33.7426C119.72 33.2817 119.977 32.7391 119.82 32.2549C120.717 31.5985 121.747 31.896 122.719 31.8669C124.964 31.7998 125.924 30.8634 125.95 28.5996C125.964 27.3452 125.967 26.0879 125.95 24.8335C125.921 22.9957 124.972 22.0622 123.131 21.9368C122.018 21.8609 120.843 22.2518 119.805 21.5284C119.885 20.9391 119.571 20.3002 120.028 19.7605C121.001 20.4723 122.124 20.2711 123.199 20.2506C124.392 20.2302 125.444 20.4753 126.327 21.3533C127.262 22.281 128.463 22.0739 129.573 21.9339C130.448 21.823 130.534 20.5686 129.696 19.7255C128.649 18.6724 127.383 17.8556 126.382 16.7646C125.192 15.4665 123.634 15.0172 122.073 14.5184C122.373 14.1479 122.67 13.7774 122.971 13.404C126.213 13.0131 129.47 13.2552 132.721 13.229C135.074 13.2085 137.433 13.0598 139.778 13.3923C140.069 13.7657 140.364 14.1391 140.656 14.5154L140.65 14.5184Z" fill="#7089AE"/>
<path d="M119.802 21.5286C120.846 21.5141 121.889 21.4878 122.933 21.4878C125.249 21.4849 126.401 22.6372 126.401 24.9417C126.401 26.1495 126.401 27.3572 126.401 28.5649C126.401 31.2545 125.303 32.3806 122.653 32.366C121.706 32.3602 120.763 32.296 119.816 32.2581C119.548 28.6816 119.353 25.1051 119.805 21.5286H119.802Z" fill="white"/>
<path d="M120.031 33.7455C120.571 33.0162 121.36 33.3167 121.995 33.378C123.842 33.5588 125.443 33.2263 126.656 31.6802C127.336 32.6458 128.017 33.6114 128.697 34.5769C128.803 35.0875 128.737 35.7176 129.498 35.773C130.293 36.829 131.088 37.888 131.886 38.944C131.763 39.6995 131.139 39.5828 130.659 39.6149C129.618 39.682 128.572 39.6558 127.531 39.6324C126.93 39.6178 126.164 39.8016 125.838 39.1744C125.558 38.6377 126.244 38.2322 126.619 37.6458C125.063 38.4743 124.077 40.3676 122.081 39.2561C120.683 37.6925 120.371 35.7117 120.034 33.7426L120.031 33.7455Z" fill="white"/>
<path d="M122.067 14.5214C123.685 14.3085 124.96 14.8686 126.116 16.0617C127.277 17.2577 128.558 18.3575 129.91 19.3231C130.919 20.0407 130.722 20.9538 130.713 21.8902C130.713 22.1411 130.613 22.4183 130.345 22.4212C129.132 22.4416 127.603 23.0309 126.779 22.147C125.152 20.4054 123.239 20.6067 121.272 20.6096C120.677 20.6096 119.96 20.7759 120.022 19.7607C120.397 17.8908 120.78 16.0238 122.067 14.5214Z" fill="white"/>
<path d="M139.772 13.3953C139.578 13.8037 139.203 13.6666 138.897 13.6666C133.882 13.6754 128.866 13.6754 123.851 13.6666C123.542 13.6666 123.174 13.7862 122.962 13.4041C127.434 9.92095 135.32 9.91512 139.769 13.3924L139.772 13.3953Z" fill="white"/>
<path d="M142.937 26.488C141.05 26.4792 139.16 26.4326 137.273 26.4822C136.398 26.5055 136.038 26.3159 136.044 25.3124C136.058 22.684 137.162 21.4763 139.758 21.4909C140.793 21.4967 141.831 21.5521 142.866 21.5842C142.903 22.0451 142.937 22.5089 142.975 22.9699C143.103 24.1397 143.149 25.3124 142.949 26.4792L142.937 26.488Z" fill="white"/>
<path d="M136.39 30.7908C135.769 29.8748 136.146 28.845 136.095 27.8677C136.058 27.188 136.638 27.3485 137.024 27.3427C138.994 27.3222 140.964 27.3193 142.937 27.3135C142.995 28.985 143.046 30.6566 142.663 32.3019C142.268 32.6053 141.874 32.5265 141.479 32.299C140.178 30.4115 138.205 30.8841 136.39 30.7908Z" fill="white"/>
<path d="M132.655 40.0906C133.264 40.852 134.476 41.6542 134.162 42.4594C133.893 43.1478 132.455 42.7482 131.531 42.7832C128.438 42.894 125.507 42.3835 122.982 40.3852C123.008 39.7639 123.511 39.7435 123.903 39.7289C126.51 39.6355 129.121 39.6764 131.729 39.7376C132.066 39.7464 132.352 39.9622 132.658 40.0906H132.655Z" fill="white"/>
<path d="M132.655 40.0907C129.867 40.1024 127.082 40.1024 124.295 40.1374C123.857 40.1432 123.345 39.9098 122.979 40.3853C122.679 40.009 122.376 39.6356 122.076 39.2593C123.794 39.551 124.878 38.3987 126.076 37.474C126.456 37.1793 126.948 36.5346 127.391 37.1181C127.794 37.649 127.031 37.8649 126.728 38.177C126.468 38.4454 126.182 38.6904 125.558 39.2739C127.926 39.0609 129.907 39.5335 131.877 38.9472C132.295 39.2184 132.392 39.7115 132.652 40.0907H132.655Z" fill="#7089AD"/>
<path d="M142.949 26.4791C142.957 25.3093 142.966 24.1395 142.974 22.9697C143.278 24.1424 143.463 25.3122 142.949 26.4791Z" fill="#7089AE"/>
<path d="M129.496 35.7761C127.826 36.3479 128.649 35.1956 128.695 34.5771C128.961 34.9768 129.227 35.3765 129.496 35.7761Z" fill="#8CA0BC"/>
<path d="M141.479 32.2988C141.874 32.2988 142.268 32.2988 142.663 32.3017C142.631 32.6256 142.597 32.9494 142.534 33.5824C142.097 33.0515 141.788 32.6751 141.479 32.2988Z" fill="#9EADC3"/>
<path d="M30.634 16.5459C30.7398 16.1345 30.1966 15.7261 30.6226 15.3119C30.9 15.5015 31.0744 15.239 31.2917 15.1544C32.1209 14.9647 32.9472 14.7664 33.765 14.533C35.2547 14.2617 36.7044 14.5913 38.1627 14.8101C38.7145 14.9764 39.2892 15.0844 39.8011 15.3702C40.087 15.5424 40.3901 15.6765 40.7018 15.7991C41.1764 16.012 41.5996 16.3183 42.0342 16.6013C42.6947 17.0505 43.2037 17.6661 43.7841 18.2057C44.8278 19.2326 45.617 20.4636 46.4719 21.6451C48.1418 24.4806 49.274 27.4066 48.5678 30.843C48.2361 32.4562 47.4898 33.5764 46.0916 34.3145C42.1829 36.3827 34.8973 34.6091 34.4026 27.8762C34.334 26.9486 34.6457 26.0676 34.7029 25.1545C34.7772 24.924 34.903 24.7344 35.1146 24.609C35.4063 24.4865 35.7065 24.5594 36.0039 24.5623C37.2849 24.221 38.5144 24.3348 39.6838 24.9911C40.0155 25.2157 40.2843 25.4812 40.2671 25.9275C40.1185 26.3826 39.7811 26.4351 39.3836 26.3564C38.6573 26.0151 37.9539 25.0349 37.1333 25.7233C36.367 26.3651 36.9732 27.3365 37.1476 28.1592C37.1676 28.2525 37.2134 28.3401 37.2563 28.4276C37.994 30.032 39.4093 30.5163 40.9705 30.7584C41.2679 30.9188 41.7483 30.9364 41.5338 31.4994C40.9305 31.9369 40.23 31.7415 39.5723 31.8173C38.6916 31.9749 38.054 31.549 37.5107 30.9101C36.0696 29.9183 35.8437 28.3576 35.6607 26.7706C35.838 28.3926 36.0782 29.9853 37.5536 30.9947C37.9082 31.8699 38.5716 32.3483 39.4637 32.5321C40.3472 32.9521 41.245 32.8209 42.1457 32.6108C43.0235 32.4329 43.8813 32.1995 44.6562 31.7182C45.7113 31.1872 46.0516 30.2917 46.0659 29.1394C46.0887 27.0915 45.5798 25.1837 44.7706 23.3371C44.5819 22.8149 44.2416 22.3715 44.0386 21.8551C44.0214 21.7122 44.0558 21.578 44.1358 21.4584C44.3245 21.3417 44.5247 21.3271 44.7306 21.3971C45.168 21.7472 45.4654 22.214 45.7371 22.6982C46.1316 23.2846 46.3432 23.9584 46.632 24.5944C46.7092 25.2712 46.9694 25.8955 47.1524 26.546C48.4448 31.1201 46.4233 34.0052 41.794 33.7339C42.3058 33.8215 42.8205 33.7689 43.3295 33.7193C46.8522 33.381 47.7958 31.1201 47.4612 27.7712C47.3469 26.6335 46.8007 25.5658 46.592 24.4252C46.3118 23.8067 46.0773 23.162 45.7085 22.5874C45.4483 22.1294 45.1223 21.721 44.7877 21.3184C43.7155 20.2653 42.8749 18.9613 41.5024 18.2378C40.9419 17.7565 40.1985 17.7419 39.5609 17.456C39.4408 17.3977 39.335 17.3189 39.2435 17.2197C39.2235 17.1556 39.2063 17.0914 39.1892 17.0272C39.212 16.8901 39.2835 16.788 39.4036 16.718C39.7096 16.5809 40.027 16.7938 40.4273 16.6888C40.5245 16.6859 40.3415 16.3679 40.3615 16.5604C40.3729 16.6742 40.2843 16.7238 40.1842 16.718C39.904 16.7034 39.6438 16.578 39.3607 16.575C38.8861 16.5138 38.4314 16.3533 37.9597 16.2804C36.1926 15.5686 34.4284 15.8516 32.6642 16.2921C32.1095 16.4117 31.5891 16.6684 31.02 16.7296C30.8685 16.7296 30.7456 16.6655 30.6455 16.5488L30.634 16.5459Z" fill="#718AAE"/>
<path d="M30.6395 21.7124C30.4879 21.3448 30.262 20.9831 30.5994 20.598C30.7081 20.5455 30.8196 20.4959 30.934 20.4493C31.3572 20.3559 31.6917 20.0817 32.0663 19.8833C32.4923 19.6558 32.967 19.5274 33.3673 19.2386C33.5274 19.1307 33.699 19.0578 33.8877 19.0315C34.4024 18.9994 34.9027 18.8536 35.4174 18.839C36.0865 18.8127 36.7585 18.8565 37.4247 18.7427C37.5591 18.734 37.6935 18.7485 37.8221 18.7836C38.2625 19.0724 38.7371 19.3028 39.2118 19.5304C42.257 20.9364 43.658 25.3676 42.6515 28.1273C42.6515 28.1331 42.3914 28.3461 42.6916 28.2615C42.8231 28.2236 42.9432 28.1419 43.0862 28.1244C43.3235 28.1944 43.4407 28.3724 43.5065 28.597C43.2806 30.0293 42.1798 30.849 40.5985 30.7411C40.1811 30.7119 39.7636 30.6273 39.3833 30.429C39.2404 30.2948 39.1231 30.1168 39.2947 29.9564C39.8465 29.4459 39.2032 29.758 39.1174 29.6909C38.1252 29.6501 37.4476 29.1512 37.0444 28.2469C36.5383 26.4033 36.7241 25.9482 38.0909 25.6389C38.5455 25.7294 38.4826 26.1028 38.5084 26.4266C38.8686 26.9167 39.3433 27.3338 39.9266 27.045C40.5299 26.7475 40.4613 26.1174 40.2468 25.5398C39.7951 24.1833 38.9744 23.1885 37.6105 22.7072C37.2932 22.5963 37.0101 22.4125 36.9071 22.045C36.9586 21.6862 37.2274 21.587 37.519 21.514C37.8193 21.4645 38.1166 21.4965 38.4083 21.5753C39.8036 21.9516 40.8645 22.7072 41.2619 24.2066C41.6136 25.5748 41.9481 26.94 40.9502 28.1973C40.1725 28.7778 39.4377 28.3665 38.4369 28.0194C39.4176 28.419 40.1411 28.7749 40.9245 28.2498C42.0139 26.8817 41.6079 25.4231 41.1818 23.9645C40.6986 22.6284 39.9409 21.5228 38.6399 20.881C38.2482 20.6506 37.845 20.4493 37.4161 20.3005C36.6612 20.0671 35.9035 20.0875 35.1429 20.283C34.897 20.3676 34.654 20.4551 34.3995 20.5047C33.0127 20.3909 32.1349 21.5782 30.9197 21.9108C30.7767 21.9166 30.6795 21.8495 30.628 21.7153L30.6395 21.7124Z" fill="#728BAF"/>
<path d="M47.4927 37.7364C47.3355 38.1215 47.4155 38.702 46.7522 38.667C46.3947 38.9937 45.9601 39.1571 45.5055 39.2825C45.3168 39.3438 45.1223 39.3846 44.925 39.4079C44.4104 39.3758 43.8928 39.3292 43.3924 39.5246C42.8606 39.6355 42.3259 39.6471 41.7941 39.5305C41.5682 39.5246 41.4338 39.2475 41.1793 39.3146C41.2965 39.4079 41.3509 39.5305 41.3509 39.688C41.2937 39.8193 41.205 39.9097 41.0849 39.971C39.2006 39.9009 37.7481 38.7457 36.1697 37.9231C32.8329 36.1844 31.8979 35.1168 30.7456 31.7795C30.8743 32.4359 31.3289 33.0981 30.6798 33.7486C30.0937 32.5205 30.4454 31.2194 30.4311 29.9563C30.4139 28.5881 30.1794 27.1966 30.6112 25.8459C30.7427 25.8751 30.8399 25.9539 30.9 26.0764C30.96 26.2543 30.9858 26.4323 30.9171 26.6132C31.0658 26.5694 30.9886 26.4323 31.0258 26.3419C31.2145 25.8693 31.3804 25.3763 31.9408 25.2158C32.1667 25.2683 32.2839 25.4259 32.3468 25.6388C32.4526 26.4527 31.9065 27.147 31.9522 27.9463C31.469 32.2346 33.5163 35.038 37.0647 36.9546C37.9826 37.5322 38.9833 37.8852 40.027 38.139C41.348 38.3665 42.6719 38.3432 43.99 38.139C44.2702 38.0631 44.5562 38.0223 44.845 37.9931C45.474 37.926 46.0716 37.716 46.6864 37.5759C46.9752 37.5264 47.2554 37.5234 47.4984 37.7335L47.4927 37.7364Z" fill="#738BAF"/>
<path d="M48.1275 36.056C48.0989 36.4703 48.2476 36.9341 47.7929 37.2229C47.4012 37.5409 46.898 37.57 46.4548 37.7626C45.9144 37.9464 45.3511 38.0426 44.8078 38.2293C44.3503 38.1827 43.9185 38.3518 43.4696 38.3781C42.6919 38.3898 41.9113 38.381 41.1336 38.3839C39.7268 38.3519 38.4687 37.8238 37.2449 37.1791C34.254 35.5163 32.1266 33.2147 31.8521 29.5565C31.7435 28.0629 31.9465 26.6277 32.6585 25.2945C32.973 24.8657 33.2132 24.3493 33.8308 24.2881C34.1825 24.3435 34.3169 24.5856 34.3541 24.9124C34.3598 25.2858 34.214 25.6037 34.0167 25.9071C33.6592 26.3009 33.4419 26.7648 33.359 27.2957C32.7443 30.2391 34.2111 33.2468 37.2306 35.2275C37.4193 35.7235 37.8196 35.9627 38.2885 36.1173C38.6316 36.3886 39.0091 36.5928 39.4237 36.7299C39.6753 36.8232 39.9384 36.8582 40.1986 36.9137C41.3852 37.2696 42.6033 37.0595 43.8042 37.1237C44.1244 37.115 44.4504 37.1471 44.742 36.9604C44.9107 36.867 45.0852 36.7999 45.2796 36.7853C45.86 36.8437 46.3747 36.6803 46.8351 36.3215C47.2354 36.0823 47.6328 35.8197 48.1275 36.056Z" fill="#738BAF"/>
<path d="M33.828 25.9333C33.9309 25.627 34.0339 25.3207 34.1368 25.0144C34.4113 24.9473 34.5428 25.1165 34.6401 25.3353C34.8002 26.5138 34.3055 27.634 34.6057 28.8884C35.4149 32.284 37.6052 34.4311 41.0049 34.9037C42.6205 35.1283 44.1645 35.0116 45.72 34.5303C47.5385 33.9672 48.2105 32.4503 48.8481 30.875C48.9682 30.7525 49.0997 30.735 49.2455 30.8225C49.2713 32.0273 49.0397 33.1883 48.6851 34.329C47.6329 35.7234 46.0688 35.9684 44.5276 36.1289C43.2181 36.2631 41.8856 36.1697 40.5646 36.1551C40.0842 36.1493 39.6239 36.0414 39.175 35.8809C35.5436 34.8657 33.5306 32.4445 33.076 28.6434C33.0274 28.2437 33.1418 27.8849 33.1418 27.5057C33.319 26.9601 33.422 26.3767 33.8251 25.9333H33.828Z" fill="#738BAF"/>
<path d="M43.295 28.553L43.0062 28.2087C42.7861 27.0564 43.032 25.8983 42.8061 24.7169C42.3686 22.4473 41.2706 20.7641 39.3005 19.6526C38.8402 19.3142 38.2397 19.2646 37.7965 18.8912L37.6764 18.9058C36.7958 18.9408 35.9094 18.8154 35.0316 18.9933C34.5969 19.04 34.1766 19.2005 33.7334 19.1975C33.6762 19.2938 33.619 19.3901 33.5619 19.4863C33.0615 19.5243 32.5754 19.6089 32.1522 19.9093C31.6976 20.1223 31.3716 20.5715 30.8426 20.6503C30.7597 20.6386 30.6768 20.6211 30.5967 20.5949C30.5567 20.3002 30.5195 20.0085 30.4795 19.7168C31.6518 18.6608 33.0701 18.1415 34.554 17.7506C35.6692 17.4385 36.7443 17.9111 37.8423 17.914C38.1282 17.8936 38.4142 17.8527 38.7001 17.9256C40.7645 18.8737 42.5545 20.131 43.4752 22.3598C43.7897 23.2729 44.027 24.218 44.5446 25.0494C44.5846 25.1953 44.5932 25.3411 44.5846 25.4928C44.5331 26.8027 44.9563 28.0833 44.7819 29.399C44.3273 31.1493 43.2264 31.8056 41.5566 31.333C41.2935 31.0617 40.9361 31.1288 40.6187 31.0588C40.8131 30.4433 41.3564 30.6329 41.7767 30.525C42.7718 30.2683 43.6239 29.8453 43.7583 28.6434C43.784 28.4217 43.7783 28.3633 43.6467 28.3984C43.5381 28.4275 43.4437 28.5675 43.295 28.553Z" fill="#738CAF"/>
<path d="M44.4361 41.3332C43.8728 41.7446 43.3553 42.2259 42.6662 42.4243C42.2001 42.1734 41.6968 42.3776 41.3194 42.3017C41.0249 42.3105 41.348 42.5585 41.2422 42.398C41.6482 42.2901 42.0514 42.2026 42.426 42.4884C41.3366 43.0631 40.087 42.9027 38.9547 43.2761C38.6259 43.0573 38.2571 43.0252 37.8796 43.0252C37.1991 42.7918 36.4643 42.751 35.818 42.4068C34.4113 41.6162 32.9158 40.9948 31.5748 40.0788C31.2917 39.8863 30.9829 39.7784 30.6369 39.8688C30.0937 39.4079 30.7056 38.9353 30.6255 38.4715C30.6684 38.416 30.7141 38.3635 30.757 38.3081C32.8672 39.2562 34.8487 40.4581 36.9332 41.4558C37.0132 41.4878 37.0933 41.517 37.1762 41.5462C37.2963 41.5899 37.4221 41.6279 37.5279 41.7037C37.465 41.5199 37.2649 41.6104 37.1534 41.5112C36.8303 41.4003 36.5043 41.307 36.3384 40.9598C36.3699 40.6098 36.6158 40.5048 36.9017 40.4377C37.1076 40.4114 37.3106 40.4289 37.5108 40.4756C38.2027 40.6856 38.9061 40.7731 39.6295 40.7031C39.8411 40.6885 40.0499 40.7031 40.2586 40.7352C40.5531 40.7877 40.839 40.8811 41.1421 40.8781C42.2373 41.059 43.4296 40.496 44.4361 41.3332Z" fill="#728BAF"/>
<path d="M30.6284 13.8885C30.657 13.6172 30.6885 13.3488 30.7171 13.0775C31.0802 12.7391 31.5434 12.7158 31.998 12.6662C32.4412 12.5495 32.8844 12.4328 33.3419 12.4037C34.8517 12.0974 36.3642 11.9369 37.8797 12.357C38.3458 12.4299 38.8033 12.5583 39.2722 12.6195C39.4009 12.637 39.521 12.6779 39.6382 12.7333C40.0356 13.0454 40.4988 13.2351 40.9649 13.4188C42.6948 14.1394 44.4362 14.8395 45.7286 16.3069C45.7943 16.4206 45.8487 16.5431 45.9001 16.6657C46.1775 17.357 46.7837 17.7421 47.3069 18.203C47.3899 18.2993 47.4585 18.4072 47.5157 18.5239C47.6672 19.0753 48.2048 19.4282 48.2734 20.0263C48.2476 20.2334 48.1476 20.3822 47.9503 20.4551C47.6901 20.4784 47.4442 20.3997 47.204 20.3151C47.0839 20.2655 46.9781 20.1955 46.8809 20.1079C46.8008 20.0088 46.7351 19.8979 46.6779 19.7812C46.3176 19.0111 45.7743 18.4364 44.9623 18.1622C44.7907 18.0688 44.6477 17.9405 44.5277 17.7859C44.1331 17.2083 43.727 16.6423 43.0637 16.3477C42.8835 16.2689 42.712 16.1727 42.5633 16.0414C41.9314 15.0495 40.8505 14.8424 39.8727 14.4486C37.8054 13.6201 35.7066 13.1271 33.4906 13.766C32.63 13.8214 31.8322 14.2998 30.9429 14.1802C30.7943 14.1336 30.6913 14.0373 30.6313 13.8914L30.6284 13.8885Z" fill="#758DB0"/>
<path d="M39.6382 12.8412C39.5267 12.8295 39.4152 12.8149 39.3008 12.8033C38.8948 12.6195 38.443 12.7012 38.0284 12.5757C36.2842 11.9835 34.54 12.2315 32.7986 12.5903C32.5184 12.6662 32.2468 12.7712 31.9551 12.7945C31.5405 12.7187 31.1345 13.1008 30.7171 12.8208C30.6055 12.2461 30.1195 11.6627 30.7542 11.1055C31.8922 11.7064 33.0674 10.98 34.2169 11.2105C34.8202 11.2105 35.4264 11.2105 36.0297 11.2105C36.47 11.2105 36.9104 11.2105 37.3507 11.2105C37.7482 11.3243 38.1599 11.3563 38.5688 11.3884C39.175 11.5518 39.7726 11.7473 40.4102 11.7502C40.536 11.7618 40.6532 11.7968 40.7676 11.8464C41.1536 12.1557 41.6054 12.3424 42.0515 12.5349C42.8492 12.9375 43.6413 13.3459 44.439 13.7397C44.7793 13.9264 45.111 14.1277 45.4341 14.3465C45.9516 14.6265 46.3462 15.0728 46.818 15.4142C47.5786 15.8722 47.9503 16.5927 48.1361 17.4358C47.1554 17.5233 46.695 16.581 45.9087 16.2806C44.4047 15.1429 42.8235 14.151 41.0335 13.5472C40.5961 13.2584 40.0614 13.1592 39.6382 12.8383V12.8412Z" fill="#738BAF"/>
<path d="M46.952 19.7084C46.9691 19.8426 46.9834 19.9768 47.0006 20.111C47.0778 20.1781 47.1521 20.251 47.2179 20.3298C47.3094 20.4611 47.3809 20.604 47.4438 20.7499C47.4895 20.852 47.5239 20.957 47.5553 21.0649C47.6268 21.3479 47.7383 21.6308 47.5896 21.9255C47.4181 22.1355 47.2093 22.2522 46.9291 22.1909C46.5317 22.0276 46.3973 21.6308 46.1771 21.3129C45.3965 20.2627 44.716 19.1337 43.761 18.2265C43.2091 17.716 42.6287 17.2434 42.0797 16.7271C41.6365 16.5024 41.2934 16.129 40.853 15.8986C40.5842 15.7119 40.2354 15.7235 39.9723 15.5252C39.4491 15.1664 38.8 15.1664 38.2425 14.898C36.5612 14.6879 34.8856 14.2591 33.1957 14.8134C32.4409 14.9913 31.6488 15.0555 30.974 15.5047C30.7281 15.6798 30.7024 15.4435 30.6195 15.3093C30.7052 14.8338 30.1305 14.3583 30.628 13.8857C30.6681 13.9236 30.7081 13.9645 30.7453 14.0024C32.0263 14.3437 33.1414 13.5648 34.3566 13.4423C36.321 13.1827 38.1795 13.6027 39.9866 14.3466C41.0303 14.7375 42.0597 15.1576 42.846 16.0094C42.9375 15.9978 43.029 15.9919 43.1205 15.9861C43.6723 16.5316 44.2385 17.0596 44.6645 17.7218C44.7732 17.8268 44.8818 17.9319 44.9876 18.0398C45.834 18.3607 46.2629 19.1921 46.952 19.7055V19.7084Z" fill="#768EB1"/>
<path d="M30.6772 33.7488V31.6367C32.5929 36.6134 36.922 38.2296 41.2882 39.7903C41.3025 39.8632 41.3168 39.9361 41.3311 40.0061C41.2338 40.2249 41.0537 40.3358 40.8364 40.3941C40.1158 40.54 39.4439 40.1607 38.7319 40.1957C38.3802 40.1637 38.0428 40.0936 37.7569 39.8603C37.3938 39.4694 36.9849 39.1397 36.4845 38.9384C35.0634 38.2908 33.771 37.439 32.5558 36.453C31.738 35.7879 31.026 35.0498 30.7372 33.9821C30.7258 33.9005 30.7029 33.8217 30.6743 33.7458L30.6772 33.7488Z" fill="#F8F9FB"/>
<path d="M34.394 20.4082C34.4854 20.1719 34.6713 20.0815 34.9058 20.064C35.6578 20.0873 36.4126 20.0465 37.1675 20.0961C37.7765 20.1982 38.2798 20.5453 38.8173 20.8137C39.1633 20.9945 39.5522 21.2367 39.3463 21.6713C39.1061 22.1789 38.7258 21.8668 38.4085 21.6713C36.3526 20.9508 34.4597 21.3359 32.6412 22.4794C32.0236 22.8703 31.6061 23.6288 30.7483 23.6025C30.6311 22.9782 30.1021 22.3802 30.6368 21.7151L30.7197 21.8318C31.3974 22.0856 31.7033 21.4146 32.1808 21.19C32.8985 20.8574 33.5419 20.3498 34.3911 20.4082H34.394Z" fill="#7C93B4"/>
<path d="M36.9561 40.7117C36.7789 40.7759 36.5987 40.8401 36.4214 40.9043C34.6915 40.8459 33.5164 39.5478 32.0552 38.8885C31.6206 38.693 31.349 38.0425 30.7199 38.3721C30.7199 38.3721 30.6284 38.4655 30.6284 38.4684C30.0566 37.7945 30.8114 37.1148 30.6199 36.4381C30.6828 36.3039 30.7886 36.2455 30.9315 36.2543C32.4727 37.1411 33.9024 38.203 35.3463 39.2473C35.5093 39.3523 35.678 39.4515 35.8524 39.5332C36.3014 39.8512 37.0305 39.8949 36.959 40.7147L36.9561 40.7117Z" fill="#758DB0"/>
<path d="M40.7045 11.9309L40.6101 11.9368H40.5158C39.9553 11.8988 39.4149 11.7617 38.8831 11.5838C38.6457 11.3825 38.1025 11.6859 38.0996 11.0937C40.3728 10.8224 42.5144 11.1608 44.4302 12.529C44.8591 12.8819 45.2794 13.2495 45.6368 13.6783C46.0114 14.0488 46.7034 14.1247 46.6833 14.8569C46.1258 15.2536 45.8884 14.5943 45.4853 14.4835C45.2194 14.2997 44.9334 14.1451 44.6389 14.008C43.8497 13.4304 42.9433 13.0861 42.0855 12.6456C41.6423 12.3743 41.0762 12.3481 40.7016 11.9339L40.7045 11.9309Z" fill="#7B92B3"/>
<path d="M47.0354 22.1032C47.2069 22.007 47.3785 21.9078 47.5501 21.8115C48.7567 22.3133 49.0912 23.3022 49.0169 24.5216C49.1027 24.5887 49.1885 24.6558 49.2714 24.7229C49.4086 25.0934 49.1799 25.5514 49.5316 25.8693C49.6031 27.5321 49.4458 29.1803 49.2456 30.8256C49.1742 30.8256 49.1027 30.8286 49.0312 30.8315C48.6652 30.5748 48.6452 30.1926 48.6938 29.8017C48.9854 27.4184 48.3192 25.2538 47.2441 23.1797C47.0754 22.85 46.8352 22.5175 47.0354 22.1062V22.1032Z" fill="#7A91B3"/>
<path d="M30.6342 16.5461C30.7571 16.5577 30.8801 16.5694 31.003 16.584C31.6464 16.5752 32.1925 16.2252 32.7987 16.0735C34.5858 15.6592 36.3672 15.493 38.1371 16.1581C38.5402 16.266 38.6146 16.5344 38.4773 16.899C37.2049 17.3512 35.8725 16.6803 34.6001 17.1033C34.3199 17.1791 34.0339 17.2141 33.748 17.2462C33.2848 17.2724 32.8444 17.4358 32.3898 17.5204C32.0124 17.5875 31.6979 17.783 31.4091 18.028C31.1803 18.1709 30.9516 18.273 30.7171 18.0368C30.8401 17.5321 30.1967 17.0712 30.6313 16.5461H30.6342Z" fill="#7A91B3"/>
<path d="M30.7398 33.9849C32.2638 36.1611 34.4197 37.5234 36.6929 38.7253C36.7729 38.8624 36.7587 38.982 36.6357 39.0841C36.2211 39.3029 35.8208 39.1541 35.4176 39.0345C33.8393 38.3577 32.4382 37.3892 31.2201 36.1844C30.7741 35.741 30.8884 36.3595 30.7054 36.3507L30.6168 36.4382C30.0707 35.5893 30.6797 34.8017 30.7398 33.9849Z" fill="#778FB2"/>
<path d="M40.4074 35.8052C43.2782 35.9598 46.1175 35.9306 48.6852 34.3291C48.7567 34.7492 48.6137 35.1022 48.3507 35.4143C47.49 36.1815 46.3949 36.3478 45.3426 36.6308C43.6156 36.6891 41.8714 37.0829 40.1758 36.4003C39.9757 36.0911 40.1472 35.9306 40.4074 35.8052Z" fill="white"/>
<path d="M30.7511 23.5996C32.4553 21.8989 34.3996 20.7816 36.8873 20.942C37.4591 20.98 38.011 21.0296 38.4313 21.4876C38.5657 21.6188 38.5571 21.7443 38.4084 21.8551C38.1368 21.8347 37.8623 21.8172 37.5906 21.7968C36.4069 21.7355 35.2603 21.9135 34.1594 22.3685C33.7792 22.5202 33.416 22.704 33.0843 22.9462C32.4724 23.3079 31.9921 23.8476 31.4173 24.2531C30.9684 24.5681 30.5081 24.714 30.6768 23.8271C30.7054 23.7513 30.7311 23.6784 30.754 23.6025L30.7511 23.5996Z" fill="white"/>
<path d="M30.6743 40.9337C30.7029 40.6478 30.7315 40.359 30.7601 40.0731C31.2662 39.7814 31.6608 40.114 32.0497 40.3444C33.2248 41.0329 34.4744 41.5726 35.661 42.2406C35.9555 42.579 36.6932 42.3165 36.7047 43.037C35.9298 43.0049 35.1749 43.7109 34.3829 43.107C34.4143 42.8591 34.6688 42.967 34.7803 42.8503C34.5058 42.9028 34.2599 42.7395 33.9911 42.7365C33.4479 42.684 33.0018 42.3748 32.5157 42.1648C31.8895 41.7739 31.1633 41.5376 30.6743 40.9366V40.9337Z" fill="#7C92B3"/>
<path d="M44.9853 39.2532C45.0853 39.1599 45.1854 39.0636 45.2855 38.9703C45.7573 39.4283 46.2119 38.5268 46.6837 38.9498C46.5064 39.4224 46.3635 39.9154 45.8345 40.1225C45.4199 40.1926 44.9938 40.2042 44.6021 40.3909C44.4306 40.4609 44.2561 40.5222 44.076 40.5689C43.5785 40.6389 43.0809 40.7293 42.5806 40.601C42.0916 40.4434 41.5312 40.4288 41.231 39.8979L41.2853 39.7929C41.2738 39.7287 41.2681 39.6616 41.2653 39.5945C41.3568 39.4516 41.4883 39.3903 41.6541 39.4078C42.4061 39.367 43.1667 39.507 43.9102 39.2853C44.2647 39.1949 44.6307 39.4166 44.9824 39.2532H44.9853Z" fill="#7A91B3"/>
<path d="M35.5747 42.3949C33.9678 41.6218 32.3637 40.8458 30.7567 40.0728C30.731 39.994 30.691 39.9269 30.6338 39.8686C30.6853 39.0722 31.057 39.3522 31.4659 39.5885C32.9499 40.4404 34.4453 41.2718 35.935 42.109C35.9035 42.3219 35.7206 42.3395 35.5719 42.3978L35.5747 42.3949Z" fill="white"/>
<path d="M49.014 24.5187C48.8139 23.4539 48.1276 22.6604 47.5472 21.8086C47.4585 21.5111 47.3699 21.2135 47.2812 20.9189C47.3642 20.7351 47.4957 20.6126 47.693 20.563C48.0933 20.6359 48.3707 20.8868 48.5908 21.2164C48.7567 21.6307 49.0283 21.9837 49.2456 22.3687C49.2056 23.0893 49.5401 23.8507 49.0169 24.5187H49.014Z" fill="#7D93B5"/>
<path d="M30.7653 42.9786C30.0047 42.579 30.7539 42.0772 30.6795 41.6309C31.3829 41.0358 31.7918 41.8847 32.3551 41.981C32.8383 42.2172 33.3444 42.4098 33.8277 42.6519C33.8992 42.7219 33.9306 42.8007 33.922 42.8824C33.9106 42.967 33.8963 43.0107 33.8763 43.0107C33.4245 43.2908 32.927 43.3433 32.4123 43.3083C32.1836 43.0982 31.8948 43.0516 31.6088 42.9932C31.3286 42.8853 31.0513 42.6898 30.7653 42.9816V42.9786Z" fill="#798FB0"/>
<path d="M34.4483 18.0541C33.1273 18.6084 31.8063 19.1656 30.4824 19.7198C30.4138 19.4077 30.3366 19.0926 30.6883 18.8884C31.6433 18.0337 32.767 17.6282 34.028 17.5786C34.251 17.6632 34.3911 17.8207 34.4483 18.0541Z" fill="#ECEFF4"/>
<path d="M30.6741 23.8275C30.7799 23.9938 30.6655 24.5568 31.1116 24.1221C31.6806 23.5678 32.2124 22.9815 32.9615 22.6693C33.2332 22.5031 33.3104 22.6839 33.3704 22.9027C33.3418 23.1157 33.236 23.2878 33.0988 23.4424C32.1037 24.0492 31.8321 25.3794 30.7456 25.8928C30.6998 25.8812 30.6541 25.8666 30.6112 25.8462C30.9 25.181 30.0136 24.478 30.6769 23.8246L30.6741 23.8275Z" fill="#90A3BF"/>
<path d="M34.1569 17.8064C32.896 17.8181 31.9009 18.7078 30.6914 18.8857C30.7 18.6028 30.7086 18.3169 30.72 18.0339C30.9001 17.9756 31.0803 17.9143 31.2604 17.856C31.5606 17.4651 32.061 17.5613 32.4385 17.3513C32.8073 17.325 33.1619 17.1879 33.5336 17.1763C33.911 17.1909 34.3113 17.1471 34.4857 17.6168C34.4486 17.8035 34.3399 17.8676 34.1626 17.8064H34.1569Z" fill="#8095B5"/>
<path d="M47.3036 18.6898L47.2465 18.2785C46.8061 17.8934 46.0541 17.698 46.3772 16.8345C47.3866 16.8811 47.8383 17.7417 48.4788 18.3281C48.8563 18.7598 48.6504 19.2878 48.7047 19.7721C47.9098 19.8508 47.7468 19.0807 47.3036 18.6898Z" fill="#7F94B4"/>
<path d="M48.4789 18.3286C47.6583 18.0573 47.155 17.3221 46.4488 16.8875C46.1714 17.1092 45.8969 17.1033 45.6281 16.867C45.6167 16.7679 45.6053 16.6716 45.5967 16.5724C45.6653 16.2865 45.8483 16.1173 46.1199 16.0356C46.7919 16.5024 47.4638 16.9691 48.1358 17.4359C48.2501 17.7334 48.3645 18.031 48.4789 18.3256V18.3286Z" fill="#EDF0F4"/>
<path d="M45.4736 36.3096C46.4314 36.0121 47.3922 35.7145 48.3501 35.417C48.3987 35.6766 48.3615 35.9042 48.1242 36.0588C47.7668 36.3272 47.2349 36.2513 46.9576 36.6743C46.6545 36.683 46.3542 36.7064 46.054 36.7472C45.8052 36.6801 45.5822 36.5722 45.4707 36.3126L45.4736 36.3096Z" fill="#7E94B5"/>
<path d="M34.1251 11.3095C33.2873 11.4116 32.4524 11.537 31.6117 11.607C31.2486 11.6362 30.691 11.8783 30.7539 11.1024C31.8805 11.0003 33.0071 10.9303 34.1337 11.0615C34.228 11.1199 34.2595 11.1753 34.2252 11.2307C34.1908 11.2832 34.1594 11.3095 34.1251 11.3095Z" fill="#F1F3F7"/>
<path d="M32.3722 42.188C31.746 42.1938 31.3286 41.552 30.6795 41.6308C30.3564 41.4003 30.3107 41.167 30.6738 40.9307C31.463 41.0065 32.0406 41.5404 32.6953 41.9079C32.7239 42.1646 32.6896 42.3426 32.3722 42.1851V42.188Z" fill="white"/>
<path d="M44.113 40.4289C44.2073 40.3268 44.3045 40.2276 44.3989 40.1255C44.662 40.3443 45.108 40.0496 45.3025 40.461C45.0537 40.6973 45.0937 41.1728 44.6705 41.2632C43.8556 40.9627 43.0007 41.2632 42.1801 41.0911C42.06 40.9686 42.0342 40.8256 42.1029 40.6681C42.7491 40.388 43.4668 40.6973 44.113 40.4289Z" fill="#7189AE"/>
<path d="M42.1371 40.9392C42.9635 41.1901 43.8928 40.6183 44.6705 41.2659C44.5904 41.2805 44.5132 41.3038 44.4389 41.333C43.2008 41.3038 41.9598 41.2747 40.7218 41.2455C40.6874 40.8167 41.0106 40.7817 41.2965 40.7029C41.6082 40.665 41.8884 40.7467 42.14 40.9392H42.1371Z" fill="white"/>
<path d="M48.3562 21.2253C48.0817 21.0503 47.8043 20.8753 47.5298 20.7032C47.4984 20.6594 47.4641 20.6127 47.4326 20.569C47.4326 20.4523 47.4755 20.356 47.5613 20.2802C47.6757 20.251 47.7729 20.2802 47.8558 20.3648C47.9559 20.2568 48.056 20.1489 48.1532 20.0381C48.6564 19.9272 48.7336 20.4173 48.9881 20.6536C49.2683 20.919 48.9423 21.2166 49.031 21.4908C48.6793 21.7388 48.5592 21.3683 48.3533 21.2283L48.3562 21.2253Z" fill="#9CAEC7"/>
<path d="M35.5752 42.3952C35.6953 42.299 35.8182 42.2027 35.9383 42.1064C36.6589 42.3252 37.3794 42.5411 38.1029 42.7599C38.0399 43.4863 37.5596 43.075 37.2336 43.0925C37.0563 43.075 36.8791 43.0545 36.7018 43.037C36.3272 42.8241 35.9498 42.6082 35.5752 42.3952Z" fill="white"/>
<path d="M48.9907 20.6503C48.7134 20.4461 48.4331 20.239 48.1558 20.0348C47.9156 19.5563 47.318 19.3142 47.3037 18.6899C47.9556 18.8037 48.1329 19.5534 48.7048 19.7751C48.8506 20.0494 49.0593 20.3061 48.9907 20.6532V20.6503Z" fill="#EEF1F5"/>
<path d="M45.5397 14.3027C45.92 14.4865 46.3031 14.6732 46.6834 14.857C46.7292 15.0437 46.7721 15.2304 46.8178 15.4171C46.1259 15.4492 45.7141 14.9416 45.228 14.5711C45.2538 14.3902 45.4139 14.3669 45.5368 14.3027H45.5397Z" fill="white"/>
<path d="M37.2334 43.0922C37.5222 42.9813 37.9111 43.1388 38.1026 42.7596C38.5172 42.7071 38.7889 42.8967 38.9547 43.2701C38.3743 43.2789 37.7738 43.486 37.2334 43.0892V43.0922Z" fill="white"/>
<path d="M45.3025 40.4609C44.9851 40.3967 44.5876 40.5513 44.3989 40.1254C44.8793 39.8016 45.3568 39.962 45.8372 40.1254C45.6599 40.2392 45.4798 40.35 45.3025 40.4638V40.4609Z" fill="#BAC6D7"/>
<path d="M45.6368 13.6782C45.1536 13.3835 44.5245 13.2464 44.4302 12.5288C45.1136 12.6047 45.5653 12.9372 45.6368 13.6782Z" fill="white"/>
<path d="M46.4373 37.567C46.8691 37.3716 47.2894 37.1265 47.7926 37.2228C47.6926 37.3949 47.5925 37.567 47.4924 37.7362C47.2408 37.7654 46.9892 37.7975 46.7375 37.8267C46.4345 37.9813 46.403 37.8121 46.4373 37.5641V37.567Z" fill="#E3E8EE"/>
<path d="M38.0997 11.0938C38.3856 11.2017 38.6716 11.3125 38.9547 11.4205C38.989 11.6568 38.9718 11.8289 38.6716 11.6626C38.2856 11.6218 37.8681 11.7093 37.545 11.3855C37.4506 11.3213 37.422 11.26 37.4564 11.2017C37.4907 11.1433 37.5221 11.1171 37.5564 11.1171C37.7366 11.1113 37.9167 11.1025 38.0969 11.0967L38.0997 11.0938Z" fill="#FBFCFC"/>
<path d="M42.426 42.4858C41.9199 42.4625 41.4138 42.4391 40.9077 42.4158C41.5053 42.2145 42.1086 41.8615 42.6691 42.4216C42.5861 42.4304 42.5061 42.4508 42.4289 42.4829L42.426 42.4858Z" fill="white"/>
<path d="M48.3564 21.2251C48.5823 21.3126 48.8082 21.4001 49.0341 21.4876C49.26 21.7414 49.3143 22.039 49.2457 22.3686C48.7339 22.1615 48.508 21.721 48.3564 21.2222V21.2251Z" fill="#DDE3EB"/>
<path d="M34.1255 11.3095C34.1283 11.2278 34.1312 11.1432 34.1341 11.0615H36.1356C36.2242 11.114 36.2557 11.1665 36.23 11.222C36.2042 11.2774 36.1756 11.3066 36.147 11.3066C35.4722 11.3066 34.8003 11.3066 34.1255 11.3066V11.3095Z" fill="white"/>
<path d="M30.7171 12.8175C31.1032 12.7533 31.4863 12.6862 31.8723 12.6221C32.0667 12.66 32.1668 12.7621 32.1068 12.9751C31.655 13.1676 31.1889 13.1472 30.7171 13.0801C30.6828 12.9926 30.6828 12.908 30.7171 12.8204V12.8175Z" fill="#FEFEFE"/>
<path d="M46.6863 38.95C46.2202 38.9237 45.7627 39.5918 45.2881 38.9704C45.777 38.8712 46.266 38.7691 46.7521 38.6699C46.7292 38.7633 46.7063 38.8566 46.6863 38.95Z" fill="#F5F7F9"/>
<path d="M49.5312 25.8662C48.9364 25.6036 48.965 25.1952 49.271 24.7197C49.7199 25.0173 49.5283 25.4636 49.5312 25.8662Z" fill="#BDC6D4"/>
<path d="M30.7656 42.9786C30.8857 41.7009 31.4919 42.9582 31.8207 42.7715C31.8579 43.352 31.5005 43.1361 31.2231 43.0778C31.0716 43.0457 30.92 43.0107 30.7685 42.9786H30.7656Z" fill="white"/>
<path d="M33.8734 43.0105C33.8734 42.923 33.8505 42.8413 33.8076 42.7655C33.8276 42.5788 34.0106 42.5875 34.1164 42.5029C34.4167 42.6488 34.8112 42.5992 35.0143 42.9493C34.8027 43.0018 34.5911 43.0543 34.3795 43.1068C34.2108 43.0747 34.0421 43.0426 33.8734 43.0105Z" fill="white"/>
<path d="M36.1467 11.3095C36.141 11.2278 36.1353 11.1491 36.1353 11.0674C36.6099 11.0849 37.0846 11.0995 37.5592 11.117C37.5592 11.2074 37.5535 11.2978 37.5478 11.3854C37.0788 11.3591 36.6128 11.3358 36.1438 11.3095H36.1467Z" fill="#FEFEFE"/>
<path d="M31.2202 43.0778C31.4375 43.0107 31.7034 43.0428 31.8178 42.7715C32.1123 42.8386 32.3296 42.9932 32.4097 43.3082C31.9951 43.3287 31.5662 43.4279 31.2202 43.0807V43.0778Z" fill="white"/>
<path d="M201.228 30.9624C206.16 33.8212 205.777 44.0168 201.257 46.9136C201.085 45.9743 201.225 45.1428 201.545 44.256C202.889 40.5191 203.344 36.7764 201.345 33.0832C201.008 32.4618 201.182 31.7675 201.228 30.9624Z" fill="#6F88AD"/>
<path d="M196.893 45.4526C196.796 42.9234 198.022 41.1089 198.114 39.0027C198.205 36.8907 197.056 35.152 196.787 32.8008C198.774 33.9735 199.366 35.6771 199.612 37.4245C200.027 40.365 199.289 43.0168 196.893 45.4555V45.4526Z" fill="#6F88AC"/>
<path d="M47.0352 22.1033C48.5421 24.8133 49.4943 27.6517 49.031 30.8286C48.3362 34.0112 46.8437 35.2714 43.0379 35.3123C39.9183 35.3444 37.0161 34.6326 35.2233 31.5345C34.0767 29.5538 34.0195 27.5292 34.4684 25.3938C34.5199 25.0905 34.6429 24.8892 34.9917 25.0117C35.1575 26.0298 34.6343 26.9895 34.783 28.0222C35.2776 31.5141 37.1448 33.6495 40.536 34.5101C42.1343 34.9155 43.7241 34.901 45.2739 34.3C46.9352 33.6553 47.8673 32.538 48.239 30.6302C48.9052 27.2025 47.5099 24.4195 46.1031 21.5752C45.9944 21.2748 46.1431 21.2106 46.3976 21.2398L47.0409 22.1003L47.0352 22.1033Z" fill="white"/>
<path d="M44.4162 25.1748L44.422 25.0319C44.0931 24.5126 43.8358 23.97 43.9073 23.3224C43.9931 23.0832 44.136 22.9169 44.4019 22.8994C44.6393 22.9869 44.7794 23.1707 44.888 23.3895C45.6143 25.1661 46.0975 26.9893 46.1433 28.9351C46.1747 30.2711 45.7458 31.2688 44.5506 31.8814C43.4784 32.4211 42.3547 32.777 41.1537 32.8558C40.5161 32.7974 39.8356 33.0308 39.2609 32.5611C38.1686 32.7478 37.5681 32.3248 37.5738 31.1492C37.4137 30.9946 37.4366 30.8867 37.6482 30.8196C38.2086 31.0034 38.5689 31.7706 39.3152 31.4176C41.5683 32.179 43.7414 31.5168 44.6478 29.7956C44.9424 28.235 44.442 26.718 44.422 25.1748H44.4162Z" fill="#748CB0"/>
<path d="M46.655 24.1541C47.3527 26.2428 48.1991 28.2761 47.6157 30.6011C46.8666 33.5971 43.1752 35.1636 40.3931 33.5241C41.4968 33.3812 42.5719 33.4745 43.6441 33.2966C46.4949 32.824 47.51 30.8607 47.1068 27.716C46.9667 26.625 46.6264 25.5631 46.3777 24.4867C46.2347 24.1716 46.3977 24.125 46.655 24.157V24.1541Z" fill="white"/>
<path d="M44.3704 22.9843C44.2732 23.1069 44.176 23.2265 44.0788 23.349C43.4412 23.2411 43.5498 22.6168 43.3296 22.223C42.4547 20.0555 40.6876 18.912 38.6889 18.0339C38.4859 18.1243 38.2829 18.2147 38.0799 18.3052C36.9333 17.6284 35.6009 18.1418 34.4171 17.7042C34.174 17.3979 33.8223 17.4709 33.5021 17.4271C33.4535 17.2492 33.5107 17.1237 33.6737 17.045C34.1455 17.0625 34.6001 16.9253 35.0633 16.8816C36.4787 16.8116 37.8826 16.9633 39.2808 17.1646C39.3952 17.1762 39.5096 17.1879 39.6268 17.1996C40.1015 17.6926 40.8506 17.5642 41.3538 17.9901C42.672 18.839 43.8643 19.79 44.1303 21.4995C44.1303 21.5899 44.1303 21.6804 44.1303 21.7708C44.1417 22.188 44.6821 22.5001 44.3647 22.9843H44.3704Z" fill="#8298B8"/>
<path d="M34.9918 25.0114C34.8174 25.1398 34.643 25.2652 34.4685 25.3936C34.357 25.2681 34.2484 25.1398 34.1369 25.0143C34.0597 24.8247 33.9853 24.6322 33.9081 24.4426C33.5822 24.1479 33.8424 23.8766 33.9396 23.6024C34.2312 23.4186 33.9596 23.0452 34.1798 22.8323C34.3913 22.6485 34.6315 22.5435 34.906 22.5143C36.4243 22.2518 37.834 22.5201 39.0521 23.4945C39.5181 23.8679 40.2416 24.218 39.7612 25.0727C38.6146 24.8014 37.5624 23.8154 36.2757 24.5797C35.9297 24.4455 35.5894 24.3726 35.3063 24.7139L34.9947 25.0143L34.9918 25.0114Z" fill="#778FB1"/>
<path d="M43.2953 28.553C43.424 28.3109 43.5526 28.0687 43.687 27.8149C44.2904 29.2648 44.013 30.0495 42.6348 30.5629C41.9886 30.8021 41.2909 30.8955 40.6161 31.0559C39.0063 30.8138 37.5795 30.2916 36.9504 28.5559C36.8103 28.2379 36.9762 28.1854 37.2364 28.2204C37.731 28.8943 38.3601 29.3465 39.2093 29.4106C39.4638 29.6324 39.0235 29.9678 39.3323 30.1779C41.3424 30.8109 42.8893 30.1779 43.2924 28.5501L43.2953 28.553Z" fill="white"/>
<path d="M44.4272 31.7356C45.5194 31.0705 45.8883 30.067 45.8483 28.8068C45.7911 26.9048 45.2106 25.134 44.6531 23.3487C44.5244 23.0424 44.6645 22.9607 44.939 22.9899C45.9941 24.9969 46.4888 27.1323 46.4173 29.4106C46.3773 30.6183 45.9712 31.5752 44.7846 32.039C44.4844 32.1615 44.3929 32.0244 44.4243 31.7356H44.4272Z" fill="white"/>
<path d="M39.5578 25.0934C40.0925 24.2649 39.3033 23.9352 38.8916 23.7019C37.9165 23.1447 36.9472 22.3133 35.6719 22.9492C35.3317 23.1184 35.0515 22.8617 34.7598 22.7275C34.3795 22.815 34.3338 22.6254 34.4339 22.3162C35.243 21.724 36.1008 21.6365 37.0073 22.0653C38.6085 22.7625 40.264 23.4014 40.4385 25.5543C40.5157 25.668 40.5328 25.7876 40.4728 25.916C40.3527 25.9889 40.2383 25.9773 40.1325 25.8839C40.0925 25.5368 39.8409 25.3676 39.5778 25.21L39.5578 25.0963V25.0934Z" fill="white"/>
<path d="M44.7275 30.0266C43.8554 31.914 40.8503 32.6871 39.3091 31.421C40.0582 31.3918 40.8074 31.3627 41.5565 31.3364C42.7832 31.0855 44.1842 31.106 44.4702 29.3965C45.0049 29.4198 44.8076 29.7495 44.7275 30.0295V30.0266Z" fill="#F1F3F7"/>
<path d="M37.6422 30.8227C37.6165 30.9336 37.5936 31.0415 37.5679 31.1524C35.5406 29.7492 34.7857 27.22 36.0667 25.5747C35.7836 27.678 36.2497 29.4108 37.6422 30.8227Z" fill="#ECEFF4"/>
<path d="M37.2388 28.2237C37.1444 28.3346 37.0472 28.4484 36.9528 28.5592C36.5954 28.18 36.6755 27.6607 36.5668 27.2086C36.3895 26.4647 36.1865 25.5195 37.0815 25.2219C37.905 24.9506 38.8314 25.1374 39.2575 26.1642C38.9029 26.3509 38.6427 26.1817 38.3997 25.9337C37.0929 25.9571 36.8385 26.453 37.2388 28.2208V28.2237Z" fill="white"/>
<path d="M44.1328 21.4962C43.2664 20.2622 42.6316 18.8241 41.2334 18.051C41.3421 17.8935 41.4621 17.8818 41.5937 18.0218C43.1406 18.6315 44.0584 19.9122 44.9334 21.2424C44.8962 21.3679 44.8219 21.4583 44.7018 21.5108C44.5131 21.505 44.3215 21.502 44.1328 21.4962Z" fill="#EDF0F4"/>
<path d="M33.0103 14.6003C34.8374 14.2911 36.6645 13.9673 38.4001 14.9737H38.4201C36.8246 15.2392 35.2491 14.6528 33.6565 14.8716C33.3791 14.9299 33.036 15.1604 33.0103 14.6003Z" fill="white"/>
<path d="M38.1225 16.2398C36.2239 15.8431 34.3224 15.9831 32.4238 16.2398C32.4295 16.1873 32.4381 16.1319 32.4438 16.0794C34.3339 15.3647 36.2239 15.1255 38.1196 16.0619C38.1196 16.1202 38.1196 16.1815 38.1225 16.2398Z" fill="#EBEFF3"/>
<path d="M39.2835 17.1617C37.8395 17.4855 36.407 16.9517 34.9659 17.0976C34.8058 16.9663 34.5427 17.0801 34.4141 16.8671C35.7351 16.2749 37.0618 16.7242 38.3857 16.8554C38.6831 16.5404 38.9833 16.2691 39.2721 16.8671C39.2778 16.9663 39.2807 17.0626 39.2864 17.1617H39.2835Z" fill="#EDF0F4"/>
<path d="M46.3919 21.2398C46.2947 21.3507 46.1975 21.4615 46.0974 21.5753C45.2425 20.5047 44.3904 19.437 43.5355 18.3664C43.424 18.0659 43.5698 18.0047 43.8243 18.0455C44.9165 18.9148 45.7057 20.035 46.3919 21.2427V21.2398Z" fill="#F0F2F6"/>
<path d="M39.5579 25.093L39.5779 25.2068C38.3742 24.7254 37.1475 24.5738 35.8865 24.9442C35.8236 24.7079 35.9065 24.5533 36.1382 24.4833C37.3305 23.6169 38.0625 23.7482 39.5579 25.093Z" fill="white"/>
<path d="M38.3998 25.9363C38.6857 26.0121 38.9717 26.088 39.2576 26.1667C39.5778 26.1609 39.9209 26.228 40.1325 25.8809C40.2155 25.9159 40.2955 25.948 40.3784 25.983C40.5786 27.2344 40.307 27.5116 39.2433 27.0652C38.7715 26.8669 38.294 26.6773 37.8394 26.4439C38.0252 26.2747 38.2139 26.1084 38.3998 25.9392V25.9363Z" fill="#788FB2"/>
<path d="M44.4272 31.7358C44.5473 31.8379 44.6674 31.9371 44.7875 32.0392C44.0012 32.5702 43.1434 32.8852 42.1912 32.8998C41.851 32.9202 41.3992 33.2965 41.2905 32.5993C42.3914 32.5206 43.395 32.0713 44.4272 31.7358Z" fill="white"/>
<path d="M41.2907 32.5995C41.5109 32.9466 41.8855 32.8212 42.1914 32.8999C41.1764 33.1071 40.127 33.6526 39.2549 32.5645C39.9325 32.5761 40.6131 32.5878 41.2907 32.5995Z" fill="white"/>
<path d="M33.01 14.6001C33.2245 14.6905 33.4389 14.781 33.6562 14.8714C32.8013 15.2477 31.9006 15.4315 30.9771 15.5044C31.466 14.7605 32.2952 14.8131 33.0129 14.6001H33.01Z" fill="white"/>
<path d="M43.8239 18.0457C43.7267 18.1537 43.6324 18.2616 43.5352 18.3666C42.9747 17.859 42.4143 17.3485 41.8539 16.8409C41.8081 16.5901 41.8396 16.4296 42.1427 16.5755C42.7517 17.0101 43.3836 17.4127 43.8239 18.0457Z" fill="#EDF0F5"/>
<path d="M46.6549 24.154C46.5634 24.2649 46.4719 24.3728 46.3776 24.4837C46.1002 23.8886 45.82 23.2964 45.5426 22.7013C45.4111 22.3921 45.5626 22.3512 45.8114 22.4066C46.1431 22.9609 46.5177 23.4977 46.652 24.1511L46.6549 24.154Z" fill="#EAEEF3"/>
<path d="M38.4228 14.9763H38.4028C39.0719 14.7546 39.6323 15.0171 40.1642 15.3963C40.1242 15.583 40.0155 15.6968 39.8325 15.7347C39.4179 15.373 38.6888 15.6268 38.4228 14.9763Z" fill="white"/>
<path d="M41.5937 18.0219C41.4736 18.0306 41.3535 18.0423 41.2334 18.051C40.6987 17.7622 39.9639 17.8672 39.6265 17.1963C40.2641 17.5172 41.1476 17.2313 41.5937 18.0219Z" fill="#F2F4F7"/>
<path d="M44.9422 22.9899C44.8479 23.1095 44.7506 23.2291 44.6563 23.3487C44.5619 23.2262 44.4647 23.1037 44.3703 22.9811C44.459 22.5436 43.7184 22.2723 44.1359 21.7676C44.6591 22.001 44.7335 22.5406 44.9451 22.987L44.9422 22.9899Z" fill="#EFF2F6"/>
<path d="M45.814 22.4096C45.7254 22.5087 45.6339 22.605 45.5452 22.7042C45.265 22.3075 44.9848 21.9107 44.7046 21.514C44.7818 21.4236 44.859 21.336 44.9362 21.2456C45.3823 21.514 45.5996 21.9632 45.8169 22.4125L45.814 22.4096Z" fill="#D5DCE7"/>
<path d="M39.2692 16.8666C38.9775 16.6566 38.6801 16.7704 38.3856 16.855C38.4485 16.5837 38.3284 16.3911 38.1254 16.2365C38.1254 16.1782 38.1254 16.1169 38.1226 16.0586C38.6458 15.8631 39.0661 16.2657 39.5494 16.3124C39.7324 16.6274 39.4121 16.7179 39.292 16.8958L39.272 16.8666H39.2692Z" fill="white"/>
<path d="M32.444 16.0762C32.444 16.1316 32.4354 16.1841 32.424 16.2366C32.0065 16.5896 31.609 17.0359 31 16.5808C31.4003 16.1724 31.9121 16.0937 32.444 16.0762Z" fill="white"/>
<path d="M36.1381 24.4837C36.0552 24.6384 35.9694 24.7901 35.8865 24.9447C35.6921 24.8688 35.4977 24.7901 35.3032 24.7142C35.4605 24.3846 35.4633 23.8536 35.8551 23.804C36.3783 23.7369 35.6664 24.405 36.1381 24.4837Z" fill="white"/>
<path d="M42.1454 16.5722C42.0482 16.6597 41.951 16.7502 41.8566 16.8377C41.4677 16.5606 41.0817 16.2834 40.6929 16.0063C40.7472 15.8808 40.8387 15.7992 40.9674 15.7642C41.3591 16.0325 41.7537 16.3038 42.1454 16.5722Z" fill="white"/>
<path d="M40.9677 15.764C40.8762 15.8457 40.7847 15.9274 40.6932 16.0062C40.3958 15.9507 40.027 16.1229 39.8325 15.7319C39.944 15.6182 40.0555 15.5044 40.1642 15.3936C40.4301 15.5161 40.6989 15.6415 40.9648 15.764H40.9677Z" fill="#FEFEFE"/>
<path d="M39.2891 16.8959C39.3748 16.7005 39.4606 16.508 39.5464 16.3125C39.8381 16.4292 40.1326 16.5459 40.7416 16.7851C40.0468 16.8376 39.6694 16.8668 39.2919 16.8959H39.2891Z" fill="white"/>
<path d="M39.3378 19.4428C42.323 20.7964 43.9242 24.6179 43.0064 28.209C42.6146 28.5882 42.4831 29.2563 41.5624 29.3934C42.9492 27.6664 42.7176 25.8694 42.3316 24.0433C41.9112 22.0479 40.6274 20.7702 39.0004 19.7579C38.9604 19.4837 39.0119 19.3116 39.3378 19.4428Z" fill="white"/>
<path d="M38.4086 21.8581C38.4172 21.7356 38.4258 21.6131 38.4315 21.4906C38.6745 21.5198 38.929 21.9486 39.1235 21.6277C39.335 21.2805 38.869 21.123 38.706 20.878C38.6231 20.8313 38.5945 20.7846 38.6202 20.735C38.6459 20.6854 38.6745 20.6592 38.7003 20.6592C40.23 21.1113 40.9849 22.2461 41.3251 23.7456C41.4367 24.046 41.3166 24.1569 41.0249 24.1277C40.5588 22.8821 39.4923 22.357 38.4058 21.8581H38.4086Z" fill="white"/>
<path d="M41.0278 24.1278C41.1279 23.9994 41.228 23.874 41.328 23.7456C41.9142 25.3792 42.5747 27.0216 40.9849 28.4919C40.7962 28.4598 40.6761 28.3548 40.6304 28.1651C41.8484 26.9312 41.2566 25.5105 41.0278 24.1278Z" fill="white"/>
<path d="M34.3942 20.4085C33.3105 20.849 32.2411 21.3099 31.3605 22.1325C30.9802 22.4884 30.6771 22.4972 30.7228 21.8321C31.5206 21.3478 32.3269 20.8781 33.1104 20.3735C33.5622 20.0847 33.9739 20.0876 34.3942 20.4085Z" fill="white"/>
<path d="M40.6304 28.1651C40.7477 28.2731 40.8677 28.3839 40.985 28.4919C39.5582 29.332 38.5803 28.6086 37.5366 27.3921C38.7147 27.5817 39.5639 28.3752 40.6304 28.1651Z" fill="white"/>
<path d="M37.8394 26.4439C38.3626 26.3652 38.8344 26.476 39.2948 26.7648C40.2212 27.3483 40.4213 26.8261 40.3813 25.983C40.4013 25.8401 40.4213 25.6942 40.4413 25.5513C40.9475 26.0997 40.896 26.7911 40.5043 27.252C40.0439 27.7888 39.3434 27.5904 38.8087 27.2112C38.477 26.9749 37.968 26.9515 37.8422 26.4439H37.8394Z" fill="white"/>
<path d="M37.0073 22.0621C36.1381 22.0913 35.2488 21.9979 34.4425 22.453C34.3453 22.526 34.2366 22.5639 34.1165 22.5522C33.9393 22.4851 33.8077 22.3888 33.8792 22.1642C35.0658 21.4962 36.2811 21.1578 37.5906 21.7967C37.3962 21.8842 37.2046 21.9717 37.0102 22.0592L37.0073 22.0621Z" fill="#8298B8"/>
<path d="M37.299 20.3063C36.5013 20.2246 35.6606 20.5892 34.9058 20.0641C35.795 19.6266 36.6843 19.6236 37.5735 20.0641C37.5135 20.1837 37.4248 20.2654 37.299 20.3092V20.3063Z" fill="white"/>
<path d="M34.9287 18.8533C35.8523 18.4682 36.7673 18.477 37.6737 18.9087C36.9102 19.4338 36.061 19.0954 35.2518 19.1508C35.1346 19.0633 34.9544 19.0458 34.9287 18.8562V18.8533Z" fill="white"/>
<path d="M39.3351 30.1837C38.5688 30.0466 38.8804 29.7316 39.2121 29.4165C39.6525 29.4165 40.0899 29.4165 40.7018 29.4165C40.3215 30.1691 39.6124 29.7461 39.3351 30.1837Z" fill="white"/>
<path d="M39.3381 19.4425C39.2265 19.5475 39.1122 19.6525 39.0007 19.7575C38.5718 19.5096 37.8483 19.6875 37.7969 18.894C38.3602 18.9349 38.8977 19.0457 39.3381 19.4425Z" fill="white"/>
<path d="M32.1467 19.8626C32.4984 19.2675 32.973 19.145 33.5621 19.4863C33.1675 19.9151 32.6499 19.9764 32.1152 19.9997L32.1438 19.8626H32.1467Z" fill="white"/>
<path d="M34.9286 18.8535C35.0373 18.9527 35.143 19.049 35.2517 19.1482C34.7456 19.1482 34.2567 19.682 33.7334 19.1977C34.0622 18.8331 34.5111 18.906 34.9286 18.8535Z" fill="#E6EAF0"/>
<path d="M32.1462 19.8628L32.1176 20.0028C31.7573 20.35 31.5429 20.9888 30.8452 20.6534C31.1883 20.2362 31.5915 19.9182 32.1462 19.8657V19.8628Z" fill="white"/>
<path d="M37.2993 20.3061C37.3908 20.2244 37.4823 20.1427 37.5738 20.061C38.0199 20.1252 38.423 20.2682 38.7032 20.6561C38.7061 20.7291 38.709 20.802 38.709 20.8749C38.24 20.6853 37.7711 20.4957 37.3022 20.3061H37.2993Z" fill="#EFF2F6"/>
<path d="M32.0865 29.647C32.5726 32.9959 34.5513 35.248 37.2677 36.9545C37.302 37.2171 37.2677 37.395 36.9446 37.2463C32.9158 35.2626 31.3145 32.4592 31.6262 27.9404C32.4668 28.3167 31.6862 29.1481 32.0865 29.647Z" fill="#F7F8FA"/>
<path d="M30.7427 25.8928C31.4146 24.9505 31.8464 23.8011 32.9644 23.2498C33.2331 23.0952 33.3104 23.276 33.3675 23.489C33.0301 24.2329 32.627 24.9213 31.8721 25.3122C31.366 25.9394 31.1973 26.7504 30.8284 27.5964C30.5654 26.9196 30.6798 26.4062 30.7427 25.8957V25.8928Z" fill="white"/>
<path d="M32.0867 29.6472C31.5778 29.1775 32.121 28.4132 31.6264 27.9407C31.5606 27.1122 31.9295 26.3916 32.1639 25.6361C32.2783 25.3152 32.387 24.9885 32.7816 24.9185C32.9903 24.9739 33.1647 25.0468 33.0046 25.3152C32.2497 26.66 32.0153 28.1186 32.0896 29.6443L32.0867 29.6472Z" fill="white"/>
<path d="M40.9532 38.1421C41.8339 38.1421 42.7146 38.145 43.5924 38.1479C43.7554 38.3054 44.0613 38.1567 44.1757 38.425C42.7117 38.8101 41.2506 38.8335 39.7866 38.425C40.1069 38.0371 40.6015 38.3988 40.9532 38.1392V38.1421Z" fill="white"/>
<path d="M40.9535 38.1419C40.6362 38.5357 40.1701 38.3053 39.7869 38.4278C38.7404 38.2761 37.7911 37.891 36.9419 37.2492C37.0505 37.153 37.1592 37.0538 37.265 36.9575C38.4631 37.4564 39.644 38.0048 40.9535 38.1419Z" fill="#F0F2F6"/>
<path d="M32.747 25.0262C32.5526 25.2304 32.3582 25.4317 32.1609 25.6359C32.0636 25.5279 31.9693 25.42 31.8721 25.3121C32.2009 24.6032 32.6641 24.0022 33.2531 23.5005C33.5048 23.2642 33.5905 22.6691 34.1395 23.0775C34.2139 23.2204 34.4112 23.3371 34.2396 23.5355C33.7421 24.0314 33.3303 24.6207 32.747 25.0262Z" fill="#7F95B6"/>
<path d="M44.093 39.5014C43.2523 39.5014 42.4088 39.5014 41.5682 39.5014C41.4996 39.4431 41.4767 39.3818 41.4967 39.3205C41.5167 39.2593 41.5396 39.2272 41.5625 39.2272C42.2173 39.2272 42.8721 39.2214 43.5268 39.2184C43.8013 39.1368 44.1273 38.9471 44.0959 39.5014H44.093Z" fill="#FBFBFC"/>
<path d="M46.4375 37.5669C46.5376 37.6544 46.6377 37.7419 46.7378 37.8294C46.2002 38.1853 45.5797 38.2437 44.9707 38.3399C44.8821 38.2729 44.8535 38.2087 44.8849 38.1445C44.9164 38.0832 44.9478 38.0512 44.9764 38.0512C45.391 37.6602 45.9743 37.8032 46.4347 37.5698L46.4375 37.5669Z" fill="white"/>
<path d="M44.0929 39.5014C43.9042 39.408 43.7126 39.3117 43.5239 39.2184C44.0215 38.8129 44.5047 38.9792 44.985 39.2534C44.7592 39.6035 44.4218 39.5364 44.0929 39.5043V39.5014Z" fill="white"/>
<path d="M41.5625 39.227C41.5625 39.3175 41.5682 39.4108 41.5711 39.5013C41.471 39.5333 41.3709 39.5625 41.2709 39.5946C41.0478 39.44 40.8248 39.2883 40.5703 39.1133C40.9678 38.8711 41.2766 38.9674 41.5625 39.2299V39.227Z" fill="white"/>
<path d="M44.9792 38.0483C44.9792 38.1446 44.9792 38.2409 44.9735 38.3371C44.7104 38.3663 44.4445 38.3926 44.1814 38.4217C43.987 38.3284 43.7926 38.238 43.5981 38.1446C44.0585 38.1125 44.5189 38.0804 44.9821 38.0483H44.9792Z" fill="#F5F7F9"/>
<path d="M33.3358 27.3979C33.3187 31.6775 34.9228 33.8887 39.2489 35.5456C39.3061 35.9716 38.9802 36.0503 38.7057 36.1787C38.5827 36.1962 38.4626 36.1787 38.3482 36.1349C38.0423 35.8345 37.5133 35.9307 37.2674 35.5194C34.0535 33.9499 32.3436 30.5281 33.0499 27.0771C33.3158 27.0275 33.4473 27.0975 33.3387 27.3979H33.3358Z" fill="white"/>
<path d="M38.4227 36.0417C38.5199 36.0271 38.62 36.0096 38.7172 35.995C39.1833 35.8871 39.6493 35.7499 40.0897 36.0825C41.8653 36.6339 43.6781 36.3159 45.4767 36.31C45.694 36.4005 45.9113 36.488 46.1286 36.5784C45.897 36.8789 45.6511 37.1356 45.2308 36.9256C45.1364 37.0423 45.042 37.1589 44.9448 37.2756C43.864 37.1794 42.7803 37.2319 41.6966 37.2202C41.3278 37.2115 40.9561 37.2465 40.5929 37.1473C40.2727 36.981 39.9238 36.9227 39.5693 36.8935C39.1575 36.8001 38.7887 36.5959 38.4112 36.418C38.3226 36.2896 38.3255 36.1671 38.4227 36.0475V36.0417Z" fill="#7E94B5"/>
<path d="M40.4531 36.914C40.8276 36.9373 41.2022 36.9607 41.5768 36.984C42.3803 37.3603 43.3839 36.6252 44.1073 37.4566C42.6776 37.5587 41.2451 37.7454 39.8555 37.1911C39.8555 36.6544 40.1557 36.7827 40.4531 36.9169V36.914Z" fill="white"/>
<path d="M44.1072 37.4533C43.3437 36.8582 42.3401 37.5846 41.5767 36.9807C42.6975 37.1061 43.8613 36.6977 44.9421 37.2724C44.7019 37.5175 44.4017 37.4737 44.1072 37.4533Z" fill="white"/>
<path d="M32.7471 25.0263C33.1073 24.3904 33.5791 23.8653 34.2396 23.5356C34.131 23.839 34.0195 24.1395 33.908 24.4429C33.6049 24.7346 33.3046 25.0263 33.0016 25.318C32.9158 25.2218 32.8329 25.1255 32.7471 25.0292V25.0263Z" fill="white"/>
<path d="M38.4228 36.0417C38.4171 36.1205 38.4143 36.2022 38.4114 36.2809C38.3371 36.4676 38.2398 36.4793 38.1226 36.3218C37.8309 36.0592 36.7901 36.6281 37.2648 35.5195C37.6994 35.5779 38.1369 35.6362 38.4228 36.0417Z" fill="#748CB0"/>
<path d="M45.228 36.9224C45.5283 36.8057 45.8256 36.6919 46.1259 36.5753C46.4204 36.4527 46.7006 36.4848 46.9608 36.6715C46.4089 36.9457 45.9057 37.5496 45.228 36.9224Z" fill="white"/>
<path d="M33.3362 27.398C33.2389 27.2901 33.1446 27.1851 33.0474 27.0771C33.2361 26.6454 33.0788 25.9657 33.828 25.9307C33.6621 26.4208 33.4991 26.9079 33.3333 27.3951L33.3362 27.398Z" fill="white"/>
<path d="M38.1226 36.3216C38.2198 36.307 38.317 36.2953 38.4114 36.2808C38.7888 36.415 39.1691 36.5462 39.5465 36.6804C39.5722 36.9546 39.5036 37.1092 39.2005 36.9663C38.7573 36.8963 38.3341 36.7913 38.1226 36.3216Z" fill="white"/>
<path d="M39.2031 36.9662C39.3175 36.87 39.4347 36.7766 39.5491 36.6803C39.8722 36.6687 40.1925 36.6716 40.4555 36.9137C40.2239 36.9341 39.9952 36.9633 39.8579 37.1879C39.6406 37.1121 39.4233 37.0392 39.206 36.9633L39.2031 36.9662Z" fill="white"/>
<path d="M40.0868 36.0827C39.6293 36.0535 39.1718 36.0243 38.7144 35.9951C38.8916 35.8464 39.0689 35.6976 39.2462 35.5459C39.6322 35.6334 40.0182 35.718 40.4042 35.8055C40.2984 35.8989 40.1898 35.9893 40.084 36.0827H40.0868Z" fill="white"/>
<path d="M38.6914 18.0307C41.0761 18.4392 42.6173 19.8773 43.4951 22.1177C43.4236 22.249 43.4093 22.4269 43.2292 22.4736C42.2856 20.6825 41.0418 19.2239 39.066 18.5704C38.8029 18.4829 38.7 18.2904 38.6914 18.0278V18.0307Z" fill="#ECEFF4"/>
<path d="M44.7276 30.0261C44.6418 29.816 44.556 29.6031 44.4702 29.3931C44.6875 27.9841 43.824 26.5896 44.413 25.1748C44.9534 26.7618 45.308 28.3633 44.7276 30.0261Z" fill="white"/>
<path d="M43.2295 22.4765C43.3181 22.3569 43.4068 22.2402 43.4954 22.1206C43.6898 22.529 43.8843 22.9374 44.0816 23.3487C44.1959 23.9088 44.3075 24.4719 44.4218 25.032C43.3667 24.4981 43.6098 23.34 43.2295 22.4794V22.4765Z" fill="#EDF0F4"/>
<path d="M34.4199 17.7012C35.2577 17.7158 36.0983 17.7158 36.9361 17.7566C37.3764 17.777 37.9111 17.6632 38.0827 18.3021C36.8646 18.3079 35.678 17.8704 34.4513 18.0542C34.3541 17.9725 34.2569 17.8908 34.1597 17.8091C34.2483 17.777 34.3341 17.742 34.4227 17.7041L34.4199 17.7012Z" fill="#FDFEFE"/>
<path d="M30.7198 38.3723C30.5968 37.6138 30.7398 37.5059 31.3832 37.9959C32.9358 39.1862 34.6457 40.1109 36.4242 40.9044C36.7015 41.0473 36.976 41.1903 37.2534 41.3332C37.2991 41.5841 37.2677 41.7475 36.9589 41.6016C34.7229 40.8344 32.6384 39.7725 30.7198 38.3693V38.3723Z" fill="white"/>
<path d="M36.956 40.7117C36.5356 40.312 36.1353 39.8744 35.5149 39.7957C35.3033 38.8943 35.9638 39.1539 36.3955 39.1101C36.8587 39.2531 37.4077 39.1101 37.7909 39.5361C38.0168 39.889 38.3913 39.8015 38.7173 39.8569C38.9432 40.0611 39.5465 39.959 39.2663 40.5687C38.7488 41.0209 38.1826 40.8896 37.6108 40.7175C37.3934 40.7175 37.1761 40.7175 36.956 40.7146V40.7117Z" fill="#95A7C2"/>
<path d="M39.2691 40.429C39.0861 40.2394 38.9003 40.0469 38.7173 39.8572C39.4979 39.6093 40.1584 40.2569 40.919 40.1665C41.2049 40.2744 41.5194 40.181 41.8025 40.3036C41.9798 40.3823 42.097 40.5136 42.1313 40.712C42.1313 40.7878 42.1313 40.8637 42.1371 40.9395C41.8654 40.9512 41.5966 40.9628 41.325 40.9745C40.9218 40.7586 40.5272 40.8899 40.1298 40.9979C39.9382 40.9979 39.7438 40.9979 39.5522 40.9979C39.3406 40.8695 39.1262 40.7441 39.2691 40.4319V40.429Z" fill="#7C93B4"/>
<path d="M36.959 41.6048C37.0562 41.5144 37.1534 41.4239 37.2535 41.3364C37.6681 41.5873 38.3 41.4152 38.5859 42.0861C37.9483 42.1124 37.4394 41.914 36.959 41.6048Z" fill="white"/>
<path d="M39.2692 40.4287C39.3635 40.6183 39.4579 40.805 39.5523 40.9946C38.8775 41.1026 38.2055 41.1697 37.6079 40.7146C38.1826 40.7554 38.7488 40.7292 39.2663 40.4287H39.2692Z" fill="white"/>
<path d="M40.1299 40.9978C40.5159 40.4465 40.9219 40.7586 41.3222 40.9745C41.1221 41.0649 40.9191 41.1554 40.7189 41.2458C40.5216 41.1641 40.3272 41.0795 40.1299 40.9978Z" fill="white"/>
<path d="M40.1326 14.4192C38.1625 14.0575 36.2267 13.404 34.1794 13.6958C33.842 13.7541 33.4188 14.1013 33.2959 13.4274C35.6863 12.7914 37.9681 13.0102 40.1068 14.3346L40.1326 14.4192Z" fill="white"/>
<path d="M46.1204 16.0386C45.9459 16.2166 45.7715 16.3945 45.5971 16.5754C44.2561 15.111 42.4118 14.51 40.7248 13.6407C40.679 13.3694 40.742 13.2148 41.0508 13.3344C42.9208 13.8857 44.5163 14.968 46.1204 16.0386Z" fill="#EEF1F5"/>
<path d="M32.644 12.4763C34.4797 11.8725 36.3097 11.6508 38.1283 12.5405C38.1311 12.6018 38.1368 12.666 38.1397 12.7272C36.5099 12.3509 34.8829 12.5434 33.2588 12.7476C33.0815 12.5959 32.7784 12.736 32.6469 12.4763H32.644Z" fill="white"/>
<path d="M33.2962 13.4272C33.5221 13.7452 33.8737 13.646 34.1797 13.6956C33.1961 13.9582 32.2182 14.2324 31.2289 14.4774C30.8772 14.5649 30.7113 14.3695 30.7456 14.0019C31.5949 13.8094 32.4469 13.6169 33.2962 13.4243V13.4272Z" fill="white"/>
<path d="M40.1327 14.4196L40.1069 14.335C41.2478 14.51 42.3572 14.7346 42.8462 16.0123C41.9226 15.5164 40.919 15.1605 40.1355 14.4196H40.1327Z" fill="white"/>
<path d="M46.9522 19.7081C45.98 19.5418 45.5854 18.6696 44.9878 18.0424C46.2116 17.9023 46.5233 18.8738 46.9522 19.7081Z" fill="white"/>
<path d="M45.6284 16.8667C45.9001 16.8725 46.1746 16.8784 46.4491 16.8871C46.3347 17.5785 47.0381 17.7827 47.2468 18.2786C46.2946 18.299 46.0116 17.5231 45.6284 16.8667Z" fill="#E7EBF1"/>
<path d="M44.6646 17.7274C44.0613 17.2286 43.3665 16.8173 43.1206 15.9917C43.7897 16.4293 44.6132 16.721 44.6646 17.7274Z" fill="white"/>
<path d="M41.0507 13.331C40.942 13.4331 40.8334 13.5352 40.7247 13.6373C40.3559 13.3806 39.6382 13.6139 39.6382 12.838C40.1757 12.803 40.6361 13.0013 41.0507 13.331Z" fill="white"/>
<path d="M32.6441 12.4766C32.8471 12.567 33.053 12.6574 33.256 12.7479C32.8728 12.8237 32.4897 12.8996 32.1065 12.9754C32.0293 12.8587 31.9493 12.7391 31.8721 12.6224C32.1294 12.5728 32.3868 12.5262 32.6441 12.4766Z" fill="#FEFEFE"/>
<path d="M38.1369 12.7246C38.1369 12.6633 38.1341 12.5992 38.1255 12.5379C38.5372 12.535 38.9776 12.395 39.3007 12.8004C38.8861 13.1884 38.5287 12.6954 38.1369 12.7246Z" fill="#F8F9FB"/>
<path d="M47.8557 20.3614C47.7585 20.3672 47.6641 20.3701 47.5669 20.376C47.4983 20.4051 47.4296 20.4372 47.361 20.4664C47.3038 20.4168 47.2466 20.3672 47.1895 20.3176C47.2238 20.2505 47.2581 20.1805 47.2924 20.1134C47.5326 20.0726 47.7127 20.1747 47.8557 20.3614Z" fill="#FEFEFE"/>
<path d="M47.2924 20.1137C47.2838 20.1983 47.2724 20.2829 47.2638 20.3646C47.1552 20.4667 47.0637 20.4463 46.9922 20.3209C46.9922 20.2509 46.9922 20.1779 47.0008 20.1079C47.098 20.1079 47.1952 20.1079 47.2953 20.1108L47.2924 20.1137Z" fill="#C8D2E0"/>
<path d="M42.1827 12.4794C43.0863 12.8791 44.0756 13.127 44.7447 13.9468C44.6218 14.0868 44.4816 14.1043 44.3301 13.9993C43.5066 13.5909 42.6803 13.1825 41.8568 12.7741C41.8225 12.5115 41.8625 12.3307 42.1856 12.4794H42.1827Z" fill="white"/>
<path d="M38.6743 11.6625C38.7687 11.5809 38.863 11.5021 38.9574 11.4204C39.4806 11.5779 40.0668 11.5429 40.5157 11.9338C39.8266 12.3714 39.2691 11.8901 38.6772 11.6596L38.6743 11.6625Z" fill="white"/>
<path d="M42.1829 12.4791C42.0742 12.5783 41.9627 12.6745 41.854 12.7737C41.4366 12.5374 40.7332 12.7125 40.7046 11.9307C41.2193 12.0532 41.7482 12.1349 42.1829 12.4791Z" fill="white"/>
<path d="M44.3271 14.0022C44.4644 13.9847 44.6045 13.9672 44.7418 13.9497C45.0077 14.0664 45.2736 14.186 45.5395 14.3056C45.4366 14.396 45.3336 14.4836 45.2307 14.574C44.9305 14.3844 44.6302 14.1948 44.33 14.0051L44.3271 14.0022Z" fill="#E7EBF1"/>
<path d="M47.5299 20.7029C47.4469 20.7758 47.364 20.8487 47.2811 20.9217C47.2725 20.8371 47.2639 20.7495 47.2554 20.6649C47.304 20.6212 47.3526 20.5745 47.4012 20.5278C47.4527 20.5687 47.5041 20.6124 47.5556 20.6533L47.5299 20.7029Z" fill="#7088AD"/>
<path d="M46.9922 20.3237C47.0808 20.35 47.1723 20.3646 47.2638 20.3675C47.3382 20.4287 47.3668 20.4929 47.341 20.5571C47.3181 20.6213 47.2924 20.6534 47.2695 20.6534L47.2552 20.665C47.1666 20.5513 47.078 20.4404 46.9922 20.3266V20.3237Z" fill="#7088AD"/>
<path d="M37.7908 39.5361C37.4277 39.3844 36.9731 39.5448 36.6729 39.1919C36.6757 39.1394 36.6814 39.0839 36.6843 39.0314C36.6871 38.9293 36.69 38.8272 36.6929 38.728C37.1132 38.9206 37.665 38.9293 37.7908 39.5361Z" fill="#8A9EBC"/>
<path d="M41.8425 40.458C41.5337 40.3618 41.2278 40.2626 40.9189 40.1663C41.0247 40.0759 41.1305 39.9855 41.2363 39.895C41.7024 40.1226 42.3143 39.9213 42.6889 40.4114C42.4172 40.6243 42.1313 40.5806 41.8425 40.4551V40.458Z" fill="#F0F2F6"/>
<path d="M30.7056 36.3506V35.2188C32.201 36.7503 33.6535 38.0659 35.5436 38.7398C35.6494 39.084 35.4549 39.3262 35.2719 39.5712C33.7508 38.4977 32.2296 37.4241 30.7056 36.3506Z" fill="#EDF0F4"/>
<path d="M35.269 39.5711C35.3605 39.294 35.4492 39.0169 35.5407 38.7397C35.921 38.8389 36.3013 38.9352 36.6816 39.0344C36.6644 39.0869 36.6615 39.1423 36.6701 39.1977C36.2612 39.3524 35.5693 38.9469 35.5149 39.8016C35.432 39.7258 35.352 39.6499 35.269 39.5741V39.5711Z" fill="#E8ECF2"/>
<path d="M33.5762 17.2083C33.5762 17.2871 33.5505 17.36 33.5047 17.4271C33.1588 17.4505 32.8156 17.4709 32.4725 17.4942C32.2037 17.6255 32.1322 17.5088 32.1751 17.2492C32.6412 17.1471 33.1044 17.045 33.5705 16.9429C33.6649 16.9983 33.6992 17.0566 33.6677 17.1179C33.6391 17.1792 33.6077 17.2113 33.5791 17.2113L33.5762 17.2083Z" fill="#F5F7F9"/>
<path d="M32.1723 17.2461C32.2724 17.3278 32.3696 17.4095 32.4697 17.4911C32.1323 17.8383 31.6633 17.7391 31.2573 17.8558C31.3488 17.3219 31.8206 17.3774 32.1723 17.2461Z" fill="white"/>
<path d="M33.576 17.208C33.5731 17.1205 33.5702 17.0301 33.5674 16.9426C33.8476 16.9192 34.1307 16.893 34.4109 16.8696C34.5939 16.9455 34.7797 17.0242 34.9627 17.1001C34.4995 17.1351 34.0392 17.173 33.576 17.208Z" fill="#FEFEFE"/>
<path d="M33.8765 22.1675C33.9823 22.2579 34.0881 22.3483 34.1967 22.4388C34.0681 22.9435 33.7335 23.0572 33.2789 22.9405C33.1731 22.8501 33.0673 22.7597 32.9644 22.6692C33.2703 22.503 33.5734 22.3338 33.8793 22.1675H33.8765Z" fill="#91A4C0"/>
<path d="M34.1167 42.5033C34.0137 42.5908 33.9108 42.6783 33.8079 42.7659C33.3275 42.5733 32.85 42.3808 32.3696 42.1883C32.4783 42.0949 32.5841 42.0045 32.6927 41.9111C33.1674 42.1095 33.642 42.305 34.1167 42.5033Z" fill="white"/>
<path d="M41.8428 40.4581C42.1258 40.4435 42.4061 40.4289 42.6891 40.4143C43.1638 40.531 43.6442 40.0847 44.1159 40.4289C43.5183 40.9744 42.7921 40.5923 42.1344 40.7119C42.0372 40.6273 41.9428 40.5427 41.8456 40.461L41.8428 40.4581Z" fill="#91A5C0"/>
<path d="M33.276 22.9405C33.582 22.7742 33.8879 22.605 34.1939 22.4388C34.2768 22.4329 34.3597 22.4388 34.4398 22.4533C34.5456 22.5438 34.6542 22.6342 34.76 22.7246C34.5541 22.8413 34.3454 22.9609 34.1395 23.0776C33.845 23.2176 33.5505 23.3606 33.256 23.5006C33.1588 23.416 33.0616 23.3314 32.9644 23.2497C33.0673 23.1476 33.1731 23.0426 33.276 22.9405Z" fill="white"/>
<path d="M47.2699 20.6506C47.2699 20.5544 47.2699 20.461 47.2642 20.3647C47.3642 20.3677 47.4643 20.3735 47.5673 20.3764C47.5673 20.4668 47.5615 20.5602 47.5558 20.6506H47.4128H47.2699Z" fill="#C8D2E0"/>
</svg>
