<svg width="13" height="13" viewBox="0 0 13 13" fill="none" xmlns="http://www.w3.org/2000/svg">
<path d="M0.158834 0.925754C0.108477 0.875397 0.0685325 0.815615 0.0412797 0.749821C0.0140269 0.684027 5.30593e-10 0.613509 0 0.542294C-5.30594e-10 0.471079 0.0140269 0.400561 0.0412797 0.334767C0.0685325 0.268973 0.108477 0.209191 0.158834 0.158834C0.209191 0.108477 0.268973 0.0685325 0.334767 0.0412797C0.400561 0.0140269 0.471079 -5.30594e-10 0.542294 0C0.613509 5.30593e-10 0.684027 0.0140269 0.749821 0.0412797C0.815615 0.0685325 0.875397 0.108477 0.925754 0.158834L6.5 5.73416L12.0742 0.158834C12.1246 0.108477 12.1844 0.0685325 12.2502 0.0412797C12.316 0.0140269 12.3865 0 12.4577 0C12.5289 0 12.5994 0.0140269 12.6652 0.0412797C12.731 0.0685325 12.7908 0.108477 12.8412 0.158834C12.8915 0.209191 12.9315 0.268973 12.9587 0.334767C12.986 0.400561 13 0.471079 13 0.542294C13 0.613509 12.986 0.684027 12.9587 0.749821C12.9315 0.815615 12.8915 0.875397 12.8412 0.925754L7.26584 6.5L12.8412 12.0742C12.8915 12.1246 12.9315 12.1844 12.9587 12.2502C12.986 12.316 13 12.3865 13 12.4577C13 12.5289 12.986 12.5994 12.9587 12.6652C12.9315 12.731 12.8915 12.7908 12.8412 12.8412C12.7908 12.8915 12.731 12.9315 12.6652 12.9587C12.5994 12.986 12.5289 13 12.4577 13C12.3865 13 12.316 12.986 12.2502 12.9587C12.1844 12.9315 12.1246 12.8915 12.0742 12.8412L6.5 7.26584L0.925754 12.8412C0.875397 12.8915 0.815615 12.9315 0.749821 12.9587C0.684027 12.986 0.613509 13 0.542294 13C0.471079 13 0.400561 12.986 0.334767 12.9587C0.268973 12.9315 0.209191 12.8915 0.158834 12.8412C0.108477 12.7908 0.0685325 12.731 0.0412797 12.6652C0.0140269 12.5994 0 12.5289 0 12.4577C0 12.3865 0.0140269 12.316 0.0412797 12.2502C0.0685325 12.1844 0.108477 12.1246 0.158834 12.0742L5.73416 6.5L0.158834 0.925754Z" fill="#425AC5"/>
</svg>
